<svg width="1920" height="719" viewBox="0 0 1920 719" fill="none" xmlns="http://www.w3.org/2000/svg">
<path d="M1926.75 -364H0V350.875C25.5896 343.448 55.4944 349.169 74.2601 368.539C102.057 397.042 104.767 445.918 137.883 467.997C179.529 495.697 232.815 461.975 281.486 450.233C333.167 437.688 390.869 453.144 429.304 489.976C470.147 529.017 488.511 587.728 531.662 624.16C570.799 657.179 624.889 666.813 676.068 665.509C727.247 664.204 777.824 653.264 828.903 650.655C917.614 646.038 1007.43 666.813 1085 709.868C1093.13 714.385 1101.86 719.302 1111.09 717.998C1120.12 716.793 1127.15 709.868 1134.17 704.047C1177.42 668.018 1239.04 663.401 1294.73 671.631C1350.43 679.76 1404.22 698.929 1460.21 704.348C1509.99 709.166 1558.46 700.635 1599.8 671.731C1637.64 645.236 1648.57 606.396 1661.62 564.545C1678.98 508.543 1698.65 453.846 1727.25 402.461C1732.27 393.428 1737.59 384.396 1744.31 376.568C1769.9 346.66 1813.55 337.326 1852.49 343.248C1878.48 347.162 1902.97 356.897 1926.75 368.338V-364Z" fill="url(#paint0_linear_266_18275)"/>
<path opacity="0.3" d="M1784.35 -17.626C1706.58 -5.88373 1638.44 -67.4053 1562.77 -89.2841C1534.27 -97.5138 1504.27 -100.023 1474.56 -99.7218C1418.57 -99.0192 1362.47 -87.6784 1311.29 -64.7959C1265.93 -44.4226 1233.62 -8.09167 1184.25 3.04846C1135.28 14.0882 1081.59 1.44269 1042.75 -30.3719C1015.86 -52.3511 996.591 -82.1585 972.005 -106.747C888.311 -190.147 739.992 -197.273 648.572 -122.102C589.164 -73.3267 557.754 -37.0961 475.766 -45.5265C406.022 -52.6522 339.088 -92.6964 302.861 -153.214C277.873 -194.864 266.032 -245.045 244.456 -288H0V113.747C38.6353 112.242 77.6721 104.012 114.902 93.5746C210.236 66.6777 313.799 31.7519 395.385 112.141C444.557 160.516 471.853 239.199 538.787 255.759C571.803 263.988 607.929 254.253 639.841 265.996C690.017 284.462 703.364 340.464 739.189 374.286C776.018 409.111 836.831 416.438 886.405 417.843C905.07 418.344 925.04 417.642 940.595 407.204C953.239 398.573 961.066 384.723 968.392 371.275C1002.91 308.449 1054.19 232.375 1136.98 239.701C1177.73 243.314 1213.55 266.799 1249.58 286.269C1285.6 305.739 1327.55 321.897 1366.69 309.854C1402.71 298.714 1427.7 265.996 1445.26 232.676C1462.82 199.356 1475.97 163.025 1500.25 134.221C1552.64 71.7961 1648.88 59.1505 1724.54 89.259C1788.46 114.751 1847.87 167.34 1916.01 157.404C1919.72 156.903 1923.34 156.1 1926.95 155.197V-145.788C1894.74 -86.2733 1849.98 -27.5618 1784.35 -17.626Z" fill="url(#paint1_linear_266_18275)"/>
<path d="M0.12386 397.635C-1.9837 421.395 21.9983 470.883 134.289 478.659C252.839 486.868 268.557 512.412 283.53 536.745C286.285 541.223 289.015 545.659 292.356 549.939C313.854 577.48 347.996 605.02 468.127 583.15C588.258 561.279 705.861 553.99 795.643 605.83C867.469 647.302 936.997 652 962.562 652C988.127 652 1057.66 647.302 1129.48 605.83C1219.26 553.99 1336.87 561.279 1457 583.15C1577.13 605.02 1611.27 577.48 1632.77 549.939C1636.11 545.659 1638.84 541.223 1641.59 536.745C1656.57 512.412 1672.29 486.868 1790.83 478.659C1903.13 470.883 1926.98 421.419 1924.88 397.658V-665H1923.33C1916.14 -639.658 1883.78 -604.657 1790.83 -598.221C1672.29 -590.011 1656.57 -564.468 1641.59 -540.135C1638.84 -535.657 1636.11 -531.22 1632.77 -526.94C1611.27 -499.4 1577.13 -471.86 1457 -493.73C1336.87 -515.6 1219.26 -522.89 1129.48 -471.05C1057.66 -429.577 988.127 -424.879 962.562 -424.879C936.997 -424.879 867.469 -429.577 795.643 -471.05C705.861 -522.89 588.258 -515.6 468.127 -493.73C347.996 -471.86 313.854 -499.4 292.356 -526.94C289.015 -531.22 286.285 -535.657 283.53 -540.135C268.557 -564.468 252.838 -590.011 134.289 -598.221C41.3398 -604.657 8.98302 -639.658 1.78945 -665H0.248265L0.12386 397.635Z" fill="url(#paint2_linear_266_18275)"/>
<path d="M0.12386 336.314C-1.9837 358.703 21.9983 405.335 134.289 412.662C252.839 420.398 268.557 444.467 283.53 467.396C286.285 471.615 289.015 475.796 292.356 479.829C313.854 505.78 347.996 531.731 468.127 511.123C588.258 490.515 705.861 483.645 795.643 532.494C867.469 571.573 936.997 576 962.562 576C988.127 576 1057.66 571.573 1129.48 532.494C1219.26 483.645 1336.87 490.515 1457 511.123C1577.13 531.731 1611.27 505.78 1632.77 479.829C1636.11 475.796 1638.84 471.615 1641.59 467.396C1656.57 444.467 1672.29 420.398 1790.83 412.662C1903.13 405.335 1926.98 358.725 1924.88 336.336V-665H1923.33C1916.14 -641.12 1883.78 -608.139 1790.83 -602.074C1672.29 -594.339 1656.57 -570.269 1641.59 -547.34C1638.84 -543.121 1636.11 -538.94 1632.77 -534.907C1611.27 -508.956 1577.13 -483.005 1457 -503.613C1336.87 -524.221 1219.26 -531.091 1129.48 -482.242C1057.66 -443.163 988.127 -438.736 962.562 -438.736C936.997 -438.736 867.469 -443.163 795.643 -482.242C705.861 -531.091 588.258 -524.221 468.127 -503.613C347.996 -483.005 313.854 -508.956 292.356 -534.907C289.015 -538.94 286.285 -543.121 283.53 -547.34C268.557 -570.269 252.838 -594.339 134.289 -602.074C41.3398 -608.139 8.98302 -641.12 1.78945 -665H0.248265L0.12386 336.314Z" fill="url(#paint3_linear_266_18275)"/>
<defs>
<linearGradient id="paint0_linear_266_18275" x1="965.041" y1="20.1098" x2="1037.32" y2="1152.3" gradientUnits="userSpaceOnUse">
<stop stop-color="#E3E1E6"/>
<stop offset="1" stop-color="#FCFBFF"/>
</linearGradient>
<linearGradient id="paint1_linear_266_18275" x1="941.591" y1="-272.843" x2="1045.98" y2="959.592" gradientUnits="userSpaceOnUse">
<stop stop-color="#291076"/>
<stop offset="1" stop-color="#5327B2"/>
</linearGradient>
<linearGradient id="paint2_linear_266_18275" x1="529.102" y1="-11.8532" x2="1925" y2="-11.8532" gradientUnits="userSpaceOnUse">
<stop stop-color="#F3B975"/>
<stop offset="1" stop-color="#EF5223"/>
<stop offset="1" stop-color="#FF9474"/>
</linearGradient>
<linearGradient id="paint3_linear_266_18275" x1="529.102" y1="-49.5443" x2="1925" y2="-49.5443" gradientUnits="userSpaceOnUse">
<stop stop-color="#FF8B01"/>
<stop offset="1" stop-color="#EF5223"/>
</linearGradient>
</defs>
</svg>
