
<svg width="1920" height="1013" viewBox="0 0 1920 1013" fill="none" xmlns="http://www.w3.org/2000/svg">
<path d="M0.12386 688.912C-1.9837 719.185 21.9983 782.237 134.289 792.145C252.839 802.604 268.557 835.149 283.53 866.153C286.285 871.858 289.015 877.51 292.356 882.964C313.854 918.053 347.996 953.142 468.127 925.277C588.258 897.412 705.861 888.124 795.643 954.174C867.469 1007.01 936.997 1013 962.562 1013C988.127 1013 1057.66 1007.01 1129.48 954.174C1219.26 888.124 1336.87 897.412 1457 925.277C1577.13 953.142 1611.27 918.053 1632.77 882.964C1636.11 877.51 1638.84 871.858 1641.59 866.153C1656.57 835.149 1672.29 802.604 1790.83 792.145C1903.13 782.237 1926.98 719.214 1924.88 688.941V-665H1923.33C1916.14 -632.711 1883.78 -588.117 1790.83 -579.916C1672.29 -569.456 1656.57 -536.911 1641.59 -505.908C1638.84 -500.203 1636.11 -494.55 1632.77 -489.097C1611.27 -454.008 1577.13 -418.919 1457 -446.783C1336.87 -474.648 1219.26 -483.937 1129.48 -417.886C1057.66 -365.046 988.127 -359.061 962.562 -359.061C936.997 -359.061 867.469 -365.046 795.643 -417.886C705.861 -483.937 588.258 -474.648 468.127 -446.783C347.996 -418.919 313.854 -454.008 292.356 -489.097C289.015 -494.55 286.285 -500.203 283.53 -505.908C268.557 -536.911 252.838 -569.456 134.289 -579.916C41.3398 -588.117 8.98302 -632.711 1.78945 -665H0.248265L0.12386 688.912Z" fill="url(#paint0_linear_800_9)"/>
<path d="M0.12386 621.135C-1.9837 649.893 21.9983 709.789 134.289 719.201C252.839 729.137 268.557 760.052 283.53 789.504C286.285 794.923 289.015 800.293 292.356 805.473C313.854 838.806 347.996 872.138 468.127 845.668C588.258 819.198 705.861 810.375 795.643 873.119C867.469 923.314 936.997 929 962.562 929C988.127 929 1057.66 923.314 1129.48 873.119C1219.26 810.375 1336.87 819.198 1457 845.668C1577.13 872.138 1611.27 838.806 1632.77 805.473C1636.11 800.293 1638.84 794.923 1641.59 789.504C1656.57 760.052 1672.29 729.137 1790.83 719.201C1903.13 709.789 1926.98 649.921 1924.88 621.164V-665H1923.33C1916.14 -634.328 1883.78 -591.966 1790.83 -584.175C1672.29 -574.239 1656.57 -543.323 1641.59 -513.872C1638.84 -508.453 1636.11 -503.083 1632.77 -497.902C1611.27 -464.57 1577.13 -431.237 1457 -457.707C1336.87 -484.177 1219.26 -493.001 1129.48 -430.257C1057.66 -380.062 988.127 -374.376 962.562 -374.376C936.997 -374.376 867.469 -380.062 795.643 -430.257C705.861 -493.001 588.258 -484.177 468.127 -457.707C347.996 -431.237 313.854 -464.57 292.356 -497.902C289.015 -503.083 286.285 -508.453 283.53 -513.872C268.557 -543.323 252.838 -574.239 134.289 -584.175C41.3398 -591.966 8.98302 -634.328 1.78945 -665H0.248265L0.12386 621.135Z" fill="url(#paint1_linear_800_9)"/>
<defs>
<linearGradient id="paint0_linear_800_9" x1="529.102" y1="167.179" x2="1925" y2="167.179" gradientUnits="userSpaceOnUse">
<stop stop-color="#F3B975"/>
<stop offset="1" stop-color="#EF5223"/>
<stop offset="1" stop-color="#FF9474"/>
</linearGradient>
<linearGradient id="paint1_linear_800_9" x1="529.102" y1="125.521" x2="1925" y2="125.521" gradientUnits="userSpaceOnUse">
<stop stop-color="#FF8B01"/>
<stop offset="1" stop-color="#EF5223"/>
</linearGradient>
</defs>
</svg>
