<svg width="1920" height="337" viewBox="0 0 1920 337" fill="none" xmlns="http://www.w3.org/2000/svg">
  <g clip-path="url(#clip0_801_14)">
    <path d="M1.12386 1423.3C-0.983704 1455.13 22.9983 1521.41 135.289 1531.83C253.839 1542.82 269.557 1577.03 284.53 1609.63C287.285 1615.62 290.015 1621.57 293.356 1627.3C314.854 1664.19 348.996 1701.07 469.127 1671.78C589.258 1642.49 706.861 1632.72 796.643 1702.16C868.469 1757.71 937.997 1764 963.562 1764C989.127 1764 1058.66 1757.71 1130.48 1702.16C1220.26 1632.72 1337.87 1642.49 1458 1671.78C1578.13 1701.07 1612.27 1664.19 1633.77 1627.3C1637.11 1621.57 1639.84 1615.62 1642.59 1609.63C1657.57 1577.03 1673.29 1542.82 1791.83 1531.83C1904.13 1521.41 1927.98 1455.16 1925.88 1423.33V0H1924.33C1917.14 33.9434 1884.78 80.8235 1791.83 89.4449C1673.29 100.441 1657.57 134.654 1642.59 167.246C1639.84 173.243 1637.11 179.186 1633.77 184.919C1612.27 221.806 1578.13 258.693 1458 229.4C1337.87 200.107 1220.26 190.343 1130.48 259.779C1058.66 315.327 989.127 321.619 963.562 321.619C937.997 321.619 868.469 315.327 796.643 259.779C706.861 190.343 589.258 200.107 469.127 229.4C348.996 258.693 314.854 221.806 293.356 184.919C290.015 179.186 287.285 173.243 284.53 167.246C269.557 134.654 253.838 100.441 135.289 89.4449C42.3398 80.8235 9.98302 33.9434 2.78945 0H1.24826L1.12386 1423.3Z" fill="#FFF3E8"/>
  </g>
  <defs>
    <clipPath id="clip0_801_14">
      <rect width="1932" height="337" fill="white" transform="translate(-6)"/>
    </clipPath>
  </defs>
</svg>
