
<svg width="447" height="536" viewBox="0 0 447 536" fill="none" xmlns="http://www.w3.org/2000/svg">
<path d="M288.51 216.522C306.172 221.039 327.447 222.143 339.288 237.799C351.029 253.355 350.126 275.033 346.815 293.098L332.264 358.936C332.264 358.936 326.142 375.997 309.785 376.198C293.428 376.398 267.637 371.782 267.637 371.782L288.51 216.522Z" fill="url(#paint0_linear_217_13486)"/>
<path d="M123.031 474.452L85.4995 501.349L148.821 520.016L154.642 489.606L123.031 474.452Z" fill="url(#paint1_linear_217_13486)"/>
<path d="M167.988 455.985L134.07 439.225C128.149 457.189 122.931 474.351 122.931 474.351L154.541 489.506L167.988 455.985Z" fill="url(#paint2_linear_217_13486)"/>
<path d="M167.988 455.985L134.069 439.225C132.966 442.637 131.862 445.949 130.858 449.16L164.075 465.921L167.988 455.985Z" fill="url(#paint3_linear_217_13486)"/>
<path d="M195.886 317.185C195.886 317.185 168.189 341.774 163.774 357.731C159.358 373.689 224.988 383.524 224.988 383.524L249.073 355.925L253.689 342.978L195.886 317.185Z" fill="url(#paint4_linear_217_13486)"/>
<path d="M0 339.967L60.813 420.557L97.4413 415.639L120.723 334.046L93.628 324.712L0 339.967Z" fill="url(#paint5_linear_217_13486)"/>
<path d="M17.8626 363.653C25.5897 357.731 29.9048 347.896 28.6002 337.559C28.4998 336.856 28.3995 336.153 28.1988 335.351L0.100342 339.967L17.8626 363.653Z" fill="url(#paint6_linear_217_13486)"/>
<path d="M93.628 324.712L104.566 353.817L74.9626 368.47L86.6034 397.675L60.813 420.557L352.334 520.718L382.239 423.869L93.628 324.712Z" fill="url(#paint7_linear_217_13486)"/>
<path d="M423.985 438.12L402.51 430.794L372.103 527.442L391.07 533.966C408.531 539.987 427.598 530.654 433.518 513.191L444.657 480.674C450.779 463.211 441.446 444.142 423.985 438.12Z" fill="url(#paint8_linear_217_13486)"/>
<path d="M382.239 423.869L352.334 520.718L372.103 527.442L402.51 430.794L382.239 423.869Z" fill="url(#paint9_linear_217_13486)"/>
<path d="M373.91 450.867L104.366 354.319L104.767 353.215L374.211 449.863L373.91 450.867Z" fill="url(#paint10_linear_217_13486)"/>
<path d="M360.964 492.817L86.4026 398.277L86.7037 397.173L361.366 491.713L360.964 492.817Z" fill="url(#paint11_linear_217_13486)"/>
<path d="M281.085 396.972C289.113 385.933 299.85 368.47 298.847 354.118L245.761 343.981L226.794 375.696C226.794 375.696 217.963 391.352 226.393 407.109C234.822 422.866 270.247 469.132 270.247 469.132L301.054 452.372L280.282 419.855C275.866 412.729 276.167 403.697 281.085 396.972Z" fill="url(#paint12_linear_217_13486)"/>
<path d="M270.247 469.132V515.298L322.329 474.853L301.155 452.372L270.247 469.132Z" fill="url(#paint13_linear_217_13486)"/>
<path d="M281.687 421.862L248.27 439.626C259.409 454.981 270.247 469.232 270.247 469.232L301.054 452.472L281.687 421.862Z" fill="url(#paint14_linear_217_13486)"/>
<path d="M281.687 421.862L248.27 439.626C250.377 442.536 252.384 445.346 254.391 448.056L287.407 430.894L281.687 421.862Z" fill="url(#paint15_linear_217_13486)"/>
<path d="M188.56 218.63C188.56 218.63 157.05 185.812 155.545 129.609C155.545 129.609 143.101 125.695 137.281 114.154C131.561 102.712 134.07 100.806 135.474 100.605C136.879 100.404 140.191 101.609 143.101 109.236C143.101 109.236 135.374 88.4611 139.99 86.2532C144.606 84.0452 150.126 104.419 150.126 104.419C150.126 104.419 144.406 82.6402 148.621 81.4358C152.835 80.1311 156.849 95.6872 158.355 101.207C158.355 101.207 154.943 79.4286 159.76 79.9304C164.576 80.3319 167.587 105.322 167.587 105.322C167.587 105.322 170.096 93.6799 175.113 95.6872C180.131 97.6944 174.21 113.953 168.992 122.383C168.992 122.383 177.722 170.858 209.133 197.454L188.56 218.63Z" fill="url(#paint16_linear_217_13486)"/>
<path d="M241.446 218.73C241.446 218.73 222.479 204.278 213.448 190.228C213.448 190.228 192.374 207.59 185.45 219.232C185.45 219.232 204.717 252.151 225.189 255.764L241.446 218.73Z" fill="url(#paint17_linear_217_13486)"/>
<path d="M178.826 322.403C209.735 293.299 216.558 246.932 225.891 229.569C235.124 212.106 259.609 215.719 259.609 215.719L281.887 218.931C281.887 218.931 316.308 221.339 319.619 264.194C322.931 307.048 300.051 357.229 300.051 357.229C300.051 357.229 260.613 361.243 238.234 347.193C210.838 330.031 178.826 322.403 178.826 322.403Z" fill="url(#paint18_linear_217_13486)"/>
<path d="M289.614 226.358L298.144 194.242L261.315 184.808L253.087 217.024C253.087 217.024 253.889 229.168 270.949 231.777C270.849 231.677 285.099 235.39 289.614 226.358Z" fill="url(#paint19_linear_217_13486)"/>
<path d="M384.748 78.224L391.17 77.3208C391.17 77.3208 418.466 101.106 403.212 153.194L379.429 146.37L384.748 78.224Z" fill="url(#paint20_linear_217_13486)"/>
<path d="M404.416 149.581C403.513 148.477 402.309 147.373 401.005 146.47C392.374 140.047 380.633 140.448 373.308 148.778L355.244 187.217C369.093 194.744 385.851 191.833 397.492 181.596C406.925 173.266 412.746 159.316 404.416 149.581Z" fill="url(#paint21_linear_217_13486)"/>
<path d="M396.89 156.707C396.288 156.004 395.586 155.402 394.783 154.7C389.364 150.685 382.038 150.886 377.422 156.105L366.082 180.192C374.713 184.909 385.249 183.102 392.575 176.679C398.496 171.561 402.108 162.829 396.89 156.707Z" fill="url(#paint22_linear_217_13486)"/>
<path d="M312.796 36.574C312.796 36.574 244.757 20.8173 232.314 79.8298C232.314 79.8298 216.559 142.656 226.092 175.073C233.317 199.662 280.482 229.369 337.081 205.884C352.936 199.26 365.882 187.016 373.007 171.36C380.433 155.302 388.561 129.71 392.274 91.0703C392.274 91.0703 399.299 45.3055 312.796 36.574Z" fill="url(#paint23_linear_217_13486)"/>
<path d="M242.449 91.271C242.449 91.271 242.55 91.1707 242.851 90.9699C243.152 90.7692 243.553 90.4681 244.055 90.167C245.058 89.5649 246.664 88.8624 248.47 88.3605C249.373 88.0595 250.377 87.8587 251.481 87.658C252.585 87.4573 253.689 87.3569 254.792 87.3569C255.395 87.3569 255.997 87.3569 256.599 87.3569C257.201 87.3569 257.803 87.3569 258.405 87.4573C259.609 87.5576 260.814 87.7584 262.018 88.0595C263.222 88.3605 264.426 88.6616 265.53 89.0631C266.734 89.4645 267.838 89.9663 268.842 90.4681C269.343 90.7692 269.845 90.9699 270.347 91.271C270.849 91.5721 271.35 91.8732 271.752 92.1743C272.655 92.7764 273.458 93.479 274.16 94.1815C274.863 94.884 275.465 95.4862 275.967 96.0884C276.468 96.6906 276.87 97.3931 277.171 97.8949C277.472 98.3967 277.673 98.7981 277.873 99.0992C278.074 99.4003 278.074 99.601 278.074 99.601L277.773 100.203C277.773 100.203 277.271 100.002 276.368 99.5007C275.866 99.2999 275.365 98.9989 274.762 98.6978C274.16 98.3967 273.357 98.196 272.555 97.7945C271.752 97.3931 270.849 97.092 269.946 96.7909C269.444 96.5902 269.042 96.4898 268.541 96.2891C268.039 96.0884 267.537 95.988 267.035 95.7873C266.534 95.5866 266.032 95.4862 265.43 95.2855C264.928 95.1851 264.326 94.9844 263.824 94.884C262.72 94.583 261.616 94.3822 260.512 94.0812C258.305 93.5793 255.997 93.1779 253.889 92.7765C252.785 92.6761 251.782 92.4754 250.778 92.375C249.775 92.2746 248.872 92.1743 247.969 92.0739C246.263 91.9736 244.858 91.7728 243.854 91.7728C242.851 91.6725 242.249 91.6725 242.249 91.6725L242.449 91.271Z" fill="url(#paint24_linear_217_13486)"/>
<path d="M357.151 115.96C357.151 115.96 357.051 115.759 356.95 115.458C356.75 115.157 356.549 114.756 356.147 114.254C355.445 113.25 354.341 111.946 352.936 110.741C352.234 110.139 351.431 109.437 350.528 108.835C349.625 108.232 348.621 107.63 347.618 107.128C347.116 106.827 346.514 106.627 346.012 106.426C345.51 106.225 344.908 105.924 344.306 105.723C343.202 105.322 341.998 104.92 340.794 104.72C339.589 104.519 338.385 104.218 337.081 104.118C335.876 104.017 334.672 103.917 333.468 104.017C332.866 104.017 332.264 104.017 331.762 104.118C331.16 104.218 330.658 104.218 330.056 104.419C328.952 104.619 327.949 104.82 327.046 105.121C326.142 105.422 325.239 105.723 324.537 106.125C323.834 106.526 323.132 106.928 322.63 107.229C322.128 107.53 321.727 107.831 321.426 108.032C321.125 108.232 321.024 108.333 321.024 108.333V108.935C321.024 108.935 321.626 108.935 322.63 108.935C323.132 108.935 323.734 108.935 324.436 108.935C325.139 108.935 325.942 109.035 326.744 109.035C327.648 109.035 328.551 109.136 329.554 109.236C330.056 109.236 330.558 109.336 331.06 109.336C331.561 109.437 332.063 109.437 332.665 109.537C333.167 109.637 333.769 109.738 334.271 109.738C334.773 109.838 335.375 109.938 335.876 110.039C336.98 110.24 338.084 110.44 339.188 110.741C341.396 111.243 343.704 111.845 345.711 112.347C346.714 112.648 347.718 112.949 348.721 113.25C349.625 113.551 350.528 113.853 351.331 114.154C352.936 114.756 354.341 115.258 355.244 115.659C356.147 116.061 356.649 116.261 356.649 116.261L357.151 115.96Z" fill="url(#paint25_linear_217_13486)"/>
<path d="M257.903 120.175C256.799 125.896 252.585 130.011 248.571 129.208C244.557 128.405 242.248 123.086 243.352 117.365C244.456 111.645 248.671 107.53 252.685 108.333C256.699 109.136 259.007 114.455 257.903 120.175Z" fill="url(#paint26_linear_217_13486)"/>
<path d="M333.267 139.946C332.163 145.667 327.949 149.782 323.935 148.979C319.921 148.176 317.612 142.857 318.716 137.136C319.82 131.416 324.035 127.301 328.049 128.104C332.063 128.806 334.371 134.125 333.267 139.946Z" fill="url(#paint27_linear_217_13486)"/>
<path d="M288.009 130.813C288.009 130.813 280.683 135.832 278.174 142.455C277.07 145.466 277.873 148.979 280.382 150.986C282.088 152.492 284.898 153.997 289.112 155.001C289.012 155.201 275.364 146.169 288.009 130.813Z" fill="url(#paint28_linear_217_13486)"/>
<path d="M298.746 170.456C298.044 169.954 297.141 170.155 296.739 170.858C296.739 170.958 292.525 176.779 279.78 173.868C267.236 170.958 265.931 164.133 265.831 163.832C265.731 163.029 264.928 162.528 264.125 162.628C263.322 162.728 262.72 163.531 262.921 164.334C263.021 164.736 264.426 173.467 279.077 176.879C281.887 177.582 284.396 177.783 286.604 177.783C295.535 177.682 298.947 172.965 299.148 172.664C299.649 171.861 299.449 170.958 298.746 170.456Z" fill="url(#paint29_linear_217_13486)"/>
<path d="M383.242 142.556C383.242 142.556 372.103 119.573 378.024 79.0269L391.07 77.3208C391.17 77.3208 412.645 116.763 383.242 142.556Z" fill="url(#paint30_linear_217_13486)"/>
<path d="M307.577 0.845327C307.577 0.845327 257.201 -3.77131 250.277 8.57316C243.352 20.9176 274.762 31.556 274.762 31.556C274.762 31.556 221.877 19.7133 210.838 44.8037C199.8 69.8941 262.519 107.128 348.721 79.2277C348.721 79.2277 347.417 98.196 362.168 96.6906C376.82 95.1852 383.644 82.7403 383.644 82.7403C383.644 82.7403 408.23 82.0378 396.589 49.9221C382.138 10.2793 307.577 0.845327 307.577 0.845327Z" fill="url(#paint31_linear_217_13486)"/>
<path d="M298.245 297.313C284.195 266.803 300.653 226.558 300.753 226.358C297.241 223.849 294.231 221.44 291.22 220.336C288.611 226.859 279.178 252.251 280.683 275.836C281.787 294.503 284.697 315.278 310.488 328.425C311.792 324.21 312.996 319.694 314.2 314.977C307.577 310.862 301.857 305.141 298.245 297.313Z" fill="url(#paint32_linear_217_13486)"/>
<path d="M259.509 281.255C259.509 281.255 241.446 322.404 193.076 341.874C193.076 341.874 158.656 352.512 160.061 360.742C160.061 360.742 159.057 365.258 176.518 357.43C176.518 357.43 163.673 364.154 165.279 367.867C166.885 371.581 175.113 368.369 182.84 362.849C182.84 362.849 172.805 372.885 176.318 375.294C179.83 377.703 183.041 374.09 188.661 367.265C188.661 367.265 188.059 374.491 193.277 374.09C198.495 373.588 198.796 358.534 198.796 358.534C198.796 358.534 270.548 337.558 287.206 297.915L258.405 281.356" fill="url(#paint33_linear_217_13486)"/>
<path d="M290.518 304.539L308.581 276.94C314.903 267.305 312.193 254.459 302.66 248.136C293.026 241.813 280.181 244.523 273.859 254.057L255.796 281.657C255.696 281.657 269.644 298.417 290.518 304.539Z" fill="url(#paint34_linear_217_13486)"/>
<path d="M244.055 216.522C239.94 216.02 231.712 216.623 227.497 224.451C220.673 237.297 213.548 270.818 198.796 296.51C202.61 296.008 206.222 294.102 208.731 291.191C213.648 285.471 222.58 272.624 226.794 257.369C234.421 229.569 244.055 216.522 244.055 216.522Z" fill="url(#paint35_linear_217_13486)"/>
<defs>
<linearGradient id="paint0_linear_217_13486" x1="355.922" y1="303.819" x2="261.025" y2="292.364" gradientUnits="userSpaceOnUse">
<stop stop-color="#434478"/>
<stop offset="1" stop-color="#020741"/>
</linearGradient>
<linearGradient id="paint1_linear_217_13486" x1="84.1611" y1="509.781" x2="171.056" y2="488.663" gradientUnits="userSpaceOnUse">
<stop offset="0.00526316" stop-color="#0D1E86"/>
<stop offset="1" stop-color="#256AC5"/>
</linearGradient>
<linearGradient id="paint2_linear_217_13486" x1="148.867" y1="436.604" x2="141.785" y2="496.954" gradientUnits="userSpaceOnUse">
<stop stop-color="#D5DFFF"/>
<stop offset="1" stop-color="#F4FBFF"/>
</linearGradient>
<linearGradient id="paint3_linear_217_13486" x1="144.287" y1="461.381" x2="158.507" y2="435.467" gradientUnits="userSpaceOnUse">
<stop stop-color="#D5DFFF"/>
<stop offset="1" stop-color="#40A7F6"/>
</linearGradient>
<linearGradient id="paint4_linear_217_13486" x1="163.177" y1="356.693" x2="253.949" y2="344.533" gradientUnits="userSpaceOnUse">
<stop stop-color="#11A0A6"/>
<stop offset="1" stop-color="#004570"/>
</linearGradient>
<linearGradient id="paint5_linear_217_13486" x1="58.9872" y1="342.269" x2="118.298" y2="407.62" gradientUnits="userSpaceOnUse">
<stop stop-color="#FFAC9A"/>
<stop offset="0.261" stop-color="#FCA795"/>
<stop offset="0.5892" stop-color="#F49985"/>
<stop offset="0.952" stop-color="#E7826C"/>
<stop offset="0.9947" stop-color="#E57F68"/>
</linearGradient>
<linearGradient id="paint6_linear_217_13486" x1="1.66918" y1="334.249" x2="36.264" y2="358.995" gradientUnits="userSpaceOnUse">
<stop stop-color="#434478"/>
<stop offset="1" stop-color="#020741"/>
</linearGradient>
<linearGradient id="paint7_linear_217_13486" x1="199.229" y1="255.853" x2="237.595" y2="542.181" gradientUnits="userSpaceOnUse">
<stop stop-color="#F9B746"/>
<stop offset="1" stop-color="#ED7C13"/>
</linearGradient>
<linearGradient id="paint8_linear_217_13486" x1="476.21" y1="419.103" x2="365.273" y2="524.952" gradientUnits="userSpaceOnUse">
<stop stop-color="#FCACB5"/>
<stop offset="1" stop-color="#FF7063"/>
</linearGradient>
<linearGradient id="paint9_linear_217_13486" x1="394.083" y1="353.085" x2="374.061" y2="500.785" gradientUnits="userSpaceOnUse">
<stop offset="0.00526316" stop-color="#FE7B47"/>
<stop offset="1" stop-color="#E32931"/>
</linearGradient>
<linearGradient id="paint10_linear_217_13486" x1="349.481" y1="526.576" x2="677.881" y2="897.705" gradientUnits="userSpaceOnUse">
<stop stop-color="#F9B746"/>
<stop offset="1" stop-color="#ED7C13"/>
</linearGradient>
<linearGradient id="paint11_linear_217_13486" x1="319.51" y1="553.094" x2="647.911" y2="924.223" gradientUnits="userSpaceOnUse">
<stop stop-color="#F9B746"/>
<stop offset="1" stop-color="#ED7C13"/>
</linearGradient>
<linearGradient id="paint12_linear_217_13486" x1="237.343" y1="410.142" x2="370.134" y2="387.298" gradientUnits="userSpaceOnUse">
<stop stop-color="#11A0A6"/>
<stop offset="1" stop-color="#004570"/>
</linearGradient>
<linearGradient id="paint13_linear_217_13486" x1="266.357" y1="486.438" x2="322.867" y2="478.868" gradientUnits="userSpaceOnUse">
<stop offset="0.00526316" stop-color="#0D1E86"/>
<stop offset="1" stop-color="#256AC5"/>
</linearGradient>
<linearGradient id="paint14_linear_217_13486" x1="257.666" y1="432.41" x2="303.089" y2="464.867" gradientUnits="userSpaceOnUse">
<stop stop-color="#D5DFFF"/>
<stop offset="1" stop-color="#F4FBFF"/>
</linearGradient>
<linearGradient id="paint15_linear_217_13486" x1="269.684" y1="453.43" x2="265.769" y2="414.777" gradientUnits="userSpaceOnUse">
<stop stop-color="#D5DFFF"/>
<stop offset="1" stop-color="#40A7F6"/>
</linearGradient>
<linearGradient id="paint16_linear_217_13486" x1="196.458" y1="172.772" x2="257.402" y2="238.535" gradientUnits="userSpaceOnUse">
<stop stop-color="#FFAC9A"/>
<stop offset="0.9947" stop-color="#E57F68"/>
</linearGradient>
<linearGradient id="paint17_linear_217_13486" x1="232.069" y1="249.562" x2="195.587" y2="189.523" gradientUnits="userSpaceOnUse">
<stop offset="0.00526316" stop-color="#0D1E86"/>
<stop offset="1" stop-color="#256AC5"/>
</linearGradient>
<linearGradient id="paint18_linear_217_13486" x1="193.719" y1="347.913" x2="329.733" y2="238.233" gradientUnits="userSpaceOnUse">
<stop offset="0.00526316" stop-color="#0D1E86"/>
<stop offset="1" stop-color="#256AC5"/>
</linearGradient>
<linearGradient id="paint19_linear_217_13486" x1="271.175" y1="224.932" x2="279.812" y2="186.807" gradientUnits="userSpaceOnUse">
<stop stop-color="#FFAC9A"/>
<stop offset="0.9947" stop-color="#E57F68"/>
</linearGradient>
<linearGradient id="paint20_linear_217_13486" x1="397.022" y1="161" x2="386.841" y2="75.0422" gradientUnits="userSpaceOnUse">
<stop stop-color="#434478"/>
<stop offset="1" stop-color="#020741"/>
</linearGradient>
<linearGradient id="paint21_linear_217_13486" x1="387.91" y1="171.937" x2="351.862" y2="152.266" gradientUnits="userSpaceOnUse">
<stop stop-color="#FFAC9A"/>
<stop offset="0.9947" stop-color="#E57F68"/>
</linearGradient>
<linearGradient id="paint22_linear_217_13486" x1="420.735" y1="193.329" x2="362.237" y2="155.729" gradientUnits="userSpaceOnUse">
<stop stop-color="#FFAC9A"/>
<stop offset="0.9947" stop-color="#E57F68"/>
</linearGradient>
<linearGradient id="paint23_linear_217_13486" x1="291.793" y1="146.101" x2="380.046" y2="-39.4932" gradientUnits="userSpaceOnUse">
<stop stop-color="#FFAC9A"/>
<stop offset="0.9947" stop-color="#E57F68"/>
</linearGradient>
<linearGradient id="paint24_linear_217_13486" x1="252.573" y1="69.7513" x2="268.906" y2="124.438" gradientUnits="userSpaceOnUse">
<stop stop-color="#434478"/>
<stop offset="1" stop-color="#020741"/>
</linearGradient>
<linearGradient id="paint25_linear_217_13486" x1="332.104" y1="72.9079" x2="341.794" y2="127.537" gradientUnits="userSpaceOnUse">
<stop stop-color="#434478"/>
<stop offset="1" stop-color="#020741"/>
</linearGradient>
<linearGradient id="paint26_linear_217_13486" x1="245.876" y1="93.6006" x2="253.944" y2="136.122" gradientUnits="userSpaceOnUse">
<stop stop-color="#434478"/>
<stop offset="1" stop-color="#020741"/>
</linearGradient>
<linearGradient id="paint27_linear_217_13486" x1="321.641" y1="97.6833" x2="327.356" y2="150.946" gradientUnits="userSpaceOnUse">
<stop stop-color="#434478"/>
<stop offset="1" stop-color="#020741"/>
</linearGradient>
<linearGradient id="paint28_linear_217_13486" x1="259.892" y1="158.446" x2="280.388" y2="147.385" gradientUnits="userSpaceOnUse">
<stop stop-color="#FFAC9A"/>
<stop offset="0.9947" stop-color="#E57F68"/>
</linearGradient>
<linearGradient id="paint29_linear_217_13486" x1="264.493" y1="106.996" x2="276.857" y2="152.103" gradientUnits="userSpaceOnUse">
<stop stop-color="#434478"/>
<stop offset="1" stop-color="#020741"/>
</linearGradient>
<linearGradient id="paint30_linear_217_13486" x1="394.063" y1="162.83" x2="383.131" y2="70.5309" gradientUnits="userSpaceOnUse">
<stop stop-color="#434478"/>
<stop offset="1" stop-color="#020741"/>
</linearGradient>
<linearGradient id="paint31_linear_217_13486" x1="222.612" y1="-128.832" x2="338.36" y2="131.529" gradientUnits="userSpaceOnUse">
<stop stop-color="#434478"/>
<stop offset="1" stop-color="#020741"/>
</linearGradient>
<linearGradient id="paint32_linear_217_13486" x1="352.856" y1="274.688" x2="262.435" y2="274.166" gradientUnits="userSpaceOnUse">
<stop stop-color="#434478"/>
<stop offset="1" stop-color="#020741"/>
</linearGradient>
<linearGradient id="paint33_linear_217_13486" x1="208.904" y1="345.113" x2="321.595" y2="244.587" gradientUnits="userSpaceOnUse">
<stop stop-color="#FFAC9A"/>
<stop offset="0.9947" stop-color="#E57F68"/>
</linearGradient>
<linearGradient id="paint34_linear_217_13486" x1="243.678" y1="286.117" x2="349.132" y2="259.669" gradientUnits="userSpaceOnUse">
<stop offset="0.00526316" stop-color="#0D1E86"/>
<stop offset="1" stop-color="#256AC5"/>
</linearGradient>
<linearGradient id="paint35_linear_217_13486" x1="142.635" y1="212.388" x2="244.858" y2="269.604" gradientUnits="userSpaceOnUse">
<stop stop-color="#434478"/>
<stop offset="1" stop-color="#020741"/>
</linearGradient>
</defs>
</svg>
