
<svg width="330" height="339" viewBox="0 0 330 339" fill="none" xmlns="http://www.w3.org/2000/svg">
<mask id="mask0_217_14923" style="mask-type:luminance" maskUnits="userSpaceOnUse" x="0" y="0" width="330" height="339">
<rect width="330" height="338.8" fill="white"/>
</mask>
<g mask="url(#mask0_217_14923)">
<path fill-rule="evenodd" clip-rule="evenodd" d="M150.097 181.328C150.097 181.328 161.393 179.495 167.016 181.519C171.084 182.983 175.967 186.475 177.277 197.028C177.277 197.028 163.827 200.988 150.098 201.118C150.097 201.119 147.985 188.78 150.097 181.328V181.328Z" fill="#F3AE92"/>
<path opacity="0.5" fill-rule="evenodd" clip-rule="evenodd" d="M160.304 200.399C160.667 197.283 160.991 192.031 159.6 188.857C158.456 186.243 154.63 184.072 149.64 183.339C148.327 190.803 150.091 201.115 150.091 201.115C153.506 201.068 156.916 200.829 160.304 200.399H160.304Z" fill="#EB7C74"/>
<path opacity="0.2" fill-rule="evenodd" clip-rule="evenodd" d="M167.015 181.517C164.282 180.732 161.436 180.414 158.597 180.577C161.398 180.701 170.313 182.854 172.897 188.799C174.043 191.613 174.855 194.551 175.318 197.554C176.566 197.233 177.276 197.026 177.276 197.026C175.965 186.473 171.082 182.982 167.015 181.517V181.517Z" fill="white"/>
<path fill-rule="evenodd" clip-rule="evenodd" d="M66.0706 194.144C60.8223 192.539 61.1057 192.259 56.2665 190.509C51.4274 188.758 50.7999 188.573 46.635 187.025C42.47 185.477 27.7211 183.45 21.188 202.62C14.4543 222.375 21.9545 228.821 26.358 232.088C33.1938 237.159 49.0004 242.905 53.5765 244.777C53.5755 244.777 44.61 212.38 66.0706 194.144V194.144Z" fill="#F29297"/>
<path fill-rule="evenodd" clip-rule="evenodd" d="M66.0706 194.144C60.8223 192.539 61.1057 192.259 56.2665 190.509C51.4274 188.758 50.7999 188.573 46.635 187.025C42.47 185.477 27.7211 183.45 21.188 202.62C14.4543 222.375 21.9545 228.821 26.358 232.088C33.1938 237.159 49.0004 242.905 53.5765 244.777C53.5755 244.777 44.61 212.38 66.0706 194.144V194.144Z" fill="#F29297"/>
<path fill-rule="evenodd" clip-rule="evenodd" d="M64.9923 194.475C57.9523 192.589 48.3815 188.76 45.0524 187.929C41.7233 187.097 36.7293 187.345 33.9829 189.676C31.2364 192.007 37.9913 189.651 46.0627 192.397C54.134 195.144 57.5326 196.785 60.221 197.816C62.9093 198.848 64.9923 194.475 64.9923 194.475V194.475Z" fill="#F5A9A7"/>
<path opacity="0.5" fill-rule="evenodd" clip-rule="evenodd" d="M42.2853 211.353C37.5184 209.186 32.3211 207.008 29.2613 203.598C23.0511 196.677 27.951 191.102 31.8274 188.374C27.7679 190.638 23.8141 194.915 21.1882 202.62C14.4545 222.375 21.9547 228.821 26.3574 232.088C33.1941 237.159 49.0006 242.905 53.5767 244.778C53.5767 244.778 49.7284 230.867 53.1121 216.146C49.379 214.541 45.7587 212.932 42.2853 211.353V211.353Z" fill="#EC6469"/>
<path opacity="0.5" fill-rule="evenodd" clip-rule="evenodd" d="M26.8661 192.4C24.3036 195.39 22.3715 198.867 21.1857 202.622C14.452 222.377 21.9522 228.823 26.3549 232.089C33.1916 237.161 48.9981 242.906 53.5742 244.779C52.345 239.719 51.7247 234.531 51.7261 229.324C44.3159 226.357 37.182 222.741 30.4073 218.52C16.0711 209.15 26.0274 193.654 26.8661 192.4V192.4Z" fill="#E73555"/>
<path fill-rule="evenodd" clip-rule="evenodd" d="M83.9228 253.607C83.4497 254.25 82.6805 254.607 81.8838 254.552C80.1053 254.522 76.5633 252.8 67.495 249.942C60.2042 247.644 55.6343 246.727 54.2677 245.505C50.863 242.46 46.6328 231.018 49.748 216.654C52.6609 203.226 61.496 196.097 64.5321 194.675C67.018 193.511 69.7056 193.755 74.7955 195.272C77.8753 196.189 81.011 196.907 84.1832 197.42C85.9926 197.714 87.7253 197.927 89.3612 198.077C93.6689 198.471 92.8707 200.077 92.8707 200.077C92.8707 200.077 78.0075 205.617 74.6063 221.821C70.3224 242.228 83.9228 253.607 83.9228 253.607V253.607Z" fill="#16A461"/>
<path fill-rule="evenodd" clip-rule="evenodd" d="M64.9913 194.476C64.8373 194.536 64.6834 194.602 64.5302 194.674C62.9514 195.512 61.4995 196.571 60.2183 197.817C66.7473 200.406 73.4296 202.59 80.2273 204.356C80.2276 204.356 84.0521 203.99 86.9622 203.384C88.0015 202.648 88.9731 202.045 89.8161 201.568C89.0009 201.156 88.127 200.873 87.2254 200.728C79.9047 199.155 69.4608 195.903 64.9913 194.476V194.476Z" fill="#3EC664"/>
<path fill-rule="evenodd" clip-rule="evenodd" d="M50.1793 214.933C50.0288 215.499 49.8766 216.062 49.7482 216.653C46.6329 231.017 50.8631 242.459 54.2678 245.505C55.6344 246.727 60.2051 247.645 67.4951 249.942C76.5636 252.8 80.1055 254.523 81.8839 254.552C82.6806 254.607 83.4498 254.25 83.9229 253.607C83.9229 253.607 71.5932 243.276 74.1232 224.659C65.8082 221.59 57.7297 218.254 50.1793 214.933V214.933Z" fill="#16935D"/>
<path fill-rule="evenodd" clip-rule="evenodd" d="M81.8849 254.551C82.6814 254.605 83.4506 254.249 83.9237 253.605C80.3457 250.25 77.6055 246.1 75.9238 241.492L68.9718 235.711C68.9718 235.711 59.4581 232.723 48.6869 228.045C48.9694 236.831 51.8311 243.321 54.2705 245.502C55.6371 246.725 60.2078 247.642 67.4977 249.939C76.5644 252.798 80.1064 254.522 81.8849 254.551V254.551Z" fill="#0E7F4C"/>
<path fill-rule="evenodd" clip-rule="evenodd" d="M61.9703 221.192C65.0547 202.946 81.6462 197.755 83.6817 197.329C80.9089 196.86 78.1649 196.235 75.4624 195.458H75.4501C72.6676 195.765 58.4159 202.234 55.8437 218.584C53.3507 234.424 59.7025 245.919 61.9395 248.269V248.269C63.5649 248.739 65.4146 249.281 67.4949 249.935C68.5289 250.262 69.482 250.57 70.3778 250.865V250.865C70.3778 250.865 59.0074 238.719 61.9703 221.192V221.192Z" fill="#FFD348"/>
<path fill-rule="evenodd" clip-rule="evenodd" d="M72.0612 196.668C70.1038 197.632 68.2597 198.81 66.5629 200.182C68.6697 200.926 70.9875 201.704 73.4031 202.447C75.3142 201.021 77.3732 199.805 79.5446 198.82C76.9839 198.122 74.4029 197.372 72.0612 196.668V196.668Z" fill="#FFE568"/>
<g style="mix-blend-mode:multiply" opacity="0.1">
<path fill-rule="evenodd" clip-rule="evenodd" d="M70.3743 250.871H70.3796C70.3796 250.871 59.0074 238.721 61.9703 221.195C62.0381 220.797 62.119 220.412 62.1991 220.027C60.1217 219.181 58.0716 218.331 56.0488 217.475C55.9766 217.844 55.9035 218.215 55.8437 218.596C53.3507 234.436 59.7025 245.93 61.9395 248.281V248.281L61.9535 248.286L62.9647 248.579L63.3378 248.688L64.2117 248.945L64.6728 249.082C64.9808 249.17 65.2976 249.271 65.6179 249.368L66.05 249.498C66.519 249.642 66.9986 249.79 67.494 249.946C68.0168 250.111 68.5183 250.271 69.0015 250.427C69.4847 250.583 69.9335 250.725 70.3743 250.871V250.871Z" fill="#E85D1C"/>
</g>
<g style="mix-blend-mode:multiply" opacity="0.3">
<path fill-rule="evenodd" clip-rule="evenodd" d="M69.0062 250.424C69.4699 250.573 69.9134 250.718 70.3455 250.864L70.3772 250.874H70.3825C66.1298 245.855 63.2611 239.814 62.0603 233.346C60.1569 232.658 57.9516 231.834 55.5623 230.893C56.6183 240.208 60.3381 246.593 61.9423 248.279V248.279H61.9511L62.9596 248.571H62.9684L63.2369 248.649C63.6404 248.767 64.0564 248.889 64.4847 249.017L64.6765 249.074V249.074L65.6102 249.356H65.619L66.0511 249.486V249.486C66.5192 249.63 66.998 249.777 67.4925 249.933C68.0152 250.099 68.5167 250.259 68.9999 250.414L69.0062 250.424Z" fill="#E85D1C"/>
</g>
<path fill-rule="evenodd" clip-rule="evenodd" d="M242.609 177.377C242.609 177.377 239.894 176.398 229.748 180.332C219.601 184.267 160.169 204.908 92.8732 200.075C92.8732 200.075 78.9991 198.174 70.5089 217.726C62.0187 237.278 78.5213 251.121 78.5213 251.121C78.5213 251.121 101.617 264.305 157.363 266.89C210.982 269.377 236.846 263.37 248.203 260.466C259.988 257.454 264.027 255.051 264.715 253.534C265.372 252.077 242.609 177.377 242.609 177.377V177.377Z" fill="#FFD348"/>
<g style="mix-blend-mode:multiply" opacity="0.1">
<path fill-rule="evenodd" clip-rule="evenodd" d="M135.625 238.222C114.909 238.166 90.804 231.161 68.8445 222.67C64.7604 239.566 78.5166 251.12 78.5166 251.12C78.5166 251.12 101.613 264.304 157.358 266.889C210.978 269.376 236.841 263.369 248.198 260.465C259.983 257.453 264.022 255.05 264.711 253.532C264.878 253.164 263.533 248.065 261.436 240.67L220.191 231.011C220.191 231.011 183.314 238.352 135.625 238.222V238.222Z" fill="#E85D1C"/>
</g>
<path fill-rule="evenodd" clip-rule="evenodd" d="M242.608 177.377C242.608 177.377 239.894 176.398 229.747 180.332C219.6 184.267 160.166 204.908 92.8689 200.075C92.8689 200.075 81.1552 198.485 72.6686 213.396C128.583 232.025 193.202 217.726 213.832 211.201L243.683 201.355L248.15 195.684C244.972 185.129 242.608 177.377 242.608 177.377V177.377Z" fill="#FFDA60"/>
<path fill-rule="evenodd" clip-rule="evenodd" d="M228.64 190.448C228.64 190.448 243.647 178.963 238.62 180.072C233.594 181.18 211.629 192.157 165.744 199.588C139.765 203.776 113.315 204.159 87.2259 200.723C84.6843 201.477 82.3097 202.709 80.2292 204.352C91.729 207.065 113.728 211.197 143.867 209.18C192.2 205.949 220.073 194.095 228.64 190.448V190.448Z" fill="#FFE568"/>
<path d="M72.6686 213.397C128.583 232.026 193.202 217.727 213.832 211.202" stroke="#FFEAA8" stroke-width="3"/>
<path fill-rule="evenodd" clip-rule="evenodd" d="M226.03 244.564C217.078 247.741 148.258 263.017 68.9719 235.71C70.6604 241.634 73.9654 246.971 78.5163 251.122C78.5163 251.122 101.612 264.305 157.358 266.89C210.977 269.377 236.841 263.37 248.198 260.466C259.983 257.454 264.022 255.052 264.71 253.534C264.922 253.066 262.702 244.989 259.597 234.262L226.03 244.564Z" fill="#FECB2F"/>
<g style="mix-blend-mode:multiply" opacity="0.3">
<path fill-rule="evenodd" clip-rule="evenodd" d="M264.712 253.532C264.652 252.621 264.481 251.722 264.204 250.852L245.423 249.986C223.734 259.833 130.257 272.23 68.9733 235.711C69.7302 238.529 70.8954 241.221 72.4318 243.702C74.0854 246.461 76.1357 248.961 78.5171 251.122C78.5169 251.122 101.613 264.306 157.359 266.891C210.978 269.378 236.841 263.371 248.199 260.467C259.984 257.452 264.024 255.049 264.712 253.532V253.532Z" fill="#E85D1C"/>
</g>
<path d="M226.03 244.565C217.078 247.742 148.258 263.017 68.9719 235.711" stroke="#FFE568" stroke-width="3"/>
<path fill-rule="evenodd" clip-rule="evenodd" d="M91.9297 224.673C87.2973 223.675 85.049 223.165 81.7437 222.613C75.9965 221.655 75.2485 229.18 79.6907 231.677C83.1357 233.59 86.8588 234.952 90.7251 235.714C93.005 236.227 95.3413 236.447 97.677 236.367C99.9087 236.248 101.989 234.93 102.491 232.929C103.155 230.468 101.925 227.89 99.5945 226.857C97.1238 225.861 94.5546 225.129 91.9297 224.673V224.673Z" fill="#16A461"/>
<path fill-rule="evenodd" clip-rule="evenodd" d="M79.6901 231.674C83.1351 233.587 86.8582 234.949 90.7244 235.711C93.0044 236.224 95.3407 236.444 97.6763 236.365C99.6234 236.337 101.396 235.236 102.282 233.502C93.8167 231.382 85.2719 228.686 76.9304 225.688C76.4808 228.068 77.5887 230.471 79.6901 231.674V231.674Z" fill="#16935D"/>
<path fill-rule="evenodd" clip-rule="evenodd" d="M95.1026 234.413C94.5746 234.374 94.3158 234.35 93.7958 234.294C93.2678 233.73 93.0109 233.443 92.518 232.862C89.621 229.381 88.566 227.586 86.696 226.935C85.4349 226.495 84.0314 226.543 83.22 228.117C82.8246 228.975 82.814 229.961 83.191 230.828C82.5688 230.798 82.2573 230.777 81.6342 230.722C81.217 229.551 81.3347 228.257 81.9563 227.181C82.9331 225.34 85.1567 224.554 87.0734 225.371C89.262 226.137 90.5855 228.112 92.9368 230.964C93.2748 231.395 93.4482 231.609 93.8055 232.031L93.8504 232.036C94.3053 229.938 94.4963 228.884 94.7999 226.778C95.3841 226.836 95.6799 226.859 96.2695 226.892C96.0301 229.42 95.6403 231.931 95.1027 234.413L95.1026 234.413Z" fill="#FFD348"/>
<path fill-rule="evenodd" clip-rule="evenodd" d="M242.609 177.376C239.969 178.08 231.557 186.381 225.823 193.995C220.089 201.608 214.25 208.075 213.832 211.201C213.414 214.328 218.107 225.172 220.192 231.011C222.276 236.85 225.092 243.419 226.03 244.563C226.969 245.707 240.106 248.523 245.423 249.985C250.74 251.446 262.835 253.945 264.712 253.53C266.589 253.116 284.534 234.198 293.597 221.8C300.417 212.569 306.646 202.915 312.247 192.897C312.976 191.334 312.985 188.471 309.127 187.845C305.269 187.22 287.752 184.996 273.886 182.841C260.913 180.825 245.528 176.601 242.609 177.376V177.376Z" fill="#F8E9D0"/>
<path fill-rule="evenodd" clip-rule="evenodd" d="M310.806 188.364C310.276 188.107 309.71 187.932 309.127 187.846C305.27 187.22 287.752 184.997 273.887 182.842C260.913 180.825 245.528 176.601 242.608 177.376C239.968 178.08 231.556 186.381 225.822 193.995C221.126 200.231 216.364 205.692 214.564 209.184C217.857 208.142 230.412 205.928 256.333 201.116C261.16 200.22 266.966 199.082 271.733 198.238C284.965 195.833 298.019 192.534 310.806 188.363L310.806 188.364Z" fill="#FCF1E0"/>
<path fill-rule="evenodd" clip-rule="evenodd" d="M310.805 188.362V188.362C313.578 191.895 308.365 195.445 302.724 200.291C297.084 205.136 284.185 214.47 260.273 221.8C235.528 229.386 230.129 229.386 220.194 231.009C222.278 236.848 225.094 243.417 226.032 244.561C226.97 245.705 240.108 248.521 245.425 249.982C250.742 251.444 262.837 253.942 264.714 253.528C266.591 253.114 284.536 234.196 293.599 221.798C300.418 212.567 306.647 202.913 312.247 192.895C312.677 192.106 312.766 191.177 312.494 190.321C312.222 189.465 311.612 188.758 310.805 188.362V188.362Z" fill="#F5DFCE"/>
<path fill-rule="evenodd" clip-rule="evenodd" d="M304.036 188.804C304.036 188.804 285.523 187.715 271.712 185.34C259.113 183.174 241.968 179.62 238.624 180.076C235.037 183.275 231.701 186.744 228.644 190.453C229.937 189.609 235.987 189.475 253.284 190.459C267.82 191.285 295.808 191.051 304.036 188.804V188.804Z" fill="#FFF8ED"/>
<path fill-rule="evenodd" clip-rule="evenodd" d="M310.415 196.206C302.099 209.934 275.192 236.429 245.424 249.985C250.742 251.445 262.836 253.945 264.713 253.531C266.59 253.117 284.535 234.199 293.598 221.801C301.414 211.109 307.502 201.229 310.414 196.206H310.415Z" fill="#EDC1AD"/>
<path fill-rule="evenodd" clip-rule="evenodd" d="M309.128 187.845C305.573 187.268 290.423 185.335 277.217 183.349V183.349C277.217 183.349 268.236 191.345 273.214 205.687C278.192 220.03 293.597 221.799 293.597 221.799C300.418 212.568 306.647 202.915 312.247 192.897C312.978 191.333 312.986 188.471 309.128 187.845V187.845Z" fill="#194A72"/>
<path fill-rule="evenodd" clip-rule="evenodd" d="M308.609 187.764L308.278 187.714L308.091 187.686L307.76 187.637L307.496 187.599L307.17 187.552L306.871 187.509L306.51 187.458L306.198 187.414L305.769 187.354L305.488 187.315L304.96 187.242L304.706 187.208C298.36 186.328 287.233 184.855 277.219 183.35V183.35C273.37 187.314 271.378 192.722 271.736 198.236C292.707 194.52 313.158 189.466 309.13 187.845L308.742 187.784L308.609 187.764Z" fill="#29688C"/>
<path fill-rule="evenodd" clip-rule="evenodd" d="M312.398 192.511C312.421 192.445 312.443 192.378 312.463 192.31C312.475 192.267 312.486 192.222 312.497 192.18C312.513 192.118 312.526 192.055 312.54 191.992C312.55 191.943 312.56 191.892 312.569 191.841C312.578 191.791 312.585 191.724 312.593 191.665C312.601 191.607 312.607 191.554 312.611 191.497C312.611 191.453 312.611 191.409 312.616 191.363C312.623 191.223 312.62 191.082 312.609 190.942C312.609 190.911 312.609 190.88 312.602 190.849C312.593 190.769 312.581 190.69 312.567 190.61C312.561 190.578 312.556 190.545 312.549 190.513C312.532 190.431 312.512 190.35 312.487 190.269C312.479 190.242 312.471 190.217 312.462 190.191C312.433 190.103 312.402 190.015 312.365 189.931L312.357 189.911C312.219 189.601 312.028 189.317 311.793 189.073L311.785 189.065C311.707 188.985 311.624 188.909 311.538 188.837L311.483 188.791C311.394 188.72 311.301 188.652 311.205 188.59C311.182 188.575 311.158 188.561 311.136 188.547C311.031 188.482 310.923 188.417 310.805 188.359V188.359C313.578 191.893 308.365 195.442 302.724 200.288C299.084 203.415 290.394 208.576 279.186 214.924C285.346 220.625 293.608 222.111 293.597 221.798C300.417 212.567 306.646 202.913 312.247 192.895C312.289 192.807 312.328 192.71 312.364 192.612C312.377 192.58 312.387 192.541 312.398 192.511V192.511Z" fill="#123668"/>
<path fill-rule="evenodd" clip-rule="evenodd" d="M272.706 190.893C285.44 190.854 298.776 190.24 304.034 188.804C304.034 188.804 288.381 187.883 275.123 185.888C274.086 187.435 273.273 189.119 272.706 190.893V190.893Z" fill="#3C8DAA"/>
<path fill-rule="evenodd" clip-rule="evenodd" d="M295.207 219.573C295.61 219.011 296.008 218.452 296.401 217.895L296.455 217.82C296.866 217.24 297.268 216.665 297.663 216.094L297.963 215.661C298.326 215.138 298.685 214.619 299.038 214.104C299.069 214.058 299.101 214.011 299.132 213.966C299.511 213.41 299.884 212.861 300.25 212.318C300.343 212.18 300.436 212.042 300.528 211.906C300.853 211.422 301.173 210.943 301.488 210.47L301.613 210.282C301.965 209.754 302.308 209.235 302.64 208.724L302.878 208.359C303.175 207.903 303.467 207.454 303.754 207.012C303.793 206.95 303.834 206.888 303.873 206.828C304.193 206.332 304.505 205.846 304.808 205.37L305.007 205.057C305.274 204.638 305.536 204.225 305.791 203.819L305.902 203.643C306.192 203.182 306.472 202.733 306.744 202.296C306.79 202.223 306.832 202.15 306.879 202.078C307.125 201.68 307.365 201.292 307.598 200.914C307.624 200.869 307.652 200.825 307.679 200.781C307.936 200.361 308.183 199.955 308.42 199.563L308.499 199.433C308.726 199.058 308.945 198.693 309.153 198.345L309.185 198.293C309.408 197.918 309.621 197.559 309.823 197.218L309.847 197.177C310.047 196.836 310.238 196.511 310.415 196.209C306.61 202.49 298.906 211.444 288.824 220.608C290.373 221.16 291.972 221.561 293.599 221.804C294.035 221.207 294.465 220.613 294.889 220.023L295.207 219.573Z" fill="#0E2D54"/>
<path fill-rule="evenodd" clip-rule="evenodd" d="M91.4975 201.117C91.0655 204.298 92.5068 209.667 100.473 212.577C108.44 215.486 120.009 213.146 121.258 213.146C122.507 213.146 123.89 213.977 123.059 218.548C122.227 223.12 123.615 229.388 123.615 229.388C122.246 230.293 121.77 232.077 122.505 233.543C123.613 236.415 121.397 239.175 121.397 242.226C121.397 245.277 119.597 253.711 127.353 254.546C135.109 255.382 154.362 247.176 154.085 244.771C153.807 242.367 148.213 240.932 145.124 236.386C142.034 231.84 143.068 203.875 131.196 203.447C119.324 203.018 91.4975 201.117 91.4975 201.117V201.117Z" fill="url(#paint0_linear_217_14923)"/>
<path fill-rule="evenodd" clip-rule="evenodd" d="M98.472 128.267C98.472 128.267 91.7928 126.21 86.0078 132.271C81.3218 137.18 77.4471 144.796 81.2989 147.782C85.1507 150.768 98.472 128.267 98.472 128.267V128.267Z" fill="#28BBE2"/>
<g style="mix-blend-mode:multiply" opacity="0.2">
<path fill-rule="evenodd" clip-rule="evenodd" d="M98.4717 128.27C93.9436 130.217 89.9791 133.274 86.9436 137.158C83.3524 141.631 81.1823 141.704 81.1305 139.182C79.4488 142.655 79.0247 146.024 81.295 147.784C85.1511 150.767 98.4717 128.27 98.4717 128.27V128.27Z" fill="#242357"/>
</g>
<path fill-rule="evenodd" clip-rule="evenodd" d="M76.6123 156.463C74.7265 156.179 70.8685 157.178 68.7653 161.998C66.6621 166.817 65.1414 178.154 68.1801 182.129C71.2187 186.104 75.0889 185.083 75.0889 185.083L76.6123 156.463Z" fill="#28BBE2"/>
<g style="mix-blend-mode:multiply" opacity="0.2">
<path fill-rule="evenodd" clip-rule="evenodd" d="M70.7943 170.808C70.0023 176.243 67.2206 176.264 66.4761 174.76C66.4929 177.796 66.9724 180.546 68.1816 182.127C71.2202 186.101 75.0904 185.08 75.0904 185.08L76.6136 156.462C76.6136 156.462 72.3308 160.286 70.7943 170.808V170.808Z" fill="#242357"/>
</g>
<path fill-rule="evenodd" clip-rule="evenodd" d="M125.599 127.026C121.95 124.969 110.375 123.242 101.378 126.737C92.3823 130.233 79.0537 148.077 74.0254 162.842C68.9971 177.608 73.2519 191.013 89.3603 192.883C105.469 194.754 113.784 192.531 117.696 190.662C121.609 188.793 127.843 175.309 130.604 160.26C133.365 145.211 125.599 127.026 125.599 127.026V127.026Z" fill="#28BBE2"/>
<g style="mix-blend-mode:multiply" opacity="0.2">
<path fill-rule="evenodd" clip-rule="evenodd" d="M125.598 127.025C124.558 126.439 117.115 125.547 109.485 127.93C102.45 130.13 90.7415 138.63 84.4451 150.435C78.1488 162.24 85.0453 185.423 84.4451 187.109C83.9734 188.429 79.0121 187.995 74.9965 184.936C77.7501 189.16 82.466 192.082 89.359 192.882C105.468 194.752 113.783 192.53 117.695 190.661C121.607 188.792 127.841 175.308 130.603 160.259C133.364 145.21 125.598 127.025 125.598 127.025V127.025Z" fill="#242357"/>
</g>
<path opacity="0.2" fill-rule="evenodd" clip-rule="evenodd" d="M73.1644 157.712C71.099 158.897 68.8824 161.899 68.0763 165.976C67.2702 170.053 69.1429 169.436 69.6946 167.596C70.2463 165.756 70.9997 161.529 73.0905 159.165C74.7933 157.237 73.9926 157.237 73.1644 157.712V157.712Z" fill="#F5FFFE"/>
<path opacity="0.2" fill-rule="evenodd" clip-rule="evenodd" d="M92.2127 128.964C89.3098 129.879 86.8189 131.782 85.1727 134.342C83.9249 136.572 85.2977 137.125 86.6687 135.631C88.0397 134.137 90.7097 130.746 93.3936 129.748C96.0776 128.75 94.5861 128.267 92.2127 128.964V128.964Z" fill="#F5FFFE"/>
<path opacity="0.2" fill-rule="evenodd" clip-rule="evenodd" d="M110.278 125.615C110.943 125.703 108.553 126.366 104.918 128.268C101.03 130.303 95.3191 134.989 92.9501 137.274C90.5812 139.559 89.1045 137.49 95.3376 131.714C100.082 127.315 107.105 125.213 110.278 125.615V125.615Z" fill="#F5FFFE"/>
<path fill-rule="evenodd" clip-rule="evenodd" d="M147.526 142.097C148.439 143.83 151.966 154.939 148.802 161.025C145.637 167.112 142.218 163.138 142.218 163.138L145.298 142.759L147.526 142.097Z" fill="#007CB6"/>
<path fill-rule="evenodd" clip-rule="evenodd" d="M147.314 146.115C147.203 144.846 146.957 143.593 146.579 142.377L145.298 142.757L142.218 163.135C142.809 163.781 143.593 164.218 144.453 164.38C144.16 163.837 143.963 163.535 143.963 163.535C143.963 163.535 148.379 156.845 147.314 146.115V146.115Z" fill="#00629E"/>
<path fill-rule="evenodd" clip-rule="evenodd" d="M149.394 159.602C147.606 158.394 145.263 158.394 143.475 159.602C141.772 160.929 141.292 165.336 141.292 165.336L142.934 175.814C143.868 176.58 144.973 177.108 146.156 177.353C147.386 177.426 148.581 176.927 149.394 176C150.081 175.421 151.627 175.421 152.206 173.875C152.785 172.33 152.786 170.494 153.558 169.431C154.331 168.368 156.726 166.63 155.67 163.828C154.614 161.026 154.166 159.714 154.796 157.549C155.354 155.633 156.276 153.994 155.255 152.753C153.986 151.207 151.357 152.429 150.09 154.457C150.136 156.198 149.901 157.935 149.394 159.602V159.602Z" fill="#F8C6A3"/>
<path fill-rule="evenodd" clip-rule="evenodd" d="M150.355 166.226C150.336 165.561 147.776 164.828 145.98 163.044C144.184 161.26 145.98 158.268 148.118 158.977C146.559 158.424 144.83 158.656 143.472 159.6C141.769 160.927 141.289 165.334 141.289 165.334L142.931 175.812C143.864 176.578 144.97 177.106 146.152 177.351C146.965 177.451 147.786 177.239 148.448 176.757C147.775 177.038 146.997 176.841 146.538 176.274C145.658 175.29 146.848 173.2 147.438 171.835C148.028 170.47 144.71 169.409 146.382 166.467C147.202 165.019 150.377 166.893 150.355 166.226V166.226Z" fill="#F2A37C"/>
<path fill-rule="evenodd" clip-rule="evenodd" d="M153.625 152.062C152.143 152.28 150.842 153.162 150.091 154.457C150.137 156.198 149.901 157.936 149.394 159.602C149.394 159.602 151.197 160.767 152.49 161.671C152.017 160.961 151.683 160.167 151.509 159.332C150.959 157.586 151.004 155.707 151.636 153.989C152.03 153.117 152.741 152.428 153.625 152.062V152.062Z" fill="#F2A37C"/>
<path opacity="0.3" fill-rule="evenodd" clip-rule="evenodd" d="M154.177 157.037C153.33 158.919 154.071 161.361 154.782 163.098C155.494 164.835 155.6 166.454 153.809 169.122V169.122C154.741 168.041 156.625 166.374 155.672 163.828C154.621 161.027 154.167 159.714 154.797 157.548C155.355 155.632 156.277 153.994 155.256 152.752C155.599 153.371 155.161 154.847 154.177 157.037V157.037Z" fill="white"/>
<path fill-rule="evenodd" clip-rule="evenodd" d="M139.604 137.262C139.604 137.262 144.727 136.126 145.653 145.465C146.719 156.194 142.302 162.885 142.302 162.885C142.302 162.885 147.44 170.692 144.732 180.003C142.952 186.119 112.713 192.041 89.3588 186.901C89.3588 186.901 90.142 166.005 97.6308 151.701C102.037 143.209 109.076 136.374 117.695 132.22L125.602 131.71C125.602 131.71 129.254 136.393 132.718 137.845C136.182 139.297 139.604 137.262 139.604 137.262V137.262Z" fill="#EFF8FC"/>
<path fill-rule="evenodd" clip-rule="evenodd" d="M114.66 188.566L125.356 180.004C125.356 180.004 112.496 182.784 105.067 181.348C97.6379 179.912 95.8779 172.429 98.4721 169.122L96.5362 164.716L92.6536 165.187C90.867 172.304 89.7644 179.575 89.3607 186.901C97.6743 188.638 106.19 189.198 114.66 188.566V188.566Z" fill="#CCE4EA"/>
<path fill-rule="evenodd" clip-rule="evenodd" d="M131.194 159.491C131.194 159.491 139.259 159.755 142.303 162.885C142.747 162.258 143.105 161.574 143.366 160.851C139.788 158.399 135.225 157.889 131.194 159.491V159.491Z" fill="#CCE4EA"/>
<path fill-rule="evenodd" clip-rule="evenodd" d="M100.389 167.06C103.693 167.893 108.036 172.193 116.792 172.766C125.548 173.34 129.534 170.641 133.611 167.06C128.667 169.006 123.194 169.136 118.163 167.428C108.645 164.146 105.931 156.014 96.1791 155.793C96.0242 155.793 95.8764 155.801 95.725 155.804C92.3925 163.889 90.783 173.103 90.0208 179.388L100.389 167.06Z" fill="#CCE4EA"/>
<path fill-rule="evenodd" clip-rule="evenodd" d="M134.981 148.052C134.981 148.052 134.818 155.078 129.173 157.035C129.173 157.035 137.52 156.947 137.761 152.053C138.003 147.16 134.981 148.052 134.981 148.052V148.052Z" fill="#A9CBD3"/>
<path fill-rule="evenodd" clip-rule="evenodd" d="M131.194 140.543C131.194 140.543 131.43 147.508 135.625 148.654C139.968 149.841 136.429 140.651 135.84 140.575C135.251 140.499 131.194 140.543 131.194 140.543V140.543Z" fill="#A9CBD3"/>
<path fill-rule="evenodd" clip-rule="evenodd" d="M134.749 139.162C132.571 140.13 131.549 142.723 131.368 144.446C131.186 146.17 131.204 146.507 130.775 146.412C129.271 146.202 127.875 145.512 126.793 144.447C124.802 142.657 129.515 135.629 129.515 135.629H130.384C132.075 135.629 133.608 136.622 134.301 138.164L134.749 139.162Z" fill="#A9CBD3"/>
<path fill-rule="evenodd" clip-rule="evenodd" d="M141.811 141.095C142.982 142.421 142.893 145.215 142.982 145.798C143.071 146.38 145.945 144.354 146.156 143.259C146.368 142.163 144.671 137.412 144.671 137.412L141.811 141.095Z" fill="#A9CBD3"/>
<path fill-rule="evenodd" clip-rule="evenodd" d="M119.103 133.458L124.687 133.097C126.472 137.66 126.472 142.729 124.687 147.293C121.718 155.164 115.785 158.895 109.055 158.185L119.103 133.458Z" fill="#CCE4EA"/>
<path fill-rule="evenodd" clip-rule="evenodd" d="M117.691 132.223L123.276 131.862C125.06 136.426 125.06 141.494 123.276 146.058C120.306 153.929 114.373 157.659 107.643 156.951L117.691 132.223Z" fill="#007CB6"/>
<path fill-rule="evenodd" clip-rule="evenodd" d="M107.645 156.95C108.672 157.056 109.708 157.055 110.735 156.944C113.821 153.395 117.491 148.943 119.247 145.935C121.564 141.954 121.927 137.13 120.231 132.847C120.032 132.553 119.776 132.301 119.479 132.106L117.692 132.222L107.645 156.95Z" fill="#00629E"/>
<path fill-rule="evenodd" clip-rule="evenodd" d="M106.591 154.434C106.591 154.434 79.1148 188.563 77.0653 190.919C75.0158 193.276 74.6066 195.633 69.8924 195.531C65.1782 195.429 61.6952 196.35 57.8012 197.272C53.9071 198.194 51.1414 197.888 51.4476 195.632C51.7539 193.376 56.2639 190.509 56.2639 190.509L46.6323 187.025C47.7421 185.606 49.4415 184.775 51.2427 184.77C54.4186 184.667 59.6449 186.102 61.1823 186.102C62.7197 186.102 64.154 185.077 67.0237 181.183C69.8934 177.289 91.8203 147.779 91.8203 147.779L106.591 154.434Z" fill="#F8C6A3"/>
<path fill-rule="evenodd" clip-rule="evenodd" d="M88.6838 152.002C86.9026 154.4 84.5311 157.593 81.9958 161.004C84.0312 163.415 86.1221 165.44 87.0118 165.662C88.1672 165.951 91.2191 165.142 92.6535 165.185C92.6535 165.185 75.2699 188.294 73.055 190.841C70.8401 193.387 66.6565 192.487 62.8277 193.587C58.9988 194.687 54.2626 198.212 51.5768 196.667V196.667C52.1831 197.956 54.6138 198.028 57.8028 197.273C61.6959 196.35 65.1808 195.425 69.894 195.531C74.6072 195.638 75.0182 193.277 77.0669 190.92C78.6183 189.137 94.7284 169.16 102.474 159.546L88.6838 152.002Z" fill="#F2A37C"/>
<path fill-rule="evenodd" clip-rule="evenodd" d="M58.9436 189.07C58.9436 189.07 49.4775 186.79 48.6618 186.481C47.9489 186.211 48.6327 185.349 49.1713 185.174C48.1637 185.534 47.282 186.178 46.6324 187.028L56.264 190.512C57.1319 189.986 58.0263 189.505 58.9437 189.07H58.9436Z" fill="#F2A37C"/>
<path opacity="0.3" fill-rule="evenodd" clip-rule="evenodd" d="M67.0243 181.185C64.1547 185.079 62.7203 186.105 61.1829 186.105C59.6456 186.105 54.4201 184.669 51.2433 184.772C51.0059 184.781 50.7691 184.802 50.534 184.836C53.8313 184.881 57.5054 186.279 59.3287 186.752C61.1521 187.226 62.8487 187.632 64.9906 185.173C67.1325 182.713 81.5214 161.647 81.5258 161.64C75.4045 169.881 68.5432 179.121 67.0243 181.185V181.185Z" fill="white"/>
<path fill-rule="evenodd" clip-rule="evenodd" d="M117.688 132.221C115.969 129.493 107.586 129.656 100.865 135.389C93.2214 141.908 86.0046 149.364 86.0046 149.364C86.0046 149.364 87.0017 153.007 92.6098 157.942C95.4661 160.573 99.2169 162.018 103.1 161.984C103.1 161.984 113.364 151.03 116.704 145.311C119.022 141.33 119.385 136.505 117.688 132.221V132.221Z" fill="#DEF1F8"/>
<path fill-rule="evenodd" clip-rule="evenodd" d="M92.6141 157.941C95.4701 160.572 99.2207 162.017 103.104 161.983C103.104 161.983 113.366 151.028 116.708 145.309C117.855 143.362 118.536 141.175 118.698 138.921L118.688 138.873C115.952 145.18 102.848 159.748 86.0079 149.363C86.0078 149.363 87.0049 153.006 92.6141 157.941V157.941Z" fill="#CCE4EA"/>
<path fill-rule="evenodd" clip-rule="evenodd" d="M114.671 131.753C110.48 131.539 106.338 132.737 102.909 135.156C99.7091 137.425 97.3305 140.063 102.909 140.423C108.487 140.783 114.053 136.68 115.458 135.156C116.792 133.713 117.641 132 114.671 131.753V131.753Z" fill="#E9F6FB"/>
<path fill-rule="evenodd" clip-rule="evenodd" d="M112.153 132.5C108.799 132.872 106.404 133.965 105.072 135.338C103.739 136.711 111.487 135.729 113.899 134.695C116.867 133.423 115.874 132.087 112.153 132.5V132.5Z" fill="#EFF8FC"/>
<path fill-rule="evenodd" clip-rule="evenodd" d="M142.58 132.279C142.58 132.279 145.505 132.068 146.871 133.94C148.038 135.54 148.666 138.483 147.525 142.099C146.275 146.059 144.545 146.117 144.181 146.045C143.817 145.973 144.221 141.997 142.824 140.579C141.426 139.16 139.602 137.265 139.602 137.265C139.602 137.265 140.978 133.148 142.58 132.279V132.279Z" fill="#DEF1F8"/>
<path fill-rule="evenodd" clip-rule="evenodd" d="M147.439 134.962C147.285 134.602 147.094 134.259 146.869 133.939C145.503 132.067 142.578 132.278 142.578 132.278C140.976 133.147 139.602 137.264 139.602 137.264C139.602 137.264 141.427 139.162 142.824 140.578C143.578 141.343 143.807 142.853 143.915 144.092C144.218 141.557 143.651 139.841 142.98 137.47C142.659 136.303 143.222 135.075 144.315 134.557C145.359 134.167 146.529 134.318 147.438 134.962H147.439Z" fill="#CCE4EA"/>
<path fill-rule="evenodd" clip-rule="evenodd" d="M146.359 136.031C145.112 135.294 144.588 137.324 145.026 139.551C145.267 141.248 145.243 142.972 144.956 144.662C144.917 145.278 146.042 144.432 146.844 142.11C147.647 139.789 147.875 136.927 146.359 136.031V136.031Z" fill="#E9F6FB"/>
<path fill-rule="evenodd" clip-rule="evenodd" d="M131.183 125.779C129.492 127.91 127.623 129.894 125.599 131.711C125.599 131.711 128.987 139.185 135.841 140.576C135.841 140.576 140.642 137.456 142.617 132.635C142.617 132.635 141.791 129.824 137.321 127.341C132.852 124.859 131.183 125.779 131.183 125.779V125.779Z" fill="#F8C6A3"/>
<path fill-rule="evenodd" clip-rule="evenodd" d="M137.317 127.34C132.849 124.858 131.183 125.778 131.183 125.778C131.183 125.778 130.919 126.14 130.315 126.847L129.935 127.287C129.935 127.287 130.982 130.719 135.458 133.242C137.223 134.26 139.16 134.946 141.173 135.266C141.741 134.441 142.224 133.561 142.614 132.638C142.614 132.638 141.786 129.823 137.317 127.34V127.34Z" fill="#F2A37C"/>
<path fill-rule="evenodd" clip-rule="evenodd" d="M137.317 127.34C132.849 124.858 131.183 125.778 131.183 125.778C131.183 125.778 131.019 125.998 130.695 126.394C134.27 130.327 138.936 131.674 142.613 132.634C142.613 132.634 141.787 129.823 137.317 127.34V127.34Z" fill="#DD8964"/>
<path fill-rule="evenodd" clip-rule="evenodd" d="M135.624 148.655C135.511 150.531 134.92 155.644 129.089 156.121C123.257 156.597 119.217 155.936 110.297 148.655C101.377 141.374 96.739 137.786 88.5321 139.163C85.7962 139.827 76.5192 148.27 76.4012 150.412C76.2833 152.554 86.867 162.186 87.9372 163.019C89.0073 163.852 95.2104 162.242 101.655 164.947C107.247 167.294 112.567 172.771 124.87 170.869C137.173 168.966 142.74 156.173 140.969 148.656C140.97 148.655 139.425 146.773 135.624 148.655V148.655Z" fill="#EA4D5F"/>
<path fill-rule="evenodd" clip-rule="evenodd" d="M105.066 144.491C103.384 143.178 101.6 142.001 99.7316 140.971C94.2039 147.084 87.4725 151.989 79.9598 155.378C82.232 157.804 85.0427 160.444 86.6759 161.916C95.2991 156.995 102.528 148.445 105.066 144.491V144.491Z" fill="#EFF8FC"/>
<path fill-rule="evenodd" clip-rule="evenodd" d="M113.275 170.353C115.724 171.033 118.262 171.333 120.801 171.242C122.199 166.148 122.534 160.821 121.783 155.592C120.456 155.191 119.175 154.653 117.96 153.986C117.684 159.731 116.08 165.333 113.275 170.353V170.353Z" fill="#EFF8FC"/>
<path fill-rule="evenodd" clip-rule="evenodd" d="M130.374 169.117C132.041 168.281 133.573 167.2 134.92 165.911C134.114 162.299 132.566 158.893 130.376 155.909C129.953 156.011 129.523 156.081 129.09 156.118C128.137 156.195 127.234 156.237 126.348 156.23C129.067 159.968 130.482 164.496 130.374 169.117V169.117Z" fill="#EFF8FC"/>
<path fill-rule="evenodd" clip-rule="evenodd" d="M105.762 167.046C110.222 161.568 112.473 155.012 113.495 151.132C112.499 150.405 111.439 149.585 110.298 148.653C109.909 148.335 109.537 148.037 109.164 147.729C106.214 155.14 100.966 160.753 97.6683 163.755C99.0348 164.013 100.371 164.412 101.656 164.945C103.06 165.573 104.431 166.274 105.762 167.046H105.762Z" fill="#EFF8FC"/>
<path fill-rule="evenodd" clip-rule="evenodd" d="M135.198 151.228C134.872 152.42 134.234 153.504 133.35 154.369C135.772 155.557 137.869 157.314 139.464 159.489C140.068 158.169 140.533 156.79 140.85 155.374C139.258 153.633 137.337 152.223 135.198 151.228V151.228Z" fill="#EFF8FC"/>
<g style="mix-blend-mode:multiply" opacity="0.2">
<path fill-rule="evenodd" clip-rule="evenodd" d="M135.626 148.652C135.59 150.587 134.927 152.457 133.736 153.982V153.982C134.975 152.848 135.857 151.377 136.274 149.75C136.274 149.75 139.955 150.923 140.97 148.649L138.267 147.841C137.344 147.945 136.448 148.22 135.626 148.652V148.652Z" fill="#242357"/>
</g>
<path fill-rule="evenodd" clip-rule="evenodd" d="M135.615 137.663C136.764 137.183 139.95 136.607 141.479 138.203C143.009 139.799 143.361 141.708 142.58 144.513C142.221 145.956 141.68 147.348 140.97 148.656C139.319 149.621 137.276 149.621 135.625 148.656C133.352 146.632 132.052 143.734 132.05 140.691C132.936 139.371 134.17 138.323 135.615 137.663V137.663Z" fill="#EA4D5F"/>
<path fill-rule="evenodd" clip-rule="evenodd" d="M141.315 147.99C139.086 144.98 135.835 142.887 132.172 142.103C132.301 143.011 132.54 143.901 132.883 144.753C135.36 145.759 137.585 147.297 139.402 149.258C139.957 149.155 140.488 148.95 140.968 148.652C140.968 148.652 141.106 148.426 141.315 147.99V147.99Z" fill="#EFF8FC"/>
<path fill-rule="evenodd" clip-rule="evenodd" d="M136.504 137.384C136.201 137.452 135.904 137.545 135.615 137.66C134.867 138.019 134.168 138.472 133.534 139.007C137.054 139.824 140.225 141.734 142.592 144.463C142.904 143.446 143.027 142.38 142.954 141.318C141.155 139.503 138.942 138.152 136.504 137.384V137.384Z" fill="#EFF8FC"/>
<g style="mix-blend-mode:multiply" opacity="0.2">
<path fill-rule="evenodd" clip-rule="evenodd" d="M134.748 144.447C134.158 141.042 135.375 137.922 137.057 137.273C136.564 137.351 136.08 137.481 135.615 137.661C134.169 138.322 132.935 139.37 132.05 140.69C132.051 143.731 133.351 146.629 135.623 148.653C136.431 149.087 137.329 149.329 138.246 149.358C136.697 148.769 135.285 147.547 134.748 144.447V144.447Z" fill="#242357"/>
</g>
<g style="mix-blend-mode:multiply" opacity="0.2">
<path fill-rule="evenodd" clip-rule="evenodd" d="M124.008 168.58C113.272 168.345 109.94 164.532 101.612 160.823C97.5792 159.028 90.9853 159.449 89.3592 158.704C87.3351 157.775 79.0288 150.663 78.7692 149.909C78.316 148.589 83.956 142.095 83.956 142.095V142.095C80.4448 144.946 76.4804 149.015 76.4038 150.41C76.285 152.55 86.8696 162.183 87.9397 163.017C89.0098 163.85 95.2129 162.24 101.657 164.945C107.25 167.292 112.569 172.769 124.872 170.866C130.003 170.071 134.577 167.189 137.509 162.905C134.911 165.919 131.545 168.746 124.008 168.58V168.58Z" fill="#242357"/>
</g>
<path opacity="0.15" fill-rule="evenodd" clip-rule="evenodd" d="M96.5229 140.802C94.2013 140.095 91.7588 139.876 89.3485 140.158C87.9509 140.412 85.4412 142.746 83.9302 144.606C81.3139 147.825 87.8092 144.421 96.9295 148.223C106.05 152.024 117.79 158.179 120.13 157.423C122.47 156.667 115.637 154.172 110.274 149.855C105.814 146.252 100.34 141.963 96.5229 140.802V140.802Z" fill="white"/>
<path opacity="0.15" fill-rule="evenodd" clip-rule="evenodd" d="M140.97 138.56C139.408 137.535 138.753 140.294 138.911 143.26C139.069 146.226 139.412 148.552 140.264 148.188C141.115 147.824 142.502 144.153 142.4 142.107C142.298 140.061 141.751 139.074 140.97 138.56V138.56Z" fill="white"/>
<path fill-rule="evenodd" clip-rule="evenodd" d="M129.694 127.563C128.791 126.839 127.614 126.553 126.479 126.783C124.317 127.062 118.111 131.385 117.693 132.223C117.275 133.061 117.392 136.67 121.741 141.708C124.161 144.515 128.296 146.241 129.412 146.59C130.528 146.938 129.877 140.342 135.62 137.663C135.62 137.663 135.927 136.417 133.156 135.23C131.132 134.366 128.265 131.71 128.126 129.257L129.694 127.563Z" fill="#DEF1F8"/>
<path fill-rule="evenodd" clip-rule="evenodd" d="M128.118 129.257L129.694 127.563C128.791 126.839 127.614 126.553 126.479 126.783C124.317 127.062 118.111 131.385 117.693 132.223C117.275 133.061 117.392 136.669 121.741 141.708C119.32 138.246 119.636 133.184 121.549 131.712C123.461 130.241 126.257 127.988 127.218 130.439C128.178 132.89 132.058 134.633 132.058 134.634C130.222 133.458 128.233 131.295 128.118 129.257V129.257Z" fill="#CCE4EA"/>
<path fill-rule="evenodd" clip-rule="evenodd" d="M132.375 136.43C133.371 135.872 135.731 136.556 133.996 137.705C131.413 139.418 129.778 143.768 129.473 144.648C129.169 145.528 127.116 144.752 125.465 143.714C123.814 142.677 122.524 141.565 122.173 140.448C122.021 139.964 125.67 142.372 127.799 140.578C129.929 138.783 130.372 137.553 132.375 136.43V136.43Z" fill="#E9F6FB"/>
<path fill-rule="evenodd" clip-rule="evenodd" d="M117.977 115.354C117.053 119.374 118.575 121.82 119.607 122.852C120.639 123.884 122.759 124.536 123.465 122.308C124.268 124.105 125.855 125.43 127.766 125.9C130.973 126.662 132.05 124.374 132.05 124.374L126.888 116.441L117.977 115.354Z" fill="#D65132"/>
<path fill-rule="evenodd" clip-rule="evenodd" d="M117.978 115.354C117.729 116.39 117.645 117.459 117.729 118.521C119.671 120.309 122.518 120.703 124.872 119.51C124.872 119.51 126.351 124.372 130.743 125.643V125.643C131.295 125.358 131.75 124.915 132.051 124.372L126.889 116.439L117.978 115.354Z" fill="#BA422B"/>
<path fill-rule="evenodd" clip-rule="evenodd" d="M153.131 84.5309C160.109 84.5309 168.66 89.4448 170.626 97.1149C172.592 104.785 172.001 111.169 172.984 115.595C173.6 118.359 174.057 121.741 172.784 124.686C172.549 125.229 172.281 125.757 171.979 126.266C169.894 129.786 165.951 132.301 160.407 133.606C154.026 134.955 147.393 134.448 141.292 132.146C133.724 129.001 128.659 125.521 125.415 117.069C121.787 107.2 125.356 96.13 134.064 90.2377C143.795 83.6456 153.131 84.5309 153.131 84.5309V84.5309Z" fill="#F8C6A3"/>
<path fill-rule="evenodd" clip-rule="evenodd" d="M127.008 108.565C127.156 109.906 128.381 111.177 130.753 110.301C133.126 109.426 137.552 105.347 138.409 94.5439L127.008 108.565Z" fill="#F2A37C"/>
<path fill-rule="evenodd" clip-rule="evenodd" d="M153.131 84.5281C150.149 84.3913 147.164 84.7375 144.291 85.5533C141.452 87.3133 138.91 88.8093 138.91 88.8093C142.208 95.9004 149.359 100.263 153.89 101.239C158.42 102.216 163.847 102.207 165.858 99.4336C167.745 96.8297 164.854 94.1465 164.854 94.1465C166.475 95.2412 168.349 95.9042 170.297 96.0729C167.86 89.0056 159.789 84.5281 153.131 84.5281V84.5281Z" fill="#F2A37C"/>
<circle opacity="0.5" cx="139.506" cy="116.491" r="7.71848" fill="#EE9681"/>
<path opacity="0.5" fill-rule="evenodd" clip-rule="evenodd" d="M165.875 116.702C165.875 120.689 168.914 124.02 172.886 124.385C174.01 121.51 173.577 118.262 172.983 115.585C172.592 113.444 172.357 111.277 172.279 109.102C168.579 109.74 165.876 112.948 165.875 116.702H165.875Z" fill="#EE9681"/>
<path fill-rule="evenodd" clip-rule="evenodd" d="M172.698 113.972C171.511 114.888 170.055 115.387 168.555 115.391C164.611 115.391 161.399 111.959 161.314 107.709C161.231 107.679 161.151 107.642 161.074 107.6C160.871 107.482 160.674 107.355 160.478 107.229C160.478 107.332 160.463 107.434 160.463 107.537C160.463 107.588 160.47 107.639 160.471 107.689C160.191 107.574 159.888 107.522 159.586 107.537C158.813 107.519 158.05 107.706 157.373 108.079C157.383 107.903 157.402 107.721 157.402 107.537V107.51C157.28 107.623 157.166 107.744 157.063 107.874C156.926 108.061 156.738 108.205 156.522 108.287C156.115 113.141 151.955 116.811 147.089 116.61C142.222 116.409 138.379 112.408 138.374 107.537C138.374 107.286 138.391 107.037 138.412 106.789C138.298 106.737 138.191 106.671 138.093 106.594L137.626 106.232C137.608 106.37 137.596 106.508 137.582 106.646L124.621 104.71L125.299 108.446L137.61 108.741C138.195 113.55 142.164 117.234 147.003 117.461C151.842 117.687 156.137 114.389 157.168 109.656C157.929 109.269 158.77 109.068 159.622 109.069C159.963 109.061 160.303 109.118 160.622 109.238C161.237 113.176 164.572 116.116 168.556 116.234C170.088 116.23 171.583 115.766 172.847 114.901L172.698 113.972Z" fill="#F2A37C"/>
<path fill-rule="evenodd" clip-rule="evenodd" d="M172.699 113.973C171.511 114.888 170.055 115.387 168.556 115.392C167.711 115.39 166.875 115.228 166.092 114.914C166.025 115.193 165.974 115.476 165.939 115.761C166.777 116.073 167.663 116.233 168.556 116.234C170.088 116.231 171.583 115.767 172.847 114.902L172.748 114.28C172.738 114.211 172.725 114.145 172.715 114.076L172.699 113.973Z" fill="#EB7C74"/>
<path opacity="0.3" fill-rule="evenodd" clip-rule="evenodd" d="M172.507 117.283C173.045 121.294 172.833 124.873 168.803 128.527C164.091 132.799 155.467 134.487 149.805 134.148C153.345 134.537 156.926 134.351 160.407 133.597C165.951 132.292 169.893 129.774 171.979 126.257C172.281 125.748 172.55 125.221 172.784 124.678C174.057 121.731 173.599 118.35 172.984 115.586C172.641 113.793 172.428 111.977 172.348 110.152L172.212 110.055C172.427 111.278 171.968 113.272 172.507 117.283V117.283Z" fill="white"/>
<path fill-rule="evenodd" clip-rule="evenodd" d="M147.157 117.458C147.193 117.179 147.213 116.898 147.218 116.617C142.805 116.492 139.119 113.216 138.477 108.848C138.201 108.885 137.926 108.937 137.655 109.004C138.367 113.746 142.365 117.302 147.157 117.458V117.458Z" fill="#EB7C74"/>
<path opacity="0.3" fill-rule="evenodd" clip-rule="evenodd" d="M138.577 109.917C138.577 110.797 137.458 111.501 136.079 111.501C134.7 111.501 133.582 110.791 133.582 109.917C133.582 109.043 134.7 108.333 136.079 108.333C137.458 108.333 138.577 109.041 138.577 109.917V109.917Z" fill="white"/>
<g style="mix-blend-mode:multiply" opacity="0.7">
<path fill-rule="evenodd" clip-rule="evenodd" d="M146.871 114.654C150.794 114.654 154.735 111.759 155.333 106.177C155.93 100.594 151.849 95.2188 145.005 97.2516C138.161 99.2844 138.01 107.426 140.077 110.592C141.52 112.998 144.07 114.522 146.871 114.654V114.654Z" fill="url(#paint1_linear_217_14923)"/>
</g>
<g style="mix-blend-mode:multiply" opacity="0.7">
<path fill-rule="evenodd" clip-rule="evenodd" d="M170.641 97.1924C169.052 96.6816 167.341 96.6887 165.756 97.2126C159.473 99.0739 159.337 106.55 161.235 109.455C162.559 111.664 164.9 113.063 167.472 113.183C169.301 113.178 171.064 112.5 172.424 111.278C172.131 107.385 172.023 102.608 170.641 97.1924V97.1924Z" fill="url(#paint2_linear_217_14923)"/>
</g>
<path fill-rule="evenodd" clip-rule="evenodd" d="M124.62 103.939C125.895 105.184 126.732 106.807 127.008 108.566C127.267 110.383 130.169 111.105 134.089 105.579C139.506 97.9422 138.91 88.8122 138.91 88.8122C142.459 92.5615 146.629 95.6691 151.236 97.9977C158.413 101.456 162.649 100.531 164.724 99.6539C166.799 98.7765 168.269 96.2685 166.366 93.156C166.366 93.156 169.911 95.9227 176.74 95.6631C183.57 95.4034 186.337 92.1184 184.434 89.6113C182.532 87.1042 178.88 85.1418 173.595 83.5472C173.595 83.5472 179.68 83.0421 179.335 79.6708C178.99 76.2995 170.383 68.068 153.953 70.3428C135.491 72.8948 132.707 82.3328 132.707 82.3328C132.707 82.3328 130.167 80.8527 124.62 80.8958C120.703 80.9266 118.125 82.4965 117.865 83.3818C117.605 84.2671 118.172 84.7783 119.959 85.4621C121.341 85.9613 122.693 86.5398 124.008 87.1948C120.784 88.2182 117.808 89.9009 115.27 92.136C110.861 95.9394 110.917 99.426 111.379 99.9161C112.248 100.837 114.518 98.6691 117.803 98.2362C117.803 98.2362 115.529 103.36 116.131 107.768C116.734 112.176 124.62 103.939 124.62 103.939V103.939Z" fill="#E26644"/>
<path fill-rule="evenodd" clip-rule="evenodd" d="M143.543 82.5714C141.431 82.9358 139.928 84.6896 142.826 85.7254C145.724 86.7612 154.895 90.612 159.222 94.1188C163.81 97.8385 167.428 98.5628 166.298 94.9839C164.693 90.7622 161.647 87.2437 157.7 85.0495C153.399 82.6393 148.406 81.7653 143.543 82.5714H143.543Z" fill="#EE7249"/>
<path fill-rule="evenodd" clip-rule="evenodd" d="M161.948 100.373C157.156 100.069 148.146 95.9953 139.358 85.3367C139.236 85.1894 139.031 85.1402 138.856 85.2159C138.68 85.2917 138.576 85.4743 138.599 85.6641C138.708 86.5045 138.832 87.6142 138.909 88.8128C142.458 92.5621 146.628 95.67 151.235 97.9991C156.056 100.321 159.544 100.66 161.948 100.373V100.373Z" fill="#D65132"/>
<path fill-rule="evenodd" clip-rule="evenodd" d="M143.861 72.8711C134.398 76.6093 132.707 82.3293 132.707 82.3293C132.707 82.3293 130.167 80.8492 124.62 80.8923C120.703 80.9222 118.125 82.493 117.865 83.3783C117.605 84.2636 118.172 84.7748 119.959 85.4586C121.341 85.9578 122.692 86.5363 124.007 87.1913C120.784 88.2146 117.808 89.8974 115.27 92.1325C110.861 95.9359 110.917 99.4224 111.379 99.9126C112.248 100.833 114.518 98.6657 117.803 98.2327C117.803 98.2327 115.529 103.357 116.131 107.765C116.734 112.173 124.616 103.937 124.616 103.937C125.348 104.674 125.947 105.533 126.384 106.476C126.853 105.613 127.201 104.764 126.88 104.276C125.224 101.747 124.611 98.0083 126.176 93.258C127.049 90.1246 129.261 87.5369 132.221 86.1881C133.4 85.62 134.697 85.3376 136.005 85.3636C136.149 85.3672 136.285 85.2955 136.363 85.1744C136.415 85.0399 136.408 84.8895 136.342 84.7608C135.846 83.2386 135.835 81.6 136.311 80.0713C137.154 77.5421 138.944 75.372 143.861 72.8711V72.8711Z" fill="#D65132"/>
<path fill-rule="evenodd" clip-rule="evenodd" d="M126.519 106.78C126.754 107.354 126.918 107.955 127.008 108.568C127.15 109.569 128.133 110.255 129.619 109.739C129.157 109.88 128.656 109.757 128.312 109.418C128.163 109.143 128.104 108.828 128.143 108.518L131.487 108.598H131.492C131.981 108.18 132.434 107.721 132.847 107.226L129.863 107.017L126.519 106.78Z" fill="#D65132"/>
<path fill-rule="evenodd" clip-rule="evenodd" d="M176.74 95.662C181.211 95.493 183.928 94.0243 184.748 92.3276C181.003 95.4076 172.26 93.139 168.556 91.3975C166.639 90.4482 164.777 89.3905 162.98 88.2295C164.418 89.6367 165.568 91.3106 166.365 93.1575C166.365 93.1575 169.91 95.9216 176.74 95.662V95.662Z" fill="#D65132"/>
<path fill-rule="evenodd" clip-rule="evenodd" d="M179.333 79.6689C179.171 78.7898 178.763 77.9748 178.157 77.3184C180.157 80.2223 176.639 81.0302 174.187 81.5212C171.735 82.0123 165.169 82.3801 165.169 82.3801C165.169 82.3801 171.61 83.1783 173.594 83.5452C173.594 83.5452 179.679 83.041 179.333 79.6689V79.6689Z" fill="#D65132"/>
<path fill-rule="evenodd" clip-rule="evenodd" d="M121.656 83.9493C119.215 83.3245 119.226 82.1374 120.397 81.6094C118.918 82.1471 118.012 82.8749 117.863 83.3808C117.604 84.267 118.17 84.7774 119.958 85.4611C121.339 85.9603 122.691 86.5389 124.006 87.1939C125.217 86.8377 126.458 86.5894 127.713 86.452C125.772 85.4409 123.745 84.6034 121.656 83.9493V83.9493Z" fill="#BA422B"/>
<path fill-rule="evenodd" clip-rule="evenodd" d="M114.384 97.1867C112.36 98.1776 111.189 98.7294 111.352 97.7543C111.075 98.4492 111.085 99.2261 111.38 99.9138C112.248 100.834 114.519 98.6669 117.804 98.2339C118.27 97.0028 118.925 95.8515 119.744 94.8213C117.915 95.5087 116.125 96.2984 114.384 97.1867H114.384Z" fill="#BA422B"/>
<path fill-rule="evenodd" clip-rule="evenodd" d="M166.621 71.8355C160.013 69.9558 146.248 71.0171 140.449 76.3807C138.556 78.1319 143.578 77.0152 149.929 77.1085C155.901 77.3007 161.846 78.0038 167.698 79.2099C174.064 80.6179 178.281 80.2307 177.838 78.6027C177.394 76.9747 173.036 73.6571 166.621 71.8355V71.8355Z" fill="#EE7249"/>
<path fill-rule="evenodd" clip-rule="evenodd" d="M184.298 91.6533C184.833 90.3043 182.034 87.3809 177.87 85.767C173.706 84.1531 167.698 83.039 166.357 83.5468C164.868 84.1135 169.431 90.3597 176.174 92.3679C182.022 94.1085 183.843 92.7938 184.298 91.6533V91.6533Z" fill="#EE7249"/>
<path fill-rule="evenodd" clip-rule="evenodd" d="M137.289 88.6619C136.409 87.4687 133.113 88.7975 131.124 92.2022C128.583 96.5512 129.54 103.315 131.319 103.939C133.099 104.563 135.639 100.358 136.562 96.8108C137.485 93.2635 138.061 89.7092 137.289 88.6619V88.6619Z" fill="#EE7249"/>
<path fill-rule="evenodd" clip-rule="evenodd" d="M121.073 82.0072C120.174 82.2862 120.834 83.3466 122.381 83.3756C123.943 83.4055 129.89 83.0711 129.811 82.5132C129.733 81.9552 124.988 80.7902 121.073 82.0072V82.0072Z" fill="#E26644"/>
<path fill-rule="evenodd" clip-rule="evenodd" d="M112.359 97.1877C112.586 97.4623 113.819 97.0319 114.97 95.9012C116.122 94.7704 119.463 90.9353 119.746 90.4452C120.03 89.955 117.387 90.8658 114.97 93.1582C112.554 95.4506 112.116 96.8947 112.359 97.1877V97.1877Z" fill="#E26644"/>
<path fill-rule="evenodd" clip-rule="evenodd" d="M172.196 84.7549C174.687 85.3709 180.489 86.4841 183.832 90.5963C182.329 89.2995 180.63 88.249 178.798 87.4838C176.649 86.4553 174.444 85.5443 172.196 84.7549H172.196Z" fill="#F49A6E"/>
<path fill-rule="evenodd" clip-rule="evenodd" d="M148.403 72.8733C151.321 71.7055 162.503 71.0948 167.872 72.8733C174.217 74.9739 176.32 77.6869 176.32 77.6869C172.791 75.9856 169.037 74.8002 165.171 74.1669C167.126 74.2459 169.07 74.5013 170.979 74.9299C170.979 74.9298 167.371 72.6419 160.167 72.2899C156.236 72.0379 152.289 72.2337 148.403 72.8733H148.403Z" fill="#F49A6E"/>
<path fill-rule="evenodd" clip-rule="evenodd" d="M156.844 85.1797C160.309 86.5067 164.616 91.1593 165.696 94.3643C164.557 92.5235 163.214 90.8173 161.693 89.2779C160.182 87.7918 158.561 86.4219 156.844 85.1797V85.1797Z" fill="#F49A6E"/>
<path fill-rule="evenodd" clip-rule="evenodd" d="M136.978 90.1182C137.024 91.7972 136.331 98.6805 132.706 103.022C132.315 101.391 132.315 99.6904 132.706 98.0593C132.764 99.0972 132.903 100.129 133.12 101.146C133.12 101.145 135.663 97.9695 136.978 90.1182V90.1182Z" fill="#F49A6E"/>
<g style="mix-blend-mode:multiply" opacity="0.5">
<path fill-rule="evenodd" clip-rule="evenodd" d="M149.881 96.2944C149.767 95.2225 147.493 94.1912 144.254 96.0101C141.015 97.8291 139.877 100.674 140.105 101.523C140.333 102.373 143.273 101.136 145.334 100.33C148.801 98.9713 150.221 99.4773 149.881 96.2944V96.2944Z" fill="#F2A37C"/>
</g>
<g style="mix-blend-mode:multiply" opacity="0.5">
<path fill-rule="evenodd" clip-rule="evenodd" d="M171.607 102.089C171.463 101.096 171.285 100.075 171.065 99.0269C170.334 97.9935 169.373 97.1443 168.257 96.5462C165.017 94.7263 163.803 96.3015 163.789 97.3804C163.757 99.8189 165.901 100.163 167.925 100.858C169.606 101.435 171.001 102.234 171.607 102.089V102.089Z" fill="#F2A37C"/>
</g>
<path fill-rule="evenodd" clip-rule="evenodd" d="M150.271 95.0169C150.124 93.7022 147.493 93.022 144.252 94.8409C141.012 96.6599 139.875 99.505 140.103 100.355C140.331 101.205 143.271 99.9669 145.332 99.1608C148.801 97.803 150.576 97.752 150.271 95.0169V95.0169Z" fill="#D65132"/>
<path fill-rule="evenodd" clip-rule="evenodd" d="M146.563 97.1869C143.571 98.1602 141.899 98.5623 142.038 97.472C142.177 96.3817 143.788 95.0864 144.253 94.8408C141.012 96.6607 139.875 99.5049 140.103 100.355C140.331 101.205 143.271 99.9668 145.332 99.1607C148.801 97.8029 150.576 97.7528 150.271 95.0168C150.117 95.7103 149.556 96.2136 146.563 97.1869V97.1869Z" fill="#BA422B"/>
<path fill-rule="evenodd" clip-rule="evenodd" d="M163.793 96.2082C163.806 95.1293 165.025 93.5549 168.262 95.3739C171.498 97.1929 172.146 99.7871 171.918 100.64C171.69 101.493 170.02 100.403 167.928 99.6859C165.897 98.9916 163.757 98.6475 163.793 96.2082V96.2082Z" fill="#D65132"/>
<path fill-rule="evenodd" clip-rule="evenodd" d="M170.673 99.6731C169.768 99.1267 167.281 98.1771 165.76 97.2153C164.257 96.2631 164.697 94.8059 165.898 94.5586C165.393 94.4578 164.868 94.5824 164.463 94.9C164.057 95.2176 163.81 95.6964 163.786 96.2113C163.754 98.6497 165.898 98.9947 167.922 99.689C170.014 100.406 171.684 101.495 171.912 100.643C171.994 100.051 171.899 99.4486 171.639 98.9111C171.902 99.462 171.576 100.219 170.673 99.6731V99.6731Z" fill="#BA422B"/>
<path fill-rule="evenodd" clip-rule="evenodd" d="M168.556 115.462C164.093 115.462 160.46 111.56 160.46 106.764C160.46 101.968 164.09 98.0664 168.556 98.0664C173.022 98.0664 176.652 101.968 176.652 106.764C176.652 111.56 173.018 115.462 168.556 115.462V115.462ZM168.556 98.9094C164.559 98.9094 161.305 102.429 161.305 106.764C161.305 111.099 164.561 114.619 168.556 114.619C172.55 114.619 175.806 111.099 175.806 106.764C175.806 102.429 172.553 98.9094 168.556 98.9094V98.9094Z" fill="#19313A"/>
<ellipse cx="146.872" cy="108.386" rx="6.26526" ry="6.26525" fill="white"/>
<path opacity="0.2" fill-rule="evenodd" clip-rule="evenodd" d="M144.322 112.179C142.094 109.808 141.77 106.223 143.538 103.491L143.316 103.227C141.137 104.732 140.141 107.444 140.827 110.002C141.514 112.559 143.734 114.408 146.374 114.621C149.013 114.833 151.501 113.362 152.586 110.947C150.813 113.299 146.227 113.907 144.322 112.179V112.179Z" fill="#BAC4CA"/>
<path fill-rule="evenodd" clip-rule="evenodd" d="M140.692 109.414C140.692 109.414 140.895 104.975 144.463 103.512C148.481 101.866 151.943 104.023 152.655 105.993C152.726 105.434 152.584 104.869 152.258 104.409C151.227 102.825 148.688 100.872 144.67 102.214C141.586 103.107 139.806 106.328 140.692 109.414V109.414Z" fill="#19313A"/>
<path fill-rule="evenodd" clip-rule="evenodd" d="M153.136 108.384C153.137 107.772 153.048 107.165 152.872 106.58C152.59 105.622 151.847 104.869 150.892 104.574C149.689 104.182 148.367 104.449 147.411 105.278C145.55 107.061 145.123 109.873 146.369 112.129C146.817 112.775 147.448 113.273 148.181 113.558C149.259 113.934 150.456 113.657 151.261 112.848C152.462 111.673 153.138 110.064 153.136 108.384V108.384Z" fill="#19313A"/>
<path fill-rule="evenodd" clip-rule="evenodd" d="M147.438 113.167C147.669 113.326 147.917 113.458 148.179 113.56C149.257 113.936 150.454 113.66 151.259 112.85C151.812 112.305 152.26 111.661 152.579 110.952C151.276 112.413 149.394 113.224 147.438 113.167V113.167Z" fill="#002030"/>
<path fill-rule="evenodd" clip-rule="evenodd" d="M151.925 105.576C151.523 105.164 150.919 105.023 150.376 105.213C149.833 105.404 149.45 105.892 149.394 106.465C149.158 108.111 150.279 109.916 151.643 109.916C152.544 109.916 152.963 109.059 152.839 107.775C152.813 106.955 152.488 106.173 151.925 105.576V105.576Z" fill="white"/>
<path fill-rule="evenodd" clip-rule="evenodd" d="M161.188 107.794C161.156 107.533 161.027 107.293 160.827 107.121C160.47 106.857 160.028 106.732 159.585 106.769C158.765 106.745 157.955 106.955 157.251 107.375C156.952 107.553 156.75 107.856 156.701 108.2L156.547 109.267C157.444 108.628 158.521 108.289 159.622 108.299C161.081 108.299 161.389 109.102 161.389 109.102L161.188 107.794Z" fill="#19313A"/>
<path fill-rule="evenodd" clip-rule="evenodd" d="M159.585 106.766C158.765 106.741 157.955 106.951 157.251 107.371C156.952 107.549 156.75 107.852 156.701 108.197L156.547 109.263C157.444 108.624 158.521 108.285 159.622 108.295C161.081 108.295 161.389 109.099 161.389 109.099C160.87 107.494 158.48 108.072 158.385 107.675C158.29 107.278 158.678 106.843 159.585 106.766V106.766Z" fill="#002030"/>
<path fill-rule="evenodd" clip-rule="evenodd" d="M138.187 105.962L124.62 103.938L125.298 107.675L137.951 107.978C137.951 107.978 138.149 106.782 138.187 105.962V105.962Z" fill="#19313A"/>
<path fill-rule="evenodd" clip-rule="evenodd" d="M138.018 107.536V107.536L127.678 106.138C127.555 105.466 127.284 104.83 126.886 104.276L124.622 103.938L125.301 107.675L137.953 107.978C137.953 107.978 137.981 107.8 138.018 107.536V107.536Z" fill="#002030"/>
<path fill-rule="evenodd" clip-rule="evenodd" d="M158.572 110.416C157.901 110.734 157.266 112.931 157.84 114.816C158.249 116.27 159.573 117.276 161.083 117.28C162.626 117.333 163.466 116.436 163.426 115.301C163.393 114.31 162.202 114.291 161.083 112.925C160.046 111.668 159.827 109.822 158.572 110.416V110.416Z" fill="#EE9681"/>
<path fill-rule="evenodd" clip-rule="evenodd" d="M160.673 116.279C158.679 115.911 157.64 113.566 157.716 112.186C157.554 113.06 157.596 113.96 157.84 114.815C158.249 116.269 159.573 117.275 161.083 117.279C162.627 117.331 163.466 116.434 163.427 115.3C163.165 116.077 162.322 116.584 160.673 116.279V116.279Z" fill="#EB7C74"/>
<path fill-rule="evenodd" clip-rule="evenodd" d="M162.569 115.26C162.528 115.258 162.488 115.254 162.447 115.247C162.323 115.225 162.203 115.18 162.095 115.115C161.8 114.937 161.578 114.659 161.469 114.331C161.424 114.206 161.305 113.811 161.576 113.879C161.632 113.897 161.684 113.927 161.728 113.967C161.856 114.069 161.992 114.16 162.116 114.257C162.346 114.433 162.636 114.533 162.853 114.712C162.933 114.773 162.981 114.867 162.983 114.968C162.97 115.084 162.894 115.183 162.785 115.223C162.716 115.251 162.643 115.263 162.569 115.26V115.26Z" fill="#F8C6A3"/>
<path fill-rule="evenodd" clip-rule="evenodd" d="M147.466 116.702C141.978 116.702 137.53 112.254 137.53 106.766C137.53 101.279 141.978 96.83 147.466 96.8301C152.953 96.8301 157.402 101.279 157.402 106.766C157.397 112.253 152.95 116.699 147.464 116.702H147.466ZM147.466 97.6732C143.788 97.6729 140.471 99.8883 139.064 103.286C137.656 106.685 138.434 110.596 141.034 113.197C143.635 115.798 147.547 116.576 150.945 115.169C154.343 113.761 156.559 110.445 156.559 106.767C156.553 101.746 152.485 97.6786 147.465 97.6732H147.466Z" fill="#19313A"/>
<path fill-rule="evenodd" clip-rule="evenodd" d="M155.849 122.753C153.368 122.412 150.976 121.598 148.801 120.357C146.712 119.253 145.114 119.093 144.745 120.709C144.209 123.04 146.494 128.981 154.161 130.133C159.068 130.87 162.631 129.439 164.616 127.83C165.622 127.048 166.375 125.987 166.782 124.78C167.222 123.372 166.669 121.688 163.211 122.356C160.792 122.864 158.309 122.998 155.849 122.753V122.753Z" fill="#C9434D"/>
<path fill-rule="evenodd" clip-rule="evenodd" d="M154.792 122.608C152.696 122.154 150.678 121.395 148.801 120.357C146.712 119.253 145.114 119.093 144.744 120.709C144.311 122.597 145.73 126.855 150.364 129.016C153.022 128.061 154.796 125.541 154.797 122.717C154.798 122.678 154.792 122.644 154.792 122.608V122.608Z" fill="#7C1423"/>
<path fill-rule="evenodd" clip-rule="evenodd" d="M161.95 122.576V122.576C159.932 122.895 157.883 122.954 155.85 122.752C153.589 122.456 151.402 121.747 149.397 120.659H149.397C149.442 121.51 149.654 122.343 150.02 123.112C150.604 123.975 153.401 125.048 154.979 125.272C158.059 125.712 160.48 124.926 160.748 124.629C161.202 123.978 161.604 123.291 161.95 122.576V122.576Z" fill="white"/>
<path opacity="0.2" fill-rule="evenodd" clip-rule="evenodd" d="M153.86 123.034C156.436 123.646 159.119 123.655 161.7 123.062C161.847 122.782 161.95 122.576 161.95 122.576V122.576C159.932 122.895 157.883 122.954 155.85 122.752C153.589 122.456 151.402 121.747 149.397 120.659H149.397C149.442 121.51 149.654 122.343 150.02 123.112C150.423 123.707 151.881 124.402 153.263 124.85C152.151 124.458 151.244 123.633 150.75 122.562C150.614 121.922 151.391 122.399 153.86 123.034V123.034Z" fill="#BAC4CA"/>
<path fill-rule="evenodd" clip-rule="evenodd" d="M159.041 130.157C158.378 128.723 154.45 125.053 146.545 126.054C148.471 128.338 151.199 129.796 154.168 130.128C155.782 130.383 157.424 130.393 159.041 130.157V130.157Z" fill="#EC6469"/>
<path fill-rule="evenodd" clip-rule="evenodd" d="M157.925 130.283C157.918 130.283 153.479 130.009 151.352 128.593C149.24 127.185 149.738 125.917 151.583 126.054C149.91 125.828 148.214 125.828 146.541 126.054C148.468 128.337 151.196 129.795 154.165 130.127C155.408 130.32 156.67 130.372 157.925 130.283V130.283Z" fill="#DB545B"/>
<path opacity="0.2" fill-rule="evenodd" clip-rule="evenodd" d="M155.429 127.578C154.269 126.928 152.973 126.558 151.645 126.498C149.81 126.684 153.485 128.158 155.083 128.739C157.131 129.484 157.371 128.585 155.429 127.578V127.578Z" fill="white"/>
<path opacity="0.2" fill-rule="evenodd" clip-rule="evenodd" d="M157.82 129.161C157.51 128.952 157.095 128.962 157.095 129.215C157.095 129.403 157.335 129.716 157.82 129.867C158.306 130.018 158.321 129.498 157.82 129.161V129.161Z" fill="white"/>
<path fill-rule="evenodd" clip-rule="evenodd" d="M171.396 111.416C172.762 109.92 172.662 104.841 170.733 103.343C168.394 101.551 165.056 101.938 163.188 104.216C161.32 106.493 161.595 109.842 163.81 111.785C166.024 113.728 169.38 113.565 171.396 111.416V111.416Z" fill="white"/>
<path opacity="0.2" fill-rule="evenodd" clip-rule="evenodd" d="M171.396 111.413C171.839 110.83 172.116 110.138 172.196 109.41C171.052 111.628 168.324 112.891 165.939 111.304C162.984 109.337 163.365 104.782 164.556 103.032C162.755 104.148 161.762 106.205 162.01 108.31C162.259 110.414 163.703 112.184 165.714 112.85C167.726 113.516 169.941 112.957 171.396 111.417V111.413Z" fill="#BAC4CA"/>
<path fill-rule="evenodd" clip-rule="evenodd" d="M162.077 108.815C162.077 108.815 161.913 104.722 165.205 103.373C166.973 102.588 169.005 102.661 170.712 103.571C171.138 103.818 171.478 104.19 171.686 104.635C171.641 103.869 171.264 103.159 170.654 102.692C169.506 101.831 167.818 101.34 165.396 102.172C160.535 103.846 162.077 108.815 162.077 108.815V108.815Z" fill="#19313A"/>
<path fill-rule="evenodd" clip-rule="evenodd" d="M170.849 104.339C169.819 104.032 168.704 104.269 167.887 104.967C166.265 106.522 165.892 108.975 166.98 110.942C167.698 112.026 168.997 112.571 170.274 112.326C171.269 111.955 172.001 111.095 172.21 110.053C172.691 108.51 172.6 106.846 171.956 105.364C171.748 104.881 171.346 104.509 170.849 104.339V104.339Z" fill="#19313A"/>
<path fill-rule="evenodd" clip-rule="evenodd" d="M172.21 110.057C172.329 109.657 172.411 109.248 172.455 108.833C171.823 110.679 170.117 111.944 168.166 112.01C168.809 112.361 169.554 112.474 170.272 112.33C171.268 111.959 172.001 111.099 172.21 110.057V110.057Z" fill="#002030"/>
<path fill-rule="evenodd" clip-rule="evenodd" d="M171.39 105.052C171.038 104.691 170.509 104.567 170.034 104.734C169.559 104.902 169.224 105.329 169.175 105.831C168.969 107.271 169.95 108.849 171.142 108.849C171.934 108.849 172.299 108.1 172.189 106.976C172.166 106.258 171.882 105.574 171.39 105.052V105.052Z" fill="white"/>
<path fill-rule="evenodd" clip-rule="evenodd" d="M124.618 103.94C122.933 102.918 118.81 102.215 116.115 104.856C113.42 107.497 113.616 114.758 118.509 117.205C121.196 118.681 124.51 118.379 126.886 116.443C127.492 111.312 127.514 105.831 124.618 103.94V103.94Z" fill="#F8C6A3"/>
<path fill-rule="evenodd" clip-rule="evenodd" d="M119.249 112.501C119.249 111.526 119.836 110.648 120.737 110.275C121.637 109.902 122.673 110.109 123.362 110.798C124.05 111.487 124.256 112.523 123.883 113.423C123.509 114.323 122.63 114.91 121.656 114.909C120.327 114.908 119.25 113.831 119.249 112.501V112.501Z" fill="#DD8964"/>
<path fill-rule="evenodd" clip-rule="evenodd" d="M121.657 114.904C123.93 114.886 125.674 112.399 125.306 109.412C124.871 105.892 122.002 105.271 120.232 105.37C118.38 105.445 116.889 106.918 116.792 108.769C117.478 107.244 119.205 106.484 120.793 107.009C123.742 107.796 122.789 112.201 121.805 112.498C120.821 112.794 121.657 114.904 121.657 114.904V114.904Z" fill="#DD8964"/>
<path fill-rule="evenodd" clip-rule="evenodd" d="M121.487 103.61C119.762 103.312 117.997 103.822 116.696 104.992C114.962 106.452 114.584 108.745 114.866 110.855C114.874 110.905 114.998 110.986 115.007 110.918C115.314 108.636 115.786 106.31 117.863 104.934C118.968 104.236 120.223 103.81 121.524 103.69C121.577 103.679 121.51 103.615 121.487 103.61V103.61Z" fill="#FDDEBC"/>
<path fill-rule="evenodd" clip-rule="evenodd" d="M127.728 117.216C127.406 116.369 127.047 114.908 127.047 114.908C126.287 115.597 125.402 116.135 124.441 116.492C121.821 117.457 118.903 117.162 116.53 115.691C117.091 116.313 117.762 116.825 118.51 117.204C120.687 118.389 123.305 118.436 125.524 117.33C128.771 125.582 133.806 129.028 141.29 132.139C143.242 132.921 145.274 133.484 147.351 133.819C138.314 132.186 130.835 125.858 127.728 117.216V117.216Z" fill="#F2A37C"/>
<path fill-rule="evenodd" clip-rule="evenodd" d="M152.791 131.142C151.389 130.788 150.046 130.234 148.801 129.497C148.801 129.497 149.642 131.169 152.655 131.861C156.018 132.633 157.719 131.555 157.719 131.555C156.065 131.66 154.405 131.521 152.791 131.142V131.142Z" fill="#F2A37C"/>
<path fill-rule="evenodd" clip-rule="evenodd" d="M89.3595 186.903C89.3102 190.204 88.175 199.077 94.9852 205.99C101.795 212.904 114.902 210.22 117.532 209.598C119.52 209.225 121.55 209.121 123.566 209.289C124.969 209.26 128.622 208.36 129.241 205.575C129.241 205.575 125.32 207.638 122.431 203.098C119.266 197.752 119.356 191.085 122.663 185.827C125.729 181.119 132.295 180.099 134.088 179.883C134.088 179.883 133.643 177.747 130.712 177.376C129.113 177.173 124.992 179.089 119.338 180.731C110.879 183.191 99.9176 187.095 89.3595 186.903V186.903Z" fill="#4477BB"/>
<path fill-rule="evenodd" clip-rule="evenodd" d="M124.051 179.498C121.013 180.806 117.475 185.916 116.665 190.586C117.802 187.392 119.63 184.489 122.019 182.084C123.716 180.372 126.807 178.923 127.148 178.636C127.509 178.333 126.084 178.622 124.051 179.498V179.498Z" fill="#71ABDE"/>
<path fill-rule="evenodd" clip-rule="evenodd" d="M117.533 209.602C119.521 209.229 121.551 209.124 123.567 209.292C124.97 209.264 128.622 208.364 129.242 205.579C127.359 206.451 125.131 206.061 123.657 204.601L122.176 205.285C122.176 205.285 121.131 207.437 118.75 204.772C115.488 201.12 116.121 193.21 116.121 193.21C114.492 202.62 118.556 206.38 118.043 206.652C117.53 206.924 108.522 209.238 102.282 205.359C96.0421 201.48 97.4818 189.89 100.883 188.375C104.333 186.842 108.275 185.593 114.23 182.265V182.265C106.701 184.535 97.8998 187.058 89.3603 186.903C89.311 190.204 88.1759 199.077 94.9861 205.99C101.796 212.904 114.904 210.22 117.533 209.602V209.602Z" fill="#3E65AE"/>
<path fill-rule="evenodd" clip-rule="evenodd" d="M124.69 181.842C127.255 180.889 129.938 180.29 132.665 180.06C131.635 178.84 128.413 179.318 124.69 181.842V181.842Z" fill="#295296"/>
<path fill-rule="evenodd" clip-rule="evenodd" d="M134.089 179.886C136.646 179.499 146.451 179.101 151.601 182.047C156.998 185.136 157.68 189.175 157.26 193.589C156.839 198.003 129.245 205.577 129.245 205.577C129.245 205.577 128.357 207.44 125.109 206.78C121.861 206.12 119.521 203.115 118.799 196.986C118.078 190.856 120.962 184.367 124.688 181.844C127.074 180.378 129.881 179.751 132.664 180.062L134.089 179.886Z" fill="#F8C6A3"/>
<path fill-rule="evenodd" clip-rule="evenodd" d="M137.517 192.399C137.517 192.399 133.943 193.207 128.604 197.758C124.23 201.486 121.867 202.177 120.304 197.975C118.741 193.773 120.161 187.177 122.758 183.59C119.707 187.35 118.282 192.171 118.798 196.985C119.52 203.114 121.863 206.119 125.108 206.78C128.352 207.441 129.244 205.577 129.244 205.577C129.244 205.577 132.635 195.662 137.517 192.399V192.399Z" fill="#F2A37C"/>
<path fill-rule="evenodd" clip-rule="evenodd" d="M129.241 205.576C127.906 206.114 126.52 206.518 125.105 206.779C128.353 207.439 129.241 205.576 129.241 205.576V205.576Z" fill="#295296"/>
<path fill-rule="evenodd" clip-rule="evenodd" d="M157.256 193.586C156.853 199.241 150.886 220.308 149.582 225.743C148.445 230.482 147.734 233.35 147.734 233.35C140.473 239.098 133.265 242.107 126.115 242.224C126.115 242.224 126.467 230.463 126.467 223.845C126.467 217.228 126.7 211.482 128.964 204.865C129.651 202.856 132.955 195.232 137.519 192.395C143.601 188.617 149.599 192.2 157.256 193.586V193.586Z" fill="#F8C6A3"/>
<path fill-rule="evenodd" clip-rule="evenodd" d="M137.771 224.248C132.501 224.956 131.135 224.248 130.017 218.588C128.898 212.929 130.264 201.819 131.917 198.729C130.743 200.679 129.753 202.735 128.962 204.87C126.698 211.487 126.465 217.233 126.465 223.85C126.465 227.421 126.364 232.487 126.27 236.398L131.198 235.713L147.484 231.593C147.484 231.593 147.869 231.262 148.376 230.757C148.685 229.489 149.096 227.794 149.586 225.748C149.619 225.607 149.659 225.446 149.699 225.281C147.267 223.992 142.563 223.603 137.771 224.248V224.248Z" fill="#F2A37C"/>
<path fill-rule="evenodd" clip-rule="evenodd" d="M152.241 196.132C150.821 195.701 149.542 194.902 148.531 193.816C147.476 192.596 147.023 190.987 146.438 191.311C145.268 191.959 145.853 196.644 148.259 198.22C149.756 199.357 151.761 199.568 153.461 198.768C154.307 198.34 155.346 196.977 152.241 196.132V196.132Z" fill="#F2A37C"/>
<path opacity="0.3" fill-rule="evenodd" clip-rule="evenodd" d="M157.256 193.587C157.677 189.171 156.992 185.134 151.598 182.045C148.713 180.394 144.367 179.794 140.653 179.653C144.743 180.005 153.595 182.629 155.496 188.423C155.979 189.891 155.936 192.329 155.557 196.041C154.668 204.778 151.89 216.897 151.887 216.906C154.098 208.549 156.98 197.458 157.256 193.587V193.587Z" fill="white"/>
<path fill-rule="evenodd" clip-rule="evenodd" d="M147.739 233.354C148.115 231.784 148.691 230.269 149.453 228.846C149.91 228.238 149.91 227.174 147.096 226.565C144.282 225.956 136.749 226.336 131.199 228.162C125.649 229.988 124.583 231.966 124.887 232.802C125.192 233.638 126.518 238.651 126.119 242.229C133.25 242.138 140.459 239.083 147.739 233.354V233.354Z" fill="#EFF8FC"/>
<path fill-rule="evenodd" clip-rule="evenodd" d="M148.956 229.788V229.782C148.956 229.782 143.38 228.518 135.532 230.517C127.47 232.57 125.454 234.945 125.454 234.945V234.945C125.63 235.745 125.815 236.693 125.954 237.698C126.942 236.914 129.594 235.234 135.532 233.719C139.556 232.649 143.744 232.341 147.881 232.808C148.175 231.779 148.534 230.771 148.956 229.788V229.788Z" fill="#4477BB"/>
<g style="mix-blend-mode:multiply" opacity="0.2">
<path fill-rule="evenodd" clip-rule="evenodd" d="M135.811 240.323C135.256 240.104 134.636 240.115 134.089 240.354C130.662 241.491 129.898 238.909 129.882 237.163C129.912 235.324 129.655 233.492 129.12 231.732C128.84 231.114 128.827 230.409 129.083 229.781C129.339 229.153 129.842 228.658 130.473 228.411C125.55 230.165 124.592 232.004 124.883 232.803C125.188 233.64 126.514 238.653 126.115 242.231C129.434 242.165 132.715 241.519 135.811 240.323V240.323Z" fill="#242357"/>
</g>
<path fill-rule="evenodd" clip-rule="evenodd" d="M132.563 239.399C130.979 240.52 127.337 240.631 126.045 238.411C126.045 238.411 125.465 238.758 124.838 240.57C124.21 242.383 123.459 246.653 124.838 248.955C127.484 247.605 130.291 246.598 133.192 245.956C137.795 244.98 144.142 241.562 146.303 240.098C148.465 238.634 157.533 233.401 164.298 236.68C164.298 236.68 161.997 233.054 155.79 233.123C149.583 233.193 147.737 233.354 147.737 233.354C147.737 233.354 139.53 233.675 135.702 235.425C133.261 236.539 134.237 238.213 132.563 239.399V239.399Z" fill="#4477BB"/>
<g style="mix-blend-mode:multiply" opacity="0.2">
<path fill-rule="evenodd" clip-rule="evenodd" d="M146.302 240.095C147.93 239.029 149.657 238.121 151.457 237.384C151.042 235.504 150.407 233.643 149.487 233.26C149.173 233.271 148.905 233.284 148.684 233.294H148.674C146.07 234.571 145.902 238.335 145.902 238.335C144.441 238.565 139.742 241.468 138.023 242.222C134.656 243.696 132.765 243.492 131.971 242.919C130.854 242.113 130.926 240.05 130.926 240.05V240.05C129.191 240.402 126.988 240.031 126.042 238.407C126.042 238.407 125.462 238.754 124.835 240.566C124.207 242.379 123.456 246.649 124.835 248.951C127.481 247.601 130.288 246.594 133.189 245.952C137.794 244.977 144.14 241.559 146.302 240.095V240.095Z" fill="#242357"/>
</g>
<path fill-rule="evenodd" clip-rule="evenodd" d="M164.289 236.67C157.884 233.577 149.423 238.094 146.709 239.831C146.836 239.743 145.748 236.055 148.672 233.299C151.597 230.543 162.617 230.754 164.289 236.67V236.67Z" fill="#EFF8FC"/>
<path fill-rule="evenodd" clip-rule="evenodd" d="M164.289 236.667C161.561 231.678 153.806 233.587 151.76 234.39C149.714 235.194 147.04 235.798 147.389 234.972C146.692 236.489 146.456 238.177 146.709 239.827C149.425 238.094 157.886 233.576 164.289 236.667V236.667Z" fill="#A9CBD3"/>
<path fill-rule="evenodd" clip-rule="evenodd" d="M164.291 236.672C163.189 235.43 161.656 234.654 160.002 234.502C155.897 234.092 151.778 235.144 148.371 237.473C144.95 239.71 141.332 241.631 137.562 243.212C134.027 244.748 126.65 245.312 124.411 248.115C124.411 248.115 123.812 249.103 123.983 251.747C123.94 254.003 125.387 256.019 127.539 256.699C129.98 257.675 137.095 258.162 145.952 255.234C154.81 252.307 160.648 251.881 164.295 246.655C167.466 242.11 165.467 238.037 164.291 236.672V236.672Z" fill="#DEF1F8"/>
<mask id="mask1_217_14923" style="mask-type:luminance" maskUnits="userSpaceOnUse" x="123" y="234" width="44" height="24">
<path fill-rule="evenodd" clip-rule="evenodd" d="M164.291 236.672C163.189 235.43 161.656 234.654 160.002 234.502C155.897 234.092 151.778 235.144 148.371 237.473C144.95 239.71 141.332 241.631 137.562 243.212C134.027 244.748 126.65 245.312 124.411 248.115C124.411 248.115 123.812 249.103 123.983 251.747C123.94 254.003 125.387 256.019 127.539 256.699C129.98 257.675 137.095 258.162 145.952 255.234C154.81 252.307 160.648 251.881 164.295 246.655C167.466 242.11 165.467 238.037 164.291 236.672V236.672Z" fill="white"/>
</mask>
<g mask="url(#mask1_217_14923)">
<path d="M166.849 239.833C165.335 236.857 160.513 234.396 153.809 236.537C146.965 238.722 145.769 241.653 138.48 244.409C131.191 247.165 124.877 246.29 122.967 252.505" stroke="#4477BB"/>
</g>
<path fill-rule="evenodd" clip-rule="evenodd" d="M159.799 237.165C155.048 237.097 150.409 238.611 146.614 241.469C143.295 243.877 139.569 245.665 135.614 246.749C132.174 247.737 130.309 247.62 126.928 249.163C125.138 249.819 124.046 251.632 124.304 253.521C124.812 255.038 126.014 256.22 127.539 256.701C129.981 257.677 137.095 258.165 145.953 255.237C154.81 252.309 160.649 251.883 164.295 246.658C165.719 244.767 166.28 242.364 165.84 240.039C165.122 238.594 164.143 237.267 159.799 237.165V237.165Z" fill="#E8914F"/>
<path fill-rule="evenodd" clip-rule="evenodd" d="M133.126 256.187C131.395 256.272 129.662 256.047 128.011 255.52C126.869 255.183 125.952 254.329 125.536 253.213C125.441 251.922 126.229 250.729 127.453 250.309C129.081 249.578 130.797 249.058 132.557 248.763C133.537 248.564 134.648 248.338 135.96 247.961C140.059 246.841 143.921 244.987 147.359 242.489C150.81 239.887 155.005 238.462 159.327 238.424C159.471 238.424 159.616 238.424 159.76 238.429C163.456 238.517 164.148 239.512 164.626 240.443C164.935 242.383 164.44 244.365 163.253 245.931C160.709 249.579 156.956 250.659 151.275 252.296C149.564 252.788 147.624 253.347 145.555 254.033C141.551 255.406 137.355 256.134 133.124 256.19L133.126 256.187Z" fill="#D1783B"/>
<mask id="mask2_217_14923" style="mask-type:luminance" maskUnits="userSpaceOnUse" x="125" y="238" width="40" height="19">
<path fill-rule="evenodd" clip-rule="evenodd" d="M133.126 256.189C131.395 256.274 129.663 256.049 128.012 255.522C126.87 255.185 125.953 254.331 125.537 253.215C125.442 251.924 126.23 250.731 127.454 250.311C129.082 249.58 130.798 249.06 132.558 248.765C133.538 248.566 134.649 248.34 135.961 247.963C140.06 246.843 143.922 244.989 147.359 242.491C150.811 239.889 155.006 238.464 159.327 238.426C159.472 238.426 159.617 238.426 159.761 238.431C163.457 238.519 164.149 239.514 164.627 240.445C164.936 242.385 164.44 244.367 163.254 245.933C160.71 249.581 156.957 250.661 151.275 252.298C149.565 252.79 147.625 253.349 145.555 254.035C141.552 255.408 137.356 256.136 133.125 256.192L133.126 256.189Z" fill="white"/>
</mask>
<g mask="url(#mask2_217_14923)">
<path fill-rule="evenodd" clip-rule="evenodd" d="M161.773 249.151L163.162 238.62L163.998 238.73L162.609 249.262L161.773 249.151Z" fill="#C66D32"/>
<path fill-rule="evenodd" clip-rule="evenodd" d="M158.194 251.226L159.951 237.897L160.787 238.008L159.03 251.336L158.194 251.226Z" fill="#C66D32"/>
<path fill-rule="evenodd" clip-rule="evenodd" d="M154.744 252.428L156.535 238.646L157.371 238.754L155.58 252.536L154.744 252.428Z" fill="#C66D32"/>
<path fill-rule="evenodd" clip-rule="evenodd" d="M151.277 253.468L153.235 239.082L154.07 239.196L152.111 253.581L151.277 253.468Z" fill="#C66D32"/>
<path fill-rule="evenodd" clip-rule="evenodd" d="M147.842 254.568L149.585 240.951L150.422 241.058L148.679 254.675L147.842 254.568Z" fill="#C66D32"/>
<path fill-rule="evenodd" clip-rule="evenodd" d="M144.458 255.057L146.037 243.088L146.873 243.198L145.294 255.167L144.458 255.057Z" fill="#C66D32"/>
<path fill-rule="evenodd" clip-rule="evenodd" d="M141.04 256.013L142.429 245.482L143.265 245.593L141.876 256.123L141.04 256.013Z" fill="#C66D32"/>
<path fill-rule="evenodd" clip-rule="evenodd" d="M137.564 257.003L138.952 246.472L139.788 246.582L138.399 257.113L137.564 257.003Z" fill="#C66D32"/>
<path fill-rule="evenodd" clip-rule="evenodd" d="M134.273 257.107L135.505 247.76L136.341 247.87L135.109 257.217L134.273 257.107Z" fill="#C66D32"/>
<path fill-rule="evenodd" clip-rule="evenodd" d="M130.971 256.943L132.068 248.621L132.904 248.731L131.807 257.053L130.971 256.943Z" fill="#C66D32"/>
<path fill-rule="evenodd" clip-rule="evenodd" d="M127.747 256.117L128.629 249.43L129.465 249.54L128.583 256.227L127.747 256.117Z" fill="#C66D32"/>
<path fill-rule="evenodd" clip-rule="evenodd" d="M125.793 251.496L126.122 250.721L139.531 256.403L139.202 257.178L125.793 251.496Z" fill="#C66D32"/>
<path fill-rule="evenodd" clip-rule="evenodd" d="M130.642 249.42L130.967 248.643L145.834 254.86L145.509 255.637L130.642 249.42Z" fill="#C66D32"/>
<path fill-rule="evenodd" clip-rule="evenodd" d="M137.312 247.723L137.649 246.951L151.864 253.139L151.528 253.911L137.312 247.723Z" fill="#C66D32"/>
<path fill-rule="evenodd" clip-rule="evenodd" d="M142.152 245.636L142.482 244.861L157.512 251.249L157.183 252.024L142.152 245.636Z" fill="#C66D32"/>
<path fill-rule="evenodd" clip-rule="evenodd" d="M146.551 243.027L146.889 242.256L161.891 248.824L161.553 249.596L146.551 243.027Z" fill="#C66D32"/>
<path fill-rule="evenodd" clip-rule="evenodd" d="M150.54 240.738L150.868 239.961L165.038 245.944L164.711 246.721L150.54 240.738Z" fill="#C66D32"/>
<path fill-rule="evenodd" clip-rule="evenodd" d="M156.169 238.806L156.497 238.029L166.128 242.097L165.8 242.874L156.169 238.806Z" fill="#C66D32"/>
</g>
<path fill-rule="evenodd" clip-rule="evenodd" d="M164.634 240.441C164.594 240.365 164.552 240.288 164.508 240.211C164.484 241.774 163.971 243.29 163.042 244.548C160.499 248.195 156.746 249.277 151.063 250.913C149.353 251.405 147.413 251.963 145.343 252.65C141.34 254.023 137.144 254.751 132.912 254.807V254.807C131.182 254.893 129.449 254.667 127.798 254.14C126.872 253.843 126.083 253.222 125.578 252.391C125.518 252.662 125.506 252.941 125.543 253.216C125.959 254.331 126.876 255.186 128.018 255.523C129.669 256.049 131.402 256.275 133.133 256.189V256.189C137.364 256.133 141.56 255.405 145.563 254.032C147.638 253.346 149.576 252.788 151.283 252.295C156.965 250.658 160.718 249.577 163.262 245.93C164.448 244.364 164.944 242.382 164.634 240.441V240.441Z" fill="#C66D32"/>
<path d="M163.196 238.422L161.436 248.954" stroke="#E8914F"/>
<path d="M159.617 237.7L157.857 251.03" stroke="#E8914F"/>
<path d="M156.2 238.447L154.396 252.227" stroke="#E8914F"/>
<path d="M152.89 238.885L150.938 253.271" stroke="#E8914F"/>
<path d="M149.262 240.753L147.502 254.368" stroke="#E8914F"/>
<path d="M145.881 242.89L144.121 254.859" stroke="#E8914F"/>
<path d="M142.462 245.28L140.702 255.812" stroke="#E8914F"/>
<path d="M138.986 246.272L137.226 256.804" stroke="#E8914F"/>
<path d="M135.695 247.562L133.935 256.91" stroke="#E8914F"/>
<path d="M132.392 248.422L130.632 256.744" stroke="#E8914F"/>
<path d="M129.169 249.229L127.409 255.917" stroke="#E8914F"/>
<path d="M125.197 250.854L138.607 256.537" stroke="#E8914F"/>
<path d="M130.044 248.78L144.906 254.993" stroke="#E8914F"/>
<path d="M136.721 247.083L150.937 253.271" stroke="#E8914F"/>
<path d="M141.557 244.995L156.591 251.389" stroke="#E8914F"/>
<path d="M145.962 242.386L160.964 248.953" stroke="#E8914F"/>
<path d="M149.945 240.094L164.115 246.077" stroke="#E8914F"/>
<path d="M155.573 238.163L165.208 242.226" stroke="#E8914F"/>
<circle cx="270.295" cy="86.0287" r="22.1488" fill="#7A60A6"/>
<path fill-rule="evenodd" clip-rule="evenodd" d="M291.847 80.9441C290.625 75.7416 287.553 71.1608 283.204 68.0547C283.359 68.5739 286.351 79.075 277.836 89.6834C269.3 100.321 253.746 99.8992 253.053 99.8746C259.525 107.939 270.72 110.446 280.013 105.91C289.306 101.375 294.219 91.0082 291.844 80.9441H291.847Z" fill="#6D5298"/>
<path fill-rule="evenodd" clip-rule="evenodd" d="M290.194 80.9632C292.246 89.6742 288.43 98.712 280.756 103.317C273.082 107.921 263.312 107.036 256.591 101.127C264.738 105.248 274.589 103.86 281.281 97.6487C287.973 91.4374 290.09 81.7165 286.586 73.2852C288.312 75.5646 289.541 78.18 290.194 80.9632H290.194Z" fill="#5F4589"/>
<path opacity="0.25" fill-rule="evenodd" clip-rule="evenodd" d="M251.169 83.9183C250.289 80.181 252.606 76.4382 256.343 75.5586C260.081 74.6789 263.823 76.9955 264.703 80.7329C265.583 84.4702 263.266 88.213 259.529 89.0927C257.734 89.5152 255.845 89.2074 254.277 88.237C252.709 87.2666 251.591 85.7131 251.169 83.9183V83.9183Z" fill="#F298BB"/>
<path opacity="0.25" fill-rule="evenodd" clip-rule="evenodd" d="M252.739 81.5444C252.368 79.9666 252.983 78.3203 254.299 77.3733C255.614 76.4263 257.371 76.365 258.749 77.218C260.128 78.071 260.856 79.6704 260.596 81.2702C260.335 82.8701 259.136 84.1554 257.558 84.5267C255.404 85.0332 253.247 83.6982 252.739 81.5444V81.5444Z" fill="#F298BB"/>
<path opacity="0.25" fill-rule="evenodd" clip-rule="evenodd" d="M268.324 75.3441C267.445 71.6067 269.761 67.864 273.499 66.9843C277.236 66.1047 280.979 68.4213 281.859 72.1586C282.738 75.8959 280.422 79.6388 276.684 80.5185C274.89 80.9409 273.001 80.6331 271.433 79.6627C269.865 78.6923 268.747 77.1388 268.324 75.3441V75.3441Z" fill="#F298BB"/>
<path opacity="0.25" fill-rule="evenodd" clip-rule="evenodd" d="M270.364 72.5762C270.017 71.1027 270.592 69.5652 271.82 68.6808C273.049 67.7964 274.689 67.7391 275.976 68.5358C277.264 69.3324 277.944 70.8261 277.701 72.3202C277.457 73.8143 276.338 75.0146 274.864 75.3613C272.852 75.8348 270.838 74.5879 270.364 72.5762V72.5762Z" fill="#F298BB"/>
<path opacity="0.25" fill-rule="evenodd" clip-rule="evenodd" d="M259.77 71.2286C259.451 69.877 259.977 68.4661 261.104 67.6542C262.231 66.8424 263.736 66.7898 264.917 67.5208C266.098 68.2519 266.722 69.6226 266.497 70.9932C266.273 72.3638 265.245 73.4641 263.892 73.7806C263.007 73.9889 262.076 73.837 261.303 73.3584C260.53 72.8798 259.979 72.1137 259.77 71.2286V71.2286Z" fill="#F298BB"/>
<path opacity="0.25" fill-rule="evenodd" clip-rule="evenodd" d="M260.522 70.3765C260.35 69.6486 260.633 68.8887 261.24 68.4513C261.847 68.014 262.658 67.9856 263.294 68.3794C263.93 68.7731 264.265 69.5114 264.144 70.2496C264.023 70.9877 263.469 71.5801 262.741 71.7502C261.749 71.9817 260.757 71.3674 260.522 70.3765V70.3765Z" fill="#F298BB"/>
<path opacity="0.15" fill-rule="evenodd" clip-rule="evenodd" d="M277.621 68.0617C274.948 66.6432 264.873 64.7028 257.355 72.4617C251.228 78.8637 249.907 88.4769 254.08 96.2939C253.443 93.587 253.227 84.1499 259.142 76.9858C265.057 69.8217 273.642 68.4507 277.621 68.0617V68.0617Z" fill="#D6B6D8"/>
<path fill-rule="evenodd" clip-rule="evenodd" d="M277.62 68.0596C277.62 68.0596 265.384 64.3433 257.462 73.5684C249.541 82.7934 253.184 94.7632 254.08 96.2873C254.08 96.2873 246.621 83.6541 256.382 72.6233C265.496 62.3255 277.62 68.0596 277.62 68.0596V68.0596Z" fill="#D7CEE7"/>
<path fill-rule="evenodd" clip-rule="evenodd" d="M308.506 107.845C307.301 110.385 297.432 108.399 284.061 103.364C278.538 101.283 272.413 98.6787 266.055 95.662C259.47 92.5362 253.383 89.3216 248.155 86.2583C236.122 79.2131 228.586 72.9765 229.776 70.4711C230.906 68.0951 239.616 69.6844 251.688 74.0228C251.274 74.6674 250.892 75.3323 250.544 76.0151C245.647 74.6028 242.401 74.2763 241.884 75.3675C241.34 76.5115 243.908 79.0001 248.5 82.1048C254.573 86.0604 260.921 89.5767 267.496 92.6269C273.825 95.6904 280.354 98.3205 287.039 100.499C292.69 102.255 296.498 102.749 297.062 101.561C297.599 100.427 295.086 97.9738 290.572 94.9088C290.875 94.2186 291.143 93.5137 291.375 92.7967C302.682 99.5384 309.653 105.429 308.506 107.845V107.845Z" fill="#D5E9F9"/>
<path fill-rule="evenodd" clip-rule="evenodd" d="M308 108.555C306.794 111.095 296.926 109.109 283.555 104.074C278.031 101.992 271.907 99.3885 265.548 96.3718C258.963 93.2461 252.876 90.0314 247.648 86.9681C235.614 79.9229 228.08 73.6863 229.269 71.181C230.399 68.8049 239.162 70.4241 251.231 74.7617C250.841 75.4079 250.49 76.077 250.18 76.7654C245.283 75.3521 241.895 74.9852 241.38 76.0764C240.837 77.2204 243.404 79.709 247.997 82.8136C254.07 86.7694 260.418 90.2857 266.993 93.3359C273.322 96.3995 279.851 99.0296 286.536 101.208C292.187 102.964 295.995 103.458 296.56 102.27C297.097 101.136 294.718 98.7628 290.203 95.6978C290.505 95.0079 290.856 94.354 291.089 93.6368C302.392 100.378 309.147 106.14 308 108.555V108.555Z" fill="#F49639"/>
<path fill-rule="evenodd" clip-rule="evenodd" d="M308.506 107.845C307.301 110.385 297.432 108.399 284.061 103.364C278.538 101.283 272.413 98.6787 266.055 95.662C259.47 92.5362 253.383 89.3216 248.155 86.2583C236.122 79.2131 228.586 72.9765 229.776 70.4711C230.906 68.0951 239.616 69.6844 251.688 74.0228C251.274 74.6674 250.892 75.3323 250.544 76.0151C245.647 74.6028 242.401 74.2763 241.884 75.3675C241.34 76.5115 243.908 79.0001 248.5 82.1048C254.573 86.0604 260.921 89.5767 267.496 92.6269C273.825 95.6904 280.354 98.3205 287.039 100.499C292.69 102.255 296.498 102.749 297.062 101.561C297.599 100.427 295.086 97.9738 290.572 94.9088C290.875 94.2186 291.143 93.5137 291.375 92.7967C302.682 99.5384 309.653 105.429 308.506 107.845V107.845Z" fill="#FFE568"/>
<path fill-rule="evenodd" clip-rule="evenodd" d="M303.298 101.515C305.547 103.699 309.2 106.267 307.38 107.799C305.56 109.331 291.276 106.567 264.104 93.9287C264.104 93.9287 291.693 104.606 298.825 105.861C305.901 107.105 306.895 106.148 303.298 101.515V101.515Z" fill="#FCC231"/>
<path fill-rule="evenodd" clip-rule="evenodd" d="M242.796 71.7055C239.789 71.0974 232.377 69.2802 230.956 70.6618C229.535 72.0434 238.012 79.2691 241.071 80.993C241.071 80.993 233.466 74.8541 233.137 72.0231C232.891 69.9094 242.796 71.7055 242.796 71.7055V71.7055Z" fill="#FFEDB2"/>
<path fill-rule="evenodd" clip-rule="evenodd" d="M250.481 75.1732C248.576 74.5815 246.634 74.113 244.668 73.7705C241.866 73.3252 238.521 72.8808 238.865 74.786C239.209 76.6912 241.761 79.0285 246.93 82.618C252.1 86.2075 260.827 91.1135 260.827 91.1135C260.827 91.1135 248.052 84.6983 243.16 81.2663C238.267 77.8343 235.314 74.3653 235.996 72.872C236.848 71.0091 244.602 72.256 250.839 74.72L250.481 75.1732Z" fill="#FFDA60"/>
<path fill-rule="evenodd" clip-rule="evenodd" d="M60.1091 112.439C60.1091 112.439 37.3664 115.773 18.9603 109.253C18.4452 109.068 18.1633 108.513 18.317 107.988C18.6215 106.944 19.1336 105.104 19.637 102.924C20.8136 97.8364 60.1091 112.439 60.1091 112.439V112.439Z" fill="#A9CBD3"/>
<path fill-rule="evenodd" clip-rule="evenodd" d="M19.6366 102.924C19.3251 104.272 19.0109 105.489 18.7443 106.47V106.47C37.1231 113.759 60.1043 112.439 60.1043 112.439C60.1043 112.439 20.8122 97.8364 19.6366 102.924V102.924Z" fill="#8CB8BF"/>
<path fill-rule="evenodd" clip-rule="evenodd" d="M23.3821 81.498C23.3821 81.498 23.5581 91.398 20.8513 96.4897C18.1444 101.581 50.8355 112.956 60.1098 112.441C60.1098 112.441 47.3806 101.715 40.3977 93.1361C35.8669 87.8069 29.9915 83.7884 23.3821 81.498V81.498Z" fill="#CCE4EA"/>
<path opacity="0.5" fill-rule="evenodd" clip-rule="evenodd" d="M20.8511 96.4898C18.146 101.581 50.8353 112.956 60.1096 112.441C45.2948 107.689 25.0038 90.8384 25.0038 90.8384C24.8914 87.6656 24.3457 84.523 23.3819 81.498C23.3819 81.4981 23.5562 91.3981 20.8511 96.4898V96.4898Z" fill="#A9CBD3"/>
<path fill-rule="evenodd" clip-rule="evenodd" d="M13.4112 84.2268C12.4642 84.3975 8.05898 85.1297 3.40385 85.5363C-3.59125 86.147 -9.62804 84.951 -8.84396 86.8263C-8.14433 88.4983 2.78349 99.2247 18.4669 105.113C34.1502 111.001 53.7452 112.945 60.1094 112.439C51.0863 109.107 42.395 104.938 34.1494 99.9849C21.171 92.0773 16.1278 83.7349 13.4112 84.2268V84.2268Z" fill="#F7FCFE"/>
<path fill-rule="evenodd" clip-rule="evenodd" d="M60.1096 112.439C60.1096 112.439 51.5525 103.607 46.5716 93.9975C40.0491 81.4083 38.5011 71.7494 37.8103 70.8271C37.1195 69.9049 34.2146 72.1119 29.5752 75.6671C27.3509 77.4326 25.279 79.3822 23.3818 81.4953C23.3818 81.4954 45.4223 107.362 60.1096 112.439V112.439Z" fill="#F7FCFE"/>
<path fill-rule="evenodd" clip-rule="evenodd" d="M9.91849 86.2021C2.36985 88.0898 -6.76541 86.5418 -4.6578 89.1308C-2.55018 91.7198 18.2662 107.804 48.0446 110.46C48.0446 110.46 22.023 103.988 10.5037 96.9769C-3.03068 88.74 1.98528 88.8404 4.12641 88.3528C6.16378 87.9651 8.12165 87.2381 9.91849 86.2021V86.2021Z" fill="white"/>
<path fill-rule="evenodd" clip-rule="evenodd" d="M55.8257 109.611C55.8257 109.611 35.5689 93.9597 25.5977 81.8711C25.5977 81.8711 29.7337 76.3042 34.8906 73.5498C34.8906 73.5498 30.6287 77.4412 29.3307 79.9738C28.7297 81.1477 29.9185 83.6153 31.9258 86.2007C36.6823 92.3299 55.8257 109.611 55.8257 109.611V109.611Z" fill="white"/>
<path fill-rule="evenodd" clip-rule="evenodd" d="M245.54 149.139C245.54 149.139 228.595 156.413 212.98 155.152C212.542 155.114 212.209 154.742 212.22 154.303C212.241 153.43 212.258 151.899 212.2 150.106C212.065 145.918 245.54 149.139 245.54 149.139V149.139Z" fill="#A9CBD3"/>
<path fill-rule="evenodd" clip-rule="evenodd" d="M212.203 150.105C212.239 151.215 212.246 152.223 212.242 153.038V153.038C227.994 154.9 245.539 149.14 245.539 149.14C245.539 149.14 212.065 145.918 212.203 150.105V150.105Z" fill="#8CB8BF"/>
<path fill-rule="evenodd" clip-rule="evenodd" d="M210.689 132.723C210.689 132.723 212.866 140.361 211.817 144.867C210.769 149.372 238.457 151.45 245.54 149.139C245.54 149.139 233.461 143.448 226.281 138.236C221.67 135.039 216.286 133.135 210.689 132.723V132.723Z" fill="#CCE4EA"/>
<path opacity="0.5" fill-rule="evenodd" clip-rule="evenodd" d="M211.817 144.867C210.77 149.371 238.457 151.45 245.54 149.139C233.076 148.512 213.871 139.629 213.871 139.629C213.13 137.193 212.06 134.869 210.689 132.723C210.689 132.723 212.865 140.36 211.817 144.867V144.867Z" fill="#A9CBD3"/>
<path fill-rule="evenodd" clip-rule="evenodd" d="M203.525 136.891C202.826 137.22 199.565 138.694 196.037 139.971C190.74 141.887 185.814 142.204 186.808 143.497C187.695 144.649 198.378 150.713 211.75 152.043C225.122 153.374 240.714 150.844 245.542 149.139C237.86 148.416 230.263 146.975 222.85 144.835C211.155 141.374 205.527 135.95 203.525 136.891V136.891Z" fill="#F7FCFE"/>
<path fill-rule="evenodd" clip-rule="evenodd" d="M245.54 149.139C245.54 149.139 237.086 144.056 231.243 137.63C223.591 129.216 220.401 122.046 219.674 121.474C218.947 120.901 217.152 123.212 214.289 126.93C212.928 128.757 211.724 130.696 210.689 132.725C210.689 132.725 233.108 148.23 245.54 149.139V149.139Z" fill="#F7FCFE"/>
<path fill-rule="evenodd" clip-rule="evenodd" d="M201.222 139.144C195.759 142.162 188.358 142.846 190.525 144.418C192.693 145.991 212.146 154.168 235.778 150.09C235.778 150.09 214.272 150.438 203.897 147.376C191.705 143.78 195.616 142.825 197.174 142.002C198.674 141.282 200.042 140.316 201.222 139.144V139.144Z" fill="white"/>
<path fill-rule="evenodd" clip-rule="evenodd" d="M241.635 147.829C241.635 147.829 222.706 139.872 212.484 132.555C212.484 132.555 214.545 127.385 217.973 124.188C217.973 124.188 215.471 128.082 214.987 130.313C214.763 131.347 216.193 133.016 218.282 134.606C223.233 138.378 241.635 147.829 241.635 147.829V147.829Z" fill="white"/>
<path fill-rule="evenodd" clip-rule="evenodd" d="M2.25267 148.465H-6.57546C-7.29616 142.485 -12.3693 137.984 -18.3929 137.982V132.429C-18.3952 125.654 -23.8863 120.166 -30.6582 120.167L-30.6548 120.167C-37.4269 120.167 -42.9167 125.657 -42.9167 132.429V136.056C-44.6393 132.551 -48.5517 130.697 -52.3555 131.584C-56.1592 132.47 -58.849 135.863 -58.8446 139.768L-58.8447 148.466H-69.1706C-71.1994 148.467 -72.8438 150.111 -72.8438 152.14H-72.8437C-72.8438 154.168 -71.1999 155.812 -69.1716 155.813H2.25192C4.28069 155.813 5.92543 154.169 5.92596 152.14V152.14C5.9264 151.167 5.53979 150.232 4.851 149.542C4.16232 148.853 3.22796 148.466 2.25354 148.465H2.25267Z" fill="white"/>
<circle cx="168.166" cy="50.6128" r="6.44776" fill="white" fill-opacity="0.2"/>
<path fill-rule="evenodd" clip-rule="evenodd" d="M168.166 58.1696V58.1696C167.564 58.1696 167.076 57.6819 167.076 57.0801V44.1441C167.076 43.5423 167.564 43.0547 168.166 43.0547V43.0547C168.455 43.0547 168.732 43.1694 168.936 43.3738C169.141 43.5781 169.255 43.8552 169.255 44.1441V57.0801C169.255 57.3696 169.14 57.6467 168.936 57.8509C168.731 58.0551 168.454 58.1697 168.165 58.1696H168.166Z" fill="white" fill-opacity="0.298039"/>
<path fill-rule="evenodd" clip-rule="evenodd" d="M175.722 50.6119V50.6119C175.722 51.2137 175.235 51.7018 174.633 51.7022H161.697C161.095 51.7018 160.607 51.2137 160.607 50.6119V50.6119C160.608 50.3224 160.722 50.0454 160.927 49.8412C161.131 49.637 161.408 49.5223 161.697 49.5225H174.633C174.922 49.5225 175.199 49.6372 175.403 49.8416C175.607 50.0458 175.722 50.323 175.722 50.6119V50.6119Z" fill="white" fill-opacity="0.298039"/>
<path fill-rule="evenodd" clip-rule="evenodd" d="M172.739 50.613V50.613C172.739 51.2152 172.251 51.7033 171.649 51.7033H164.682C164.08 51.7033 163.592 51.2152 163.592 50.613V50.613C163.593 50.0115 164.081 49.5244 164.682 49.5244H171.649C172.251 49.5244 172.739 50.0115 172.739 50.613V50.613Z" fill="white"/>
<path fill-rule="evenodd" clip-rule="evenodd" d="M168.166 55.1863V55.1863C167.564 55.1863 167.076 54.6981 167.076 54.096V47.1255C167.076 46.5233 167.564 46.0352 168.166 46.0352V46.0352C168.768 46.0356 169.255 46.5236 169.255 47.1255V54.0924C169.256 54.3821 169.142 54.6602 168.938 54.8654C168.733 55.0706 168.456 55.1861 168.166 55.1863V55.1863Z" fill="white"/>
<path fill-rule="evenodd" clip-rule="evenodd" d="M207.214 94.2956C207.214 93.3359 207.992 92.5578 208.951 92.5576C209.911 92.5575 210.689 93.3353 210.69 94.2951C210.69 95.2548 209.912 96.0331 208.952 96.0336C208.491 96.0338 208.049 95.8508 207.723 95.5249C207.397 95.1989 207.214 94.7567 207.214 94.2956V94.2956Z" fill="#FFEDB2"/>
<path fill-rule="evenodd" clip-rule="evenodd" d="M91.189 43.0564C91.1893 42.3528 91.613 41.7193 92.2625 41.4505C92.912 41.1817 93.6596 41.3306 94.1564 41.8279C94.6533 42.3251 94.8018 43.0727 94.5325 43.7221C94.2633 44.3714 93.6294 44.7947 92.9264 44.7944C91.9667 44.7941 91.189 44.016 91.189 43.0564V43.0564Z" fill="#FFEDB2"/>
<path fill-rule="evenodd" clip-rule="evenodd" d="M83.923 87.6774C83.9227 86.9741 84.346 86.3397 84.9957 86.0703C85.6455 85.8008 86.3936 85.9493 86.891 86.4465C87.3886 86.9437 87.5376 87.6916 87.2685 88.3416C86.9995 88.9915 86.3654 89.4153 85.662 89.4153C85.2009 89.4156 84.7585 89.2326 84.4324 88.9066C84.1062 88.5807 83.923 88.1385 83.923 87.6774V87.6774Z" fill="#FFEDB2"/>
<path fill-rule="evenodd" clip-rule="evenodd" d="M188.401 39.4001C188.4 38.6974 188.824 38.0631 189.473 37.7938C190.123 37.5244 190.871 37.6729 191.369 38.1701C191.866 38.6672 192.015 39.4151 191.746 40.065C191.477 40.7148 190.843 41.1387 190.14 41.1389C189.679 41.1391 189.236 40.9559 188.91 40.6298C188.584 40.3037 188.401 39.8613 188.401 39.4001V39.4001Z" fill="#FFEDB2"/>
</g>
<defs>
<linearGradient id="paint0_linear_217_14923" x1="82.9384" y1="204.059" x2="82.9384" y2="272.043" gradientUnits="userSpaceOnUse">
<stop stop-color="#F59D10" stop-opacity="0.501961"/>
<stop offset="0.144" stop-color="#F59D10" stop-opacity="0.470588"/>
<stop offset="0.361" stop-color="#F59D12" stop-opacity="0.384314"/>
<stop offset="0.624" stop-color="#F69E16" stop-opacity="0.247059"/>
<stop offset="0.921" stop-color="#F69F1B" stop-opacity="0.054902"/>
<stop offset="1" stop-color="#F7A01D" stop-opacity="0.01"/>
</linearGradient>
<linearGradient id="paint1_linear_217_14923" x1="155.176" y1="114.6" x2="155.176" y2="97.2228" gradientUnits="userSpaceOnUse">
<stop stop-color="#F2A37C"/>
<stop offset="0.09" stop-color="#F2A47D" stop-opacity="0.968627"/>
<stop offset="0.225" stop-color="#F2A780" stop-opacity="0.882353"/>
<stop offset="0.39" stop-color="#F3AC86" stop-opacity="0.741176"/>
<stop offset="0.577" stop-color="#F4B28D" stop-opacity="0.54902"/>
<stop offset="0.783" stop-color="#F6BB97" stop-opacity="0.298039"/>
<stop offset="1" stop-color="#F8C6A3" stop-opacity="0.01"/>
</linearGradient>
<linearGradient id="paint2_linear_217_14923" x1="172.265" y1="113.134" x2="172.265" y2="97.1909" gradientUnits="userSpaceOnUse">
<stop stop-color="#F2A37C"/>
<stop offset="0.09" stop-color="#F2A47D" stop-opacity="0.968627"/>
<stop offset="0.225" stop-color="#F2A780" stop-opacity="0.882353"/>
<stop offset="0.39" stop-color="#F3AC86" stop-opacity="0.741176"/>
<stop offset="0.577" stop-color="#F4B28D" stop-opacity="0.54902"/>
<stop offset="0.783" stop-color="#F6BB97" stop-opacity="0.298039"/>
<stop offset="1" stop-color="#F8C6A3" stop-opacity="0.01"/>
</linearGradient>
</defs>
</svg>
