<svg width="488" height="468" viewBox="0 0 488 468" fill="none" xmlns="http://www.w3.org/2000/svg">
<path d="M243.369 311.24C109.199 311.24 0.116577 412.706 0.116577 540.466C0.116577 668.226 109.299 772.1 243.369 772.1C377.539 772.1 486.621 668.226 486.621 540.466C486.621 412.706 377.438 311.24 243.369 311.24Z" fill="url(#paint0_linear_217_13390)"/>
<path d="M160.478 354.095C160.98 353.994 161.08 353.894 160.478 354.095V354.095Z" fill="url(#paint1_linear_217_13390)"/>
<path d="M109.199 361.622C108.496 360.919 107.091 360.618 106.79 362.124C106.69 362.525 111.406 363.83 109.199 361.622Z" fill="url(#paint2_linear_217_13390)"/>
<path d="M94.447 359.213C95.4506 360.116 95.3502 360.016 95.2498 359.615C96.0527 359.916 97.5579 359.715 99.2639 359.313C99.6653 359.313 99.9664 359.213 100.267 359.012C102.375 358.41 104.482 357.507 104.984 357.106C105.285 356.804 105.385 356.604 105.385 356.403C105.385 356.303 105.285 356.303 105.285 356.202C104.884 355.901 103.679 356.002 102.375 356.102C102.676 356.002 102.977 355.801 103.178 355.6C102.676 355.801 102.074 356.002 101.572 356.303C99.3642 356.704 97.0562 357.206 97.0562 357.206C97.0562 357.306 97.5579 357.507 98.0597 357.708C97.859 357.708 97.7586 357.808 97.5579 357.808H97.4576C97.1565 357.908 96.8555 357.908 96.5544 358.009C95.9523 358.009 95.4505 358.209 96.2534 358.109C95.7516 358.209 95.3502 358.41 95.1495 358.611C95.1495 358.511 95.1495 358.511 95.2498 358.511C94.6477 358.812 94.146 359.314 94.447 359.213Z" fill="url(#paint3_linear_217_13390)"/>
<path d="M95.0491 358.511C95.2498 358.31 95.4505 358.21 95.0491 358.511V358.511Z" fill="url(#paint4_linear_217_13390)"/>
<path d="M105.184 356.303L105.084 356.202C105.084 356.202 105.084 356.202 105.184 356.303Z" fill="url(#paint5_linear_217_13390)"/>
<path d="M104.783 357.306C104.883 357.206 104.983 357.306 104.783 357.306V357.306Z" fill="url(#paint6_linear_217_13390)"/>
<path d="M104.783 357.306C104.984 357.306 105.586 356.604 104.783 357.306V357.306Z" fill="url(#paint7_linear_217_13390)"/>
<path d="M97.2568 356.905C97.3572 356.804 97.4575 356.804 97.5579 356.804C97.3572 356.804 97.2568 356.905 97.2568 356.905Z" fill="url(#paint8_linear_217_13390)"/>
<path d="M251.798 435.388C253.203 434.785 258.722 434.183 259.626 433.18C264.041 428.262 261.833 422.642 255.511 423.344C250.193 423.846 248.587 436.692 251.798 435.388Z" fill="url(#paint9_linear_217_13390)"/>
<path d="M255.511 423.244C255.411 423.244 256.515 423.143 255.511 423.244V423.244Z" fill="url(#paint10_linear_217_13390)"/>
<path d="M367.403 374.87C368.908 376.576 379.044 378.884 380.85 377.579C380.85 377.278 380.95 377.077 380.95 376.776C380.95 372.662 370.012 374.769 379.947 366.841C382.757 364.532 394.799 364.532 395.2 361.923C395.602 359.113 377.338 362.927 377.237 362.927C372.922 363.629 365.898 373.264 367.403 374.87Z" fill="url(#paint11_linear_217_13390)"/>
<path d="M381.553 351.586C378.843 349.879 380.047 350.181 378.04 350.582C374.829 351.285 371.618 350.281 368.407 349.779C366.4 349.478 364.192 349.077 362.185 349.578C361.382 349.779 360.178 350.181 360.178 351.184C360.178 352.489 362.285 351.786 363.289 351.887C366.6 352.188 370.012 352.589 373.324 352.79C375.933 352.89 379.144 353.091 381.553 351.586C381.452 351.586 381.452 351.586 381.553 351.586Z" fill="url(#paint12_linear_217_13390)"/>
<path d="M193.093 623.867C191.286 624.268 189.079 623.064 188.175 621.558C183.358 614.332 178.642 619.35 173.725 615.637C171.316 613.931 153.955 607.809 153.955 606.906C153.955 605.701 150.343 600.784 150.242 598.676C150.242 594.662 147.332 590.948 144.221 588.64C140.709 586.03 133.684 588.539 131.376 586.03C129.67 584.224 128.265 582.116 126.66 580.209C126.66 580.209 123.449 577.7 123.348 577.7C119.836 577.901 121.943 575.392 119.736 573.385C119.435 573.184 112.41 570.073 111.306 571.077C109.6 572.582 101.973 571.98 99.7657 570.575C101.973 569.27 93.4435 567.865 90.433 570.575C90.9347 565.958 82.4049 567.263 82.3045 569.872C80.1972 567.664 74.3767 578.804 74.6778 579.607C70.3627 569.471 61.9331 581.213 56.4138 571.277C54.7078 568.166 60.9296 554.416 55.1093 555.32C55.7114 551.807 44.9738 554.416 42.9667 553.413C44.8734 547.592 50.4931 541.972 50.4931 535.649C50.4931 532.839 46.2783 533.943 44.8734 534.344C39.2537 535.749 39.5548 539.061 36.5442 543.477C34.9386 545.886 27.5126 545.484 26.0073 544.581C21.0901 541.771 18.7821 534.143 20.5884 528.322C20.5884 521.699 26.3084 516.379 27.7133 511.161C27.8137 510.659 40.4579 506.343 42.0636 507.247C43.8699 508.25 41.1604 512.064 45.9773 509.856C50.3928 507.849 48.7871 505.54 53.905 505.44C54.9085 505.44 64.3416 506.845 64.5423 507.146C68.0546 511.161 65.044 517.785 68.456 523.003C71.0651 526.917 72.169 509.655 72.169 509.354C71.7676 501.225 79.294 494.3 86.3186 491.289C92.139 488.78 91.9383 485.368 95.1495 480.55C97.4576 478.844 100.167 474.93 101.873 472.421C102.676 470.514 110.102 469.611 110.102 467.303C110.303 467.403 129.57 450.542 133.785 453.754C133.986 457.166 128.366 455.36 127.362 458.17C123.649 464.894 132.681 457.467 132.982 457.267C133.685 457.869 133.484 457.467 133.283 458.27C133.684 458.471 142.315 456.363 142.315 454.557C145.727 456.162 146.028 449.438 144.924 449.639C142.515 450.041 141.211 454.858 137.899 453.754C131.376 451.546 136.193 449.84 135.491 447.03C135.19 445.825 141.111 442.112 135.29 442.112C128.165 442.112 123.75 449.639 118.13 449.84C121.442 447.531 125.456 442.413 129.871 442.413C131.978 442.112 133.183 439.503 136.394 439.201C141.412 438.8 146.831 439.804 151.346 438.599C153.654 435.588 157.97 435.087 161.08 434.284C164.191 433.481 162.285 432.076 163.991 430.771C166.299 429.065 162.586 427.76 162.385 426.556C162.084 424.248 160.278 424.047 158.471 422.642C156.966 421.437 155.561 419.731 156.264 417.624C156.565 416.72 155.963 415.215 155.862 414.312C155.561 412.706 155.561 410.498 154.959 408.993C153.955 406.684 150.945 409.494 149.44 410.197C147.834 410.899 146.128 411.502 144.422 411.903C141.913 412.505 139.103 412.305 141.311 409.294C146.73 401.867 133.885 401.164 129.57 400.362C127.563 399.458 118.03 411.502 118.23 412.104C118.732 415.817 118.431 415.918 118.13 419.932C117.126 421.939 111.406 424.147 109.098 424.047C108.396 424.047 105.586 433.983 104.081 435.588C104.181 433.682 101.572 435.287 100.368 435.287C101.171 434.183 100.167 432.979 99.0632 432.778C100.769 433.079 101.572 425.151 101.271 424.147C100.669 422.24 99.1636 422.24 97.4576 421.839C94.447 421.237 92.0386 419.631 89.1284 418.728C86.9207 418.025 84.3115 417.323 81.9031 417.323C82.2042 417.022 84.4119 412.505 84.0105 412.104C80.3978 409.294 81.7024 410.498 86.5193 405.681C88.2252 404.075 92.2393 400.863 94.6478 400.863C101.773 400.863 109.6 390.426 116.625 390.426C115.521 391.429 108.697 397.15 111.306 399.057C112.209 399.86 116.725 398.254 117.829 398.053C119.234 397.752 121.341 397.752 122.545 396.748C123.75 395.645 122.847 394.842 122.445 393.738C121.843 391.931 122.244 391.329 123.75 390.225C125.757 388.72 127.764 387.314 129.57 385.709C130.674 384.705 134.287 381.694 132.079 380.088C132.079 380.189 143.318 378.884 144.924 380.49C147.232 382.899 149.64 388.017 145.626 388.017C143.118 388.017 142.315 389.422 142.816 391.429C140.508 392.232 131.577 390.426 130.674 394.139C129.871 397.551 140.408 393.938 141.11 395.143C143.218 399.057 142.816 399.358 145.526 400.06C146.73 400.362 150.242 402.77 151.547 402.068C152.35 401.666 152.35 401.265 153.454 401.064C154.257 400.863 155.26 400.663 156.063 400.763C156.464 400.763 157.066 401.164 157.468 401.064C158.471 400.863 159.073 399.559 159.374 398.756C159.876 397.551 160.98 394.139 159.174 393.336C154.658 391.429 160.278 385.608 161.883 392.533C162.485 395.143 174.126 389.824 168.707 386.01C167.804 385.307 162.586 383.099 161.281 382.497C162.987 381.895 171.015 374.067 160.98 375.873C159.876 376.074 158.572 373.565 157.367 373.364C156.364 373.264 155.661 373.465 154.859 372.561C154.257 371.859 153.955 370.956 153.253 370.253C152.149 369.149 150.744 368.547 149.239 368.547C142.315 368.547 148.938 369.45 147.031 372.06C146.63 372.561 144.221 372.06 144.021 371.357C143.72 370.454 144.924 369.551 144.924 368.547C144.924 367.744 141.412 368.346 141.01 368.447C140.007 368.547 139.405 368.748 138.501 368.346C137.699 368.045 136.896 367.644 135.993 367.644C134.889 367.644 133.785 367.744 132.681 367.844C130.774 368.045 128.767 368.447 126.861 368.447C127.663 368.045 118.13 365.235 116.524 366.239C113.915 366.239 107.693 364.332 105.586 365.436C103.077 366.841 109.098 366.54 109.5 367.041C108.396 367.543 106.991 367.242 105.887 367.543C104.482 367.945 104.081 369.249 102.977 369.852C101.873 370.454 99.6654 369.249 98.8625 370.554C96.153 374.268 104.783 373.364 105.385 373.164C107.292 374.97 110.704 372.862 113.012 371.959C112.51 372.16 111.808 373.264 111.306 373.665C110.704 374.167 110.102 374.569 109.5 374.87C108.597 375.371 107.593 375.673 106.69 376.174C106.088 376.475 105.686 376.777 105.787 377.479C105.987 378.483 106.991 379.085 106.69 380.189C105.987 382.397 104.482 383.2 102.575 384.203C102.074 384.504 98.2604 385.709 98.1601 385.909C98.3608 385.408 99.0632 385.006 99.4646 384.605C99.866 384.203 101.171 383.601 100.267 383.2C100.267 383.2 100.167 383.2 100.167 383.099V382.999C100.569 382.296 100.669 382.196 101.472 381.895C102.174 381.594 103.679 381.494 103.679 380.59C103.679 379.687 102.776 379.687 102.074 379.587C101.271 379.486 100.468 379.386 99.6653 379.486C98.0597 379.587 96.3537 380.088 95.6513 381.594C98.8625 383.802 89.3291 384.705 87.9242 384.805C87.4224 384.805 84.4119 383.4 81.2006 382.397C85.8168 382.497 89.7306 382.196 90.8344 379.787C90.9348 379.486 94.8485 380.49 94.8485 378.282C94.4471 376.676 90.2323 376.877 90.2323 375.873C89.8309 374.067 98.5614 369.45 98.5614 368.848C98.6618 368.145 92.9417 367.644 92.5403 368.647C92.44 368.748 93.1425 369.751 93.2428 369.852C89.1284 369.852 88.426 370.956 84.9137 373.966C85.014 373.063 85.2147 366.941 83.2077 369.952C83.007 370.153 83.007 373.063 80.4982 371.859C79.9964 366.439 67.5528 382.397 65.9472 383.099C67.8539 382.296 70.5634 382.096 73.574 382.196C73.2729 382.397 73.0722 382.698 72.9718 383.099C72.47 383.902 74.3767 384.203 74.6778 384.304C73.5739 385.809 72.7711 384.805 72.3697 387.415L71.4665 387.114C71.4665 386.512 71.868 384.705 69.6602 384.805C69.8609 384.504 71.5669 384.003 71.5669 383.902C71.5669 383.701 71.4666 383.501 71.2659 383.4C71.5669 383.3 71.6673 383.3 71.0652 383.3C70.7641 383.3 69.4595 383.501 69.7606 383.601C66.5494 384.605 60.1268 388.92 60.3275 388.72C52.6005 396.949 45.4755 405.781 39.053 415.115C26.208 433.782 16.1729 454.356 9.54972 476.034C2.82617 498.114 -0.385107 521.197 0.11665 544.18C1.42122 547.592 9.65003 549.699 12.9616 551.907C19.1834 556.123 24.1006 549.8 28.8172 554.718C31.5266 557.829 34.8383 561.743 39.5548 561.743C42.2643 563.248 50.2924 566.962 49.0882 570.675C49.2889 570.073 55.31 580.711 57.1163 580.711C58.0194 580.711 57.9191 577.801 60.729 579.808C60.3276 580.31 59.4244 580.812 59.324 580.912C59.1233 581.213 59.9261 582.417 60.0265 582.417C59.7254 582.417 69.1585 581.514 63.8398 579.206C71.7676 575.492 70.9648 582.819 72.169 589.944C71.868 588.339 70.4631 587.937 70.0616 586.331C67.2518 579.808 68.0546 585.529 63.9402 584.926C68.1549 585.529 60.8293 588.339 60.0265 588.339C59.9261 588.339 59.1233 587.134 59.324 586.833C59.4244 586.733 60.3276 586.03 60.729 585.729C58.0195 583.722 58.0194 586.633 57.1163 586.633C55.8117 586.633 52.2994 579.908 51.3962 579.206C51.1955 579.808 50.9949 580.31 50.6938 580.912C50.1921 580.912 47.8839 578.503 48.3857 577.7C46.3787 574.991 45.9773 571.578 41.3611 568.367C36.3435 564.854 33.333 565.757 28.8172 560.639C25.3048 557.026 21.2908 559.836 17.2767 559.535C13.5637 559.134 1.92299 553.313 0.317366 550.502C2.3244 593.056 16.8753 634.304 41.3611 669.029C53.5036 686.191 67.9542 701.647 84.2112 715.095C92.44 721.82 101.07 728.042 110.002 733.662C114.417 736.472 126.66 746.508 132.179 745.003C135.591 744.2 131.778 736.974 131.979 736.974C136.193 736.272 142.114 739.082 144.221 733.361C144.221 727.239 145.426 732.056 142.816 727.139C142.616 726.537 140.809 724.328 139.806 723.024C143.519 725.131 159.274 722.422 155.561 713.188C155.16 712.285 157.769 708.07 157.97 708.371C158.471 708.873 155.561 712.586 156.966 712.586C159.776 712.586 162.485 697.733 162.084 696.428C160.98 688.801 168.707 689.905 170.313 687.295C172.822 683.481 180.147 685.288 182.255 680.671C186.369 674.349 186.67 662.004 186.168 653.975C186.971 650.563 205.837 622.662 193.093 623.867ZM123.348 373.063C113.413 381.995 132.581 377.479 132.781 379.185C132.781 380.59 129.369 379.486 128.968 379.486C124.553 379.888 127.964 380.791 126.56 382.096C125.556 383.501 122.545 383.702 121.141 384.504C120.739 384.705 117.026 387.616 116.725 387.114C115.722 384.705 116.023 384.705 118.03 384.705C120.639 384.705 117.729 381.895 117.227 381.192C116.223 379.787 115.22 378.081 114.919 376.375C114.919 376.275 114.116 372.762 113.414 373.966C114.417 372.06 121.843 373.966 123.348 373.063ZM51.898 569.471C51.4966 569.772 49.9913 568.768 49.2889 569.17C49.9913 568.467 48.9878 567.765 48.9878 567.162C49.891 566.962 52.7008 568.969 51.898 569.471ZM89.2288 573.385C89.8309 572.983 90.2323 572.381 90.3327 571.679C90.3327 578.303 88.4259 574.388 89.2288 573.385C89.1284 573.485 89.1284 573.485 89.2288 573.385ZM61.7325 618.246C62.8364 615.135 62.4349 616.741 64.743 615.336C64.2413 617.644 61.03 619.15 61.7325 618.246ZM87.7235 668.628C81.5017 664.413 80.0968 661.301 76.0827 655.681C71.868 648.455 57.016 630.691 62.2342 625.272C62.4349 625.573 61.5317 626.978 61.4314 627.379C61.6321 626.677 66.1479 632.096 66.9507 633.301C68.3556 636.111 70.3627 641.33 72.3697 643.638C76.4841 647.853 76.7852 655.38 81.7024 658.993C85.9172 662.707 93.0421 663.911 95.9523 668.728C96.6548 670.033 100.067 682.779 98.0597 683.682C97.7586 682.879 97.4576 682.177 97.4576 681.273C97.4576 674.549 93.0421 671.739 87.7235 668.628ZM98.1601 686.593C98.1601 685.689 98.2604 686.191 98.1601 686.593V686.593ZM98.1601 689.202C98.4611 692.112 99.0632 694.22 98.8625 697.432C98.6618 695.625 98.1601 694.019 98.1601 692.113C96.5544 692.012 98.0597 689.704 98.1601 689.202ZM98.5614 698.034C99.3643 697.03 98.5615 698.736 98.6618 699.238C98.5615 698.837 98.6618 699.138 98.6618 699.238C98.8625 700.543 97.859 698.837 98.5614 698.034ZM98.6618 705.461C99.4646 706.765 101.672 718.809 101.271 720.013C101.271 719.913 101.371 719.812 101.271 720.013C99.7657 722.422 98.5615 708.471 98.6618 705.461ZM100.97 724.027C100.267 725.934 102.074 721.217 100.97 724.027V724.027Z" fill="url(#paint13_linear_217_13390)"/>
<path d="M404.734 369.149C404.834 369.249 404.934 369.249 405.035 369.35C405.035 369.35 405.035 369.35 405.135 369.35C405.035 369.35 404.934 369.249 404.734 369.149Z" fill="url(#paint14_linear_217_13390)"/>
<path d="M404.433 368.948C404.333 368.748 404.333 368.848 404.433 368.948V368.948Z" fill="url(#paint15_linear_217_13390)"/>
<path d="M404.734 369.149C404.633 369.049 404.533 369.049 404.433 368.948C404.533 368.948 404.633 369.049 404.734 369.149Z" fill="url(#paint16_linear_217_13390)"/>
<path d="M405.135 369.35C405.135 369.45 405.235 369.45 405.135 369.35V369.35Z" fill="url(#paint17_linear_217_13390)"/>
<path d="M474.077 467.102C462.737 435.087 443.871 406.082 419.686 382.196C419.586 382.296 418.883 382.598 418.883 382.598C418.181 384.504 419.887 386.11 418.181 389.522C418.08 389.723 412.461 389.522 412.461 389.021C425.306 388.218 409.149 372.06 405.135 369.35C404.734 369.049 399.415 374.669 399.114 376.174C399.114 377.479 405.336 380.189 405.537 381.895C405.637 382.999 388.176 377.479 388.176 379.888C388.075 379.787 382.556 375.673 382.957 378.583C382.957 379.787 387.774 380.088 388.477 381.092C388.477 381.694 388.176 382.196 387.674 382.497C386.57 382.798 375.933 383.2 376.234 383.501C372.922 378.583 361.382 391.831 359.174 386.813C358.873 386.11 357.97 383.501 356.866 383.501C356.164 383.501 354.056 386.913 353.454 387.616C352.752 388.418 351.748 388.619 351.046 389.522C350.444 390.225 350.444 391.229 349.841 391.831C348.938 392.834 347.032 393.738 345.827 394.44C344.924 394.942 344.623 395.042 344.422 396.247C343.921 399.057 332.481 389.422 332.581 388.418C335.792 387.716 340.007 390.024 343.319 390.225C346.229 390.626 353.053 386.11 348.938 385.307C338.1 382.196 325.556 375.271 314.618 376.074C307.694 376.576 300.368 378.282 293.946 381.192C291.236 382.397 293.444 386.211 290.433 387.515C286.821 388.92 285.516 394.039 282.405 396.247C279.696 398.154 272.471 400.06 270.464 402.569C268.758 404.677 271.768 408.993 269.46 411C267.854 412.405 256.013 417.122 260.428 420.835C261.833 422.04 268.055 426.355 267.854 428.262C267.754 429.165 260.328 433.983 262.435 435.187C264.041 436.09 266.349 434.685 267.453 433.581C271.266 430.269 272.27 427.359 278.492 430.771C281.803 432.578 263.64 439.302 261.532 439.402C256.515 439.603 253.604 445.022 249.089 445.022C240.659 445.022 247.082 446.929 249.691 449.639C264.442 465.095 235.842 459.073 232.731 462.887C232.029 463.79 228.517 476.335 228.918 478.142C229.62 481.253 238.652 489.282 241.362 485.368C243.268 483.862 247.583 486.07 249.089 484.264C254.006 480.149 254.809 474.328 258.622 470.012C264.141 468.708 261.833 464.292 264.944 462.686C267.453 461.281 271.066 463.69 274.076 462.385C277.187 461.08 282.104 456.062 283.409 463.589C284.212 468.005 291.939 469.912 295.05 472.521C298.963 475.733 297.057 482.959 291.738 479.647C288.226 477.439 290.333 485.368 296.153 483.461C297.257 479.045 301.372 479.446 299.465 474.428C298.161 469.31 303.579 474.328 303.88 474.328C307.895 474.328 297.157 467.202 297.659 468.206C295.551 468.206 284.613 458.672 289.43 454.958C291.236 453.152 298.462 464.292 300.268 464.192C306.389 463.991 306.891 469.21 308.296 474.027C308.998 476.436 321.843 482.658 321.843 479.748C321.743 480.149 314.116 471.719 315.521 471.719C315.923 471.719 326.359 468.708 326.359 471.819C326.359 475.432 326.46 475.833 327.363 479.748C327.764 481.353 335.391 488.077 337.097 486.672C338.401 485.669 337.799 483.561 339.706 484.163C342.215 484.464 343.118 487.375 345.928 486.472C348.236 485.568 348.637 483.26 351.347 485.267C355.26 488.178 351.648 499.92 348.637 502.53C346.329 504.537 341.813 500.924 339.405 501.024C333.484 501.426 336.394 503.633 328.567 501.727C322.546 500.322 317.729 496.207 311.708 497.411C308.095 498.114 310.403 502.53 308.898 504.637C308.396 505.741 284.814 496.106 282.506 494.4C279.897 492.393 291.738 480.45 277.087 483.16C273.875 483.762 263.439 481.554 260.93 484.464C259.324 485.167 247.483 487.977 247.684 488.579C245.777 483.662 232.129 494.501 229.921 496.006C224.001 499.92 227.814 507.748 220.388 510.96C213.564 513.971 214.367 522 209.249 525.412C209.249 525.412 201.422 537.656 203.529 538.359C204.031 538.359 204.332 538.359 204.332 537.656C210.855 543.276 199.314 559.133 203.228 563.65C208.045 569.27 223.499 597.17 232.631 591.952C234.337 590.547 236.244 590.346 238.351 590.145C241.161 589.945 243.469 591.851 246.178 591.55C250.192 591.048 253.203 587.536 257.317 586.733C259.826 586.231 263.84 585.328 266.249 586.934C268.858 588.74 267.052 592.755 271.066 593.056C275.983 593.457 283.71 595.264 279.696 602.088C274.277 611.422 283.208 616.44 286.62 623.967C286.419 623.566 295.351 649.258 290.835 649.258C279.194 649.258 294.648 688.399 295.15 691.611C295.15 698.034 298.462 702.149 301.171 707.568C301.673 709.877 303.78 711.583 304.081 713.891C305.285 723.225 306.49 722.02 315.12 721.92C324.754 721.719 333.284 718.909 338.602 710.479C342.817 704.658 344.924 694.12 350.544 691.209C359.174 686.693 348.537 678.062 353.755 673.144C357.769 669.431 364.192 666.52 367.303 662.104C371.618 658.09 370.514 652.068 369.811 646.649C368.607 636.512 364.593 629.788 368.407 619.35C371.618 606.605 389.581 597.973 395.301 586.231C397.91 580.912 402.526 573.987 400.519 567.865C399.315 564.152 389.079 570.775 386.269 570.575C381.452 570.173 382.857 572.783 378.542 569.37C377.639 567.765 377.438 568.568 375.833 568.568C382.958 563.549 365.296 556.926 365.296 551.205C365.296 547.391 359.676 545.484 359.877 542.875C359.877 540.968 359.676 537.154 358.672 535.348C356.766 531.434 354.658 529.828 354.658 526.817C355.06 525.512 348.938 517.785 348.236 515.376C347.232 510.257 357.368 519.792 358.472 523.003C361.783 530.129 366.901 537.054 371.116 544.581C374.428 550.703 375.23 566.761 383.058 563.65C386.771 562.144 401.924 559.234 403.228 554.115C404.031 551.205 411.357 549.198 414.066 546.689C414.669 546.086 418.482 538.559 419.084 538.258C419.586 538.158 424.603 535.047 424.302 532.136C424.302 533.14 409.25 519.491 412.361 519.491C409.751 519.491 408.246 526.215 405.938 526.215C399.315 526.215 398.01 523.304 394.598 518.286C392.993 515.978 385.366 509.555 389.581 506.845C394.598 503.634 395.301 508.351 397.308 512.666C400.619 519.591 414.769 514.774 414.769 519.591C416.876 524.709 432.33 523.706 437.047 522.702C444.272 521.197 449.29 531.936 453.605 536.452C457.318 539.563 460.931 533.642 460.931 541.068C460.931 548.294 467.152 554.818 468.557 561.542C469.059 564.954 479.897 585.328 479.897 577.299C479.897 577.098 484.714 572.883 482.807 572.883C484.513 572.883 484.413 565.557 484.614 564.352C484.714 563.85 483.61 554.115 485.316 554.115C493.746 554.115 476.686 474.428 474.077 467.102Z" fill="url(#paint18_linear_217_13390)"/>
<path d="M205.837 391.63C206.54 391.53 207.643 391.229 205.837 391.63V391.63Z" fill="url(#paint19_linear_217_13390)"/>
<path d="M168.908 353.994C168.807 353.994 168.607 354.095 168.506 354.095C166.098 354.597 163.589 354.998 161.181 355.399C159.876 355.6 158.471 355.701 157.167 356.202C156.765 356.403 155.963 356.604 155.862 357.206C155.762 357.808 156.966 358.511 156.163 359.113C155.561 359.514 154.558 359.113 154.457 360.116C154.357 361.02 155.16 361.823 155.862 362.224C157.769 363.328 160.378 363.127 162.485 362.927C163.89 362.826 165.195 362.626 166.6 362.525C167.503 362.425 174.427 362.826 175.531 363.83C177.438 365.536 176.133 368.647 175.531 370.654C175.13 371.658 174.829 372.662 174.728 373.766C174.427 376.275 171.216 378.182 172.621 380.59C173.323 381.895 177.137 379.888 175.732 382.196C175.13 383.3 169.51 385.207 171.116 386.813C172.922 388.72 170.212 398.555 173.223 403.172C176.735 408.591 183.559 410.297 188.175 405.279C194.598 398.254 196.605 394.139 205.636 391.73C210.052 390.526 213.665 386.813 217.98 385.709C222.194 384.705 226.911 385.106 231.025 383.802C232.731 383.3 234.437 381.694 235.943 380.891C237.247 380.189 238.552 379.285 239.856 378.683C240.76 378.282 242.767 377.981 243.369 377.479C243.971 376.877 244.071 375.472 244.372 374.669C245.175 372.862 246.279 371.558 247.784 370.353C249.891 368.748 252.2 366.138 252.802 363.428C253.303 361.321 251.798 357.808 253.404 356.102C254.508 354.898 258.12 354.697 259.726 354.295C261.733 353.693 263.64 353.192 265.546 352.489C266.55 352.088 267.152 352.088 267.353 351.084C267.553 350.381 267.252 349.378 266.45 349.077C265.847 348.876 264.643 349.077 263.941 349.077C260.729 349.277 257.016 349.578 254.207 347.571C253.203 346.869 252.701 345.865 251.397 345.464C248.988 344.761 246.279 345.263 243.87 345.664C241.663 345.966 239.355 346.869 237.147 346.367C234.136 345.664 231.126 345.263 228.115 345.765C224.001 346.568 219.686 345.865 215.571 346.467C213.765 346.768 205.034 346.969 204.031 348.575C202.927 350.482 200.519 347.571 199.314 348.073C198.512 348.374 197.107 348.274 196.304 348.374C193.795 348.675 191.286 348.976 188.777 349.277C185.767 349.679 182.756 350.08 179.746 350.482C178.341 350.682 176.936 350.883 175.531 351.184C174.427 351.385 173.022 351.385 172.019 351.887C171.617 352.088 171.417 352.288 171.417 352.69C172.32 353.091 171.517 353.292 171.015 353.493C170.313 353.693 169.61 353.894 168.908 353.994Z" fill="url(#paint20_linear_217_13390)"/>
<path d="M121.943 363.127C123.649 362.926 125.456 363.027 127.162 362.926C128.566 362.826 130.473 362.826 131.778 362.224C133.684 361.421 135.792 362.224 137.799 362.023C139.806 361.923 141.913 360.819 143.218 359.313C143.017 359.514 143.117 359.414 143.218 359.313C145.024 357.206 149.239 357.507 151.948 355.7C155.26 353.392 165.195 352.991 169.309 351.786C171.718 351.686 174.126 351.184 176.334 350.181C177.337 349.98 178.341 349.679 179.244 349.478C180.348 349.478 181.452 349.378 182.556 349.177C183.057 349.077 185.165 348.775 184.362 347.772C184.061 347.471 183.459 347.772 183.258 347.571C178.241 343.256 160.478 346.869 155.26 347.471C153.454 347.671 151.547 347.571 149.741 347.872C147.934 348.173 146.128 347.872 144.322 347.973C141.913 347.973 139.505 348.073 137.096 348.274C136.494 348.173 135.591 348.374 134.688 348.474C133.082 348.675 131.577 348.876 130.072 349.177C129.57 349.277 128.868 349.177 128.868 349.879C128.868 350.381 129.369 350.883 129.771 351.084C130.574 351.586 131.878 351.887 132.781 351.887C132.581 351.887 132.38 351.887 132.179 351.887C131.276 351.887 130.272 351.686 129.369 351.686C128.968 351.686 128.466 351.586 128.065 351.586C125.957 351.485 123.75 351.385 121.642 351.586C120.739 351.586 119.836 351.686 118.933 351.887C118.531 351.987 118.23 352.087 117.829 352.087C117.427 352.087 117.126 352.188 116.725 352.388C116.524 352.589 116.123 352.89 116.023 353.091C115.521 353.994 116.625 354.396 117.327 354.596C118.23 354.797 119.133 354.797 120.037 355.098C120.438 355.199 120.739 355.399 121.14 355.399C121.542 355.5 122.044 355.6 122.445 355.801C123.449 356.102 124.352 356.503 125.355 356.804C126.158 357.105 127.663 357.708 128.065 358.41C127.964 358.41 127.764 358.41 127.563 358.41C127.463 358.41 127.463 358.41 127.663 358.31C125.957 357.206 124.352 358.109 123.248 359.414C122.746 360.016 121.241 360.016 120.538 360.217C119.836 360.417 119.033 360.618 118.331 360.919C117.929 361.02 114.317 361.822 114.317 362.224C114.317 364.231 120.839 363.228 121.943 363.027C121.843 363.127 121.843 363.127 121.943 363.127ZM181.05 349.177C180.95 349.177 180.95 349.177 181.05 349.177V349.177ZM183.459 347.973L183.358 347.872C183.358 347.872 183.459 347.872 183.459 347.973Z" fill="url(#paint21_linear_217_13390)"/>
<path d="M151.848 355.701C151.748 355.701 151.748 355.801 151.748 355.801C151.748 355.701 151.848 355.701 151.848 355.701Z" fill="url(#paint22_linear_217_13390)"/>
<path d="M184.362 327.8C163.69 325.19 137.197 300.2 137.197 300.2C137.197 300.2 166.8 250.12 181.151 250.822C195.501 251.424 184.362 327.8 184.362 327.8Z" fill="url(#paint23_linear_217_13390)"/>
<path d="M287.824 327.8C308.497 325.19 334.989 300.2 334.989 300.2C334.989 300.2 305.386 250.12 291.036 250.822C276.685 251.424 287.824 327.8 287.824 327.8Z" fill="url(#paint24_linear_217_13390)"/>
<path d="M294.648 253.03C289.831 246.708 238.451 242.994 238.451 242.994L236.043 246.707L233.635 242.994C233.635 242.994 182.154 246.708 177.438 253.03C172.621 259.353 166.8 387.715 166.8 387.715C166.8 387.715 182.154 405.178 236.043 405.178C289.831 405.178 305.285 387.715 305.285 387.715C305.285 387.715 299.465 259.353 294.648 253.03Z" fill="url(#paint25_linear_217_13390)"/>
<path d="M211.959 230.75V243.697C211.959 257.045 222.797 267.783 236.043 267.783C249.39 267.783 260.127 256.944 260.127 243.697V230.75H211.959Z" fill="url(#paint26_linear_217_13390)"/>
<path d="M326.56 65.5552C326.56 65.5552 340.308 74.7885 336.194 146.045L312.812 142.031V79.9069L326.56 65.5552Z" fill="url(#paint27_linear_217_13390)"/>
<path d="M137.598 153.472C137.598 153.472 119.133 58.5297 148.737 48.2928C148.737 48.2928 156.464 4.83629 236.143 18.6862C315.722 32.4357 340.208 0.821777 340.208 0.821777C340.208 0.821777 370.614 83.6201 312.812 91.7494L180.95 74.3868L162.084 93.1544L151.146 142.03L151.748 149.257L137.598 153.472Z" fill="url(#paint28_linear_217_13390)"/>
<path d="M339.305 143.837C338 143.134 336.495 142.432 334.889 141.93C324.152 138.718 312.912 143.235 308.697 153.973L304.583 197.932C320.74 200.441 336.093 191.609 343.921 177.458C350.143 166.117 350.845 150.36 339.305 143.837Z" fill="url(#paint29_linear_217_13390)"/>
<path d="M334.588 153.472C333.785 152.97 332.882 152.569 331.778 152.268C325.055 150.26 318.03 153.07 315.321 159.795L312.812 187.294C322.947 188.799 332.581 183.38 337.398 174.447C341.312 167.422 341.813 157.587 334.588 153.472Z" fill="url(#paint30_linear_217_13390)"/>
<path d="M132.882 143.837C134.186 143.134 135.692 142.432 137.297 141.93C148.035 138.718 159.274 143.235 163.489 153.973L167.603 197.932C151.447 200.441 136.093 191.609 128.265 177.458C121.943 166.117 121.341 150.36 132.882 143.837Z" fill="url(#paint31_linear_217_13390)"/>
<path d="M137.598 153.472C138.401 152.97 139.304 152.569 140.408 152.268C147.132 150.26 154.156 153.07 156.866 159.795L159.374 187.294C149.239 188.799 139.605 183.38 134.788 174.447C130.875 167.422 130.373 157.587 137.598 153.472Z" fill="url(#paint32_linear_217_13390)"/>
<path d="M235.541 57.9275C235.541 57.9275 148.235 30.3281 148.737 111.019C148.737 111.019 152.35 169.228 157.97 196.828C163.589 224.427 197.809 238.679 235.642 238.679C273.474 238.679 307.694 224.427 313.314 196.828C318.933 169.228 322.546 111.019 322.546 111.019C322.947 30.3281 235.541 57.9275 235.541 57.9275Z" fill="url(#paint33_linear_217_13390)"/>
<path d="M170.313 108.811C170.313 108.811 170.413 108.61 170.614 108.41C170.815 108.108 171.116 107.707 171.617 107.306C172.521 106.402 173.825 105.298 175.531 104.194C176.334 103.693 177.337 103.09 178.341 102.689C179.344 102.187 180.448 101.786 181.552 101.384C182.154 101.183 182.756 101.083 183.358 100.882C183.961 100.682 184.563 100.581 185.165 100.481C186.369 100.28 187.674 100.08 188.978 99.9792C190.283 99.9792 191.587 99.8788 192.792 99.9792C194.096 100.08 195.3 100.18 196.505 100.481C197.107 100.581 197.709 100.682 198.311 100.882C198.913 101.083 199.415 101.183 200.017 101.384C201.121 101.786 202.124 102.187 203.027 102.689C203.931 103.191 204.733 103.592 205.436 104.094C206.138 104.596 206.74 105.098 207.142 105.499C207.644 105.901 207.945 106.302 208.246 106.503C208.446 106.703 208.647 106.904 208.647 106.904L208.547 107.506C208.547 107.506 207.945 107.406 206.941 107.205C206.439 107.105 205.837 107.004 205.034 106.904C204.332 106.804 203.529 106.804 202.626 106.603C201.723 106.503 200.82 106.402 199.716 106.402C199.214 106.402 198.712 106.302 198.11 106.302C197.608 106.302 197.006 106.302 196.505 106.302C195.902 106.302 195.401 106.302 194.799 106.302C194.196 106.302 193.594 106.302 193.093 106.402C191.888 106.402 190.684 106.503 189.58 106.603C187.172 106.703 184.864 107.004 182.556 107.205C181.452 107.406 180.348 107.506 179.344 107.707C178.341 107.908 177.337 108.008 176.535 108.209C174.829 108.61 173.323 108.811 172.32 109.112C171.316 109.313 170.714 109.514 170.714 109.514L170.313 108.811Z" fill="url(#paint34_linear_217_13390)"/>
<path d="M296.956 108.811C296.956 108.811 296.856 108.61 296.655 108.41C296.455 108.108 296.154 107.707 295.652 107.306C294.749 106.402 293.444 105.298 291.738 104.194C290.935 103.693 289.932 103.09 288.928 102.689C287.925 102.187 286.821 101.786 285.717 101.384C285.115 101.183 284.513 101.083 283.911 100.882C283.309 100.682 282.706 100.581 282.104 100.481C280.9 100.28 279.596 100.08 278.291 99.9792C276.986 99.9792 275.682 99.8788 274.478 99.9792C273.173 100.08 271.969 100.18 270.765 100.481C270.163 100.581 269.56 100.682 268.958 100.882C268.356 101.083 267.854 101.183 267.252 101.384C266.148 101.786 265.145 102.187 264.242 102.689C263.339 103.191 262.536 103.592 261.833 104.094C261.131 104.596 260.529 105.098 260.127 105.499C259.626 105.901 259.325 106.302 259.024 106.503C258.823 106.703 258.622 106.904 258.622 106.904L258.722 107.506C258.722 107.506 259.325 107.406 260.328 107.205C260.83 107.105 261.432 107.004 262.235 106.904C262.937 106.804 263.74 106.804 264.643 106.603C265.546 106.503 266.45 106.402 267.553 106.402C268.055 106.402 268.557 106.302 269.159 106.302C269.661 106.302 270.263 106.302 270.765 106.302C271.367 106.302 271.869 106.302 272.471 106.302C273.073 106.302 273.675 106.302 274.177 106.402C275.381 106.402 276.585 106.503 277.689 106.603C280.097 106.703 282.405 107.004 284.713 107.205C285.817 107.406 286.921 107.506 287.925 107.707C288.928 107.908 289.932 108.008 290.735 108.209C292.441 108.61 293.946 108.811 294.949 109.112C295.953 109.313 296.555 109.514 296.555 109.514L296.956 108.811Z" fill="url(#paint35_linear_217_13390)"/>
<path d="M191.989 151.966C196.256 151.966 199.716 147.024 199.716 140.926C199.716 134.829 196.256 129.887 191.989 129.887C187.721 129.887 184.262 134.829 184.262 140.926C184.262 147.024 187.721 151.966 191.989 151.966Z" fill="url(#paint36_linear_217_13390)"/>
<path d="M277.89 151.966C282.157 151.966 285.617 147.024 285.617 140.926C285.617 134.829 282.157 129.887 277.89 129.887C273.622 129.887 270.162 134.829 270.162 140.926C270.162 147.024 273.622 151.966 277.89 151.966Z" fill="url(#paint37_linear_217_13390)"/>
<path d="M232.531 151.665C232.531 151.665 225.406 157.586 223.599 164.812C222.797 168.024 223.9 171.537 226.71 173.443C228.717 174.748 231.628 176.053 236.143 176.755C236.143 176.655 221.091 168.727 232.531 151.665Z" fill="url(#paint38_linear_217_13390)"/>
<path d="M256.715 187.595C249.49 188.598 242.064 189 235.541 188.899C229.018 188.899 221.592 188.598 214.367 187.595C214.367 187.595 213.966 208.47 227.212 214.692C229.821 215.897 232.731 216.398 235.541 216.198C238.351 216.398 241.261 215.897 243.87 214.692C257.117 208.47 256.715 187.595 256.715 187.595Z" fill="url(#paint39_linear_217_13390)"/>
<path d="M151.146 142.031C151.146 142.031 166.299 113.127 170.313 81.4123C170.313 81.4123 284.914 102.89 320.037 89.6419C320.037 89.6419 313.213 31.4322 243.77 36.4503C174.327 41.5687 151.848 48.6944 148.737 61.9422C145.727 75.2902 137.398 115.636 151.146 142.031Z" fill="url(#paint40_linear_217_13390)"/>
<path d="M191.989 104.696C172.019 104.696 155.862 120.854 155.862 140.826C155.862 160.798 172.019 176.956 191.989 176.956C211.959 176.956 228.115 160.798 228.115 140.826C228.115 120.854 211.959 104.696 191.989 104.696ZM191.989 174.146C173.624 174.146 158.672 159.192 158.672 140.826C158.672 122.46 173.624 107.506 191.989 107.506C210.353 107.506 225.305 122.46 225.305 140.826C225.305 159.292 210.453 174.146 191.989 174.146Z" fill="url(#paint41_linear_217_13390)"/>
<path d="M277.89 104.696C257.92 104.696 241.763 120.854 241.763 140.826C241.763 160.798 257.92 176.956 277.89 176.956C297.859 176.956 314.016 160.798 314.016 140.826C314.016 120.854 297.859 104.696 277.89 104.696ZM277.89 174.146C259.525 174.146 244.573 159.192 244.573 140.826C244.573 122.46 259.525 107.506 277.89 107.506C296.254 107.506 311.206 122.46 311.206 140.826C311.206 159.292 296.254 174.146 277.89 174.146Z" fill="url(#paint42_linear_217_13390)"/>
<path d="M243.569 136.41H225.707V142.03H243.569V136.41Z" fill="url(#paint43_linear_217_13390)"/>
<path d="M157.468 135.306H146.931V140.926H157.468V135.306Z" fill="url(#paint44_linear_217_13390)"/>
<path d="M323.349 135.306H312.812V140.926H323.349V135.306Z" fill="url(#paint45_linear_217_13390)"/>
<path d="M216.776 409.896L231.126 430.269L229.119 478.041L193.093 427.158L216.776 409.896Z" fill="url(#paint46_linear_217_13390)"/>
<g clip-path="url(#clip0_217_13390)">
<path d="M366.028 242.786L349.044 374.571H124.956L119.396 331.357L107.972 242.786C107.082 235.934 112.42 229.87 119.335 229.87H354.665C361.579 229.87 366.917 235.954 366.028 242.786Z" fill="#CFCFE5"/>
<g opacity="0.3">
<path d="M366.028 242.786L349.044 374.571H124.956L119.396 331.357C132.7 339.24 174.189 359.594 237.03 351.448C299.588 343.323 344.252 295.682 330.644 229.87H354.665C361.579 229.87 366.917 235.954 366.028 242.786Z" fill="#0B126D"/>
</g>
<path d="M270.29 303.383C270.29 321.756 255.389 336.632 237.03 336.632C218.651 336.632 203.77 321.756 203.77 303.383C203.77 285.01 218.651 270.133 237.03 270.133C255.389 270.133 270.29 285.03 270.29 303.383Z" fill="#FA6469"/>
<path d="M229.104 311.043C229.104 312.964 227.143 314.237 225.384 313.489L210.543 307.062C209.148 306.455 208.238 305.081 208.238 303.565C208.238 302.049 209.148 300.674 210.543 300.068L225.384 293.64C227.143 292.872 229.104 294.166 229.104 296.086V296.106C229.104 297.198 228.417 298.188 227.406 298.593L214.587 303.524L227.426 308.577C228.437 308.962 229.104 309.952 229.104 311.043Z" fill="white"/>
<path d="M242.004 291.882L236.201 315.773C235.999 316.561 235.837 317.188 235.696 317.633C235.554 318.098 235.332 318.441 235.028 318.704C234.725 318.967 234.301 319.088 233.734 319.088C232.319 319.088 231.611 318.482 231.611 317.269C231.611 316.945 231.753 316.157 232.016 314.884L237.798 290.993C238.102 289.719 238.385 288.85 238.668 288.385C238.951 287.92 239.477 287.678 240.285 287.678C240.973 287.678 241.499 287.839 241.883 288.183C242.247 288.506 242.429 288.971 242.429 289.557C242.429 289.982 242.287 290.75 242.004 291.882Z" fill="white"/>
<path d="M263.497 307.061L248.616 313.55C246.877 314.318 244.916 313.024 244.916 311.124V311.084C244.916 309.992 245.583 309.022 246.594 308.618L259.494 303.565L246.614 298.572C245.603 298.188 244.916 297.198 244.916 296.106C244.916 294.206 246.857 292.933 248.595 293.681L263.477 300.088C264.872 300.694 265.761 302.049 265.761 303.565C265.782 305.081 264.892 306.455 263.497 307.061Z" fill="white"/>
<path d="M349.044 377.462H124.956C123.521 377.462 122.287 376.391 122.105 374.955L105.121 243.17C104.596 239.087 105.849 234.964 108.579 231.871C111.288 228.779 115.211 227 119.335 227H354.685C358.81 227 362.732 228.779 365.442 231.871C368.171 234.964 369.425 239.087 368.899 243.17L351.915 374.955C351.713 376.37 350.5 377.462 349.044 377.462ZM127.484 371.701H346.516L363.197 242.422C363.521 239.976 362.752 237.51 361.135 235.651C359.497 233.791 357.152 232.74 354.685 232.74H119.335C116.869 232.74 114.523 233.812 112.885 235.651C111.268 237.51 110.5 239.976 110.823 242.422L127.484 371.701Z" fill="#0B126D"/>
<path d="M345.04 383H128.98C123.116 383 118.365 378.23 118.365 372.388C118.365 366.527 123.136 361.777 128.98 361.777H345.04C350.904 361.777 355.655 366.547 355.655 372.388C355.655 378.23 350.884 383 345.04 383ZM128.98 367.517C126.29 367.517 124.107 369.7 124.107 372.388C124.107 375.077 126.29 377.26 128.98 377.26H345.04C347.729 377.26 349.913 375.077 349.913 372.388C349.913 369.7 347.729 367.517 345.04 367.517H128.98Z" fill="#0B126D"/>
</g>
<path d="M351.39 343.812C355.304 345.719 359.519 346.02 363.131 343.311C368.35 339.497 367.848 333.375 366.543 327.855C365.439 323.038 363.533 317.016 358.716 314.708C349.383 310.191 338.144 306.98 336.639 310.492C335.133 314.005 342.358 316.213 342.358 316.213C342.358 316.213 336.036 313.704 334.631 317.819C333.327 322.034 340.452 323.238 340.452 323.238C340.452 323.238 333.126 322.235 332.424 325.948C331.822 329.661 338.746 329.661 338.746 329.661C338.746 329.661 332.624 328.658 332.022 332.472C331.42 336.085 343.061 339.798 345.369 340.802C347.677 341.705 349.483 342.909 351.39 343.812Z" fill="url(#paint47_linear_217_13390)"/>
<path d="M114.023 318.812C110.109 320.719 105.894 321.02 102.281 318.311C97.0632 314.497 97.5649 308.375 98.8695 302.855C99.9734 298.038 101.88 292.016 106.597 289.708C115.929 285.191 127.169 281.98 128.674 285.492C130.179 289.005 122.954 291.213 122.954 291.213C122.954 291.213 129.276 288.704 130.681 292.819C131.985 297.034 124.861 298.238 124.861 298.238C124.861 298.238 132.186 297.235 132.889 300.948C133.491 304.661 126.567 304.661 126.567 304.661C126.567 304.661 132.688 303.658 133.29 307.472C133.892 311.085 122.251 314.798 119.943 315.802C117.736 316.705 115.929 317.909 114.023 318.812Z" fill="url(#paint48_linear_217_13390)"/>
<path d="M214.267 414.612C214.267 414.612 253.906 385.507 276.585 373.263C299.164 360.919 322.245 362.525 326.961 380.791C331.678 399.056 269.46 427.258 231.728 432.376L214.267 414.612Z" fill="url(#paint49_linear_217_13390)"/>
<path d="M243.068 433.681L258.12 413.91L304.282 401.565L266.55 451.144L243.068 433.681Z" fill="url(#paint50_linear_217_13390)"/>
<path d="M179.746 367.242C154.758 366.84 147.633 391.429 156.765 406.884C163.89 418.928 174.829 422.34 178.943 423.846C180.147 424.247 193.193 427.057 193.193 427.057L203.027 419.931L242.566 434.584L260.027 413.91C259.927 414.01 204.733 367.643 179.746 367.242Z" fill="url(#paint51_linear_217_13390)"/>
<defs>
<linearGradient id="paint0_linear_217_13390" x1="347.038" y1="317.406" x2="89.1924" y2="872.375" gradientUnits="userSpaceOnUse">
<stop stop-color="#D5DFFF"/>
<stop offset="1" stop-color="#40A7F6"/>
</linearGradient>
<linearGradient id="paint1_linear_217_13390" x1="204.953" y1="295.519" x2="-284.449" y2="942.163" gradientUnits="userSpaceOnUse">
<stop stop-color="#11A0A6"/>
<stop offset="1" stop-color="#004570"/>
</linearGradient>
<linearGradient id="paint2_linear_217_13390" x1="175.574" y1="273.279" x2="-313.862" y2="919.973" gradientUnits="userSpaceOnUse">
<stop stop-color="#11A0A6"/>
<stop offset="1" stop-color="#004570"/>
</linearGradient>
<linearGradient id="paint3_linear_217_13390" x1="168.155" y1="267.659" x2="-321.302" y2="914.374" gradientUnits="userSpaceOnUse">
<stop stop-color="#11A0A6"/>
<stop offset="1" stop-color="#004570"/>
</linearGradient>
<linearGradient id="paint4_linear_217_13390" x1="165.393" y1="265.59" x2="-323.992" y2="912.211" gradientUnits="userSpaceOnUse">
<stop stop-color="#11A0A6"/>
<stop offset="1" stop-color="#004570"/>
</linearGradient>
<linearGradient id="paint5_linear_217_13390" x1="170.521" y1="269.857" x2="-30.3232" y2="535.428" gradientUnits="userSpaceOnUse">
<stop stop-color="#11A0A6"/>
<stop offset="1" stop-color="#004570"/>
</linearGradient>
<linearGradient id="paint6_linear_217_13390" x1="170.889" y1="270.017" x2="-148.983" y2="692.718" gradientUnits="userSpaceOnUse">
<stop stop-color="#11A0A6"/>
<stop offset="1" stop-color="#004570"/>
</linearGradient>
<linearGradient id="paint7_linear_217_13390" x1="171.052" y1="269.859" x2="-318.376" y2="916.538" gradientUnits="userSpaceOnUse">
<stop stop-color="#11A0A6"/>
<stop offset="1" stop-color="#004570"/>
</linearGradient>
<linearGradient id="paint8_linear_217_13390" x1="166.06" y1="266.035" x2="-323.653" y2="912.827" gradientUnits="userSpaceOnUse">
<stop stop-color="#11A0A6"/>
<stop offset="1" stop-color="#004570"/>
</linearGradient>
<linearGradient id="paint9_linear_217_13390" x1="301.785" y1="368.795" x2="-187.668" y2="1015.51" gradientUnits="userSpaceOnUse">
<stop stop-color="#11A0A6"/>
<stop offset="1" stop-color="#004570"/>
</linearGradient>
<linearGradient id="paint10_linear_217_13390" x1="298.687" y1="366.447" x2="-190.79" y2="1013.19" gradientUnits="userSpaceOnUse">
<stop stop-color="#11A0A6"/>
<stop offset="1" stop-color="#004570"/>
</linearGradient>
<linearGradient id="paint11_linear_217_13390" x1="351.507" y1="406.426" x2="-137.944" y2="1053.13" gradientUnits="userSpaceOnUse">
<stop stop-color="#11A0A6"/>
<stop offset="1" stop-color="#004570"/>
</linearGradient>
<linearGradient id="paint12_linear_217_13390" x1="337.221" y1="395.615" x2="-152.235" y2="1042.33" gradientUnits="userSpaceOnUse">
<stop stop-color="#11A0A6"/>
<stop offset="1" stop-color="#004570"/>
</linearGradient>
<linearGradient id="paint13_linear_217_13390" x1="267.213" y1="342.63" x2="-222.24" y2="989.341" gradientUnits="userSpaceOnUse">
<stop stop-color="#11A0A6"/>
<stop offset="1" stop-color="#004570"/>
</linearGradient>
<linearGradient id="paint14_linear_217_13390" x1="367.609" y1="418.568" x2="280.067" y2="534.237" gradientUnits="userSpaceOnUse">
<stop stop-color="#11A0A6"/>
<stop offset="1" stop-color="#004570"/>
</linearGradient>
<linearGradient id="paint15_linear_217_13390" x1="404.418" y1="368.866" x2="404.414" y2="368.871" gradientUnits="userSpaceOnUse">
<stop stop-color="#11A0A6"/>
<stop offset="1" stop-color="#004570"/>
</linearGradient>
<linearGradient id="paint16_linear_217_13390" x1="404.621" y1="369.003" x2="404.613" y2="369.014" gradientUnits="userSpaceOnUse">
<stop stop-color="#11A0A6"/>
<stop offset="1" stop-color="#004570"/>
</linearGradient>
<linearGradient id="paint17_linear_217_13390" x1="405.164" y1="369.389" x2="405.164" y2="369.389" gradientUnits="userSpaceOnUse">
<stop stop-color="#11A0A6"/>
<stop offset="1" stop-color="#004570"/>
</linearGradient>
<linearGradient id="paint18_linear_217_13390" x1="407.228" y1="448.597" x2="-82.2265" y2="1095.31" gradientUnits="userSpaceOnUse">
<stop stop-color="#11A0A6"/>
<stop offset="1" stop-color="#004570"/>
</linearGradient>
<linearGradient id="paint19_linear_217_13390" x1="252.037" y1="331.147" x2="-237.402" y2="977.839" gradientUnits="userSpaceOnUse">
<stop stop-color="#11A0A6"/>
<stop offset="1" stop-color="#004570"/>
</linearGradient>
<linearGradient id="paint20_linear_217_13390" x1="237.458" y1="320.111" x2="-251.996" y2="966.823" gradientUnits="userSpaceOnUse">
<stop stop-color="#11A0A6"/>
<stop offset="1" stop-color="#004570"/>
</linearGradient>
<linearGradient id="paint21_linear_217_13390" x1="196.669" y1="289.302" x2="-292.787" y2="936.015" gradientUnits="userSpaceOnUse">
<stop stop-color="#11A0A6"/>
<stop offset="1" stop-color="#004570"/>
</linearGradient>
<linearGradient id="paint22_linear_217_13390" x1="200.077" y1="291.98" x2="-288.366" y2="937.836" gradientUnits="userSpaceOnUse">
<stop stop-color="#11A0A6"/>
<stop offset="1" stop-color="#004570"/>
</linearGradient>
<linearGradient id="paint23_linear_217_13390" x1="137.18" y1="289.317" x2="188.499" y2="289.317" gradientUnits="userSpaceOnUse">
<stop stop-color="#11A0A6"/>
<stop offset="1" stop-color="#004570"/>
</linearGradient>
<linearGradient id="paint24_linear_217_13390" x1="357.344" y1="315.436" x2="277.437" y2="284.325" gradientUnits="userSpaceOnUse">
<stop stop-color="#11A0A6"/>
<stop offset="1" stop-color="#004570"/>
</linearGradient>
<linearGradient id="paint25_linear_217_13390" x1="218.229" y1="212.8" x2="243.69" y2="422.838" gradientUnits="userSpaceOnUse">
<stop stop-color="#11A0A6"/>
<stop offset="1" stop-color="#004570"/>
</linearGradient>
<linearGradient id="paint26_linear_217_13390" x1="226.466" y1="270.052" x2="243.446" y2="215.447" gradientUnits="userSpaceOnUse">
<stop stop-color="#FFAC9A"/>
<stop offset="0.9947" stop-color="#E57F68"/>
</linearGradient>
<linearGradient id="paint27_linear_217_13390" x1="340.34" y1="44.8609" x2="319.122" y2="136.088" gradientUnits="userSpaceOnUse">
<stop stop-color="#434478"/>
<stop offset="1" stop-color="#020741"/>
</linearGradient>
<linearGradient id="paint28_linear_217_13390" x1="230.91" y1="-25.9692" x2="243.836" y2="114.769" gradientUnits="userSpaceOnUse">
<stop stop-color="#434478"/>
<stop offset="1" stop-color="#020741"/>
</linearGradient>
<linearGradient id="paint29_linear_217_13390" x1="339.512" y1="167.88" x2="264.556" y2="174.244" gradientUnits="userSpaceOnUse">
<stop stop-color="#FFAC9A"/>
<stop offset="0.9947" stop-color="#E57F68"/>
</linearGradient>
<linearGradient id="paint30_linear_217_13390" x1="398.802" y1="112.664" x2="303.333" y2="184.789" gradientUnits="userSpaceOnUse">
<stop stop-color="#FFAC9A"/>
<stop offset="0.9947" stop-color="#E57F68"/>
</linearGradient>
<linearGradient id="paint31_linear_217_13390" x1="130.335" y1="168.91" x2="201.048" y2="171.032" gradientUnits="userSpaceOnUse">
<stop stop-color="#FFAC9A"/>
<stop offset="0.9947" stop-color="#E57F68"/>
</linearGradient>
<linearGradient id="paint32_linear_217_13390" x1="69.0918" y1="94.5745" x2="174.464" y2="194.279" gradientUnits="userSpaceOnUse">
<stop stop-color="#FFAC9A"/>
<stop offset="0.9947" stop-color="#E57F68"/>
</linearGradient>
<linearGradient id="paint33_linear_217_13390" x1="235.819" y1="145.849" x2="234.848" y2="3.08845" gradientUnits="userSpaceOnUse">
<stop stop-color="#FFAC9A"/>
<stop offset="0.9947" stop-color="#E57F68"/>
</linearGradient>
<linearGradient id="paint34_linear_217_13390" x1="186.436" y1="65.6772" x2="190.68" y2="126.496" gradientUnits="userSpaceOnUse">
<stop stop-color="#434478"/>
<stop offset="1" stop-color="#020741"/>
</linearGradient>
<linearGradient id="paint35_linear_217_13390" x1="274.526" y1="59.5309" x2="278.769" y2="120.35" gradientUnits="userSpaceOnUse">
<stop stop-color="#434478"/>
<stop offset="1" stop-color="#020741"/>
</linearGradient>
<linearGradient id="paint36_linear_217_13390" x1="189.858" y1="114.795" x2="193.394" y2="157.227" gradientUnits="userSpaceOnUse">
<stop stop-color="#434478"/>
<stop offset="1" stop-color="#020741"/>
</linearGradient>
<linearGradient id="paint37_linear_217_13390" x1="275.127" y1="107.689" x2="278.663" y2="150.121" gradientUnits="userSpaceOnUse">
<stop stop-color="#434478"/>
<stop offset="1" stop-color="#020741"/>
</linearGradient>
<linearGradient id="paint38_linear_217_13390" x1="234.689" y1="105.624" x2="231.86" y2="143.105" gradientUnits="userSpaceOnUse">
<stop stop-color="#FFAC9A"/>
<stop offset="0.9947" stop-color="#E57F68"/>
</linearGradient>
<linearGradient id="paint39_linear_217_13390" x1="234.79" y1="174.781" x2="236.912" y2="210.848" gradientUnits="userSpaceOnUse">
<stop offset="0.00526316" stop-color="#FE7B47"/>
<stop offset="1" stop-color="#E32931"/>
</linearGradient>
<linearGradient id="paint40_linear_217_13390" x1="220.329" y1="-24.442" x2="233.06" y2="114.169" gradientUnits="userSpaceOnUse">
<stop stop-color="#434478"/>
<stop offset="1" stop-color="#020741"/>
</linearGradient>
<linearGradient id="paint41_linear_217_13390" x1="186.077" y1="87.7482" x2="192.973" y2="149.274" gradientUnits="userSpaceOnUse">
<stop stop-color="#11A0A6"/>
<stop offset="1" stop-color="#004570"/>
</linearGradient>
<linearGradient id="paint42_linear_217_13390" x1="270.873" y1="78.2443" x2="277.769" y2="139.77" gradientUnits="userSpaceOnUse">
<stop stop-color="#11A0A6"/>
<stop offset="1" stop-color="#004570"/>
</linearGradient>
<linearGradient id="paint43_linear_217_13390" x1="228.349" y1="83.0105" x2="235.244" y2="144.537" gradientUnits="userSpaceOnUse">
<stop stop-color="#11A0A6"/>
<stop offset="1" stop-color="#004570"/>
</linearGradient>
<linearGradient id="paint44_linear_217_13390" x1="147.037" y1="92.124" x2="153.933" y2="153.65" gradientUnits="userSpaceOnUse">
<stop stop-color="#11A0A6"/>
<stop offset="1" stop-color="#004570"/>
</linearGradient>
<linearGradient id="paint45_linear_217_13390" x1="310.858" y1="73.763" x2="317.754" y2="135.289" gradientUnits="userSpaceOnUse">
<stop stop-color="#11A0A6"/>
<stop offset="1" stop-color="#004570"/>
</linearGradient>
<linearGradient id="paint46_linear_217_13390" x1="184.037" y1="450.654" x2="248.539" y2="439.59" gradientUnits="userSpaceOnUse">
<stop offset="0.00526316" stop-color="#0D1E86"/>
<stop offset="1" stop-color="#256AC5"/>
</linearGradient>
<linearGradient id="paint47_linear_217_13390" x1="346.657" y1="324.954" x2="380.956" y2="357.482" gradientUnits="userSpaceOnUse">
<stop stop-color="#FFAC9A"/>
<stop offset="0.9947" stop-color="#E57F68"/>
</linearGradient>
<linearGradient id="paint48_linear_217_13390" x1="118.746" y1="299.954" x2="84.4475" y2="332.482" gradientUnits="userSpaceOnUse">
<stop stop-color="#FFAC9A"/>
<stop offset="0.9947" stop-color="#E57F68"/>
</linearGradient>
<linearGradient id="paint49_linear_217_13390" x1="285.012" y1="341.064" x2="266.624" y2="416.026" gradientUnits="userSpaceOnUse">
<stop stop-color="#434478"/>
<stop offset="1" stop-color="#020741"/>
</linearGradient>
<linearGradient id="paint50_linear_217_13390" x1="291.73" y1="452.724" x2="261.802" y2="394.518" gradientUnits="userSpaceOnUse">
<stop offset="0.00526316" stop-color="#0D1E86"/>
<stop offset="1" stop-color="#256AC5"/>
</linearGradient>
<linearGradient id="paint51_linear_217_13390" x1="230.174" y1="364.624" x2="186.861" y2="427.491" gradientUnits="userSpaceOnUse">
<stop stop-color="#434478"/>
<stop offset="1" stop-color="#020741"/>
</linearGradient>
<clipPath id="clip0_217_13390">
<rect width="264" height="156" fill="white" transform="translate(105 227)"/>
</clipPath>
</defs>
</svg>
