
<svg width="125" height="125" viewBox="0 0 125 125" fill="none" xmlns="http://www.w3.org/2000/svg">
<path fill-rule="evenodd" clip-rule="evenodd" d="M31.564 2.26097C30.8799 2.96198 28.413 6.57065 26.0537 10.1958C20.0799 19.4542 19.3627 20.4116 18.3888 21.9398C5.21013 26.6431 1.62638 26.897 7.10422 37.5943C7.96634 39.2531 7.92073 39.464 5.38207 45.4593C-0.661496 59.764 -0.518019 58.5872 3.35675 61.2991C4.1969 61.93 17.2925 71.8839 17.2925 71.8839C18.0162 76.4423 18.2698 76.8085 16.7685 79.2363C15.1846 81.7386 12.417 87.4587 10.4741 92.2379C9.74158 94.0868 8.85599 96.13 8.51679 96.7753C7.04408 99.6871 3.90058 110.842 3.65666 113.922C2.92107 122.767 6.7858 122.034 16.4039 111.419L19.5748 107.941C24.9895 123.141 25.3766 124.944 28.5126 123.989C29.4154 123.714 33.3983 114.323 35.6156 107.145C38.0999 99.2446 44.0029 85.1798 44.7319 85.4012C49.1263 86.4276 51.6283 87.6856 58.9477 88.1168C59.7821 88.1583 60.6252 87.8522 61.2514 87.3166C62.2435 86.4233 63.8021 84.9634 67.219 81.0653C70.636 77.1673 70.7184 77.093 71.8912 77.6226C74.6558 78.899 91.8667 93.0189 96.2605 97.6418C102.027 103.719 104.631 104.404 104.997 97.9863C105.238 93.3805 104.327 85.4801 103.793 80.8638C103.793 80.8638 117.067 84.6545 118.25 85.0332C120.616 85.7905 122.279 85.284 124.107 83.2988C127.443 79.6717 103.8 58.3475 91.689 54.104C89.0708 53.1771 87.741 52.449 87.8322 52.0271C87.9358 51.6507 90.3454 47.0741 93.1417 41.8379C100.608 28.036 101.16 29.6906 86.1321 21.9018C79.1867 18.3022 77.7439 16.968 77.0216 16.2027C76.6604 15.82 75.9026 12.6515 74.5851 9.50565C71.6346 2.62029 72.2086 2.8396 64.0646 5.81248C59.0071 7.64831 58.0446 7.89215 57.0164 7.5156C39.3577 1.21759 34.4537 -0.737475 31.564 2.26097ZM41.6997 6.81033C50.8944 10.1683 55.3257 11.3313 57.0135 10.9158C58.8438 10.4569 66.4798 7.88506 68.5105 7.21733L71.3565 15.6125C71.7006 16.6901 72.4475 17.5465 73.3827 18.1484C85.7862 25.5543 86.1122 25.9968 92.5588 30.98C86.4067 43.9383 85.0749 49.0734 83.5651 51.8487C82.5703 53.6788 82.7976 53.7574 85.5089 62.9819C74.0798 67.4971 74.3032 67.1827 71.1284 70.268C62.7493 78.4361 59.0206 84.5968 59.0206 84.5968L54.1988 83.7005C50.021 82.9036 40.2163 80.5197 37.5961 79.3963C37.2616 79.3012 35.6906 78.2523 33.4822 79.0234L24.708 82.139L21.7144 72.0645C20.816 69.1359 18.5263 67.7147 6.10081 59.2811C11.6566 42.6124 10.4426 45.1498 12.2818 38.2837C12.7292 36.5217 11.3508 32.015 10.4486 28.6934C10.2879 28.1019 10.627 27.4567 11.2323 27.223C20.8474 23.6051 21.8697 23.3923 25.2211 18.8738C29.5711 12.9181 33.9156 6.3728 34.0276 5.64896C34.1938 4.36672 35.5898 4.58205 41.6997 6.81033ZM52.6046 15.7071C47.3777 14.8356 37.9831 16.6129 33.1129 19.3278C-0.812811 38.1826 19.7991 86.984 56.8836 75.5915C86.2706 66.5433 90.3754 23.3191 62.4787 16.6412C57.0931 15.3747 55.8702 18.2596 61.1751 19.797C91.2596 28.469 74.96 78.3137 43.5217 73.749C10.0554 68.9151 14.0563 23.6042 48.7646 18.995C52.7987 18.5054 55.4566 16.1687 52.6046 15.7071ZM35.4411 29.6048C27.0065 34.5383 26.9186 55.9956 31.3851 54.6353C32.2403 54.3749 32.3484 53.2581 31.7057 50.892C30.1732 45.2498 34.1272 32.9117 38.4005 30.083C40.4959 28.7059 37.7513 28.2609 35.4411 29.6048ZM44.5304 33.1428C43.3293 34.5924 41.6671 40.0251 39.5056 44.3783C39.1787 45.069 39.4484 45.8737 40.1897 46.1406C40.9434 46.453 42.8649 45.5721 43.8512 44.0894C45.2717 41.9325 45.3542 41.8581 45.4133 43.0225C45.4429 44.8363 45.9842 50.2385 46.336 52.1019C46.626 53.7379 46.6263 53.7378 43.6263 55.1934C35.3968 59.1776 41.5892 61.3315 44.7557 61.0568C47.6247 60.8235 51.7461 59.5191 57.3348 57.1767C62.1879 55.1567 58.8045 50.2753 53.6254 51.8526C51.2972 52.5616 51.5033 52.9422 50.6025 44.8907C49.4106 33.8734 49.1489 32.7215 47.6435 32.2932C46.0536 31.7428 45.5784 31.8875 44.5304 33.1428ZM67.6495 37.3837C69.2191 43.1624 67.7432 50.6075 64.0051 55.7857C60.6785 60.3952 60.8154 62.2256 64.4579 60.6729C70.592 58.0658 74.1449 37.6224 68.9236 34.8772C67.3317 34.1304 66.9698 34.8811 67.6495 37.3837ZM101.179 65.7471C107.793 70.7778 115.294 77.5584 115.206 78.3733C115.161 78.5842 112.049 78.3004 108.242 77.7352C98.7447 76.2924 98.0937 76.7369 99.1978 83.6427C101.038 95.1523 101.038 95.1523 93.8859 88.709C84.8703 80.5177 82.752 79.5371 73.3727 74.3633C74.9879 71.4081 75.0381 70.4568 83.6155 67.9431C90.3398 65.9937 90.0567 66.2771 89.581 61.4954L89.1852 57.5761C91.4851 58.8463 93.3165 59.7173 101.179 65.7471ZM20.7842 84.1715C21.8622 87.1932 24.2704 87.3466 31.8005 84.9548C40.1384 82.317 40.1983 82.348 37.023 89.0298C30.602 102.513 29.2607 109.129 27.5204 116.359C22.4291 102.539 22.7723 102.287 19.8036 103.29C18.1054 103.856 13.2668 108.581 11.2865 110.761C9.55428 112.717 9.15871 111.261 9.26885 110.341C9.62868 106.93 19.0221 81.8507 19.7282 82.1776C19.9202 82.3162 20.4297 83.2449 20.7842 84.1715Z" fill="#EF5223"/>
</svg>
