<svg width="505" height="159" viewBox="0 0 505 159" fill="none" xmlns="http://www.w3.org/2000/svg">
<path fill-rule="evenodd" clip-rule="evenodd" d="M408.564 21.4521C407.88 22.1531 405.413 25.7618 403.054 29.387C397.08 38.6453 396.363 39.6027 395.389 41.131C382.21 45.8342 378.626 46.0881 384.104 56.7855C384.966 58.4443 384.921 58.6552 382.382 64.6505C376.338 78.9552 376.482 77.7784 380.357 80.4903C381.197 81.1212 394.292 91.0751 394.292 91.0751C395.016 95.6334 395.27 95.9996 393.768 98.4275C392.184 100.93 389.417 106.65 387.474 111.429C386.741 113.278 385.856 115.321 385.517 115.966C384.044 118.878 380.9 130.033 380.657 133.113C379.921 141.958 383.786 141.225 393.404 130.61L396.575 127.132C401.989 142.332 402.376 144.135 405.512 143.18C406.415 142.905 410.398 133.514 412.615 126.336C415.1 118.436 421.003 104.371 421.732 104.592C426.126 105.619 428.628 106.877 435.948 107.308C436.782 107.349 437.625 107.043 438.251 106.508C439.243 105.614 440.802 104.155 444.219 100.257C447.636 96.3585 447.718 96.2841 448.891 96.8138C451.656 98.0902 468.867 112.21 473.26 116.833C479.027 122.91 481.631 123.595 481.997 117.177C482.238 112.572 481.326 104.671 480.793 100.055C480.793 100.055 494.067 103.846 495.25 104.224C497.616 104.982 499.279 104.475 501.106 102.49C504.443 98.8629 480.799 77.5387 468.689 73.2952C466.071 72.3683 464.741 71.6401 464.832 71.2183C464.936 70.8419 467.345 66.2653 470.142 61.0291C477.608 47.2272 478.16 48.8817 463.132 41.093C456.187 37.4934 454.744 36.1592 454.021 35.3939C453.66 35.0112 452.902 31.8427 451.585 28.6968C448.634 21.8115 449.208 22.0308 441.064 25.0036C436.007 26.8395 435.045 27.0833 434.016 26.7068C416.358 20.4088 411.454 18.4537 408.564 21.4521ZM418.7 26.0015C427.894 29.3594 432.326 30.5224 434.013 30.107C435.844 29.6481 443.48 27.0762 445.51 26.4085L448.356 34.8037C448.701 35.8812 449.447 36.7376 450.383 37.3396C462.786 44.7454 463.112 45.188 469.559 50.1711C463.407 63.1294 462.075 68.2645 460.565 71.0398C459.57 72.87 459.798 72.9486 462.509 82.173C451.08 86.6883 451.303 86.3739 448.128 89.4592C439.749 97.6273 436.02 103.788 436.02 103.788L431.199 102.892C427.021 102.095 417.216 99.7109 414.596 98.5875C414.261 98.4923 412.691 97.4435 410.482 98.2146L401.708 101.33L398.714 91.2557C397.816 88.327 395.526 86.9059 383.101 78.4722C388.656 61.8035 387.443 64.341 389.282 57.4749C389.729 55.7129 388.351 51.2061 387.448 47.8845C387.288 47.293 387.627 46.6478 388.232 46.4142C397.847 42.7963 398.87 42.5834 402.221 38.0649C406.571 32.1092 410.915 25.564 411.028 24.8401C411.194 23.5579 412.59 23.7732 418.7 26.0015ZM429.605 34.8982C424.378 34.0268 414.983 35.8041 410.113 38.5189C376.187 57.3738 396.799 106.175 433.883 94.7827C463.27 85.7344 467.375 42.5103 439.479 35.8323C434.093 34.5659 432.87 37.4508 438.175 38.9882C468.259 47.6602 451.96 97.5049 420.522 92.9401C387.055 88.1062 391.056 42.7953 425.764 38.1861C429.799 37.6965 432.457 35.3598 429.605 34.8982ZM412.441 48.796C404.006 53.7295 403.919 75.1867 408.385 73.8265C409.24 73.566 409.348 72.4493 408.706 70.0832C407.173 64.441 411.127 52.1029 415.4 49.2742C417.496 47.8971 414.751 47.452 412.441 48.796ZM421.53 52.3339C420.329 53.7835 418.667 59.2163 416.505 63.5694C416.179 64.2602 416.448 65.0648 417.19 65.3317C417.943 65.6441 419.865 64.7633 420.851 63.2806C422.272 61.1237 422.354 61.0493 422.413 62.2137C422.443 64.0275 422.984 69.4296 423.336 71.2931C423.626 72.9291 423.626 72.929 420.626 74.3845C412.397 78.3687 418.589 80.5226 421.756 80.248C424.625 80.0147 428.746 78.7103 434.335 76.3678C439.188 74.3479 435.804 69.4665 430.625 71.0438C428.297 71.7528 428.503 72.1334 427.602 64.0819C426.411 53.0646 426.149 51.9126 424.643 51.4843C423.053 50.934 422.578 51.0787 421.53 52.3339ZM444.649 56.5748C446.219 62.3535 444.743 69.7987 441.005 74.9769C437.678 79.5864 437.815 81.4167 441.458 79.864C447.592 77.2569 451.145 56.8136 445.923 54.0684C444.332 53.3216 443.97 54.0723 444.649 56.5748ZM478.179 84.9383C484.793 89.969 492.293 96.7496 492.206 97.5644C492.16 97.7754 489.048 97.4915 485.242 96.9264C475.745 95.4835 475.094 95.9281 476.198 102.834C478.038 114.343 478.038 114.343 470.886 107.9C461.87 99.7089 459.752 98.7283 450.373 93.5545C451.988 90.5993 452.038 89.6479 460.615 87.1342C467.34 85.1849 467.057 85.4682 466.581 80.6866L466.185 76.7673C468.485 78.0375 470.316 78.9084 478.179 84.9383ZM397.784 103.363C398.862 106.384 401.27 106.538 408.8 104.146C417.138 101.508 417.198 101.539 414.023 108.221C407.602 121.705 406.261 128.321 404.52 135.551C399.429 121.73 399.772 121.478 396.803 122.481C395.105 123.047 390.267 127.772 388.286 129.952C386.554 131.908 386.159 130.452 386.269 129.532C386.629 126.121 396.022 101.042 396.728 101.369C396.92 101.507 397.43 102.436 397.784 103.363Z" fill="#EF5223"/>
<path d="M13.696 56.5512C13.3973 56.8072 12.928 57.0312 12.288 57.2232C11.6693 57.4152 10.9867 57.5112 10.24 57.5112C9.344 57.5112 8.576 57.3832 7.936 57.1272C7.296 56.8498 6.85867 56.4765 6.624 56.0072C6.38933 55.5165 6.10133 54.8872 5.76 54.1192C5.41867 53.3298 5.056 52.4552 4.672 51.4952C4.30933 50.5352 3.92533 49.5218 3.52 48.4552C3.136 47.3672 2.76267 46.2685 2.4 45.1592C2.03733 44.0498 1.696 42.9618 1.376 41.8952C1.056 40.8285 0.778667 39.8258 0.544 38.8872C0.842667 38.5885 1.26933 38.3218 1.824 38.0872C2.4 37.8312 3.008 37.7032 3.648 37.7032C4.43733 37.7032 5.07733 37.8738 5.568 38.2152C6.08 38.5352 6.45333 39.1432 6.688 40.0392C7.264 42.1298 7.84 44.1352 8.416 46.0552C9.01333 47.9538 9.632 49.9378 10.272 52.0072H10.464C11.04 50.0018 11.6267 47.8152 12.224 45.4472C12.8427 43.0792 13.4293 40.7218 13.984 38.3752C14.368 38.1832 14.7733 38.0232 15.2 37.8952C15.648 37.7672 16.1493 37.7032 16.704 37.7032C17.4933 37.7032 18.1653 37.8845 18.72 38.2472C19.2747 38.5885 19.552 39.1645 19.552 39.9752C19.552 40.4445 19.4347 41.1272 19.2 42.0232C18.9867 42.9192 18.6987 43.9325 18.336 45.0632C17.9947 46.1725 17.6 47.3352 17.152 48.5512C16.7253 49.7672 16.288 50.9192 15.84 52.0072C15.4133 53.0738 15.008 54.0232 14.624 54.8552C14.24 55.6658 13.9307 56.2312 13.696 56.5512ZM29.1708 31.4952C29.1921 30.7272 29.4161 30.1298 29.8428 29.7032C30.2908 29.2765 30.7814 29.0632 31.3148 29.0632C31.8694 29.0632 32.3174 29.1912 32.6588 29.4472C33.0214 29.6818 33.3948 30.0445 33.7788 30.5352L35.7308 32.9992C35.5814 33.6818 35.3254 34.1832 34.9628 34.5032C34.6001 34.8018 34.2054 34.9512 33.7788 34.9512C33.3948 34.9512 33.0321 34.8658 32.6908 34.6952C32.3494 34.5032 32.0081 34.2472 31.6668 33.9272L29.1708 31.4952ZM29.1068 57.7032C27.8481 57.7032 26.6748 57.5325 25.5868 57.1912C24.5201 56.8285 23.5814 56.2952 22.7708 55.5912C21.9814 54.8872 21.3521 54.0018 20.8828 52.9352C20.4348 51.8685 20.2108 50.6205 20.2108 49.1912C20.2108 47.7832 20.4348 46.5778 20.8828 45.5752C21.3521 44.5512 21.9601 43.7192 22.7068 43.0792C23.4534 42.4178 24.3068 41.9378 25.2668 41.6392C26.2268 41.3192 27.2081 41.1592 28.2108 41.1592C29.3414 41.1592 30.3654 41.3298 31.2828 41.6712C32.2214 42.0125 33.0214 42.4818 33.6828 43.0792C34.3654 43.6765 34.8881 44.3912 35.2508 45.2232C35.6348 46.0552 35.8268 46.9618 35.8268 47.9432C35.8268 48.6685 35.6241 49.2232 35.2188 49.6072C34.8134 49.9912 34.2481 50.2365 33.5228 50.3432L25.6188 51.5272C25.8534 52.2312 26.3334 52.7645 27.0588 53.1272C27.7841 53.4685 28.6161 53.6392 29.5548 53.6392C30.4294 53.6392 31.2508 53.5325 32.0188 53.3192C32.8081 53.0845 33.4481 52.8178 33.9388 52.5192C34.2801 52.7325 34.5681 53.0312 34.8028 53.4152C35.0374 53.7992 35.1548 54.2045 35.1548 54.6312C35.1548 55.5912 34.7068 56.3058 33.8108 56.7752C33.1281 57.1378 32.3601 57.3832 31.5068 57.5112C30.6534 57.6392 29.8534 57.7032 29.1068 57.7032ZM28.2108 45.1272C27.6988 45.1272 27.2508 45.2125 26.8668 45.3832C26.5041 45.5538 26.2054 45.7778 25.9708 46.0552C25.7361 46.3112 25.5548 46.6098 25.4268 46.9512C25.3201 47.2712 25.2561 47.6018 25.2348 47.9432L30.7068 47.0472C30.6428 46.6205 30.4081 46.1938 30.0028 45.7672C29.5974 45.3405 29.0001 45.1272 28.2108 45.1272ZM27.7948 37.2872C27.0694 37.9058 26.5041 38.4072 26.0988 38.7912C25.6934 39.1752 25.2881 39.5485 24.8828 39.9112C24.0508 39.9112 23.3894 39.7192 22.8988 39.3352C22.4081 38.9298 22.1628 38.4178 22.1628 37.7992C22.1628 37.3725 22.2801 36.9885 22.5148 36.6472C22.7494 36.3058 23.1441 35.9325 23.6988 35.5272L25.2668 34.4072C25.7788 34.0445 26.2374 33.7885 26.6428 33.6392C27.0694 33.4685 27.4961 33.3832 27.9228 33.3832C28.2001 33.3832 28.4454 33.4045 28.6588 33.4472C28.8934 33.4685 29.1281 33.5432 29.3628 33.6712C29.5974 33.7778 29.8534 33.9485 30.1308 34.1832C30.4081 34.3965 30.7601 34.6845 31.1868 35.0472L33.4268 37.0312C33.4481 37.1378 33.4588 37.2338 33.4588 37.3192C33.4801 37.4045 33.4908 37.5005 33.4908 37.6072C33.4908 38.2685 33.3094 38.8125 32.9468 39.2392C32.6054 39.6445 32.1041 39.8472 31.4428 39.8472C31.2294 39.8472 31.0374 39.8365 30.8668 39.8152C30.6961 39.7725 30.5148 39.6978 30.3228 39.5912C30.1521 39.4845 29.9494 39.3352 29.7148 39.1432C29.4801 38.9298 29.2028 38.6525 28.8828 38.3112L27.7948 37.2872ZM53.6508 45.4472C53.1174 45.4472 52.6054 45.5325 52.1148 45.7032C51.6454 45.8738 51.2294 46.1298 50.8668 46.4712C50.5254 46.7912 50.2481 47.1965 50.0348 47.6872C49.8214 48.1778 49.7148 48.7538 49.7148 49.4152C49.7148 50.7378 50.0881 51.7298 50.8348 52.3912C51.6028 53.0525 52.5308 53.3832 53.6188 53.3832C54.2588 53.3832 54.8134 53.3085 55.2828 53.1592C55.7521 53.0098 56.1681 52.8498 56.5308 52.6792C56.9574 52.9778 57.2774 53.3085 57.4908 53.6712C57.7041 54.0125 57.8108 54.4285 57.8108 54.9192C57.8108 55.7938 57.3948 56.4765 56.5628 56.9672C55.7308 57.4365 54.5788 57.6712 53.1068 57.6712C51.7628 57.6712 50.5468 57.4792 49.4588 57.0952C48.3708 56.6898 47.4321 56.1352 46.6428 55.4312C45.8748 54.7058 45.2774 53.8418 44.8508 52.8392C44.4241 51.8365 44.2108 50.7272 44.2108 49.5112C44.2108 48.1032 44.4348 46.8765 44.8828 45.8312C45.3521 44.7645 45.9814 43.8898 46.7708 43.2072C47.5601 42.5245 48.4668 42.0125 49.4908 41.6712C50.5361 41.3298 51.6348 41.1592 52.7868 41.1592C54.3228 41.1592 55.5068 41.4365 56.3388 41.9912C57.1708 42.5458 57.5868 43.2605 57.5868 44.1352C57.5868 44.5405 57.4908 44.9245 57.2988 45.2872C57.1068 45.6285 56.8828 45.9272 56.6268 46.1832C56.2641 46.0125 55.8268 45.8525 55.3148 45.7032C54.8028 45.5325 54.2481 45.4472 53.6508 45.4472ZM75.899 57.1592C75.6857 57.2232 75.3443 57.2872 74.875 57.3512C74.427 57.4152 73.9577 57.4472 73.467 57.4472C72.9977 57.4472 72.571 57.4152 72.187 57.3512C71.8243 57.2872 71.515 57.1592 71.259 56.9672C71.003 56.7752 70.8003 56.5192 70.651 56.1992C70.523 55.8578 70.459 55.4205 70.459 54.8872V47.7832C70.459 46.9085 70.235 46.3005 69.787 45.9592C69.3603 45.5965 68.827 45.4152 68.187 45.4152C67.7603 45.4152 67.355 45.4685 66.971 45.5752C66.587 45.6818 66.2777 45.8098 66.043 45.9592V57.1592C65.8297 57.2232 65.4883 57.2872 65.019 57.3512C64.571 57.4152 64.1017 57.4472 63.611 57.4472C63.1417 57.4472 62.715 57.4152 62.331 57.3512C61.9683 57.2872 61.659 57.1592 61.403 56.9672C61.147 56.7752 60.9443 56.5192 60.795 56.1992C60.667 55.8578 60.603 55.4205 60.603 54.8872V36.3272C60.8377 36.2845 61.179 36.2312 61.627 36.1672C62.0963 36.0818 62.5657 36.0392 63.035 36.0392C63.5043 36.0392 63.9203 36.0712 64.283 36.1352C64.667 36.1992 64.987 36.3272 65.243 36.5192C65.499 36.7112 65.691 36.9778 65.819 37.3192C65.9683 37.6392 66.043 38.0658 66.043 38.5992V41.7352C66.3203 41.6285 66.7363 41.5112 67.291 41.3832C67.867 41.2338 68.4963 41.1592 69.179 41.1592C71.291 41.1592 72.9337 41.6925 74.107 42.7592C75.3017 43.8045 75.899 45.3725 75.899 47.4632V57.1592ZM92.9218 29.2232C93.0924 29.1805 93.2631 29.1485 93.4338 29.1272C93.6044 29.1058 93.7751 29.0952 93.9458 29.0952C94.5644 29.0952 95.0871 29.2552 95.5138 29.5752C95.9618 29.8738 96.1858 30.3645 96.1858 31.0472C96.1858 31.4098 96.1004 31.7618 95.9298 32.1032C95.7804 32.4232 95.4924 32.7538 95.0658 33.0952L92.6018 35.0792C92.3244 35.0578 92.0364 35.0045 91.7378 34.9192C91.4604 34.8125 91.2044 34.6738 90.9698 34.5032C90.7564 34.3325 90.5751 34.1298 90.4258 33.8952C90.2764 33.6605 90.2018 33.4045 90.2018 33.1272C90.2018 32.7005 90.3404 32.3378 90.6178 32.0392L92.9218 29.2232ZM85.9138 53.7352C86.2764 53.7352 86.6711 53.7032 87.0978 53.6392C87.5458 53.5538 87.8764 53.4472 88.0898 53.3192V50.7592L85.7858 50.9512C85.1884 50.9938 84.6978 51.1218 84.3138 51.3352C83.9298 51.5485 83.7378 51.8685 83.7378 52.2952C83.7378 52.7218 83.8978 53.0738 84.2178 53.3512C84.5591 53.6072 85.1244 53.7352 85.9138 53.7352ZM85.6578 41.1592C86.8098 41.1592 87.8551 41.2765 88.7938 41.5112C89.7538 41.7458 90.5644 42.1085 91.2258 42.5992C91.9084 43.0685 92.4311 43.6765 92.7938 44.4232C93.1564 45.1485 93.3378 46.0125 93.3378 47.0152V54.1832C93.3378 54.7378 93.1778 55.1965 92.8578 55.5592C92.5591 55.9005 92.1964 56.1992 91.7698 56.4552C90.3831 57.2872 88.4311 57.7032 85.9138 57.7032C84.7831 57.7032 83.7591 57.5965 82.8418 57.3832C81.9458 57.1698 81.1671 56.8498 80.5058 56.4232C79.8658 55.9965 79.3644 55.4525 79.0018 54.7912C78.6604 54.1298 78.4898 53.3618 78.4898 52.4872C78.4898 51.0152 78.9271 49.8845 79.8018 49.0952C80.6764 48.3058 82.0311 47.8152 83.8658 47.6232L88.0578 47.1752V46.9512C88.0578 46.3325 87.7804 45.8952 87.2258 45.6392C86.6924 45.3618 85.9138 45.2232 84.8898 45.2232C84.0791 45.2232 83.2898 45.3085 82.5218 45.4792C81.7538 45.6498 81.0604 45.8632 80.4418 46.1192C80.1644 45.9272 79.9298 45.6392 79.7378 45.2552C79.5458 44.8498 79.4498 44.4338 79.4498 44.0072C79.4498 43.4525 79.5778 43.0152 79.8338 42.6952C80.1111 42.3538 80.5271 42.0658 81.0818 41.8312C81.7004 41.5965 82.4258 41.4258 83.2578 41.3192C84.1111 41.2125 84.9111 41.1592 85.6578 41.1592ZM86.2338 37.2872C85.5084 37.9058 84.9431 38.4072 84.5378 38.7912C84.1324 39.1752 83.7271 39.5485 83.3218 39.9112C82.4898 39.9112 81.8284 39.7192 81.3378 39.3352C80.8471 38.9298 80.6018 38.4178 80.6018 37.7992C80.6018 37.3725 80.7191 36.9885 80.9538 36.6472C81.1884 36.3058 81.5831 35.9325 82.1378 35.5272L83.7058 34.4072C84.2178 34.0445 84.6764 33.7885 85.0818 33.6392C85.5084 33.4685 85.9351 33.3832 86.3618 33.3832C86.6391 33.3832 86.8844 33.4045 87.0978 33.4472C87.3324 33.4685 87.5671 33.5432 87.8018 33.6712C88.0364 33.7778 88.2924 33.9485 88.5698 34.1832C88.8471 34.3965 89.1991 34.6845 89.6258 35.0472L91.8658 37.0312C91.8871 37.1378 91.8978 37.2338 91.8978 37.3192C91.9191 37.4045 91.9298 37.5005 91.9298 37.6072C91.9298 38.2685 91.7484 38.8125 91.3858 39.2392C91.0444 39.6445 90.5431 39.8472 89.8818 39.8472C89.6684 39.8472 89.4764 39.8365 89.3058 39.8152C89.1351 39.7725 88.9538 39.6978 88.7618 39.5912C88.5911 39.4845 88.3884 39.3352 88.1538 39.1432C87.9191 38.9298 87.6418 38.6525 87.3218 38.3112L86.2338 37.2872ZM102.104 51.8472C102.104 52.4018 102.275 52.7965 102.616 53.0312C102.979 53.2658 103.48 53.3832 104.12 53.3832C104.44 53.3832 104.771 53.3618 105.112 53.3192C105.453 53.2552 105.752 53.1805 106.008 53.0952C106.2 53.3298 106.36 53.5965 106.488 53.8952C106.637 54.1725 106.712 54.5138 106.712 54.9192C106.712 55.7298 106.403 56.3912 105.784 56.9032C105.187 57.4152 104.12 57.6712 102.584 57.6712C100.707 57.6712 99.256 57.2445 98.232 56.3912C97.2293 55.5378 96.728 54.1512 96.728 52.2312V38.5352C96.9627 38.4712 97.2933 38.4072 97.72 38.3432C98.168 38.2578 98.6373 38.2152 99.128 38.2152C100.067 38.2152 100.792 38.3858 101.304 38.7272C101.837 39.0472 102.104 39.7405 102.104 40.8072V42.8552H106.296C106.424 43.0898 106.541 43.3885 106.648 43.7512C106.776 44.0925 106.84 44.4765 106.84 44.9032C106.84 45.6498 106.669 46.1938 106.328 46.5352C106.008 46.8552 105.571 47.0152 105.016 47.0152H102.104V51.8472ZM121.419 57.1592C121.184 57.2018 120.832 57.2552 120.363 57.3192C119.915 57.4045 119.456 57.4472 118.987 57.4472C118.517 57.4472 118.091 57.4152 117.707 57.3512C117.344 57.2872 117.035 57.1592 116.779 56.9672C116.523 56.7752 116.32 56.5192 116.171 56.1992C116.043 55.8578 115.979 55.4205 115.979 54.8872V36.3272C116.213 36.2845 116.555 36.2312 117.003 36.1672C117.472 36.0818 117.941 36.0392 118.411 36.0392C118.88 36.0392 119.296 36.0712 119.659 36.1352C120.043 36.1992 120.363 36.3272 120.619 36.5192C120.875 36.7112 121.067 36.9778 121.195 37.3192C121.344 37.6392 121.419 38.0658 121.419 38.5992V57.1592ZM124.852 41.8632C125.065 41.7992 125.396 41.7352 125.844 41.6712C126.313 41.6072 126.793 41.5752 127.284 41.5752C127.753 41.5752 128.169 41.6072 128.532 41.6712C128.916 41.7352 129.236 41.8632 129.492 42.0552C129.748 42.2472 129.94 42.5138 130.068 42.8552C130.217 43.1752 130.292 43.6018 130.292 44.1352V51.0152C130.292 51.8898 130.505 52.5192 130.932 52.9032C131.358 53.2658 131.977 53.4472 132.788 53.4472C133.278 53.4472 133.673 53.4045 133.972 53.3192C134.292 53.2338 134.537 53.1485 134.708 53.0632V41.8632C134.921 41.7992 135.252 41.7352 135.7 41.6712C136.169 41.6072 136.649 41.5752 137.14 41.5752C137.95 41.5752 138.612 41.6925 139.124 41.9272C139.636 42.1618 139.956 42.6525 140.083 43.3992C140.553 42.9085 140.916 42.3112 141.172 41.6072C141.428 40.8818 141.588 39.9432 141.652 38.7912C141.95 38.6205 142.249 38.4925 142.548 38.4072C142.868 38.3218 143.252 38.2792 143.7 38.2792C144.382 38.2792 144.98 38.4498 145.492 38.7912C146.025 39.1112 146.292 39.6658 146.292 40.4552C146.292 41.4152 146.11 42.3005 145.748 43.1112C145.406 43.9218 144.948 44.6472 144.372 45.2872C143.796 45.9058 143.134 46.4285 142.388 46.8552C141.662 47.2818 140.916 47.5912 140.148 47.7832V53.8632C140.148 54.9298 139.7 55.7298 138.804 56.2632C138.057 56.7325 137.161 57.0845 136.116 57.3192C135.092 57.5752 133.972 57.7032 132.756 57.7032C131.604 57.7032 130.537 57.5752 129.556 57.3192C128.596 57.0632 127.764 56.6685 127.06 56.1352C126.356 55.6018 125.812 54.9192 125.428 54.0872C125.044 53.2338 124.852 52.2098 124.852 51.0152V41.8632ZM162.76 49.4152C162.76 50.7378 162.557 51.9218 162.152 52.9672C161.747 53.9912 161.171 54.8552 160.424 55.5592C159.699 56.2632 158.824 56.7965 157.8 57.1592C156.776 57.5218 155.635 57.7032 154.376 57.7032C153.117 57.7032 151.976 57.5112 150.952 57.1272C149.928 56.7432 149.043 56.1992 148.296 55.4952C147.571 54.7698 147.005 53.8952 146.6 52.8712C146.195 51.8472 145.992 50.6952 145.992 49.4152C145.992 48.1565 146.195 47.0152 146.6 45.9912C147.005 44.9672 147.571 44.1032 148.296 43.3992C149.043 42.6738 149.928 42.1192 150.952 41.7352C151.976 41.3512 153.117 41.1592 154.376 41.1592C155.656 41.1592 156.819 41.3725 157.864 41.7992C158.909 42.2045 159.805 42.7805 160.552 43.5272C160.851 42.9298 161.075 42.2685 161.224 41.5432C161.373 40.8178 161.48 39.9005 161.544 38.7912C161.843 38.6205 162.141 38.4925 162.44 38.4072C162.76 38.3218 163.144 38.2792 163.592 38.2792C164.275 38.2792 164.872 38.4498 165.384 38.7912C165.917 39.1112 166.184 39.6658 166.184 40.4552C166.184 41.0738 166.099 41.6925 165.928 42.3112C165.757 42.9298 165.512 43.5165 165.192 44.0712C164.872 44.6258 164.467 45.1272 163.976 45.5752C163.507 46.0232 162.963 46.3752 162.344 46.6312C162.472 47.0578 162.568 47.5058 162.632 47.9752C162.717 48.4445 162.76 48.9245 162.76 49.4152ZM151.56 49.4152C151.56 50.7165 151.805 51.7192 152.296 52.4232C152.808 53.1058 153.512 53.4472 154.408 53.4472C155.304 53.4472 155.987 53.0952 156.456 52.3912C156.947 51.6872 157.192 50.6952 157.192 49.4152C157.192 48.1352 156.947 47.1538 156.456 46.4712C155.965 45.7672 155.272 45.4152 154.376 45.4152C153.48 45.4152 152.787 45.7672 152.296 46.4712C151.805 47.1538 151.56 48.1352 151.56 49.4152ZM151.528 61.7032C151.528 60.9565 151.795 60.3058 152.328 59.7512C152.861 59.2178 153.544 58.9512 154.376 58.9512C155.208 58.9512 155.891 59.2178 156.424 59.7512C156.957 60.3058 157.224 60.9565 157.224 61.7032C157.224 62.4498 156.957 63.0898 156.424 63.6232C155.891 64.1778 155.208 64.4552 154.376 64.4552C153.544 64.4552 152.861 64.1778 152.328 63.6232C151.795 63.0898 151.528 62.4498 151.528 61.7032ZM176.926 47.3352C176.926 46.6738 176.734 46.1938 176.35 45.8952C175.988 45.5752 175.486 45.4152 174.846 45.4152C174.42 45.4152 173.993 45.4685 173.566 45.5752C173.161 45.6818 172.809 45.8418 172.51 46.0552V57.1592C172.297 57.2232 171.956 57.2872 171.486 57.3512C171.038 57.4152 170.569 57.4472 170.078 57.4472C169.609 57.4472 169.182 57.4152 168.798 57.3512C168.436 57.2872 168.126 57.1592 167.87 56.9672C167.614 56.7752 167.412 56.5192 167.262 56.1992C167.134 55.8578 167.07 55.4205 167.07 54.8872V45.2872C167.07 44.7112 167.188 44.2418 167.422 43.8792C167.678 43.5165 168.02 43.1858 168.446 42.8872C169.172 42.3752 170.078 41.9592 171.166 41.6392C172.276 41.3192 173.502 41.1592 174.846 41.1592C177.257 41.1592 179.113 41.6925 180.414 42.7592C181.716 43.8045 182.366 45.2658 182.366 47.1432V57.1592C182.153 57.2232 181.812 57.2872 181.342 57.3512C180.894 57.4152 180.425 57.4472 179.934 57.4472C179.465 57.4472 179.038 57.4152 178.654 57.3512C178.292 57.2872 177.982 57.1592 177.726 56.9672C177.47 56.7752 177.268 56.5192 177.118 56.1992C176.99 55.8578 176.926 55.4205 176.926 54.8872V47.3352ZM193.311 41.1592C194.527 41.1592 195.625 41.3192 196.607 41.6392C197.609 41.9378 198.452 42.3325 199.135 42.8232C199.561 43.1218 199.892 43.4525 200.127 43.8152C200.383 44.1778 200.51 44.6472 200.51 45.2232V56.4232C200.51 57.5538 200.297 58.5245 199.871 59.3352C199.444 60.1672 198.857 60.8498 198.111 61.3832C197.385 61.9378 196.521 62.3432 195.519 62.5992C194.537 62.8552 193.481 62.9832 192.351 62.9832C190.409 62.9832 188.884 62.7165 187.775 62.1832C186.665 61.6712 186.111 60.8285 186.111 59.6552C186.111 59.1645 186.207 58.7272 186.399 58.3432C186.612 57.9805 186.847 57.7032 187.103 57.5112C187.721 57.8525 188.415 58.1405 189.183 58.3752C189.972 58.6098 190.783 58.7272 191.615 58.7272C192.767 58.7272 193.684 58.5352 194.367 58.1512C195.049 57.7672 195.391 57.1485 195.391 56.2952V55.7832C194.516 56.1672 193.449 56.3592 192.191 56.3592C191.231 56.3592 190.313 56.2205 189.439 55.9432C188.585 55.6445 187.828 55.1965 187.167 54.5992C186.527 53.9805 186.004 53.1912 185.599 52.2312C185.215 51.2712 185.023 50.1298 185.023 48.8072C185.023 47.5058 185.225 46.3752 185.631 45.4152C186.057 44.4552 186.633 43.6658 187.359 43.0472C188.105 42.4072 188.98 41.9378 189.983 41.6392C191.007 41.3192 192.116 41.1592 193.311 41.1592ZM195.295 45.7992C195.145 45.7138 194.921 45.6285 194.623 45.5432C194.345 45.4578 193.993 45.4152 193.567 45.4152C192.521 45.4152 191.732 45.7138 191.199 46.3112C190.687 46.8872 190.431 47.7192 190.431 48.8072C190.431 50.0445 190.687 50.9405 191.199 51.4952C191.732 52.0285 192.404 52.2952 193.215 52.2952C194.089 52.2952 194.783 52.0925 195.295 51.6872V45.7992ZM217.937 40.2312C217.83 40.0605 217.734 39.8472 217.649 39.5912C217.564 39.3352 217.521 39.0578 217.521 38.7592C217.521 38.2258 217.638 37.8418 217.873 37.6072C218.108 37.3725 218.438 37.2552 218.865 37.2552H220.209V35.0792C220.422 35.0152 220.764 34.9512 221.233 34.8872C221.702 34.8018 222.182 34.7592 222.673 34.7592C223.59 34.7592 224.305 34.9192 224.817 35.2392C225.35 35.5378 225.628 36.2098 225.649 37.2552H227.217C227.302 37.4045 227.388 37.6072 227.473 37.8632C227.58 38.1192 227.633 38.3965 227.633 38.6952C227.633 39.2285 227.516 39.6232 227.281 39.8792C227.046 40.1138 226.716 40.2312 226.289 40.2312H225.649V53.7672C225.649 54.7698 225.18 55.5698 224.241 56.1672C223.622 56.5725 222.822 56.9245 221.841 57.2232C220.86 57.5432 219.729 57.7032 218.449 57.7032C217.062 57.7032 215.814 57.5218 214.705 57.1592C213.617 56.7752 212.689 56.2312 211.921 55.5272C211.174 54.8232 210.598 53.9698 210.193 52.9672C209.809 51.9645 209.617 50.8338 209.617 49.5752C209.617 48.2098 209.83 47.0152 210.257 45.9912C210.684 44.9672 211.27 44.1245 212.017 43.4632C212.785 42.8018 213.67 42.3112 214.673 41.9912C215.697 41.6498 216.796 41.4792 217.969 41.4792C218.396 41.4792 218.812 41.5218 219.217 41.6072C219.622 41.6712 219.953 41.7565 220.209 41.8632V40.2312H217.937ZM218.705 45.7352C217.553 45.7352 216.668 46.0552 216.049 46.6952C215.43 47.3138 215.121 48.2738 215.121 49.5752C215.121 50.8552 215.409 51.8152 215.985 52.4552C216.561 53.0952 217.393 53.4152 218.481 53.4152C218.865 53.4152 219.206 53.3618 219.505 53.2552C219.825 53.1272 220.07 52.9885 220.241 52.8392V46.1192C219.814 45.8632 219.302 45.7352 218.705 45.7352ZM235.883 53.7352C236.245 53.7352 236.64 53.7032 237.067 53.6392C237.515 53.5538 237.845 53.4472 238.059 53.3192V50.7592L235.755 50.9512C235.157 50.9938 234.667 51.1218 234.283 51.3352C233.899 51.5485 233.707 51.8685 233.707 52.2952C233.707 52.7218 233.867 53.0738 234.187 53.3512C234.528 53.6072 235.093 53.7352 235.883 53.7352ZM235.627 41.1592C236.779 41.1592 237.824 41.2765 238.763 41.5112C239.723 41.7458 240.533 42.1085 241.195 42.5992C241.877 43.0685 242.4 43.6765 242.763 44.4232C243.125 45.1485 243.307 46.0125 243.307 47.0152V54.1832C243.307 54.7378 243.147 55.1965 242.827 55.5592C242.528 55.9005 242.165 56.1992 241.739 56.4552C240.352 57.2872 238.4 57.7032 235.883 57.7032C234.752 57.7032 233.728 57.5965 232.811 57.3832C231.915 57.1698 231.136 56.8498 230.475 56.4232C229.835 55.9965 229.333 55.4525 228.971 54.7912C228.629 54.1298 228.459 53.3618 228.459 52.4872C228.459 51.0152 228.896 49.8845 229.771 49.0952C230.645 48.3058 232 47.8152 233.835 47.6232L238.027 47.1752V46.9512C238.027 46.3325 237.749 45.8952 237.195 45.6392C236.661 45.3618 235.883 45.2232 234.859 45.2232C234.048 45.2232 233.259 45.3085 232.491 45.4792C231.723 45.6498 231.029 45.8632 230.411 46.1192C230.133 45.9272 229.899 45.6392 229.707 45.2552C229.515 44.8498 229.419 44.4338 229.419 44.0072C229.419 43.4525 229.547 43.0152 229.803 42.6952C230.08 42.3538 230.496 42.0658 231.051 41.8312C231.669 41.5965 232.395 41.4258 233.227 41.3192C234.08 41.2125 234.88 41.1592 235.627 41.1592ZM231.819 36.6152C231.776 36.4018 231.755 36.1885 231.755 35.9752C231.755 35.1645 231.957 34.5138 232.363 34.0232C232.768 33.5325 233.323 33.2872 234.027 33.2872C234.56 33.2872 235.008 33.3938 235.371 33.6072C235.733 33.8205 236.139 34.1192 236.587 34.5032L240.203 37.5432C240.16 38.3538 239.925 39.0045 239.499 39.4952C239.093 39.9858 238.624 40.2312 238.091 40.2312C237.749 40.2312 237.408 40.1672 237.067 40.0392C236.725 39.8898 236.384 39.6978 236.043 39.4632L231.819 36.6152ZM262.729 49.4152C262.729 50.7378 262.526 51.9218 262.121 52.9672C261.715 53.9912 261.139 54.8552 260.393 55.5592C259.667 56.2632 258.793 56.7965 257.769 57.1592C256.745 57.5218 255.603 57.7032 254.345 57.7032C253.086 57.7032 251.945 57.5112 250.921 57.1272C249.897 56.7432 249.011 56.1992 248.265 55.4952C247.539 54.7698 246.974 53.8952 246.569 52.8712C246.163 51.8472 245.961 50.6952 245.961 49.4152C245.961 48.1565 246.163 47.0152 246.569 45.9912C246.974 44.9672 247.539 44.1032 248.265 43.3992C249.011 42.6738 249.897 42.1192 250.921 41.7352C251.945 41.3512 253.086 41.1592 254.345 41.1592C255.603 41.1592 256.745 41.3618 257.769 41.7672C258.793 42.1512 259.667 42.7058 260.393 43.4312C261.139 44.1352 261.715 44.9992 262.121 46.0232C262.526 47.0472 262.729 48.1778 262.729 49.4152ZM251.529 49.4152C251.529 50.7165 251.774 51.7192 252.265 52.4232C252.777 53.1058 253.481 53.4472 254.377 53.4472C255.273 53.4472 255.955 53.0952 256.425 52.3912C256.915 51.6872 257.161 50.6952 257.161 49.4152C257.161 48.1352 256.915 47.1538 256.425 46.4712C255.934 45.7672 255.241 45.4152 254.345 45.4152C253.449 45.4152 252.755 45.7672 252.265 46.4712C251.774 47.1538 251.529 48.1352 251.529 49.4152ZM277.229 51.8472C277.229 52.4018 277.4 52.7965 277.741 53.0312C278.104 53.2658 278.605 53.3832 279.245 53.3832C279.565 53.3832 279.896 53.3618 280.237 53.3192C280.578 53.2552 280.877 53.1805 281.133 53.0952C281.325 53.3298 281.485 53.5965 281.613 53.8952C281.762 54.1725 281.837 54.5138 281.837 54.9192C281.837 55.7298 281.528 56.3912 280.909 56.9032C280.312 57.4152 279.245 57.6712 277.709 57.6712C275.832 57.6712 274.381 57.2445 273.357 56.3912C272.354 55.5378 271.853 54.1512 271.853 52.2312V38.5352C272.088 38.4712 272.418 38.4072 272.845 38.3432C273.293 38.2578 273.762 38.2152 274.253 38.2152C275.192 38.2152 275.917 38.3858 276.429 38.7272C276.962 39.0472 277.229 39.7405 277.229 40.8072V42.8552H281.421C281.549 43.0898 281.666 43.3885 281.773 43.7512C281.901 44.0925 281.965 44.4765 281.965 44.9032C281.965 45.6498 281.794 46.1938 281.453 46.5352C281.133 46.8552 280.696 47.0152 280.141 47.0152H277.229V51.8472ZM291.258 53.7352C291.62 53.7352 292.015 53.7032 292.442 53.6392C292.89 53.5538 293.22 53.4472 293.434 53.3192V50.7592L291.13 50.9512C290.532 50.9938 290.042 51.1218 289.658 51.3352C289.274 51.5485 289.082 51.8685 289.082 52.2952C289.082 52.7218 289.242 53.0738 289.562 53.3512C289.903 53.6072 290.468 53.7352 291.258 53.7352ZM291.002 41.1592C292.154 41.1592 293.199 41.2765 294.138 41.5112C295.098 41.7458 295.908 42.1085 296.57 42.5992C297.252 43.0685 297.775 43.6765 298.138 44.4232C298.5 45.1485 298.682 46.0125 298.682 47.0152V54.1832C298.682 54.7378 298.522 55.1965 298.202 55.5592C297.903 55.9005 297.54 56.1992 297.114 56.4552C295.727 57.2872 293.775 57.7032 291.258 57.7032C290.127 57.7032 289.103 57.5965 288.186 57.3832C287.29 57.1698 286.511 56.8498 285.85 56.4232C285.21 55.9965 284.708 55.4525 284.346 54.7912C284.004 54.1298 283.834 53.3618 283.834 52.4872C283.834 51.0152 284.271 49.8845 285.146 49.0952C286.02 48.3058 287.375 47.8152 289.21 47.6232L293.402 47.1752V46.9512C293.402 46.3325 293.124 45.8952 292.57 45.6392C292.036 45.3618 291.258 45.2232 290.234 45.2232C289.423 45.2232 288.634 45.3085 287.866 45.4792C287.098 45.6498 286.404 45.8632 285.786 46.1192C285.508 45.9272 285.274 45.6392 285.082 45.2552C284.89 44.8498 284.794 44.4338 284.794 44.0072C284.794 43.4525 284.922 43.0152 285.178 42.6952C285.455 42.3538 285.871 42.0658 286.426 41.8312C287.044 41.5965 287.77 41.4258 288.602 41.3192C289.455 41.2125 290.255 41.1592 291.002 41.1592ZM288.442 61.7032C288.442 60.9565 288.708 60.3058 289.242 59.7512C289.775 59.2178 290.458 58.9512 291.29 58.9512C292.122 58.9512 292.804 59.2178 293.338 59.7512C293.871 60.3058 294.138 60.9565 294.138 61.7032C294.138 62.4498 293.871 63.0898 293.338 63.6232C292.804 64.1778 292.122 64.4552 291.29 64.4552C290.458 64.4552 289.775 64.1778 289.242 63.6232C288.708 63.0898 288.442 62.4498 288.442 61.7032ZM318.104 49.4152C318.104 50.7378 317.901 51.9218 317.496 52.9672C317.09 53.9912 316.514 54.8552 315.768 55.5592C315.042 56.2632 314.168 56.7965 313.144 57.1592C312.12 57.5218 310.978 57.7032 309.72 57.7032C308.461 57.7032 307.32 57.5112 306.296 57.1272C305.272 56.7432 304.386 56.1992 303.64 55.4952C302.914 54.7698 302.349 53.8952 301.944 52.8712C301.538 51.8472 301.336 50.6952 301.336 49.4152C301.336 48.1565 301.538 47.0152 301.944 45.9912C302.349 44.9672 302.914 44.1032 303.64 43.3992C304.386 42.6738 305.272 42.1192 306.296 41.7352C307.32 41.3512 308.461 41.1592 309.72 41.1592C310.978 41.1592 312.12 41.3618 313.144 41.7672C314.168 42.1512 315.042 42.7058 315.768 43.4312C316.514 44.1352 317.09 44.9992 317.496 46.0232C317.901 47.0472 318.104 48.1778 318.104 49.4152ZM306.904 49.4152C306.904 50.7165 307.149 51.7192 307.64 52.4232C308.152 53.1058 308.856 53.4472 309.752 53.4472C310.648 53.4472 311.33 53.0952 311.8 52.3912C312.29 51.6872 312.536 50.6952 312.536 49.4152C312.536 48.1352 312.29 47.1538 311.8 46.4712C311.309 45.7672 310.616 45.4152 309.72 45.4152C308.824 45.4152 308.13 45.7672 307.64 46.4712C307.149 47.1538 306.904 48.1352 306.904 49.4152ZM340.284 52.5512C340.284 54.1725 339.676 55.4418 338.46 56.3592C337.244 57.2765 335.452 57.7352 333.084 57.7352C332.188 57.7352 331.356 57.6712 330.588 57.5432C329.82 57.4152 329.159 57.2232 328.604 56.9672C328.071 56.6898 327.644 56.3485 327.324 55.9432C327.025 55.5378 326.876 55.0578 326.876 54.5032C326.876 53.9912 326.983 53.5645 327.196 53.2232C327.409 52.8605 327.665 52.5618 327.964 52.3272C328.583 52.6685 329.287 52.9778 330.076 53.2552C330.887 53.5112 331.815 53.6392 332.86 53.6392C333.521 53.6392 334.023 53.5432 334.364 53.3512C334.727 53.1592 334.908 52.9032 334.908 52.5832C334.908 52.2845 334.78 52.0498 334.524 51.8792C334.268 51.7085 333.841 51.5698 333.244 51.4632L332.284 51.2712C330.428 50.9085 329.041 50.3432 328.124 49.5752C327.228 48.7858 326.78 47.6658 326.78 46.2152C326.78 45.4258 326.951 44.7112 327.292 44.0712C327.633 43.4312 328.113 42.8978 328.732 42.4712C329.351 42.0445 330.087 41.7138 330.94 41.4792C331.815 41.2445 332.775 41.1272 333.82 41.1272C334.609 41.1272 335.345 41.1912 336.028 41.3192C336.732 41.4258 337.34 41.5965 337.852 41.8312C338.364 42.0658 338.769 42.3752 339.068 42.7592C339.367 43.1218 339.516 43.5592 339.516 44.0712C339.516 44.5618 339.42 44.9885 339.228 45.3512C339.057 45.6925 338.833 45.9805 338.556 46.2152C338.385 46.1085 338.129 46.0018 337.788 45.8952C337.447 45.7672 337.073 45.6605 336.668 45.5752C336.263 45.4685 335.847 45.3832 335.42 45.3192C335.015 45.2552 334.641 45.2232 334.3 45.2232C333.596 45.2232 333.052 45.3085 332.668 45.4792C332.284 45.6285 332.092 45.8738 332.092 46.2152C332.092 46.4498 332.199 46.6418 332.412 46.7912C332.625 46.9405 333.031 47.0792 333.628 47.2072L334.62 47.4312C336.668 47.9005 338.119 48.5512 338.972 49.3832C339.847 50.1938 340.284 51.2498 340.284 52.5512ZM357.374 29.2232C357.545 29.1805 357.716 29.1485 357.886 29.1272C358.057 29.1058 358.228 29.0952 358.398 29.0952C359.017 29.0952 359.54 29.2552 359.966 29.5752C360.414 29.8738 360.638 30.3645 360.638 31.0472C360.638 31.4098 360.553 31.7618 360.382 32.1032C360.233 32.4232 359.945 32.7538 359.518 33.0952L357.054 35.0792C356.777 35.0578 356.489 35.0045 356.19 34.9192C355.913 34.8125 355.657 34.6738 355.422 34.5032C355.209 34.3325 355.028 34.1298 354.878 33.8952C354.729 33.6605 354.654 33.4045 354.654 33.1272C354.654 32.7005 354.793 32.3378 355.07 32.0392L357.374 29.2232ZM359.166 49.4152C359.166 50.7378 358.964 51.9218 358.558 52.9672C358.153 53.9912 357.577 54.8552 356.83 55.5592C356.105 56.2632 355.23 56.7965 354.206 57.1592C353.182 57.5218 352.041 57.7032 350.782 57.7032C349.524 57.7032 348.382 57.5112 347.358 57.1272C346.334 56.7432 345.449 56.1992 344.702 55.4952C343.977 54.7698 343.412 53.8952 343.006 52.8712C342.601 51.8472 342.398 50.6952 342.398 49.4152C342.398 48.1565 342.601 47.0152 343.006 45.9912C343.412 44.9672 343.977 44.1032 344.702 43.3992C345.449 42.6738 346.334 42.1192 347.358 41.7352C348.382 41.3512 349.524 41.1592 350.782 41.1592C352.041 41.1592 353.182 41.3618 354.206 41.7672C355.23 42.1512 356.105 42.7058 356.83 43.4312C357.577 44.1352 358.153 44.9992 358.558 46.0232C358.964 47.0472 359.166 48.1778 359.166 49.4152ZM347.966 49.4152C347.966 50.7165 348.212 51.7192 348.702 52.4232C349.214 53.1058 349.918 53.4472 350.814 53.4472C351.71 53.4472 352.393 53.0952 352.862 52.3912C353.353 51.6872 353.598 50.6952 353.598 49.4152C353.598 48.1352 353.353 47.1538 352.862 46.4712C352.372 45.7672 351.678 45.4152 350.782 45.4152C349.886 45.4152 349.193 45.7672 348.702 46.4712C348.212 47.1538 347.966 48.1352 347.966 49.4152ZM350.686 37.2872C349.961 37.9058 349.396 38.4072 348.99 38.7912C348.585 39.1752 348.18 39.5485 347.774 39.9112C346.942 39.9112 346.281 39.7192 345.79 39.3352C345.3 38.9298 345.054 38.4178 345.054 37.7992C345.054 37.3725 345.172 36.9885 345.406 36.6472C345.641 36.3058 346.036 35.9325 346.59 35.5272L348.158 34.4072C348.67 34.0445 349.129 33.7885 349.534 33.6392C349.961 33.4685 350.388 33.3832 350.814 33.3832C351.092 33.3832 351.337 33.4045 351.55 33.4472C351.785 33.4685 352.02 33.5432 352.254 33.6712C352.489 33.7778 352.745 33.9485 353.022 34.1832C353.3 34.3965 353.652 34.6845 354.078 35.0472L356.318 37.0312C356.34 37.1378 356.35 37.2338 356.35 37.3192C356.372 37.4045 356.382 37.5005 356.382 37.6072C356.382 38.2685 356.201 38.8125 355.838 39.2392C355.497 39.6445 354.996 39.8472 354.334 39.8472C354.121 39.8472 353.929 39.8365 353.758 39.8152C353.588 39.7725 353.406 39.6978 353.214 39.5912C353.044 39.4845 352.841 39.3352 352.606 39.1432C352.372 38.9298 352.094 38.6525 351.774 38.3112L350.686 37.2872Z" fill="#EF5223"/>
<path d="M39.8181 138.591C39.0715 139.231 37.8981 139.791 36.2981 140.271C34.7515 140.751 33.0448 140.991 31.1781 140.991C28.9381 140.991 27.0181 140.671 25.4181 140.031C23.8181 139.338 22.7248 138.404 22.1381 137.231C21.5515 136.004 20.8315 134.431 19.9781 132.511C19.1248 130.538 18.2181 128.351 17.2581 125.951C16.3515 123.551 15.3915 121.018 14.3781 118.351C13.4181 115.631 12.4848 112.884 11.5781 110.111C10.6715 107.338 9.81813 104.618 9.01813 101.951C8.21813 99.2845 7.52479 96.7778 6.93813 94.4312C7.68479 93.6845 8.75146 93.0178 10.1381 92.4312C11.5781 91.7912 13.0981 91.4712 14.6981 91.4712C16.6715 91.4712 18.2715 91.8978 19.4981 92.7512C20.7781 93.5512 21.7115 95.0712 22.2981 97.3112C23.7381 102.538 25.1781 107.551 26.6181 112.351C28.1115 117.098 29.6581 122.058 31.2581 127.231H31.7381C33.1781 122.218 34.6448 116.751 36.1381 110.831C37.6848 104.911 39.1515 99.0178 40.5381 93.1512C41.4981 92.6712 42.5115 92.2712 43.5781 91.9512C44.6981 91.6312 45.9515 91.4712 47.3381 91.4712C49.3115 91.4712 50.9915 91.9245 52.3781 92.8312C53.7648 93.6845 54.4581 95.1245 54.4581 97.1512C54.4581 98.3245 54.1648 100.031 53.5781 102.271C53.0448 104.511 52.3248 107.044 51.4181 109.871C50.5648 112.644 49.5781 115.551 48.4581 118.591C47.3915 121.631 46.2981 124.511 45.1781 127.231C44.1115 129.898 43.0981 132.271 42.1381 134.351C41.1781 136.378 40.4048 137.791 39.8181 138.591ZM62.1838 90.5112C62.1838 88.4845 62.8504 86.7778 64.1838 85.3912C65.5704 84.0045 67.3838 83.3112 69.6238 83.3112C71.8638 83.3112 73.6504 84.0045 74.9838 85.3912C76.3704 86.7778 77.0638 88.4845 77.0638 90.5112C77.0638 92.5378 76.3704 94.2445 74.9838 95.6312C73.6504 97.0178 71.8638 97.7112 69.6238 97.7112C67.3838 97.7112 65.5704 97.0178 64.1838 95.6312C62.8504 94.2445 62.1838 92.5378 62.1838 90.5112ZM76.4238 140.111C75.8371 140.218 74.9571 140.351 73.7838 140.511C72.6638 140.724 71.5171 140.831 70.3438 140.831C69.1704 140.831 68.1038 140.751 67.1438 140.591C66.2371 140.431 65.4638 140.111 64.8238 139.631C64.1838 139.151 63.6771 138.511 63.3038 137.711C62.9838 136.858 62.8238 135.764 62.8238 134.431V101.871C63.4104 101.764 64.2638 101.631 65.3838 101.471C66.5571 101.258 67.7304 101.151 68.9037 101.151C70.0771 101.151 71.1171 101.231 72.0238 101.391C72.9838 101.551 73.7838 101.871 74.4238 102.351C75.0638 102.831 75.5438 103.498 75.8638 104.351C76.2371 105.151 76.4238 106.218 76.4238 107.551V140.111ZM108.642 141.471C105.495 141.471 102.562 141.044 99.8419 140.191C97.1752 139.284 94.8285 137.951 92.8019 136.191C90.8285 134.431 89.2552 132.218 88.0819 129.551C86.9619 126.884 86.4019 123.764 86.4019 120.191C86.4019 116.671 86.9619 113.658 88.0819 111.151C89.2552 108.591 90.7752 106.511 92.6419 104.911C94.5085 103.258 96.6419 102.058 99.0419 101.311C101.442 100.511 103.895 100.111 106.402 100.111C109.229 100.111 111.789 100.538 114.082 101.391C116.429 102.244 118.429 103.418 120.082 104.911C121.789 106.404 123.095 108.191 124.002 110.271C124.962 112.351 125.442 114.618 125.442 117.071C125.442 118.884 124.935 120.271 123.922 121.231C122.909 122.191 121.495 122.804 119.682 123.071L99.9219 126.031C100.509 127.791 101.709 129.124 103.522 130.031C105.335 130.884 107.415 131.311 109.762 131.311C111.949 131.311 114.002 131.044 115.922 130.511C117.895 129.924 119.495 129.258 120.722 128.511C121.575 129.044 122.295 129.791 122.882 130.751C123.469 131.711 123.762 132.724 123.762 133.791C123.762 136.191 122.642 137.978 120.402 139.151C118.695 140.058 116.775 140.671 114.642 140.991C112.509 141.311 110.509 141.471 108.642 141.471ZM106.402 110.031C105.122 110.031 104.002 110.244 103.042 110.671C102.135 111.098 101.389 111.658 100.802 112.351C100.215 112.991 99.7619 113.738 99.4419 114.591C99.1752 115.391 99.0152 116.218 98.9619 117.071L112.642 114.831C112.482 113.764 111.895 112.698 110.882 111.631C109.869 110.564 108.375 110.031 106.402 110.031ZM106.002 90.4312C104.189 91.9778 102.775 93.2312 101.762 94.1912C100.749 95.1512 99.7352 96.0845 98.7219 96.9912C96.6419 96.9912 94.9885 96.5112 93.7619 95.5512C92.5352 94.5378 91.9219 93.2578 91.9219 91.7112C91.9219 90.6445 92.2152 89.6845 92.8019 88.8312C93.3885 87.9778 94.3752 87.0445 95.7619 86.0312L99.6819 83.2312C100.962 82.3245 102.109 81.6845 103.122 81.3112C104.189 80.8845 105.255 80.6712 106.322 80.6712C107.015 80.6712 107.629 80.7245 108.162 80.8312C108.749 80.8845 109.335 81.0712 109.922 81.3912C110.509 81.6578 111.149 82.0845 111.842 82.6712C112.535 83.2045 113.415 83.9245 114.482 84.8312L120.082 89.7912C120.135 90.0578 120.162 90.2978 120.162 90.5112C120.215 90.7245 120.242 90.9645 120.242 91.2312C120.242 92.8845 119.789 94.2445 118.882 95.3112C118.029 96.3245 116.775 96.8312 115.122 96.8312C114.589 96.8312 114.109 96.8045 113.682 96.7512C113.255 96.6445 112.802 96.4578 112.322 96.1912C111.895 95.9245 111.389 95.5512 110.802 95.0712C110.215 94.5378 109.522 93.8445 108.722 92.9912L106.002 90.4312ZM99.6019 151.471C99.6019 149.604 100.269 147.978 101.602 146.591C102.935 145.258 104.642 144.591 106.722 144.591C108.802 144.591 110.509 145.258 111.842 146.591C113.175 147.978 113.842 149.604 113.842 151.471C113.842 153.338 113.175 154.938 111.842 156.271C110.509 157.658 108.802 158.351 106.722 158.351C104.642 158.351 102.935 157.658 101.602 156.271C100.269 154.938 99.6019 153.338 99.6019 151.471ZM148.666 126.831C148.666 128.218 149.093 129.204 149.946 129.791C150.853 130.378 152.106 130.671 153.706 130.671C154.506 130.671 155.333 130.618 156.186 130.511C157.04 130.351 157.786 130.164 158.426 129.951C158.906 130.538 159.306 131.204 159.626 131.951C160 132.644 160.186 133.498 160.186 134.511C160.186 136.538 159.413 138.191 157.866 139.471C156.373 140.751 153.706 141.391 149.866 141.391C145.173 141.391 141.546 140.324 138.986 138.191C136.48 136.058 135.226 132.591 135.226 127.791V93.5512C135.813 93.3912 136.64 93.2312 137.706 93.0712C138.826 92.8578 140 92.7512 141.226 92.7512C143.573 92.7512 145.386 93.1778 146.666 94.0312C148 94.8312 148.666 96.5645 148.666 99.2312V104.351H159.146C159.466 104.938 159.76 105.684 160.026 106.591C160.346 107.444 160.506 108.404 160.506 109.471C160.506 111.338 160.08 112.698 159.226 113.551C158.426 114.351 157.333 114.751 155.946 114.751H148.666V126.831ZM234.073 138.511C233.326 139.258 232.233 139.818 230.793 140.191C229.406 140.618 227.726 140.831 225.753 140.831C223.78 140.831 221.913 140.538 220.153 139.951C218.393 139.364 216.953 137.951 215.833 135.711L207.913 119.551C207.113 117.898 206.393 116.351 205.753 114.911C205.113 113.418 204.42 111.711 203.673 109.791L203.193 109.871C203.406 112.751 203.513 115.684 203.513 118.671C203.566 121.658 203.593 124.591 203.593 127.471V139.871C203.006 140.031 202.1 140.191 200.873 140.351C199.7 140.511 198.526 140.591 197.353 140.591C196.18 140.591 195.14 140.511 194.233 140.351C193.326 140.191 192.58 139.871 191.993 139.391C191.406 138.911 190.953 138.271 190.633 137.471C190.313 136.618 190.153 135.524 190.153 134.191V94.1912C190.9 93.1245 192.046 92.3245 193.593 91.7912C195.14 91.2578 196.793 90.9912 198.553 90.9912C200.526 90.9912 202.393 91.3112 204.153 91.9512C205.966 92.5378 207.406 93.9245 208.473 96.1112L216.473 112.271C217.273 113.924 217.993 115.498 218.633 116.991C219.273 118.431 219.966 120.111 220.713 122.031L221.113 121.951C220.9 119.071 220.766 116.191 220.713 113.311C220.66 110.431 220.633 107.551 220.633 104.671V91.7112C221.22 91.5512 222.1 91.3912 223.273 91.2312C224.5 91.0712 225.7 90.9912 226.873 90.9912C229.22 90.9912 231.006 91.4178 232.233 92.2712C233.46 93.0712 234.073 94.7778 234.073 97.3912V138.511ZM263.05 131.551C263.957 131.551 264.943 131.471 266.01 131.311C267.13 131.098 267.957 130.831 268.49 130.511V124.111L262.73 124.591C261.237 124.698 260.01 125.018 259.05 125.551C258.09 126.084 257.61 126.884 257.61 127.951C257.61 129.018 258.01 129.898 258.81 130.591C259.663 131.231 261.077 131.551 263.05 131.551ZM262.41 100.111C265.29 100.111 267.903 100.404 270.25 100.991C272.65 101.578 274.677 102.484 276.33 103.711C278.037 104.884 279.343 106.404 280.25 108.271C281.157 110.084 281.61 112.244 281.61 114.751V132.671C281.61 134.058 281.21 135.204 280.41 136.111C279.663 136.964 278.757 137.711 277.69 138.351C274.223 140.431 269.343 141.471 263.05 141.471C260.223 141.471 257.663 141.204 255.37 140.671C253.13 140.138 251.183 139.338 249.53 138.271C247.93 137.204 246.677 135.844 245.77 134.191C244.917 132.538 244.49 130.618 244.49 128.431C244.49 124.751 245.583 121.924 247.77 119.951C249.957 117.978 253.343 116.751 257.93 116.271L268.41 115.151V114.591C268.41 113.044 267.717 111.951 266.33 111.311C264.997 110.618 263.05 110.271 260.49 110.271C258.463 110.271 256.49 110.484 254.57 110.911C252.65 111.338 250.917 111.871 249.37 112.511C248.677 112.031 248.09 111.311 247.61 110.351C247.13 109.338 246.89 108.298 246.89 107.231C246.89 105.844 247.21 104.751 247.85 103.951C248.543 103.098 249.583 102.378 250.97 101.791C252.517 101.204 254.33 100.778 256.41 100.511C258.543 100.244 260.543 100.111 262.41 100.111ZM311.566 100.111C313.752 100.111 315.886 100.431 317.966 101.071C320.099 101.658 321.939 102.564 323.486 103.791C325.086 102.724 326.872 101.844 328.846 101.151C330.872 100.458 333.299 100.111 336.126 100.111C338.152 100.111 340.126 100.378 342.046 100.911C344.019 101.444 345.752 102.298 347.246 103.471C348.792 104.591 350.019 106.111 350.926 108.031C351.832 109.898 352.286 112.191 352.286 114.911V140.111C351.752 140.271 350.899 140.431 349.726 140.591C348.606 140.751 347.432 140.831 346.206 140.831C345.032 140.831 343.966 140.751 343.006 140.591C342.099 140.431 341.326 140.111 340.686 139.631C340.046 139.151 339.539 138.511 339.166 137.711C338.846 136.858 338.686 135.764 338.686 134.431V115.311C338.686 113.711 338.232 112.564 337.326 111.871C336.419 111.124 335.192 110.751 333.646 110.751C332.899 110.751 332.099 110.938 331.246 111.311C330.392 111.631 329.752 111.978 329.326 112.351C329.379 112.564 329.406 112.778 329.406 112.991C329.406 113.151 329.406 113.311 329.406 113.471V140.111C328.819 140.271 327.939 140.431 326.766 140.591C325.646 140.751 324.499 140.831 323.326 140.831C322.152 140.831 321.086 140.751 320.126 140.591C319.219 140.431 318.446 140.111 317.806 139.631C317.166 139.151 316.659 138.511 316.286 137.711C315.966 136.858 315.806 135.764 315.806 134.431V115.311C315.806 113.711 315.299 112.564 314.286 111.871C313.326 111.124 312.152 110.751 310.766 110.751C309.806 110.751 308.979 110.911 308.286 111.231C307.592 111.498 307.006 111.764 306.526 112.031V140.111C305.992 140.271 305.139 140.431 303.966 140.591C302.846 140.751 301.672 140.831 300.446 140.831C299.272 140.831 298.206 140.751 297.246 140.591C296.339 140.431 295.566 140.111 294.926 139.631C294.286 139.151 293.779 138.511 293.406 137.711C293.086 136.858 292.926 135.764 292.926 134.431V110.271C292.926 108.831 293.219 107.684 293.806 106.831C294.446 105.978 295.299 105.178 296.366 104.431C298.179 103.151 300.419 102.111 303.086 101.311C305.806 100.511 308.632 100.111 311.566 100.111Z" fill="#33AF4A"/>
</svg>
