
<svg width="1385" height="581" viewBox="0 0 1385 581" fill="none" xmlns="http://www.w3.org/2000/svg">
<g clip-path="url(#clip0_217_13802)">
<g opacity="0.29">
<path d="M386.845 581H55.1612C25.7897 581 2.14914 557.12 2.14914 527.987C2.14914 498.853 26.0285 474.973 55.1612 474.973H386.845C395.203 474.973 401.889 468.287 401.889 459.929V369.185C401.889 302.321 456.334 247.874 523.196 247.874H873.744C882.102 247.874 888.788 241.188 888.788 232.83V149.728C888.788 82.8636 943.233 28.4172 1010.09 28.4172H1330.32C1359.69 28.4172 1383.33 52.2972 1383.33 81.4308C1383.33 110.803 1359.45 134.444 1330.32 134.444H1009.86C1001.5 134.444 994.812 141.131 994.812 149.489V232.591C994.812 299.455 940.367 353.901 873.505 353.901H522.957C514.599 353.901 507.913 360.588 507.913 368.946V459.69C507.913 526.793 453.707 581 386.845 581Z" fill="#1E364C"/>
</g>
<path d="M386.845 554.732H55.1612C25.7897 554.732 2.14914 530.852 2.14914 501.718C2.14914 472.346 26.0285 448.705 55.1612 448.705H386.845C395.203 448.705 401.889 442.019 401.889 433.661V342.917C401.889 276.053 456.334 221.606 523.196 221.606H873.744C882.102 221.606 888.788 214.92 888.788 206.562V123.221C888.788 56.3568 943.233 1.9104 1010.09 1.9104H1330.32C1359.69 1.9104 1383.33 25.7904 1383.33 54.924C1383.33 84.0575 1359.45 107.938 1330.32 107.938H1009.86C1001.5 107.938 994.812 114.624 994.812 122.982V206.084C994.812 272.948 940.367 327.395 873.505 327.395H522.957C514.599 327.395 507.913 334.081 507.913 342.439V433.183C507.913 500.286 453.707 554.732 386.845 554.732Z" fill="#25373F"/>
<path d="M55.1612 501.718H65.6681" stroke="#4A6D2E" stroke-width="1.7435" stroke-miterlimit="10" stroke-linecap="round"/>
<path d="M86.2043 501.718H386.845C424.574 501.718 454.901 471.152 454.901 433.66V342.917C454.901 305.186 485.466 274.859 522.957 274.859H873.505C911.234 274.859 941.561 244.292 941.561 206.801V123.221C941.561 85.4903 972.127 55.1627 1009.62 55.1627H1309.06" stroke="#60777F" stroke-width="5" stroke-miterlimit="10" stroke-linecap="round" stroke-dasharray="30 30"/>
<path d="M1319.57 55.1627H1329.84" stroke="#4A6D2E" stroke-width="1.7435" stroke-miterlimit="10" stroke-linecap="round"/>
<path d="M386.845 554.732H55.1612C25.7897 554.732 2.14914 530.852 2.14914 501.718C2.14914 472.346 26.0285 448.705 55.1612 448.705H386.845C395.203 448.705 401.889 442.019 401.889 433.661V342.917C401.889 276.053 456.334 221.606 523.196 221.606H873.744C882.102 221.606 888.788 214.92 888.788 206.562V123.221C888.788 56.3568 943.233 1.9104 1010.09 1.9104H1330.32C1359.69 1.9104 1383.33 25.7904 1383.33 54.924C1383.33 84.0575 1359.45 107.938 1330.32 107.938H1009.86C1001.5 107.938 994.812 114.624 994.812 122.982V206.084C994.812 272.948 940.367 327.395 873.505 327.395H522.957C514.599 327.395 507.913 334.081 507.913 342.439V433.183C507.913 500.286 453.707 554.732 386.845 554.732Z" stroke="#243815" stroke-width="1.7435" stroke-miterlimit="10"/>
</g>
<defs>
<clipPath id="clip0_217_13802">
<rect width="1385" height="581" fill="white"/>
</clipPath>
</defs>
</svg>
