<svg width="184" height="182" viewBox="0 0 184 182" fill="none" xmlns="http://www.w3.org/2000/svg">
<path fill-rule="evenodd" clip-rule="evenodd" d="M105.09 0.38546C104.134 0.726694 100.654 3.79773 97.3782 7.14183C87.8236 16.8329 78.61 20.3135 72.536 16.6281C68.1 13.9665 62.7088 9.05277 61.5486 6.66413C58.7505 0.726662 56.2249 2.77408 54.314 12.7381C50.5604 32.1202 39.0954 41.3335 21.9654 38.9449C12.2062 37.58 11.4553 38.0577 16.0278 43.3809C30.2232 59.9649 22.9891 87.6048 2.17387 96.3404C-1.51145 97.9101 -0.965744 98.5926 7.36036 102.756C20.6685 109.376 28.2439 127.597 24.0808 142.68C22.7159 147.526 22.7158 149.778 23.9442 150.597C25.3091 151.484 28.0389 151.347 29.2673 150.255C32.3384 147.594 45.1694 146.98 49.2642 149.3C54.2462 152.098 64.1418 167.795 64.1418 172.913C64.1418 175.438 67.0764 179.943 69.2603 180.898C73.0822 182.536 73.1504 182.468 79.4974 174.005C94.4434 154.145 105.977 152.303 119.285 167.522C126.724 175.984 130.204 175.984 131.433 167.454C134.709 144.659 148.973 130.532 164.123 135.105C173.132 137.834 173.337 136.879 168.218 119.749C166.103 112.856 166.649 105.554 169.583 100.162C173.268 93.4058 179.069 84.9432 181.868 82.2816C185.621 78.6645 184.324 76.1394 178.728 76.1394C172.995 76.1394 164.328 67.2673 161.461 58.4635C159.414 52.3895 161.598 38.4671 165.898 29.5268C167.467 26.251 166.648 24.0671 163.509 23.3164C161.734 22.8386 159.073 23.8623 159.073 24.886C159.073 27.0016 137.985 28.5714 131.092 27.0017C120.172 24.4766 108.775 11.9191 110.276 4.00249C110.686 0.999632 108.298 -0.842982 105.09 0.38546ZM108.57 16.4917C114.098 28.2984 131.16 34.0311 152.521 31.3694L156.275 30.8917L154.91 34.0311C147.13 52.1847 154.5 71.9763 171.562 78.4597C175.384 79.8929 175.52 79.2105 170.334 85.4892C156.138 102.824 154.501 110.536 162.076 125.414C163.782 128.689 164.874 131.351 164.601 131.351C164.328 131.351 161.735 130.942 158.8 130.396C150.815 128.962 146.788 130.054 139.486 135.446C129.181 143.089 124.813 151.006 124.813 162.267L124.813 164.86L120.513 161.38C104.748 148.549 87.0724 151.484 73.969 169.092L71.9902 171.685L69.1237 165.679C61.6166 149.709 50.5607 142.407 36.5019 144.113L31.1788 144.727L31.588 142.612C34.6591 125.618 26.9469 108.011 13.2293 100.776L9.13451 98.5925L14.9355 92.5869C30.4275 76.5489 33.6354 61.0568 24.4221 46.2473L23.0571 44.0634L26.7427 44.4729C41.9618 46.0425 58.7503 33.2804 60.3883 18.8121L60.8661 14.7855L64.0052 17.0376C76.5626 25.9779 88.7787 24.8861 100.722 13.6936C105.158 9.59878 105.431 9.394 106.045 10.7589C106.318 11.6461 107.478 14.1713 108.57 16.4917ZM80.0432 36.4879C19.8495 52.7307 31.7242 148.617 93.4193 144.25C147.676 140.428 168.628 62.9677 120.787 41.8112C113.075 38.3989 111.437 42.2889 119.081 47.4074C167.74 79.9612 119.763 163.427 69.6695 133.33C32.3386 110.945 44.4184 57.3715 82.7731 42.4937C87.7551 40.5828 95.6033 39.0814 101.404 39.4226C107.478 39.7638 109.458 36.0785 101.814 34.9183C95.8767 33.9629 85.7077 34.9183 80.0432 36.4879Z" fill="url(#paint0_linear_217_14808)"/>
<defs>
<linearGradient id="paint0_linear_217_14808" x1="50.5739" y1="90.1269" x2="184" y2="90.1269" gradientUnits="userSpaceOnUse">
<stop stop-color="#FF8B01"/>
<stop offset="1" stop-color="#EF5223"/>
</linearGradient>
</defs>
</svg>
