
<svg width="404" height="322" viewBox="0 0 404 322" fill="none" xmlns="http://www.w3.org/2000/svg">
<path d="M99.999 151.567V176.603C99.999 179.654 102.896 182.387 107.64 184.445C112.692 186.627 119.844 187.987 127.779 187.987C143.118 187.987 155.531 182.889 155.531 176.615V151.579H99.999V151.567Z" fill="#945915"/>
<path d="M99.9994 151.567V176.603C99.9994 179.654 102.896 182.387 107.641 184.445V159.41L106.129 152.768L104.814 151.579H99.9994V151.567Z" fill="#874C12"/>
<path d="M99.999 151.567C99.999 154.618 102.896 157.351 107.64 159.41C112.692 161.591 119.844 162.951 127.779 162.951C143.118 162.951 155.531 157.853 155.531 151.579C155.531 150.991 155.419 150.403 155.209 149.827L152.074 141.126L145.861 142.952C141.004 141.237 134.679 140.195 127.765 140.195C122.027 140.195 116.681 140.906 112.259 142.143C111.363 142.376 110.495 142.646 109.67 142.94L103.316 141.482L100.335 149.815C100.111 150.378 99.999 150.954 99.999 151.567Z" fill="#FFCB24"/>
<path d="M100 151.567C100 154.618 102.897 157.351 107.641 159.41L112.12 143.724C112.12 143.724 112.204 143.063 112.26 142.156C111.364 142.389 110.496 142.658 109.671 142.952L103.317 141.494L100.336 149.827C100.112 150.378 100 150.954 100 151.567Z" fill="#F9B800"/>
<path d="M127.766 153.062C114.123 153.062 103.064 148.53 103.064 142.94C103.064 137.35 114.123 132.818 127.766 132.818C141.408 132.818 152.467 137.35 152.467 142.94C152.467 148.53 141.408 153.062 127.766 153.062Z" fill="#FFD357"/>
<path d="M127.863 142.021C131.726 142.021 134.875 139.276 134.875 135.882V110.221H120.866V135.882C120.866 139.276 124.001 142.021 127.863 142.021Z" fill="#FBC006"/>
<path d="M120.852 110.221V135.882C120.852 139.092 123.693 141.739 127.29 141.996C125.862 140.906 124.98 139.276 124.98 137.475V111.814H134.875V110.221H120.852Z" fill="#F7A500"/>
<path d="M86.1586 48.1531V89.928C86.1586 110.037 104.786 126.36 127.766 126.36C130.089 126.36 132.384 126.188 134.595 125.858C142.027 124.804 148.786 122.01 154.328 117.978C163.523 111.275 169.373 101.202 169.373 89.928V48.1531H86.1586Z" fill="#FFCB24"/>
<path d="M134.609 125.858C142.041 124.804 148.8 122.01 154.342 117.978C160.108 111.741 163.537 103.788 163.537 95.136V53.3734H153.881V95.1483C153.867 108.064 146.183 119.412 134.609 125.858Z" fill="#FFD96E"/>
<path d="M86.1583 48.1531V89.928C86.1583 107.537 100.419 122.23 119.382 125.625C108.788 119.032 101.903 108.199 101.903 95.9448V54.1699H169.387V48.1531H86.1583Z" fill="#F9B800"/>
<path d="M127.765 59.5985C104.779 59.5985 86.1442 54.4742 86.1442 48.153C86.1442 41.8318 104.779 36.7075 127.765 36.7075C150.752 36.7075 169.387 41.8318 169.387 48.153C169.387 54.4742 150.752 59.5985 127.765 59.5985Z" fill="#FFD96E"/>
<path d="M127.821 58.2751C106.527 58.2751 89.2644 53.7433 89.2644 48.153C89.2644 42.5628 106.527 38.031 127.821 38.031C149.115 38.031 166.377 42.5628 166.377 48.153C166.377 53.7433 149.115 58.2751 127.821 58.2751Z" fill="#C5A600"/>
<path d="M127.765 166.383C127.415 166.383 127.065 166.383 126.701 166.37V178.159C127.051 178.171 127.401 178.171 127.765 178.171C138.485 178.171 147.792 175.684 152.41 172.032V160.243C147.792 163.895 138.485 166.383 127.765 166.383Z" fill="#FFCB24"/>
<path d="M193.485 93.9719C193.471 94.8174 195.206 95.5037 197.348 95.5159C199.489 95.5282 201.224 94.8664 201.238 94.0209C201.252 93.1876 199.517 92.4891 197.376 92.4769C195.234 92.4646 193.499 93.1263 193.485 93.9719Z" fill="#ED8406"/>
<path d="M193.616 80.0027L201.369 80.0624L201.227 94.0445L193.473 93.9848L193.616 80.0027Z" fill="#ED8406"/>
<path d="M193.626 79.9897C193.612 80.823 195.347 81.5215 197.488 81.5337C199.629 81.546 201.365 80.8843 201.379 80.0387C201.393 79.2054 199.657 78.5069 197.516 78.4947C195.375 78.4824 193.64 79.1564 193.626 79.9897Z" fill="#FBC006"/>
<path d="M181.129 54.4028C181.129 54.4028 173.572 66.167 171.374 69.5736C169.177 72.9926 147.807 80.9334 120.88 62.9073C108.649 54.8685 103.946 41.3397 106.633 37.1488C109.32 32.9701 118.109 19.3065 118.109 19.3065L181.129 54.4028Z" fill="#205CE1"/>
<path d="M203.801 58.0545L131.097 60.2848L96.7809 6.15758L169.695 3.91504L203.801 58.0545Z" fill="#0A2982"/>
<path d="M98.5854 3.35132L96.78 6.15755L100.783 8.1305L103.428 7.17466L98.5854 3.35132Z" fill="#0A2982"/>
<path d="M205.592 55.2483L203.8 58.0546L198.314 53.496L205.592 55.2483Z" fill="#0A2982"/>
<path d="M205.592 55.2483L132.902 57.4786L98.5858 3.35137L171.5 1.12109L205.592 55.2483Z" fill="#205CE1"/>
<path d="M197.418 80.6024C197.81 80.6024 198.146 80.3206 198.146 79.9652L198.16 55.2115C198.16 55.0032 198.048 54.8194 197.852 54.6968L153.236 26.9286C152.914 26.7325 152.466 26.7938 152.229 27.0757C152.005 27.3575 152.075 27.7497 152.396 27.958L196.719 55.5424L196.705 79.9652C196.705 80.3206 197.027 80.6024 197.418 80.6024Z" fill="#FBC006"/>
<path d="M148.759 27.5903C148.996 29.6 151.04 31.0461 153.335 30.8377C155.63 30.6294 157.282 28.8403 157.044 26.8306C156.806 24.8209 154.762 23.3749 152.467 23.5832C150.186 23.7915 148.521 25.5806 148.759 27.5903Z" fill="#0A2982"/>
<path d="M251.383 124.51C251.383 130.931 261.851 136.139 274.769 136.139C287.686 136.139 298.154 130.931 298.154 124.51C298.154 118.088 287.686 112.893 274.769 112.893C261.851 112.88 251.383 118.088 251.383 124.51Z" fill="url(#paint0_linear_458_2049)"/>
<path d="M307.014 58.557L298.155 120.184H298.057C297.119 126.176 287.057 130.894 274.755 130.894C261.838 130.894 251.369 125.686 251.369 119.277L242.511 58.5693H307.014V58.557Z" fill="#347EE7"/>
<path d="M242.539 58.5693L251.397 119.277C251.397 123.983 257.009 128.027 265.099 129.853C263.853 128.431 263.153 126.863 263.153 125.22L254.308 64.5127H306.16L307.014 58.5693H242.539Z" fill="#206FCE"/>
<path d="M274.769 74.5857C256.961 74.5857 242.525 67.4094 242.525 58.5571C242.525 49.7047 256.961 42.5284 274.769 42.5284C292.577 42.5284 307.014 49.7047 307.014 58.5571C307.014 67.4094 292.577 74.5857 274.769 74.5857Z" fill="#D0DCFE"/>
<path d="M274.77 70.9217C259.273 70.9217 246.71 65.3859 246.71 58.5571C246.71 51.7283 259.273 46.1925 274.77 46.1925C290.267 46.1925 302.83 51.7283 302.83 58.5571C302.83 65.3859 290.267 70.9217 274.77 70.9217Z" fill="#272C91"/>
<path d="M274.77 70.9217C259.273 70.9217 246.71 65.3859 246.71 58.5571C246.71 51.7283 259.273 46.1925 274.77 46.1925C290.267 46.1925 302.83 51.7283 302.83 58.5571C302.83 65.3859 290.267 70.9217 274.77 70.9217Z" fill="#272C91"/>
<path d="M262.818 53.0059L263.532 52.8834C263.91 52.8221 264.162 52.4913 264.092 52.1604L262.007 42.7368C261.937 42.406 261.559 42.1854 261.181 42.2467L260.467 42.3692C260.089 42.4305 259.837 42.7614 259.907 43.0922L261.993 52.5158C262.077 52.8466 262.44 53.0672 262.818 53.0059Z" fill="#FD9220"/>
<path d="M265.744 99.3148C265.926 100.16 267.633 100.295 269.55 99.5967C271.468 98.8982 272.881 97.6483 272.699 96.8027C272.517 95.9572 270.81 95.8224 268.892 96.5209C266.975 97.2071 265.562 98.457 265.744 99.3148Z" fill="#9A98ED"/>
<path d="M258.256 30.0536L272.699 96.8027L265.744 99.3148L251.301 32.5535L258.256 30.0536Z" fill="#FBC006"/>
<path d="M251.3 32.5535C251.482 33.399 253.19 33.5338 255.107 32.8353C257.024 32.1368 258.438 30.8869 258.256 30.0414C258.074 29.1958 256.366 29.061 254.449 29.7595C252.518 30.458 251.104 31.7079 251.3 32.5535Z" fill="#205CE1"/>
<path d="M268.976 15.5812L269.032 17.7012L269.06 18.5713L269.144 21.5001L269.158 22.3701L269.242 25.2989L269.27 26.169L269.34 29.0119L269.368 29.882L269.452 32.7495L269.48 33.6196L269.55 36.5483L269.578 37.3939L269.662 40.3227L269.704 41.1682L269.774 44.0357L269.802 44.8813L269.886 47.7733L269.9 48.6433L269.984 51.5353L270.012 52.3809L270.082 55.3219L270.11 56.192L270.194 59.1208L270.222 59.9663L270.292 62.8706L270.32 63.7161L270.403 66.6571L270.431 67.5027L270.501 70.3947L270.529 71.2648L270.613 74.1935L270.627 75.0391L270.963 86.987C271.033 89.7197 273.272 91.6314 275.47 90.8103L282.705 88.0899C284.203 87.5139 285.196 85.8229 285.112 83.9602L282.663 13.8901C282.579 11.4025 280.69 9.57663 278.647 9.98103L271.859 11.329C270.152 11.6966 268.92 13.498 268.976 15.5812Z" fill="#205CE1"/>
<path d="M269.032 17.7135L269.06 18.5835C269.074 18.5835 269.088 18.5835 269.116 18.5713L272.195 17.8728C272.377 17.8238 272.503 17.6032 272.475 17.3581C272.433 17.1375 272.251 16.966 272.055 17.0395L269.032 17.7135Z" fill="white"/>
<path d="M269.145 21.5001L269.159 22.3701C269.187 22.3701 269.201 22.3701 269.229 22.3579L272.308 21.6471C272.504 21.6104 272.63 21.3898 272.588 21.157C272.546 20.9364 272.364 20.7648 272.182 20.8138L269.145 21.5001Z" fill="white"/>
<path d="M269.242 25.2989L269.27 26.169C269.298 26.169 269.312 26.1567 269.34 26.1567L272.419 25.4459C272.615 25.4092 272.741 25.1763 272.699 24.9558C272.657 24.7229 272.489 24.5636 272.293 24.6126L269.242 25.2989Z" fill="white"/>
<path d="M269.34 28.9997L269.368 29.8697C269.396 29.8697 269.41 29.8697 269.424 29.8575L272.503 29.1467C272.699 29.11 272.825 28.8894 272.783 28.6566C272.741 28.4237 272.573 28.2644 272.377 28.3134L269.34 28.9997Z" fill="white"/>
<path d="M269.465 32.7373L269.493 33.6073C269.507 33.6073 269.521 33.6073 269.549 33.5951L272.628 32.8843C272.81 32.8476 272.936 32.627 272.908 32.3941C272.866 32.1736 272.684 32.002 272.488 32.051L269.465 32.7373Z" fill="white"/>
<path d="M269.565 36.5361L269.593 37.3816H269.663L272.742 36.6709C272.924 36.6219 273.049 36.4013 273.021 36.1562C272.98 35.9356 272.798 35.7641 272.602 35.8376L269.565 36.5361Z" fill="white"/>
<path d="M269.675 40.3104L269.703 41.1682C269.717 41.1682 269.731 41.1682 269.745 41.156L272.824 40.4452C273.006 40.4085 273.132 40.1879 273.104 39.9551C273.062 39.7345 272.88 39.5629 272.684 39.6119L269.675 40.3104Z" fill="white"/>
<path d="M269.773 44.0479L269.801 44.8935H269.871L272.95 44.1827C273.146 44.1337 273.272 43.9131 273.23 43.6925C273.188 43.4597 273.006 43.2882 272.824 43.3494L269.773 44.0479Z" fill="white"/>
<path d="M269.885 47.7855L269.899 48.6555C269.913 48.6555 269.927 48.6555 269.955 48.6433L273.034 47.9325C273.23 47.8957 273.356 47.6752 273.314 47.4423C273.272 47.2095 273.104 47.0502 272.908 47.0992L269.885 47.7855Z" fill="white"/>
<path d="M269.983 51.5476L270.011 52.3931H270.067L273.146 51.6824C273.342 51.6333 273.468 51.4128 273.426 51.1922C273.384 50.9594 273.202 50.7878 273.02 50.8491L269.983 51.5476Z" fill="white"/>
<path d="M270.082 55.3342L270.11 56.2043C270.138 56.2043 270.152 56.2043 270.18 56.192L273.259 55.4813C273.441 55.4445 273.567 55.2239 273.539 54.9911C273.497 54.7705 273.329 54.5989 273.119 54.6479L270.082 55.3342Z" fill="white"/>
<path d="M270.193 59.133L270.221 59.9785H270.235C270.249 59.9785 270.277 59.9662 270.291 59.9662L273.37 59.2555C273.566 59.2187 273.692 58.9859 273.65 58.7653C273.622 58.5325 273.44 58.3732 273.244 58.4222L270.193 59.133Z" fill="white"/>
<path d="M270.292 62.8829L270.32 63.7284C270.334 63.7284 270.334 63.7284 270.348 63.7284C270.376 63.7284 270.39 63.7284 270.418 63.7162L273.497 63.0054C273.693 62.9687 273.805 62.7481 273.777 62.5152C273.735 62.2947 273.553 62.1231 273.371 62.1721L270.292 62.8829Z" fill="white"/>
<path d="M270.417 66.6816L270.445 67.5272H270.487L273.566 66.8164C273.748 66.7674 273.874 66.5468 273.846 66.3262C273.804 66.0934 273.636 65.9341 273.426 65.9831L270.417 66.6816Z" fill="white"/>
<path d="M270.516 70.4192L270.544 71.2892C270.558 71.2892 270.572 71.2892 270.586 71.2769L273.665 70.5662C273.861 70.5294 273.987 70.3089 273.945 70.076C273.917 69.8554 273.735 69.6839 273.539 69.7329L270.516 70.4192Z" fill="white"/>
<path d="M270.627 74.2058L270.641 75.0513H270.711L273.79 74.3406C273.986 74.2916 274.112 74.071 274.07 73.8504C274.042 73.6176 273.846 73.4583 273.664 73.5073L270.627 74.2058Z" fill="white"/>
<path d="M403.859 179.237L381.285 190.622L327.517 163.515L349.923 152.057L403.859 179.237Z" fill="url(#paint1_linear_458_2049)"/>
<path d="M348.09 71.2647L398.332 96.6066L381.286 105.197L345.263 79.4996V72.6984C345.263 71.424 346.83 70.6275 348.09 71.2647Z" fill="#2875DF"/>
<path d="M398.332 98.9594L348.384 73.7523L330.4 82.845L380.334 108.04L398.332 98.9594Z" fill="#75BCFC"/>
<path d="M329.026 80.1123C329.67 79.7569 330.454 79.5486 331.196 79.9285L381.27 105.185L398.316 96.5943L348.074 71.2525C347.542 70.9829 346.94 70.9829 346.436 71.1544V71.1422C346.436 71.1422 348.186 70.3947 348.871 70.027C349.501 69.7084 350.257 69.5369 350.985 69.8922L403.844 96.5576V174.323L384.041 164.336V184.335L329.992 157.069C328.984 156.555 328.355 155.611 328.355 154.594L326.661 81.2397C326.689 81.2642 328.257 80.5412 329.026 80.1123Z" fill="#4594F4"/>
<path d="M381.285 107.979L403.859 96.5944V174.36L381.285 185.744V107.979Z" fill="#347EE8"/>
<path d="M384.35 112.182L401.76 103.408V109.351L384.35 118.125V112.182Z" fill="#FCC106"/>
<path d="M384.35 120.037L401.76 111.25V113.309L384.35 122.096V120.037Z" fill="#FCC106"/>
<path d="M384.35 123.86L401.76 115.086V117.145L384.35 125.919V123.86Z" fill="#FCC106"/>
<path d="M384.35 175.634L401.76 166.848V168.907L384.35 177.693V175.634Z" fill="#FCC106"/>
<path d="M328.426 81.3255L381.285 107.991V185.757L327.236 158.491C326.229 157.976 325.599 157.033 325.599 156.015V82.7592C325.599 81.4848 327.166 80.6882 328.426 81.3255Z" fill="#205CE2"/>
<path d="M363.428 185.585L340.854 196.969L287.085 169.863L309.491 158.405L363.428 185.585Z" fill="url(#paint2_linear_458_2049)"/>
<path d="M307.658 76.9752L357.9 102.317L340.854 110.907L304.831 85.2101V78.409C304.831 77.1346 306.399 76.338 307.658 76.9752Z" fill="#B4BBE1"/>
<path d="M357.914 104.67L307.952 79.4751L289.968 88.5555L339.916 113.75L357.914 104.67Z" fill="#DAE3F2"/>
<path d="M288.596 85.8229C289.24 85.4675 290.024 85.2592 290.766 85.6391L340.854 110.895L357.9 102.305L307.658 76.963C307.126 76.6934 306.524 76.6934 306.02 76.865V76.8527C306.02 76.8527 307.77 76.1052 308.455 75.7376C309.085 75.419 309.841 75.2474 310.569 75.6028L363.428 102.268V180.034L343.625 170.047V190.046L289.576 162.78C288.568 162.265 287.939 161.322 287.939 160.304L286.245 86.9503C286.259 86.9748 287.827 86.2518 288.596 85.8229Z" fill="#CED2EF"/>
<path d="M340.854 113.701L363.428 102.305V180.071L340.854 191.455V113.701Z" fill="#C5C8E8"/>
<path d="M343.918 117.892L361.328 109.118V115.062L343.918 123.848V117.892Z" fill="white"/>
<path d="M343.918 125.747L361.328 116.973V119.032L343.918 127.806V125.747Z" fill="white"/>
<path d="M343.918 129.583L361.328 120.797V122.855L343.918 131.642V129.583Z" fill="white"/>
<path d="M343.918 181.345L361.328 172.559V174.617L343.918 183.404V181.345Z" fill="white"/>
<path d="M287.994 87.036L340.854 113.701V191.467L286.805 164.201C285.797 163.687 285.167 162.743 285.167 161.726V88.4698C285.167 87.1953 286.735 86.3988 287.994 87.036Z" fill="#B4BBE1"/>
<path d="M17.0652 85.2101V120.123L19.7663 121.409L56.9092 96.9498L62.7031 64.8313L60.0161 63.5446L17.0652 85.2101Z" fill="#FF9906"/>
<path d="M17.0643 85.2101V120.123L19.7654 121.409L56.9082 96.9497L19.7654 86.4968L17.0643 85.2101Z" fill="#EF770A"/>
<path d="M19.7664 86.4969V121.409L62.7031 99.7438V64.8313L19.7664 86.4969Z" fill="#FCC106"/>
<path d="M57.3711 76.3258V79.2423L41.8506 94.4744L26.3021 94.8053V91.901L57.3711 76.3258Z" fill="white"/>
<path d="M41.8506 96.1655L57.3711 80.9333V95.8223L26.3021 111.398V96.4963L41.8506 96.1655Z" fill="white"/>
<path d="M188.981 112.709V137.291L191.976 138.737L218.132 121.52L222.219 98.8982L219.224 97.4521L188.981 112.709Z" fill="#FF9906"/>
<path d="M188.981 112.709V137.291L191.976 138.737L218.133 121.52L191.976 114.155L188.981 112.709Z" fill="#EF770A"/>
<path d="M191.975 114.155V138.737L222.219 123.493V98.8982L191.975 114.155Z" fill="#FCC106"/>
<path d="M214.619 116.189L210.519 123.284L198.735 115.723" stroke="white" stroke-width="3.1599" stroke-miterlimit="10" stroke-linecap="round" stroke-linejoin="round"/>
<path d="M0.439518 171.652V196.246L3.43443 197.692L29.5912 180.463L33.6777 157.854L30.6968 156.395L0.439518 171.652Z" fill="#347EE8"/>
<path d="M0.440294 171.652V196.246L3.4352 197.692L29.5918 180.463L3.4352 173.11L0.440294 171.652Z" fill="#266FC6"/>
<path d="M3.43449 173.11V197.692L33.6777 182.436V157.854L3.43449 173.11Z" fill="#4C96ED"/>
<path d="M19.2481 170.377L21.5293 173.245C21.6692 173.417 21.9211 173.478 22.145 173.38L27.0853 171.456C27.5611 171.272 27.9809 171.713 27.701 172.105L23.7545 177.497C23.6845 177.595 23.6565 177.718 23.6705 177.84L24.6921 182.509C24.7481 182.779 24.5102 183.061 24.1883 183.073L18.8982 183.367C18.7582 183.379 18.6183 183.428 18.5203 183.526L13.6921 188.232C13.3422 188.575 12.7264 188.342 12.7964 187.889L13.6501 183.122C13.6921 182.914 13.5661 182.73 13.3422 182.656L9.6055 181.394C9.22764 181.272 9.18566 180.818 9.52153 180.61L15.4694 176.786C15.5534 176.725 15.6234 176.652 15.6654 176.566L18.3104 170.512C18.4783 170.157 19.0102 170.083 19.2481 170.377Z" fill="white"/>
<path d="M353.506 213.071L163.425 308.606L45.9372 249.173L236.018 153.626L353.506 213.071Z" fill="url(#paint3_linear_458_2049)"/>
<path d="M236.018 144.496L45.9372 240.031V243.744L163.425 303.19L353.506 207.643V203.93L236.018 144.496Z" fill="#80B4FF"/>
<path d="M353.506 203.93L163.425 299.477L45.9372 240.031L236.018 144.496L353.506 203.93Z" fill="#4588FF"/>
<path d="M234.561 133.909C234.561 133.909 199.924 137.487 141.914 182.325C141.914 182.325 91.7701 190.732 52.682 225.35V238.033L163.537 293.766L345.416 202.337V189.641L234.561 133.909Z" fill="white"/>
<path d="M345.416 189.641C345.416 189.641 310.778 193.219 252.769 238.058C252.769 238.058 202.625 246.464 163.537 281.083V293.766L345.416 202.337V189.641Z" fill="#F5F5F5"/>
<path d="M52.6825 225.35L163.537 281.083V293.778L52.6825 238.046V225.35Z" fill="#E2E2E2"/>
<path d="M60.3799 201.111L171.248 256.831C176.944 253.633 182.654 250.962 188.28 248.744C192.759 246.979 197.167 245.484 201.464 244.234C229.734 235.999 252.77 238.07 252.77 238.07L141.901 182.338C141.901 182.325 100.364 178.6 60.3799 201.111Z" fill="#F5F5F5"/>
<path d="M73.5083 203.537L76.1394 204.861C105.571 189.813 135.156 188.416 146.912 188.55L142.406 186.283C128.089 186.614 100.589 189.323 73.5083 203.537Z" fill="url(#paint4_linear_458_2049)"/>
<path d="M85.46 209.554L88.0771 210.866C117.495 195.817 147.08 194.42 158.836 194.555L154.344 192.288C140.041 192.619 112.554 195.315 85.46 209.554Z" fill="url(#paint5_linear_458_2049)"/>
<path d="M97.3838 215.547L100.001 216.858C129.39 201.822 158.99 200.4 170.76 200.547L166.239 198.268C151.936 198.599 124.45 201.332 97.3838 215.547Z" fill="url(#paint6_linear_458_2049)"/>
<path d="M109.195 221.478L111.826 222.801C141.201 207.765 170.773 206.344 182.557 206.479L178.064 204.212C163.733 204.542 136.261 207.263 109.195 221.478Z" fill="url(#paint7_linear_458_2049)"/>
<path d="M121.16 227.495L123.777 228.818C153.166 213.782 182.71 212.361 194.508 212.495L190.015 210.228C175.698 210.547 148.24 213.267 121.16 227.495Z" fill="url(#paint8_linear_458_2049)"/>
<path d="M133.799 233.842L136.416 235.166C165.791 220.118 195.377 218.696 207.146 218.843L202.626 216.564C188.295 216.907 160.837 219.64 133.799 233.842Z" fill="url(#paint9_linear_458_2049)"/>
<path d="M145.875 239.908L148.492 241.232C177.854 226.208 207.384 224.762 219.195 224.897L214.703 222.63C200.358 222.973 172.9 225.706 145.875 239.908Z" fill="url(#paint10_linear_458_2049)"/>
<path d="M157.883 245.962L160.5 247.273C189.875 232.249 219.447 230.828 231.23 230.963L226.71 228.683C212.379 229.026 184.921 231.747 157.883 245.962Z" fill="url(#paint11_linear_458_2049)"/>
<path d="M239.041 141.69C227.103 144.729 198.609 154.533 158.178 184.862L155.715 183.624C194.593 154.312 222.289 143.761 235.766 140.036L239.041 141.69Z" fill="url(#paint12_linear_458_2049)"/>
<path d="M250.852 147.634C238.858 150.697 210.392 160.55 170.03 190.83L167.567 189.592C206.375 160.317 234.058 149.741 247.577 145.991L250.852 147.634Z" fill="url(#paint13_linear_458_2049)"/>
<path d="M262.916 153.699C250.992 156.726 222.498 166.53 182.039 196.871L179.576 195.634C218.468 166.309 246.178 155.77 259.641 152.045L262.916 153.699Z" fill="url(#paint14_linear_458_2049)"/>
<path d="M274.812 159.679C262.847 162.731 234.367 172.559 193.977 202.864L191.514 201.626C230.35 172.326 258.046 161.763 271.538 158.037L274.812 159.679Z" fill="url(#paint15_linear_458_2049)"/>
<path d="M286.805 165.708C274.839 168.748 246.359 178.575 205.955 208.893L203.492 207.655C242.342 178.355 270.025 167.804 283.516 164.066L286.805 165.708Z" fill="url(#paint16_linear_458_2049)"/>
<path d="M298.701 171.689C286.721 174.752 258.256 184.58 217.88 214.885L215.403 213.635C254.225 184.347 281.921 173.784 295.426 170.034L298.701 171.689Z" fill="url(#paint17_linear_458_2049)"/>
<path d="M310.652 177.705C298.701 180.757 270.207 190.572 229.817 220.89L227.34 219.64C266.19 190.34 293.886 179.789 307.378 176.051L310.652 177.705Z" fill="url(#paint18_linear_458_2049)"/>
<path d="M322.633 183.735C310.653 186.786 282.187 196.626 241.812 226.919L239.348 225.681C278.171 196.393 305.867 185.83 319.372 182.08L322.633 183.735Z" fill="url(#paint19_linear_458_2049)"/>
<path d="M235.961 196.381L231.525 196.773L231.007 200.082L163.537 166.162L168.953 162.694L235.961 196.381Z" fill="#6CE3FF"/>
<path opacity="0.5" d="M276.464 199.947C278.144 201.601 290.305 206.736 297.149 208.537C297.947 208.121 298.73 207.716 299.5 207.324L277.682 197.19C277.682 197.178 274.771 198.293 276.464 199.947Z" fill="#898989"/>
<path d="M298.869 128.455C298.869 128.455 301.388 131.115 299.807 135.489C298.827 138.198 297.945 138.455 297.707 139.876C297.469 141.298 299.807 143.982 297.805 148.038C296.784 150.109 290.486 147.695 290.486 147.695L287.281 143.982L290.486 136.286L298.869 128.455Z" fill="#2A3049"/>
<path d="M290.64 141.972L290.276 145.734C290.276 145.734 298.044 148.381 298.212 147.143C298.38 145.906 296.588 145.17 296.252 144.325C295.916 143.479 296.252 142.756 296.252 142.756C296.252 142.756 297.246 141.09 297.078 139.092" fill="#22293F"/>
<path d="M330.778 240.852C330.778 240.852 330.54 241.06 330.582 241.318C330.624 241.575 331.043 242.016 331.911 242.42C332.779 242.825 333.437 242.996 334.346 243.646C335.242 244.295 336.935 245.68 337.887 246.366C338.853 247.053 340.196 247.42 340.924 247.518C341.666 247.616 343.569 247.91 345.025 247.837C346.326 247.763 347.236 247.138 347.376 246.66C347.516 246.195 347.46 245.398 347.46 245.398" fill="#3A3D51"/>
<path d="M337.117 232.838V237.47V239.479H332.653L331.211 232.838H337.117Z" fill="#FFE1BD"/>
<path d="M295.37 189.764C295.37 189.764 300.058 201.025 309.519 203.917C311.058 204.395 312.556 204.763 313.983 205.069C321.303 206.613 326.747 206.16 326.747 206.16C325.893 214.481 330.148 230.08 331.197 233.757C331.351 234.308 331.855 234.713 332.471 234.835C332.583 234.86 332.709 234.872 332.821 234.884C334.01 235.043 335.116 234.909 335.928 234.725C336.711 234.541 337.271 233.941 337.299 233.23C337.551 227.593 338.727 200.805 335.228 198.685C326.593 193.428 305.418 187.178 301.108 185.757C300.604 185.597 300.212 185.254 300.002 184.813L298.589 181.798L295.37 189.764Z" fill="#3A3D51"/>
<path d="M311.452 198.673L313.985 205.069C321.304 206.613 326.748 206.16 326.748 206.16C325.894 214.481 330.149 230.08 331.199 233.757C331.352 234.308 331.856 234.712 332.472 234.835C332.584 234.86 332.71 234.872 332.822 234.884H332.836C328.777 222.47 329.449 203.121 329.449 203.121C320.758 203.599 311.731 198.82 311.452 198.673Z" fill="#333647"/>
<path d="M307.027 236.158L305.012 239.921C305.012 239.921 298.924 244.736 300.268 238.805L302.759 231.968" fill="#FFE1BD"/>
<path d="M274.825 191.467C275.189 194.947 276.406 198.832 281.78 201.479C286.511 203.819 296.503 208.047 308.539 210.743C308.091 211.662 307.601 212.704 307.069 213.88C304.942 218.5 302.479 230.35 301.597 234.247C301.457 234.86 301.639 235.485 302.059 235.975C302.157 236.085 302.255 236.183 302.367 236.269C303.123 236.845 304.214 237.47 305.404 237.47C306.216 237.47 306.929 237.029 307.293 236.404C309.742 232.164 321.54 211.956 322.548 207.643C322.66 207.14 322.814 206.319 322.576 205.731C322.506 205.498 322.422 205.327 322.324 205.216C316.978 200.278 298.868 193.158 298.868 193.158L298.588 181.811L278.701 183.747L275.609 184.041C275.609 184.041 274.517 188.563 274.825 191.467Z" fill="#3A3D51"/>
<path d="M274.826 191.467C275.19 194.947 276.408 198.832 281.782 201.479C286.512 203.819 296.504 208.047 308.54 210.743C308.092 211.662 307.602 212.704 307.071 213.88C304.943 218.5 302.48 230.35 301.599 234.247C301.459 234.86 301.641 235.484 302.06 235.975C303.306 232.151 306.063 224.211 307.015 219.848C308.12 214.775 312.893 208.746 312.893 208.746C312.893 208.746 307.057 207.385 298.73 204.971C290.403 202.557 281.418 198.942 278.801 194.592C276.184 190.242 278.801 183.857 278.801 183.857C278.801 183.857 278.759 183.82 278.703 183.747L275.61 184.041C275.61 184.041 274.518 188.563 274.826 191.467Z" fill="#333647"/>
<path d="M330.904 241.33C331.66 241.942 332.163 242.028 334.179 243.033C336.194 244.026 338.209 246.403 339.847 246.844C341.484 247.285 344.731 247.825 346.312 247.163C347.166 246.807 347.488 246.231 347.53 245.656C347.558 245.178 347.404 244.7 347.194 244.344C346.76 243.572 345.403 242.984 343.765 242.322C342.128 241.661 340.392 239.921 339.259 238.989C338.125 238.046 337.775 237.004 337.384 236.489C337.188 236.232 335.522 236.551 334.976 237.323C334.71 237.715 334.78 237.874 334.892 238.021C334.99 238.168 334.976 238.34 334.864 238.475C334.78 238.573 334.64 238.634 334.487 238.646C332.303 238.72 332.051 236.734 332.051 236.734C330.498 237.298 330.148 240.717 330.904 241.33Z" fill="#FBC006"/>
<path d="M297.75 241.575C297.75 241.575 297.204 242.065 297.204 242.506C297.204 242.849 298.086 244.455 298.757 244.92C298.757 244.92 298.939 245.165 299.163 245.545C299.387 245.925 300.493 248.008 301.472 249.099C302.452 250.19 304.705 250.827 305.713 251.084C306.707 251.342 307.84 251.525 309.519 250.986C311.213 250.459 311.297 249.356 311.297 249.356L306.748 247.151" fill="#3A3D51"/>
<path d="M297.456 242.139C297.414 242.482 298.002 243.695 299.122 244.786C300.409 247.016 301.683 248.878 302.396 249.332C303.236 249.871 304.818 250.435 306.483 250.864C308.526 251.391 311.325 250.398 311.451 248.903C311.451 248.829 311.451 248.756 311.451 248.682C311.311 247.077 308.75 245.852 307.701 245.398C306.525 244.884 306.021 241.673 305.797 240.362C305.755 240.08 305.489 239.553 304.832 239.577C304.174 239.602 303.488 239.786 303.096 240.092C302.69 240.398 302.802 240.558 302.802 240.864C302.802 241.085 302.62 241.207 302.382 241.22C302.284 241.22 302.186 241.207 302.088 241.17C301.725 241.036 300.059 239.749 300.269 238.818C300.269 238.818 299.849 238.683 299.513 239.075C299.192 239.455 297.568 241.109 297.456 242.139Z" fill="#FBC006"/>
<path d="M292.571 155.721C292.571 155.721 295.049 162.29 297.106 166.726C297.666 167.951 298.197 169.017 298.645 169.728C298.785 169.961 298.953 170.206 299.121 170.451C302.508 175.304 311.409 182.423 314.852 185.303C314.852 185.303 314.852 185.315 314.866 185.315C315.173 185.573 315.565 185.708 315.971 185.744C316.699 185.818 317.483 185.536 317.902 184.948C318.042 184.752 318.112 184.568 318.126 184.409C318.168 184.102 318.042 183.857 317.986 183.747C317.986 183.747 317.972 183.735 317.972 183.722C317.944 183.698 317.944 183.673 317.944 183.673C316.741 182.08 309.995 173.159 307.336 169.716C306.063 168.086 305.125 167.007 304.467 166.309C304.201 163.785 303.334 156.028 302.004 151.506C301.99 151.445 301.962 151.383 301.948 151.322C301.388 149.545 300.507 148.234 299.583 147.29C299.163 146.861 298.743 146.506 298.337 146.224C298.253 146.175 298.183 146.138 298.085 146.089C297.26 145.673 296.168 145.366 294.937 145.158C294.209 145.183 293.495 145.366 292.865 145.734C291.816 146.347 291.088 147.352 290.864 148.871C290.626 150.28 291.578 152.976 292.571 155.721Z" fill="#2EED89"/>
<path d="M301.934 151.334C302.032 151.971 303.516 161.714 303.6 166.566C303.6 166.566 316.881 182.472 318.126 184.409C318.168 184.102 318.042 183.857 317.986 183.747C317.986 183.747 317.972 183.735 317.972 183.722C317.944 183.698 317.944 183.673 317.944 183.673C316.741 182.08 309.995 173.159 307.336 169.716C306.063 168.086 305.125 167.007 304.467 166.309C304.201 163.785 303.334 156.028 302.004 151.506C301.976 151.469 301.948 151.395 301.934 151.334Z" fill="#41F28D"/>
<path d="M297.105 166.726C297.665 167.951 298.197 169.017 298.645 169.728C301.597 174.568 311.226 182.289 314.865 185.303C314.865 185.303 314.865 185.315 314.879 185.315C315.187 185.573 315.579 185.708 315.984 185.744C314.193 184.09 303.893 174.617 302.577 173.073C301.122 171.382 300.366 170.12 300.576 169.066C300.786 168.012 301.094 167.645 302.101 165.745C303.599 162.951 303.473 161.763 303.473 161.763C303.473 161.763 299.582 162.853 299.232 162.878C299.036 162.902 298.015 164.863 297.105 166.726Z" fill="#27E076"/>
<path d="M300.044 150.035C300.044 150.035 299.806 152.903 300.912 154.827C302.017 156.763 303.053 158.601 303.459 161.432L298.883 156.726L300.044 150.035Z" fill="#27E076"/>
<path d="M292.571 155.721C292.571 155.721 295.049 162.29 297.106 166.726C297.666 167.951 298.197 169.017 298.645 169.728C298.785 169.961 298.953 170.206 299.121 170.451C302.508 175.304 311.409 182.423 314.852 185.303C314.852 185.303 314.852 185.315 314.866 185.315C315.173 185.573 315.565 185.708 315.971 185.744C316.699 185.818 317.483 185.536 317.902 184.948C318.042 184.752 318.112 184.568 318.126 184.409C318.168 184.102 318.042 183.857 317.986 183.747C317.986 183.747 317.972 183.735 317.972 183.722C317.944 183.698 317.944 183.673 317.944 183.673C316.741 182.08 309.995 173.159 307.336 169.716C306.063 168.086 305.125 167.007 304.467 166.309C304.201 163.785 303.334 156.028 302.004 151.506C301.99 151.445 301.962 151.383 301.948 151.322C301.388 149.545 300.507 148.234 299.583 147.29C299.163 146.861 298.743 146.506 298.337 146.224C298.253 146.175 298.183 146.138 298.085 146.089C297.26 145.673 296.168 145.366 294.937 145.158C294.209 145.183 293.495 145.366 292.865 145.734C291.816 146.347 291.088 147.352 290.864 148.871C290.626 150.28 291.578 152.976 292.571 155.721Z" fill="#FBC006"/>
<path d="M275.54 182.754C275.274 183.269 275.106 183.624 275.624 184.029C275.624 184.029 277.402 185.965 282.972 186.149C283.056 186.149 283.125 186.149 283.209 186.149C283.643 186.149 284.147 186.112 284.693 186.051C288.779 185.573 295.525 183.502 297.904 182.252C297.904 182.252 297.932 182.24 297.974 182.215C297.988 182.215 297.988 182.203 298.002 182.203C298.296 182.044 299.164 181.541 299.066 181.222C298.66 179.973 298.59 178.404 298.59 178.392C298.618 175.769 298.716 172.289 299.15 170.451C299.178 170.341 299.206 170.218 299.234 170.12C299.276 169.961 299.332 169.802 299.388 169.654C299.989 167.963 301.277 166.223 302.243 164.74L302.257 164.716C302.886 163.76 303.376 162.902 303.446 162.253C303.866 158.871 300.045 156.542 300.241 153.589C300.395 151.285 300.815 148.945 299.584 147.315C299.29 146.91 298.884 146.543 298.338 146.249C298.254 146.2 298.184 146.163 298.086 146.114C297.26 145.697 296.169 145.391 294.937 145.183C291.62 144.619 287.24 144.778 283.797 145.648C283.797 145.648 272.503 149.704 271.37 153.369C270.236 157.033 273.819 163.87 275.316 167.289C275.484 167.682 275.652 168.11 275.806 168.564C277.01 172.154 277.625 177.583 276.94 179.801C276.94 179.789 275.932 181.982 275.54 182.754Z" fill="#FBC006"/>
<path d="M275.624 184.041C275.624 184.041 277.401 185.977 282.971 186.161C283.055 186.161 283.125 186.161 283.209 186.161C283.643 186.161 284.147 186.124 284.692 186.063C283.727 185.953 282.705 185.695 282.117 185.193C280.83 184.065 281.977 178.392 282.299 176.75C282.593 175.206 282.033 171.995 283.279 171.627L283.573 169.9C283.573 169.9 284.58 170.99 286.904 170.598C289.703 170.12 290.92 169.642 291.928 169.397C293.229 169.066 294.741 168.907 297.414 168.343C300.325 167.718 300.675 167.142 300.675 167.142C301.193 166.309 301.752 165.5 302.228 164.765L302.242 164.74C302.242 164.74 300.871 166.223 298.883 166.591C296.91 166.959 288.401 168.882 286.568 168.637C284.72 168.392 282.747 166.101 282.747 166.101L275.806 168.576C277.009 172.167 277.625 177.595 276.939 179.813C276.939 179.813 275.946 182.007 275.54 182.791C275.274 183.269 275.106 183.624 275.624 184.041Z" fill="#F9A208"/>
<path d="M280.633 149.251C280.815 150.697 287.071 154.165 291.941 155.611C291.941 155.611 293.998 150.758 293.509 147.94C293.425 147.437 293.075 146.972 292.557 146.739C292.291 146.616 292.067 146.469 291.857 146.298C291.311 145.832 290.975 145.17 290.975 144.46C290.975 144.116 291.003 143.773 291.017 143.467C291.101 142.572 291.255 141.923 291.255 141.923L282.201 137.573C282.201 137.573 283.404 144.962 282.369 146.102C282.355 146.077 280.451 147.891 280.633 149.251Z" fill="#FFE1BD"/>
<path opacity="0.25" d="M282.901 145.06L284.944 143.038L285.63 142.695C284.86 142.131 284.174 141.445 283.755 140.612L291.004 143.455C290.976 143.761 290.962 144.092 290.962 144.447C290.962 145.158 291.284 145.808 291.844 146.285C291.844 146.285 290.99 146.212 290.402 145.391C290.038 144.888 288.051 143.92 286.386 143.21C286.358 143.969 285.938 145.624 284.538 146.42C282.341 147.67 279.864 147.401 279.864 147.401L282.901 145.06Z" fill="#EDA38C"/>
<path d="M298.338 128.995C298.338 128.995 299.234 134.068 297.722 138.528C296.211 142.989 294.14 144.263 292.964 144.325C291.788 144.386 284.833 143.479 282.832 139.19C280.83 134.901 281.25 130.024 282.146 127.487C283.042 124.951 288.066 122.782 291.592 123.321C295.105 123.86 298.002 126.041 298.338 128.995Z" fill="#FFE1BD"/>
<path d="M285.951 195.094V196.185L313.101 186.737L329.993 192.888L329.811 192.582H332.148V193.464C332.148 193.587 332.064 193.697 331.939 193.734L303.375 203.672C303.179 203.746 302.955 203.733 302.759 203.672L284.789 197.128C284.635 197.079 284.537 196.945 284.537 196.81V195.756L285.951 195.094Z" fill="#4B9CB5"/>
<path d="M285.281 196.871C285.281 197.018 285.379 197.141 285.491 197.141C285.603 197.141 285.701 197.018 285.701 196.871C285.701 196.724 285.603 196.602 285.491 196.602C285.365 196.602 285.281 196.724 285.281 196.871Z" fill="#48C8EF"/>
<path d="M286.329 197.423C286.213 197.423 286.119 197.302 286.119 197.153C286.119 197.004 286.213 196.883 286.329 196.883C286.445 196.883 286.539 197.004 286.539 197.153C286.539 197.302 286.445 197.423 286.329 197.423Z" fill="#48C8EF"/>
<path d="M287.016 197.459C287.016 197.606 287.114 197.729 287.226 197.729C287.338 197.729 287.436 197.606 287.436 197.459C287.436 197.312 287.338 197.19 287.226 197.19C287.114 197.178 287.016 197.3 287.016 197.459Z" fill="#48C8EF"/>
<path d="M313.101 185.646L332.148 192.582L303.067 202.704L284.747 196.026C284.481 195.928 284.481 195.609 284.747 195.511L313.101 185.646Z" fill="#48C8EF"/>
<path d="M313.227 186.884L329.671 192.876C329.797 192.925 329.797 193.085 329.671 193.134L304.354 201.944C304.312 201.957 304.27 201.957 304.242 201.944L287.798 195.952C287.672 195.903 287.672 195.744 287.798 195.695L313.115 186.884C313.143 186.872 313.185 186.872 313.227 186.884Z" fill="#6CE3FF"/>
<path d="M306.203 188.82L311.143 190.621C311.213 190.646 311.213 190.744 311.143 190.768L303.334 193.489C303.152 193.55 302.928 193.55 302.746 193.489L297.834 191.7C297.75 191.663 297.75 191.565 297.834 191.528L305.615 188.82C305.797 188.747 306.007 188.759 306.203 188.82Z" fill="#85EEFF"/>
<path d="M303.627 203.133C303.557 203.121 303.473 203.084 303.389 203.011C303.375 202.986 303.347 202.974 303.333 202.962L303.068 202.716L310.947 185.45C311.045 185.23 311.241 185.07 311.479 184.984L339.846 175.108C339.93 175.083 340.014 175.095 340.07 175.157L340.56 175.598L340.574 175.61L339.609 176.235L332.149 192.582L304.173 202.324L304.271 202.398L303.655 203.133H303.627Z" fill="#B3E8F4"/>
<path d="M303.627 203.133L311.395 186.112C311.548 185.781 311.842 185.511 312.22 185.389L340.434 175.573C340.49 175.561 340.532 175.573 340.574 175.598L340.588 175.61C340.616 175.634 340.616 175.671 340.602 175.708L332.765 192.901C332.709 193.011 332.611 193.097 332.499 193.134L303.893 203.096C303.893 203.096 303.865 203.109 303.823 203.121C303.781 203.121 303.739 203.133 303.655 203.121H303.627V203.133Z" fill="#5AAFD1"/>
<path opacity="0.17" d="M321.668 190.021C321.948 190.769 323.207 191.063 324.481 190.695C325.754 190.327 326.552 189.421 326.272 188.673C325.992 187.925 324.733 187.631 323.459 187.999C322.186 188.367 321.388 189.273 321.668 190.021Z" fill="white"/>
<path d="M297.415 189.09L298.492 190.278C299.024 190.867 299.962 191.038 300.801 191.185L302.397 191.504C302.439 191.504 302.495 191.516 302.537 191.541C302.579 191.565 302.635 191.602 302.677 191.639L304.44 192.962C304.51 193.023 304.58 193.085 304.622 193.158C304.622 193.158 305.56 194.518 305.756 194.984C305.812 195.094 305.476 195.217 305.196 195.058C304.916 194.898 303.866 193.599 303.866 193.599C303.866 193.599 304.72 195.229 304.93 195.781C304.986 195.915 304.664 196.001 304.3 195.768C303.936 195.535 302.985 193.844 302.985 193.844C302.985 193.844 303.502 195.156 303.6 195.572C303.628 195.695 303.446 195.781 303.055 195.646C302.663 195.511 301.963 194.053 301.963 194.053L301.417 193.661L301.893 194.212C301.893 194.212 302.369 195.119 302.481 195.388C302.537 195.548 302.131 195.572 301.753 195.217C301.375 194.862 300.717 194.065 300.423 194.028C300.13 193.991 299.948 194.273 298.688 194.188C297.582 194.114 296.799 192.411 296.799 192.411L294.084 190.033L297.415 189.09Z" fill="#FFE1BD"/>
<path d="M272.643 161.456C272.643 161.456 276.688 172.167 278.703 175.463C281.656 180.303 291.285 188.024 294.924 191.038L294.938 191.05C295.301 191.344 295.777 191.492 296.239 191.504C296.911 191.504 297.583 191.222 297.96 190.695C298.086 190.523 298.142 190.364 298.17 190.217C298.24 189.874 298.1 189.604 298.03 189.494C298.03 189.494 298.016 189.482 298.016 189.47C297.988 189.445 297.988 189.421 297.988 189.421C296.785 187.827 290.039 178.906 287.38 175.463C286.107 173.833 285.169 172.755 284.511 172.056C284.273 169.716 283.504 162.878 282.328 158.295C282.328 158.27 282.328 158.258 282.328 158.258C282.244 157.903 282.146 157.572 282.048 157.253C281.194 154.312 279.445 152.645 278.032 151.726C276.52 150.746 274.463 150.562 272.895 151.469C272.601 151.641 272.336 151.837 272.098 152.082C271.482 152.682 271.062 153.515 270.894 154.606C270.698 156.015 271.65 158.711 272.643 161.456Z" fill="#2EED89"/>
<path d="M272.643 161.456C272.643 161.456 276.687 172.167 278.703 175.463C281.655 180.303 291.284 188.024 294.923 191.038L294.937 191.05C295.301 191.345 295.776 191.492 296.238 191.504C294.391 189.899 287.589 183.943 286.008 182.497C284.161 180.806 280.354 176.701 278.926 173.931C277.499 171.149 274.014 161.701 272.685 157.878C271.397 154.177 272.055 152.229 272.111 152.106C271.495 152.707 271.075 153.54 270.907 154.631C270.697 156.015 271.649 158.711 272.643 161.456Z" fill="#27E076"/>
<path d="M282.342 158.307C282.412 158.969 283.587 169.777 283.559 172.228C283.559 172.228 296.897 188.318 298.184 190.205C298.254 189.862 298.114 189.592 298.044 189.482C298.044 189.482 298.03 189.47 298.03 189.457C298.002 189.433 298.002 189.408 298.002 189.408C296.799 187.815 290.053 178.894 287.394 175.451C286.12 173.821 285.183 172.743 284.525 172.044C284.273 169.716 283.503 162.89 282.342 158.307Z" fill="#41F28D"/>
<path d="M272.643 161.456C272.643 161.456 276.688 172.167 278.703 175.463C281.656 180.303 291.285 188.024 294.924 191.038L294.938 191.05C295.301 191.344 295.777 191.492 296.239 191.504C296.911 191.504 297.583 191.222 297.96 190.695C298.086 190.523 298.142 190.364 298.17 190.217C298.24 189.874 298.1 189.604 298.03 189.494C298.03 189.494 298.016 189.482 298.016 189.47C297.988 189.445 297.988 189.421 297.988 189.421C296.785 187.827 290.039 178.906 287.38 175.463C286.107 173.833 285.169 172.755 284.511 172.056C284.273 169.716 283.504 162.878 282.328 158.295C282.328 158.27 282.328 158.258 282.328 158.258C282.244 157.903 282.146 157.572 282.048 157.253C281.194 154.312 279.445 152.645 278.032 151.726C276.52 150.746 274.463 150.562 272.895 151.469C272.601 151.641 272.336 151.837 272.098 152.082C271.482 152.682 271.062 153.515 270.894 154.606C270.698 156.015 271.65 158.711 272.643 161.456Z" fill="#FBC006"/>
<path d="M277.877 148.173C279.668 147.315 281.74 147.437 283.601 146.371L283.615 146.359C283.741 146.285 283.881 146.2 284.007 146.114C284.133 146.028 284.273 145.93 284.399 145.82C286.764 143.908 285.588 139.521 285.588 137.279V137.144C285.658 134.007 285.504 131.654 289.997 132.499C291.97 132.867 293.761 132.745 295.147 132.499C298.072 131.972 299.779 129.166 298.394 126.85C298.324 126.74 298.254 126.642 298.184 126.532C295.105 122.218 288.093 122.72 284.371 124.669C281.222 126.323 280.074 128.639 280.13 132.806C280.186 136.372 278.605 136.212 277.877 139.423C277.821 139.656 277.765 139.901 277.737 140.171C277.695 140.465 277.653 140.771 277.625 141.065C277.233 144.864 277.877 148.173 277.877 148.173Z" fill="#2A3049"/>
<path d="M277.877 148.173C279.669 147.315 281.74 147.437 283.601 146.371L283.615 146.359C283.741 146.285 283.881 146.2 284.007 146.114C284.133 146.028 284.273 145.93 284.399 145.82C286.764 143.908 285.589 139.521 285.589 137.279L283.545 136.114C283.545 136.114 283.322 137.328 283.545 138.381C283.769 139.448 284.175 139.497 284.581 140.722C284.987 141.947 284.847 144.251 283.447 145.146C282.048 146.04 279.865 145.832 279.207 146.163C279.207 146.163 277.751 143.7 277.877 139.399C277.821 139.631 277.765 139.876 277.737 140.146C277.696 140.44 277.654 140.747 277.626 141.041C277.234 144.864 277.877 148.173 277.877 148.173Z" fill="#22293F"/>
<path d="M286.162 135.612C286.162 135.612 285.448 134.583 284.329 134.742C283.209 134.901 283.349 136.347 283.657 137.548C284.077 139.104 285.952 138.933 285.952 138.933" fill="#FFE1BD"/>
<path d="M330.905 241.33C331.661 241.943 332.165 242.028 334.18 243.033C336.195 244.026 338.211 246.403 339.848 246.844C341.485 247.285 344.732 247.825 346.314 247.163C347.167 246.807 347.489 246.232 347.531 245.656C346.818 246.354 346.174 246.734 343.823 246.673C341.471 246.599 339.12 245.937 337.679 244.369C336.223 242.8 335.3 242.016 333.732 241.477C332.165 240.938 331.437 240.251 331.647 239.614C331.871 238.977 332.431 238.573 333.564 238.805C334.698 239.038 334.852 238.487 334.852 238.487C334.768 238.585 334.628 238.646 334.474 238.658C332.291 238.732 332.039 236.747 332.039 236.747C330.499 237.298 330.149 240.717 330.905 241.33Z" fill="#F9A208"/>
<path d="M297.456 242.139C297.414 242.482 298.002 243.695 299.122 244.785C300.409 247.016 301.683 248.878 302.396 249.332C303.236 249.871 304.818 250.435 306.483 250.864C308.526 251.391 311.325 250.398 311.451 248.903C309.212 250.631 304.272 249.001 303.432 248.266C302.592 247.53 302.382 246.44 301.137 245.312C299.891 244.173 298.478 242.837 299.164 241.771C299.653 241.023 301.207 241.17 301.641 241.318C302.075 241.465 302.368 241.207 302.368 241.207C302.27 241.207 302.172 241.195 302.074 241.158C301.711 241.023 300.045 239.737 300.255 238.805C300.255 238.805 299.835 238.671 299.499 239.063C299.192 239.455 297.568 241.109 297.456 242.139Z" fill="#F9A208"/>
<path d="M44.7196 268.436L134.876 313.986L142.377 310.223L52.2209 264.65L38.1559 261.39C37.918 261.329 37.7361 261.586 37.904 261.745L44.7196 268.436Z" fill="url(#paint20_linear_458_2049)"/>
<path d="M52.0801 257.199L39.9184 254.662C39.4985 254.577 39.1906 255.018 39.4845 255.3L47.7556 263.265L52.0801 257.199Z" fill="#B4BBE1"/>
<path d="M39.4839 255.3L42.7308 258.437C42.7868 257.996 42.9267 257.542 43.1786 257.101C43.3886 256.697 43.6824 256.341 43.9903 256.035C44.1443 255.888 44.3122 255.753 44.4941 255.631L39.9037 254.687C39.4839 254.564 39.19 255.03 39.4839 255.3Z" fill="#4588FF"/>
<path d="M136.611 300.383L135.464 302.16L132.497 306.731L48.6805 263.89C48.4986 263.816 48.3306 263.718 48.1766 263.62C47.7428 263.326 47.4209 262.934 47.211 262.456C46.8191 261.549 46.8611 260.385 47.4489 259.307C47.6728 258.903 47.9527 258.535 48.2606 258.241C49.1283 257.395 50.2899 256.954 51.3815 257.052C51.6894 257.077 51.9973 257.15 52.2772 257.273C52.3332 257.285 52.3752 257.309 52.4311 257.334L52.6131 257.432C52.6411 257.444 52.6551 257.456 52.683 257.469C52.697 257.481 52.7111 257.493 52.739 257.506L136.611 300.383Z" fill="#4588FF"/>
<path d="M136.611 300.383L135.464 302.16L132.553 301.4L48.2606 258.253C48.2606 258.253 48.2606 258.253 48.2606 258.241C49.1283 257.395 50.2899 256.954 51.3816 257.052C51.6894 257.077 51.9974 257.15 52.2773 257.273C52.3332 257.285 52.3752 257.309 52.4312 257.334L52.6131 257.432C52.6411 257.444 52.6551 257.456 52.6831 257.469C52.6971 257.481 52.7111 257.493 52.7391 257.506L136.611 300.383Z" fill="#80B4FF"/>
<path d="M137.828 304.966C136.82 306.792 134.665 307.711 133 307.013C132.818 306.939 132.65 306.841 132.496 306.743C132.062 306.449 131.74 306.045 131.544 305.579C131.152 304.672 131.194 303.508 131.782 302.43C132.608 300.91 134.245 300.028 135.729 300.163C136.037 300.187 136.344 300.261 136.624 300.383C136.68 300.408 136.722 300.432 136.778 300.445L136.96 300.555C136.988 300.567 137.002 300.579 137.03 300.592C138.36 301.437 138.752 303.3 137.828 304.966Z" fill="#3081E2"/>
<path d="M76.3063 315.383C78.5455 316.583 79.5531 316.093 82.2542 316.988C84.9692 317.87 90.1474 320.713 92.3166 320.909C94.4858 321.118 97.1868 320.076 97.9566 318.458C98.7263 316.829 96.5711 315.591 94.1779 314.512C91.7708 313.422 86.1168 309.77 86.1168 309.77L78.3076 309.133C78.7834 309.562 79.1193 309.893 79.1193 309.893L79.875 313.557L76.2503 314.194C76.2643 314.182 75.7325 314.758 76.3063 315.383Z" fill="#595959"/>
<path d="M86.1305 309.121C86.1305 309.121 91.7844 312.785 94.1916 313.863C96.5847 314.941 98.74 316.179 97.9702 317.809C97.2005 319.439 94.4995 320.468 92.3302 320.26C90.161 320.051 84.9829 317.208 82.2679 316.326C79.5528 315.444 78.5592 315.922 76.306 314.733C75.4803 314.292 75.1584 310.922 76.7958 308.349" fill="#347EE8"/>
<path d="M50.6248 291.769C50.6248 291.891 50.6528 291.989 50.6948 292.075C51.0727 292.896 51.7024 293.362 53.6337 294.379C55.579 295.396 56.9086 298.141 58.532 299.415C60.1554 300.702 62.2127 301.891 64.158 301.964C66.0893 302.025 68.4824 300.873 68.7204 299.587C68.9583 298.3 68.0206 297.896 67.0969 297.356C66.1733 296.817 63.3043 294.513 62.7725 293.901C62.2267 293.288 60.9951 291.462 60.9951 291.462L54.5014 286.781C53.5638 287.21 52.808 287.798 52.2203 288.435C52.5142 288.399 52.7801 288.386 52.836 288.435C52.962 288.546 53.5638 289.943 53.5638 289.943C53.5638 289.943 53.0599 290.666 52.892 290.727C52.7101 290.776 51.2966 290.862 51.2966 290.862C51.2966 290.862 50.7088 291.229 50.6248 291.769Z" fill="#595959"/>
<path d="M61.2331 290.947C61.2331 290.947 62.4646 292.773 63.0104 293.386C63.5562 293.999 66.4112 296.303 67.3489 296.842C68.2726 297.381 69.2102 297.785 68.9723 299.072C68.7344 300.359 66.3412 301.511 64.4099 301.449C62.4786 301.376 60.4074 300.199 58.7839 298.913C57.1605 297.626 55.831 294.881 53.8857 293.864C51.9544 292.847 51.3386 292.393 50.9467 291.572C50.5548 290.751 51.7164 287.639 54.7394 286.279" fill="#347EE8"/>
<path d="M54.025 286.083C55.6345 291.364 62.0722 291.095 62.0722 291.095C62.0722 291.095 67.5302 286.083 73.1982 280.286C77.1868 276.23 81.2733 271.782 83.6525 268.424C84.1843 267.664 84.6321 266.966 84.982 266.341C85.4718 265.446 85.9057 264.245 86.3115 262.824C89.2785 252.457 90.2441 230.387 90.2441 230.387L73.3801 237.703L73.5341 260.912C73.5341 260.912 71.9247 262.223 69.9374 264.233C68.7338 265.459 67.3903 266.929 66.1867 268.522C62.9398 272.811 54.025 286.083 54.025 286.083Z" fill="#3A3D51"/>
<path d="M54.026 286.082C55.6354 291.364 62.0732 291.095 62.0732 291.095C62.0732 291.095 67.5312 286.083 73.1992 280.286L72.2056 270.74L70.5681 264.233H69.9244C68.7208 265.459 67.3773 266.929 66.1737 268.522C62.9409 272.811 54.026 286.082 54.026 286.082Z" fill="#242733"/>
<path d="M77.258 244.81C77.258 244.81 79.6092 255.275 79.9591 255.336C80.225 255.373 82.5342 264.135 83.6398 268.424C84.1716 267.664 84.6194 266.966 84.9693 266.341C85.4591 265.446 85.893 264.245 86.2988 262.824C85.2352 255.704 81.9184 239.921 81.9184 239.921H78.8815L77.258 244.81Z" fill="#333647"/>
<path d="M59.1201 240.791C59.8479 243.989 64.8161 255.655 68.4408 264.294C70.722 269.747 72.0936 275.421 72.5694 281.205C73.3951 291.315 75.1305 306.559 75.7183 309.513C75.7183 309.513 76.2921 309.917 77.2437 310.321C79.273 311.167 83.0237 311.976 86.6904 308.839C86.6904 308.839 86.8163 276.451 86.6484 270.765C86.4944 265.079 80.3086 241.906 80.3086 241.906C80.3086 241.906 89.8952 239.198 90.2031 230.399L63.6545 233.401L59.0922 233.916C59.1202 233.916 58.0565 236.011 59.1201 240.791Z" fill="#3A3D51"/>
<path d="M59.1206 240.791C59.8484 243.989 64.8166 255.655 68.4413 264.294C70.7225 269.747 72.094 275.421 72.5698 281.205C73.3955 291.315 75.1309 306.559 75.7187 309.513C75.7187 309.513 76.2925 309.917 77.2441 310.321C76.6424 302.368 74.781 277.688 74.4171 273.093C74.0113 267.591 69.6869 258.584 67.0558 250.594C64.4247 242.604 64.8866 234.467 64.8866 234.467L63.655 233.389L59.0927 233.904C59.1206 233.916 58.057 236.011 59.1206 240.791Z" fill="#333647"/>
<path d="M57.7474 233.965C57.7474 233.965 57.5654 234.504 57.4395 235.252C57.3975 235.497 57.5095 235.73 57.7474 235.864C58.2792 236.171 59.4828 236.784 61.8199 237.568C64.465 238.45 67.9778 238.585 70.5109 238.377C71.5745 238.291 82.0148 236.269 88.2566 232.813C89.838 231.931 90.6497 230.301 90.3418 228.683V228.647C90.1319 227.568 57.7474 233.965 57.7474 233.965Z" fill="#2268BC"/>
<path d="M52.8639 199.2C53.6616 202.067 54.6272 204.91 55.6209 207.741C56.0827 209.076 56.6425 210.4 57.2023 211.711C59.2036 216.441 61.3029 221.184 60.0993 226.343C59.6235 228.365 58.4339 230.901 58.6998 232.972C58.8678 234.21 59.0637 235.264 61.5548 236.661C62.0586 236.955 62.6324 237.176 63.2062 237.335L63.5421 237.421L63.696 237.457C64.2278 237.592 64.7596 237.69 65.2915 237.764C66.593 237.96 67.9085 237.997 69.2241 237.899C69.8398 237.862 70.4556 237.788 71.0574 237.69C74.8501 237.065 81.9315 235.546 88.0474 232.225C88.0614 232.213 88.0893 232.213 88.0893 232.213C89.9927 231.208 91.0283 228.781 90.4265 225.436C90.1326 223.757 89.6708 221.417 89.2789 219.517C88.8311 217.287 88.6351 215.008 88.7191 212.741C88.7611 211.723 88.7891 210.694 88.8171 209.689C89.9367 203.403 93.9673 190.658 92.008 187.227C90.7484 185.058 88.4952 181.37 88.4952 181.37C88.4952 181.37 83.569 180.169 81.0079 180.022C80.644 180.009 80.2941 179.997 79.9302 179.997C77.859 180.352 75.6898 180.647 73.5485 181.051C72.163 181.308 70.7915 181.59 69.448 181.958C69.0421 182.068 68.6643 182.178 68.2724 182.301C67.9505 182.411 67.6286 182.509 67.3208 182.619C65.3615 183.281 63.9899 183.845 62.8983 184.311C61.5548 184.899 60.6451 185.389 59.6794 185.94C59.6235 185.965 59.5815 185.989 59.5255 186.026C58.4339 186.639 56.7965 187.668 55.327 188.82C53.8995 189.935 52.64 191.148 52.2201 192.19C52.1082 192.472 51.9822 192.901 51.8702 193.489C51.8562 193.526 51.8562 193.563 51.8562 193.599C51.6603 195.425 52.374 197.435 52.8639 199.2Z" fill="#347EE8"/>
<path d="M51.8989 193.477L54.1521 193.722C54.7539 189.703 68.0492 183.612 68.0492 183.612L68.2871 182.289C67.9652 182.399 67.6433 182.497 67.3355 182.607C65.3762 183.269 64.0046 183.833 62.913 184.298C61.5695 184.887 60.6598 185.377 59.6942 185.928C59.6382 185.953 59.5962 185.977 59.5402 186.014C58.4486 186.627 56.8112 187.656 55.3417 188.808C53.9142 189.923 52.6546 191.136 52.2348 192.178C52.1228 192.46 52.0109 192.889 51.8989 193.477Z" fill="#266FC6"/>
<path d="M68.3704 175.867V180.904C68.3704 180.904 74.2622 184.629 77.3831 184.09C78.7266 183.857 79.4404 182.35 79.1605 180.218L76.3195 179.715L68.3704 175.867Z" fill="#F2BA88"/>
<path d="M78.0972 183.796L81.4421 187.239C81.4421 187.239 81.568 183.11 79.3288 181.002C77.1456 178.943 77.0616 180.72 77.0616 180.72C77.0616 180.72 79.1189 182.803 78.0972 183.796Z" fill="white"/>
<path d="M84.6322 169.164C84.6322 169.164 85.1081 173.38 84.1144 177.24C83.1208 181.1 82.8128 181.97 81.0355 182.656C79.2581 183.343 77.6627 183.416 74.6817 181.737C71.7008 180.058 70.0634 177.313 70.0634 177.313C70.0634 177.313 69.6435 177.559 68.5659 176.505C66.9005 174.85 66.5786 174.029 66.5786 171.787C66.5786 169.544 67.2224 166.726 69.2096 163.809C71.1969 160.88 77.3128 161.824 80.0838 163.062C82.8548 164.312 84.1004 166.652 84.6322 169.164Z" fill="#FFD1A4"/>
<path d="M87.0547 169.348C84.0038 174.066 76.4044 170.966 76.4044 170.966C75.8446 173.012 74.2072 173.208 73.4095 173.588C72.6257 173.968 72.4578 175.953 72.4578 175.953H71.7441C71.7441 175.953 71.7161 173.968 71.3522 172.963C70.9883 171.971 68.8611 171.199 67.7975 172.657C66.8318 173.968 67.9374 175.426 68.5812 176.505C68.7911 178.22 68.3852 178.943 68.3852 178.943C68.3852 178.943 67.2236 177.938 66.4539 175.892C65.6702 173.845 65.0964 169.544 66.4539 164.937C66.5939 164.459 66.8038 164.018 67.0837 163.613C69.4209 160.157 76.0686 159.496 78.6856 160.268C80.9388 160.942 86.5229 163.16 87.5585 166.321C87.8524 167.24 87.7404 168.27 87.0547 169.348Z" fill="#2A3049"/>
<path d="M87.2773 263.51C87.2354 263.755 87.1934 264 87.1514 264.233C87.1934 263.951 87.2354 263.718 87.2773 263.51Z" fill="#3A3A3A"/>
<path d="M68.3842 180.389C68.3842 180.389 68.0203 180.806 67.7404 181.431C67.5025 181.946 67.3345 182.595 67.3345 182.595C67.3345 182.595 69.7417 186.933 76.3614 188.796L77.1172 184.102C77.1032 184.127 71.3092 183.428 68.3842 180.389Z" fill="white"/>
<path d="M87.0547 169.348C84.0038 174.066 76.4044 170.966 76.4044 170.966C75.8446 173.012 74.2072 173.208 73.4095 173.588C72.6257 173.968 72.4578 175.953 72.4578 175.953H71.7441C71.7441 175.953 71.7161 173.968 71.3522 172.963C70.9883 171.971 68.8611 171.199 67.7975 172.657C66.8318 173.968 67.9374 175.426 68.5812 176.505C68.7911 178.22 68.3852 178.943 68.3852 178.943C68.3852 178.943 67.2236 177.938 66.4539 175.892C65.6702 173.845 65.0964 169.544 66.4539 164.937C66.5939 164.459 66.8038 164.018 67.0837 163.613C68.3573 164.569 72.038 167.179 75.8866 168.601C80.6729 170.353 84.7595 170.071 85.991 169.201C87.7684 167.939 87.5585 166.321 87.5585 166.321C87.8524 167.24 87.7404 168.27 87.0547 169.348Z" fill="#1C2235"/>
<path d="M61.0102 241.023C61.0102 241.023 61.1921 243.548 61.458 244.112C61.57 244.43 61.8358 244.724 62.0318 245.006C62.3676 245.509 63.8791 247.874 64.1031 249.258C64.243 250.128 63.6132 252.69 63.3053 253.192C63.2773 253.253 63.2354 253.302 63.1654 253.339C63.0954 253.376 63.0114 253.376 62.9275 253.364C61.9758 253.241 61.9198 252.212 62.0038 251.562C62.0458 251.195 62.0598 250.067 61.7799 250.092C60.6883 250.68 60.5623 253.167 60.3804 254.148C60.1285 255.471 60.9821 258.118 60.2404 258.081C59.9465 258.069 57.6233 257.199 57.1335 256.329C56.3218 255.459 55.86 254.466 55.706 253.327C55.5101 251.954 55.9019 250.729 56.1399 249.467C56.2938 248.597 56.5457 247.678 56.6717 246.489C56.7557 245.754 56.4337 242.837 56.4337 242.837L61.0102 241.023Z" fill="#FFD1A4"/>
<path d="M60.0994 226.343C59.6235 228.365 58.434 230.901 58.6999 232.972C58.8678 234.21 59.0637 235.264 61.5548 236.661C62.0586 236.955 62.6325 237.176 63.2063 237.335L63.5421 237.421C63.864 229.799 62.7304 217.262 62.7304 217.262C64.5917 211.576 64.1019 198.771 64.1019 198.771C64.1019 198.771 57.8602 205.143 57.8602 205.682C57.8602 205.989 57.5103 209.113 57.2024 211.711C59.2037 216.441 61.3029 221.184 60.0994 226.343Z" fill="#266FC6"/>
<path d="M49.3807 218.096L55.6924 243.891C55.6924 243.891 55.9723 244.038 56.5321 244.148C57.5258 244.357 59.4011 244.43 62.1442 243.266C62.1442 243.266 61.5424 223.108 60.7726 217.189C60.7726 217.189 64.9852 202.729 63.9355 196.222C63.2638 192.031 59.1772 190.585 55.8884 191.063C54.083 191.332 52.5016 192.178 51.8858 193.477C51.8998 193.477 48.1491 214.37 49.3807 218.096Z" fill="#347EE8"/>
<path d="M92.9184 208.292C92.9324 208.28 92.9464 208.28 92.9604 208.268C92.9604 208.268 88.7899 200.915 87.7123 197.999L88.6779 181.431C88.6779 181.431 92.4146 182.031 95.7314 188.122C99.0623 194.224 106.172 209.26 105.332 211.772C105.332 211.772 100.35 208.256 92.9604 208.292C92.9464 208.292 92.9324 208.292 92.9184 208.292Z" fill="#347EE8"/>
<path d="M69.8406 204.383V224.088C69.8406 224.088 69.8406 224.1 69.8406 224.113C69.8406 224.198 69.8545 224.517 70.0365 224.615L70.0505 224.627C70.0785 224.64 70.0925 224.652 70.1065 224.664L70.4563 224.872L70.4983 224.787L87.1244 216.294V195.303L87.4883 194.665L87.1244 194.482L70.9042 202.753C70.2464 203.096 69.8406 203.721 69.8406 204.383Z" fill="#97A2CE"/>
<path d="M87.4883 194.678L71.268 202.962C70.6103 203.292 70.2044 203.917 70.2044 204.591V224.48C70.2044 224.86 70.6802 225.093 71.0441 224.909L87.4883 216.515V194.678Z" fill="#B4BBE1"/>
<path d="M92.5977 197.251L87.4895 194.678L87.0556 194.898L87.2515 199.984L92.5977 197.251Z" fill="#97A2CE"/>
<path d="M87.0549 194.898L92.1211 197.496V201.026L87.0549 197.827V194.898Z" fill="#8792B2"/>
<path d="M87.0549 195.499L91.5193 197.803L92.1211 218.868L76.5585 226.992L71.5204 224.333C71.0725 224.1 70.8066 223.671 70.8066 223.218V204.555C70.8066 204.077 71.1005 203.623 71.5763 203.391L87.0549 195.499Z" fill="white"/>
<path d="M75.3133 207.153V226.858C75.3133 226.858 75.3133 226.87 75.3133 226.882C75.3133 226.968 75.3272 227.287 75.5092 227.385L75.5232 227.397C75.5512 227.409 75.5652 227.421 75.5792 227.434L75.9291 227.642L75.971 227.556L92.5971 219.064V198.072L92.9609 197.435L92.5971 197.251L76.3769 205.523C75.7191 205.866 75.3133 206.491 75.3133 207.153Z" fill="#97A2CE"/>
<path d="M92.9609 197.435L76.7407 205.719C76.083 206.062 75.6771 206.675 75.6771 207.349V227.237C75.6771 227.617 76.1529 227.85 76.5168 227.666L92.9609 219.272V197.435Z" fill="#B4BBE1"/>
<path d="M69.0711 216.858C69.1691 216.258 69.7289 216.061 69.7289 216.061L72.318 217.103C72.136 216.919 71.5902 216.552 71.3803 216.368C70.8205 215.878 71.1144 215.375 71.3803 215.326C71.6462 215.277 73.9974 216.209 74.6411 216.539C74.893 216.674 75.2429 217.042 75.4389 217.287C75.9427 217.74 76.4465 217.802 76.7404 217.789L79.0356 217.066L81.4707 218.696L80.8829 221.135C80.8829 221.135 76.5165 223.267 75.2009 222.973C70.7785 222.005 69.505 220.093 69.505 220.093C69.1411 219.591 68.9732 217.458 69.0711 216.858Z" fill="#FFD1A4"/>
<path d="M80.1967 221.747C80.1967 221.747 80.3926 221.429 80.4626 221.012C80.6725 219.591 79.8748 217.164 77.6356 217.25C77.6356 217.25 85.9766 211.76 92.9321 208.28C93.352 208.133 97.3546 208.182 100.405 209.101C103.358 209.996 105.346 211.76 105.346 211.76C104.478 214.285 80.1967 221.747 80.1967 221.747Z" fill="#347EE8"/>
<path d="M49.3798 218.096L55.6915 243.891C55.6915 243.891 55.9714 244.038 56.5312 244.148C56.1254 242.298 51.2691 219.86 51.0591 216.049C50.8212 212.079 55.9015 191.075 55.9015 191.075C54.0961 191.345 52.5146 192.19 51.8989 193.489C51.8989 193.477 48.1482 214.37 49.3798 218.096Z" fill="#266FC6"/>
<path opacity="0.55" d="M109.208 214.946C109.208 214.946 109.208 214.946 109.208 214.934L109.362 210.584C109.362 210.584 109.362 210.572 109.362 210.547V210.363L109.376 210.388C109.81 202.337 122.769 196.185 138.472 196.589C154.272 196.982 166.868 203.905 166.588 212.018L166.448 216.417C166.336 219.505 164.404 222.299 161.186 224.578L167.231 227.875C168.001 227.556 168.813 227.397 169.625 227.47C170.044 227.507 170.436 227.605 170.842 227.764C170.912 227.789 170.968 227.826 171.038 227.862L171.276 227.985C171.318 227.997 171.346 228.022 171.374 228.046C171.416 228.071 171.416 228.083 171.458 228.107L201.449 244.246C197.153 245.496 192.744 246.991 188.266 248.756L165.93 236.759C165.678 236.649 165.454 236.526 165.258 236.367C164.67 235.987 164.236 235.436 163.943 234.811C163.649 234.149 163.579 233.401 163.635 232.617L155.629 228.254C155.49 228.193 155.364 228.12 155.224 228.046C155.112 227.96 155 227.85 154.916 227.752C150.003 229.566 143.916 230.571 137.324 230.411C121.957 230.007 109.642 223.475 109.18 215.645L109.166 215.657L109.208 214.946Z" fill="#B4BBE1"/>
<path d="M169.808 199.653C169.78 200.425 169.64 201.197 169.402 201.932C167.009 209.248 154.427 214.579 139.466 214.199C124.506 213.819 112.316 207.839 110.413 200.413C110.217 199.665 110.161 193.44 110.161 193.44C110.161 193.44 117.998 179.789 140.502 180.058C154.119 180.23 169.808 194.972 169.808 194.972C169.808 194.972 169.849 198.182 169.808 199.653ZM165.063 199.53C165.119 197.68 164.419 195.903 163.104 194.273C159.367 189.653 150.662 186.271 140.404 186.002C130.16 185.732 121.245 188.661 117.2 193.085C115.773 194.641 114.961 196.381 114.891 198.231C114.653 205.339 125.681 208.108 139.536 208.464C153.405 208.831 164.825 206.65 165.063 199.53Z" fill="#4588FF"/>
<path opacity="0.2" d="M166.211 194.972C165.973 202.226 154.077 207.814 139.634 207.447C125.205 207.079 113.701 200.891 113.953 193.624C114.191 186.369 126.087 180.781 140.53 181.149C154.959 181.529 166.463 187.717 166.211 194.972Z" fill="url(#paint21_linear_458_2049)"/>
<path opacity="0.2" d="M155.113 183.698C129.083 184.2 121.259 195.413 119.09 201.761C115.773 199.457 113.856 196.638 113.954 193.624C114.206 186.369 126.018 181.039 140.46 181.406C145.765 181.553 151.055 182.24 155.113 183.698Z" fill="white"/>
<path opacity="0.6" d="M163.636 195.254C163.426 201.675 152.887 206.626 140.11 206.295C127.333 205.964 117.158 200.498 117.382 194.065C117.396 193.881 117.396 193.697 117.424 193.514C118.138 199.543 127.934 204.518 140.11 204.836C152.496 205.167 162.782 200.523 163.58 194.384C163.636 194.665 163.65 194.96 163.636 195.254Z" fill="white"/>
<path d="M167.175 190.45L160.402 184.286L140.879 180.058L121.104 183.269L113.938 189.065L112.077 192.68L114.904 193.55C114.904 193.55 118.235 181.786 140.809 182.374C163.369 182.95 165.916 194.874 165.916 194.874L168.799 194.151L167.175 190.45Z" fill="#4588FF"/>
<path d="M169.808 194.972C169.78 195.744 169.64 196.516 169.402 197.251C167.009 204.567 154.428 209.898 139.467 209.518C124.506 209.138 112.317 203.158 110.413 195.732C110.217 194.984 110.133 194.212 110.161 193.44C110.441 184.985 124.03 178.465 140.503 178.894C156.975 179.311 170.088 186.516 169.808 194.972ZM165.064 194.862C165.12 193.011 164.42 191.234 163.104 189.604C159.368 184.985 150.663 181.602 140.405 181.333C130.16 181.063 121.245 183.992 117.201 188.416C115.773 189.972 114.962 191.712 114.892 193.563C114.654 200.67 125.682 206.736 139.537 207.091C153.406 207.447 164.826 201.969 165.064 194.862Z" fill="#81C5E8"/>
<path d="M169.808 194.972C169.78 195.744 169.64 196.516 169.402 197.251C167.009 204.567 154.428 209.898 139.467 209.518C124.506 209.138 112.317 203.158 110.413 195.732C110.217 194.984 110.133 194.212 110.161 193.44C110.441 184.985 124.03 178.465 140.503 178.894C156.975 179.311 170.088 186.516 169.808 194.972ZM165.064 194.862C165.12 193.011 164.42 191.234 163.104 189.604C159.368 184.985 150.663 181.602 140.405 181.333C130.16 181.063 121.245 183.992 117.201 188.416C115.773 189.972 114.962 191.712 114.892 193.563C114.654 200.67 125.682 206.736 139.537 207.091C153.406 207.447 164.826 201.969 165.064 194.862Z" fill="#80B4FF"/>
<path d="M173.377 213.084L172.803 213.819H172.789L170.228 217.128L169.57 217.973L158.36 211.846C158.206 211.785 158.08 211.711 157.954 211.625C157.605 211.393 157.339 211.062 157.185 210.682C157.101 210.498 157.045 210.29 157.017 210.081C156.919 209.469 157.031 208.795 157.381 208.133C157.814 207.336 158.528 206.748 159.298 206.466C159.718 206.319 160.152 206.258 160.571 206.295C160.823 206.319 161.061 206.368 161.299 206.466C161.341 206.479 161.383 206.503 161.425 206.515L161.579 206.601C161.593 206.613 161.621 206.626 161.635 206.638L173.377 213.084Z" fill="#CDD5F7"/>
<path d="M173.377 213.084L172.803 213.819H172.789L159.298 206.491C159.718 206.344 160.152 206.282 160.571 206.319C160.823 206.344 161.061 206.393 161.299 206.491C161.341 206.503 161.383 206.528 161.425 206.54L161.579 206.626C161.593 206.638 161.621 206.65 161.635 206.662L173.377 213.084Z" fill="white"/>
<path d="M170.256 217.14L169.598 217.985L158.388 211.858C158.234 211.797 158.108 211.723 157.982 211.638C157.632 211.405 157.366 211.074 157.213 210.694C157.129 210.51 157.073 210.302 157.045 210.094L170.256 217.14Z" fill="#B4BBE1"/>
<path d="M209.062 230.227L207.439 232.74L203.255 239.198L169.149 220.743H169.135C168.869 220.632 168.645 220.51 168.435 220.35C167.819 219.934 167.357 219.37 167.077 218.708C166.518 217.422 166.588 215.792 167.413 214.26C167.721 213.684 168.113 213.182 168.561 212.753C168.561 212.753 168.561 212.753 168.561 212.741C169.792 211.552 171.43 210.915 172.969 211.062C173.403 211.098 173.837 211.197 174.229 211.368C174.299 211.393 174.369 211.429 174.439 211.466L174.705 211.613C174.747 211.625 174.775 211.65 174.803 211.662C174.831 211.674 174.845 211.699 174.873 211.711L209.062 230.227Z" fill="#4588FF"/>
<path d="M209.062 230.227L207.439 232.74L203.339 231.661L168.561 212.765C168.561 212.765 168.561 212.765 168.561 212.753C168.561 212.753 168.561 212.753 168.561 212.741C169.792 211.552 171.43 210.915 172.969 211.062C173.403 211.098 173.837 211.197 174.229 211.368C174.299 211.393 174.369 211.429 174.439 211.466L174.705 211.613C174.747 211.625 174.775 211.65 174.803 211.662C174.831 211.674 174.845 211.699 174.873 211.711L209.062 230.227Z" fill="#80B4FF"/>
<path d="M210.785 236.698C209.371 239.283 206.32 240.57 203.969 239.59H203.955C203.703 239.479 203.465 239.357 203.241 239.198C202.64 238.781 202.178 238.217 201.884 237.555C201.324 236.269 201.394 234.639 202.22 233.119C203.395 230.975 205.691 229.725 207.776 229.921C208.21 229.958 208.644 230.056 209.035 230.227C209.105 230.252 209.175 230.289 209.245 230.325L209.511 230.472C209.553 230.485 209.581 230.509 209.609 230.522C211.526 231.71 212.072 234.333 210.785 236.698Z" fill="#3081E2"/>
<path d="M246.529 306.363V307.65C246.529 307.907 246.571 308.152 246.655 308.398C246.655 308.398 246.655 308.398 246.655 308.41C246.669 308.471 246.697 308.508 246.725 308.569C246.753 308.606 246.767 308.655 246.809 308.728C246.837 308.765 246.879 308.814 246.907 308.888C246.991 308.973 247.061 309.084 247.159 309.194C247.201 309.255 247.243 309.304 247.285 309.366C247.327 309.402 247.383 309.451 247.425 309.476C247.495 309.537 247.565 309.598 247.635 309.672C247.999 309.966 248.517 310.309 249.216 310.603C251.456 311.584 253.821 312.307 255.472 313.164C256.004 313.446 257.473 314.304 257.473 314.304C257.473 314.304 258.663 315.15 259.601 315.652C260.566 316.154 262.638 317.024 264.681 316.841C266.696 316.645 267.662 315.517 267.76 314.831L267.732 313.753L260.244 311.314L246.529 306.363Z" fill="#3A3A3A"/>
<path d="M259.642 306.057C259.642 306.057 257.347 305.971 253.596 305.407C249.845 304.844 247.27 304.684 246.78 305.714C246.305 306.706 246.207 307.773 249.552 309.77C252.896 311.78 255.485 311.988 258.172 313.875C260.16 315.272 261.951 315.603 263.938 315.726C265.94 315.848 267.283 315.174 267.717 314.463C268.725 312.809 267.675 309.672 267.675 309.672L259.642 306.057Z" fill="#347EE8"/>
<path d="M232.982 314.255V315.444C232.968 315.995 233.318 316.485 233.864 316.755C235.151 317.355 237.768 318.36 241.631 318.777C245.382 319.181 246.655 319.316 246.655 319.316C246.655 319.316 248.293 319.426 249.468 319.549C250.658 319.684 252.603 319.635 253.457 318.985C253.667 318.814 253.807 318.691 253.933 318.581C253.933 318.581 253.933 318.569 253.947 318.556C253.947 318.556 253.961 318.532 253.975 318.52C254.045 318.458 254.087 318.397 254.129 318.324C254.255 318.103 254.283 317.821 254.311 317.711C254.311 317.674 254.311 317.65 254.311 317.65L254.297 317.159V316.939L251.54 316.767C251.526 316.767 251.526 316.767 251.526 316.767L250.168 316.681L248.894 316.608L247.719 316.534L232.982 314.255Z" fill="#3A3A3A"/>
<path d="M243.967 311.216C243.967 311.216 242.33 312.564 240.399 312.564C238.467 312.564 234.703 312.527 233.737 313.115C233.261 313.41 233.009 313.765 232.981 314.169C232.953 314.574 233.135 315.015 233.499 315.481C234.227 316.412 239.097 317.809 242.764 318.054C246.431 318.311 246.626 318.262 248.362 318.52C250.097 318.777 251.903 318.887 252.994 318.422C254.884 317.601 255.009 315.101 253.862 313.446C252.7 311.804 243.967 311.216 243.967 311.216Z" fill="#347EE8"/>
<path d="M263.98 191.688L264.274 192.3L263.812 194.31L256.479 197.545L256.045 197.496L254.869 197.374L253.022 197.165V194.935C253.022 193.795 252.308 192.68 251.119 192.227C251.077 192.202 251.035 192.19 251.035 192.19C250.629 192.055 250.209 191.822 249.789 191.455L249.677 191.357C248.264 190.046 247.004 187.092 247.368 180.647C247.438 179.519 247.732 177.571 248.32 176.578C249.383 174.789 251.65 173.6 256.325 174.715C264.12 176.603 267.521 179.703 267.913 182.374C268.319 185.046 263.98 191.688 263.98 191.688Z" fill="#FFD1A4"/>
<path d="M253.035 197.153V194.923C253.035 193.783 252.322 192.668 251.132 192.215C251.51 192.362 252.7 192.864 254.267 193.599C254.897 193.893 254.883 195.67 254.883 197.361L253.035 197.153Z" fill="#F2BA88"/>
<path d="M246.906 205.572L235.752 199.824L236.48 204.922L243.044 211.098L246.906 205.572Z" fill="#FFD1A4"/>
<path d="M240.538 208.954L226.543 215.253C226.095 215.461 225.535 215.253 225.395 214.824L218.594 195.756C218.356 195.058 218.706 194.31 219.419 193.991L232.421 188.146C233.106 187.84 233.932 188.158 234.17 188.832L241.014 207.998C241.126 208.366 240.93 208.77 240.538 208.954Z" fill="#0A2982"/>
<path d="M239.74 208.427L226.99 214.199C226.654 214.358 226.234 214.199 226.122 213.88L219.741 196.038C219.489 195.192 219.531 194.825 220.496 194.408L232.63 188.918C232.938 188.783 233.302 188.918 233.4 189.225L240.033 207.802C240.145 208.035 240.005 208.304 239.74 208.427Z" fill="#205CE1"/>
<g opacity="0.5">
<path opacity="0.5" d="M221.169 195.474L221.421 196.16L232.645 191.087L232.421 190.438C232.421 190.425 232.407 190.413 232.407 190.401L221.169 195.474Z" fill="#6CE3FF"/>
<path opacity="0.5" d="M221.995 197.717L222.233 198.391L233.457 193.342L233.219 192.668L221.995 197.717Z" fill="#6CE3FF"/>
<path opacity="0.5" d="M222.793 199.959L223.031 200.645L234.283 195.584L234.017 194.898L222.793 199.959Z" fill="#6CE3FF"/>
<path opacity="0.5" d="M223.59 202.202L223.842 202.888L235.08 197.815L234.828 197.141L223.59 202.202Z" fill="#6CE3FF"/>
<path opacity="0.5" d="M224.403 204.469L224.641 205.143L235.879 200.069L235.641 199.396L224.403 204.469Z" fill="#6CE3FF"/>
<path opacity="0.5" d="M225.199 206.699L225.437 207.373L236.689 202.324L236.452 201.638L225.199 206.699Z" fill="#6CE3FF"/>
<path opacity="0.5" d="M225.998 208.954L226.25 209.628L237.488 204.567L237.25 203.893L225.998 208.954Z" fill="#6CE3FF"/>
<path opacity="0.5" d="M226.809 211.196L227.047 211.883L238.285 206.809L238.047 206.123L226.809 211.196Z" fill="#6CE3FF"/>
</g>
<path d="M228.992 211.613L226.487 213.439L226.011 213.782C226.011 213.782 225.437 211.674 224.416 210.878C224.066 210.608 223.044 210.241 222.471 210.106C222.135 210.02 221.841 209.861 221.631 209.616C221.141 209.028 220.413 207.741 220.791 205.511C220.861 205.082 220.987 204.788 221.113 204.579C221.127 204.567 221.127 204.567 221.127 204.567C221.435 204.101 221.827 204.114 221.827 204.114C221.827 204.114 223.52 205.167 224.01 205.486C224.416 205.743 224.934 206.258 225.325 205.878C225.535 205.682 224.304 204.31 223.954 203.685C223.618 203.06 224.276 202.386 224.57 202.619C224.85 202.864 226.585 204.775 227.299 206.393C228.013 208.023 228.992 211.613 228.992 211.613Z" fill="#FFD1A4"/>
<path d="M227.061 211.883L226.487 213.451L226.011 213.794C226.011 213.794 225.437 211.687 224.415 210.89C224.066 210.62 223.044 210.253 222.47 210.118C222.134 210.032 221.84 209.873 221.63 209.628C221.141 209.04 220.413 207.753 220.791 205.523C220.861 205.094 220.987 204.8 221.113 204.591C221.127 204.579 221.127 204.579 221.127 204.579C221.127 204.579 221.141 204.959 221.84 205.51C222.54 206.05 223.562 206.54 224.052 206.809C224.527 207.079 225.283 208.072 225.759 209.052C226.249 210.045 227.061 211.883 227.061 211.883Z" fill="#F2BA88"/>
<path d="M271.495 252.714C269.759 261.023 268.514 271.328 268.514 271.328C268.514 271.328 271.411 291.965 268.15 309.942C268.01 310.787 267.674 312.589 266.429 313.287C265.715 313.667 263.854 313.937 262.398 313.263C262.342 313.226 262.272 313.214 262.216 313.177C257.346 310.848 257.864 307.822 257.164 305.836C257.178 297.834 258.13 278.166 256.198 273.84L254.463 256.403L255.093 243.94H272.516V243.977L272.6 243.94C272.6 243.952 274.084 247.298 271.495 252.714Z" fill="#3A3A3A"/>
<path d="M266.177 253.057C264.54 257.775 262.426 270.115 261.978 273.117C261.978 273.117 263.602 296.866 262.216 313.189C257.346 310.861 257.864 307.834 257.164 305.849C257.178 297.847 258.13 278.178 256.198 273.853L254.463 256.415L255.093 243.952H267.073C267.073 243.952 267.814 248.327 266.177 253.057Z" fill="#2D2D2D"/>
<path d="M265.059 248.07C264.513 250.214 263.435 253.204 261.294 256.047C260.958 256.488 260.664 256.942 260.37 257.395C260.314 257.604 259.461 260.398 258.411 264.147C257.347 267.897 256.074 272.591 255.164 276.598C255.668 281.61 257.081 299.182 254.38 314.402C254.184 315.481 253.303 316.375 252.085 316.669C251.525 316.804 250.882 316.89 250.168 316.853C249.65 316.816 249.118 316.731 248.558 316.522C245.703 315.468 243.646 311.473 243.646 311.473C243.646 311.473 243.576 286.205 242.079 279.575C241.785 278.301 241.645 277.027 241.547 275.74C241.267 271.684 240.763 264.27 240.609 261.17C240.315 255.14 240.259 250.092 240.497 247.837L254.772 247.996L265.059 248.07Z" fill="#3A3A3A"/>
<path d="M254.785 247.959C254.715 248.707 254.659 249.197 254.659 249.197C254.659 249.197 254.519 252.346 252.7 257.064C250.881 261.782 249.075 272.983 248.879 277.186C248.683 281.046 251.034 299.452 250.153 316.816C249.635 316.78 249.103 316.694 248.543 316.485C245.688 315.432 243.631 311.437 243.631 311.437C243.631 311.437 243.561 286.168 242.064 279.539C241.77 278.264 241.63 276.99 241.532 275.703C241.252 271.647 240.748 264.233 240.594 261.133C240.3 255.104 240.244 250.055 240.482 247.8L254.785 247.959Z" fill="#2D2D2D"/>
<path d="M274.295 212.814C272 218.929 270.698 228.99 272.083 233.181C273.483 237.384 274.295 243.327 274.295 243.327C272.993 246.477 260.817 253.302 254.016 253.817C253.19 253.878 252.35 253.854 251.525 253.731C245.549 252.959 239.937 248.302 239.937 248.302C239.937 248.302 241.224 231.073 242.036 220.056C242.582 212.728 243.814 208.17 244.583 205.927C244.961 204.8 245.227 204.273 245.227 204.273C245.941 203.439 248.096 202.042 250.825 200.462C250.839 200.462 250.867 200.449 250.881 200.437C252.714 199.371 254.8 198.231 256.899 197.153H256.913C259.712 195.707 262.525 194.347 264.778 193.366C265.044 193.256 265.296 193.146 265.534 193.048C267.129 192.362 268.361 191.92 268.991 191.81C272.195 191.283 276.478 192.766 277.779 197.839C279.081 202.937 276.576 206.687 274.295 212.814Z" fill="#347EE8"/>
<path opacity="0.75" d="M250.798 233.119C250.392 237.825 251.203 249.552 251.511 253.756C245.535 252.984 239.923 248.327 239.923 248.327C239.923 248.327 241.211 231.097 242.023 220.081C242.568 212.753 243.8 208.194 244.57 205.952C245.214 205.302 245.633 204.885 245.633 204.885H253.513C253.513 204.885 257.613 205.621 256.13 213.794C254.632 221.968 251.287 227.348 250.798 233.119Z" fill="#205CE2"/>
<path d="M265.576 195.646C264.372 197.08 260.076 199.163 258.102 199.53C256.115 199.886 254.534 199.714 253.596 199.702C252.28 199.69 251.259 200.327 250.881 200.462C250.853 200.474 250.839 200.486 250.825 200.486C250.811 200.498 250.797 200.498 250.797 200.498L251.972 198.93L253.344 198.17C253.344 198.17 255.345 197.533 255.793 197.349C255.933 197.288 256.367 197.239 256.913 197.178H256.927C258.116 197.055 259.81 196.945 260.076 196.92C260.453 196.883 263.532 195.021 263.672 194.947C263.742 194.911 264.358 194.028 264.792 193.391C265.058 193.281 265.31 193.17 265.548 193.072C265.953 193.538 266.527 194.506 265.576 195.646Z" fill="#165BD6"/>
<path d="M269.971 182.619C269.299 186.124 265.912 191.639 264.191 192.141C263.155 192.46 262.175 192.582 261.364 192.619C260.02 192.68 258.817 191.847 258.579 190.683C258.369 189.702 258.019 188.465 257.417 187.509C256.213 185.573 254.646 184.556 253.862 184.911C253.065 185.266 253.149 186.516 253.149 186.516L252.631 186.504C252.631 186.504 252.589 186.1 252.505 185.573C252.449 185.046 252.379 184.372 252.351 183.857C252.351 182.546 251.889 181.259 250.979 180.23C250.433 179.593 249.776 178.612 249.062 177.13C248.6 176.149 248.488 175.206 248.586 174.36V174.348C248.908 171.652 250.168 170.549 251.357 169.777C255.234 167.289 263.337 171.909 266.332 174.115C267.969 175.316 269.117 176.713 269.691 178.294V178.306C270.18 179.617 270.278 181.039 269.971 182.619Z" fill="#713E23"/>
<path d="M265.015 192.901L264.273 192.3C259.431 196.982 253.035 197.153 253.035 197.153C253.035 197.153 251.286 198.697 250.782 200.499L251.804 199.923C252.336 199.616 252.938 199.408 253.567 199.322C253.973 199.273 254.855 199.224 254.855 199.224C258.857 199.175 262.846 196.724 264.917 195.217C265.757 194.616 265.799 193.538 265.015 192.901Z" fill="white"/>
<path d="M246.906 309.206C246.976 309.329 247.074 309.427 247.158 309.525C247.06 309.402 246.976 309.304 246.906 309.206Z" fill="#474747"/>
<path d="M247.284 309.684C247.228 309.635 247.2 309.574 247.158 309.525C247.228 309.611 247.312 309.709 247.424 309.807C247.368 309.77 247.34 309.733 247.284 309.684Z" fill="#474747"/>
<path d="M225.591 212.642C225.591 212.642 225.591 212.642 225.591 212.655C225.703 212.937 226.837 216.147 227.523 218.157C228.18 220.093 230.35 227.115 232.099 230.46C232.113 230.521 232.141 230.571 232.183 230.632C232.281 230.791 232.365 230.926 232.421 231.048C232.435 231.11 232.463 231.146 232.505 231.208C232.505 231.22 232.519 231.22 232.519 231.232C232.603 231.355 232.659 231.49 232.715 231.6C233.373 232.666 234.576 233.548 236.116 233.72H236.298C238.705 233.72 244.457 224.664 246.164 221.894C245.464 221.515 244.611 221.037 243.687 220.448C242.022 219.382 240.174 217.961 238.789 216.159C237.935 217.826 236.186 220.301 235.416 221.894C235.416 221.894 235.318 221.686 235.178 221.319C234.632 220.13 233.051 217.262 231.763 215.694C229.888 213.427 228.712 210.388 228.558 210.057C228.558 210.155 228.474 210.437 227.607 210.535C227.313 210.572 227.019 210.792 226.725 211.086C226.431 211.38 226.165 211.748 225.927 212.079C225.885 212.116 225.857 212.165 225.829 212.201C225.731 212.361 225.647 212.483 225.591 212.642Z" fill="#FFD1A4"/>
<path d="M225.591 212.642C225.591 212.642 225.591 212.642 225.591 212.655C225.703 212.937 226.837 216.147 227.523 218.157C228.18 220.093 230.35 227.115 232.099 230.46C232.113 230.521 232.141 230.571 232.183 230.632C232.281 230.791 232.365 230.926 232.421 231.048C232.435 231.11 232.463 231.146 232.505 231.208C232.505 231.22 232.519 231.22 232.519 231.232C232.603 231.355 232.659 231.49 232.715 231.6C233.373 232.666 234.576 233.548 236.116 233.72H236.298C238.705 233.72 244.457 224.664 246.164 221.894C245.464 221.515 244.611 221.037 243.687 220.448C241.994 223.193 237.053 231.061 235.206 231.048C234.324 231.048 232.491 225.963 231.147 222.924C229.804 219.885 226.739 211.086 226.739 211.086C226.445 211.38 226.179 211.748 225.941 212.079C225.899 212.116 225.871 212.165 225.843 212.201C225.731 212.361 225.647 212.483 225.591 212.642Z" fill="#F2BA88"/>
<path d="M237.613 216.539C239.699 219.26 243.491 221.551 245.507 222.654C246.122 222.997 246.612 223.23 246.92 223.365C247.34 222.789 253.596 214.174 254.253 211.172C254.337 210.964 254.379 210.768 254.407 210.596C255.233 206.613 253.834 205.192 253.652 205.008C253.61 204.971 253.568 204.922 253.54 204.886C250.713 201.92 246.15 201.822 243.491 206.197C242.26 208.219 239.769 212.263 237.613 216.539Z" fill="#347EE8"/>
<path d="M269.971 182.619C269.299 186.124 265.912 191.639 264.191 192.141C263.155 192.46 262.175 192.582 261.364 192.619C260.02 192.68 258.817 191.847 258.579 190.683C258.369 189.702 258.019 188.465 257.417 187.509C256.213 185.573 254.646 184.556 253.862 184.911C253.065 185.266 253.149 186.516 253.149 186.516L252.631 186.504C252.631 186.504 252.589 186.1 252.505 185.573C252.449 185.046 252.379 184.372 252.351 183.857C252.351 182.546 251.889 181.259 250.979 180.23C250.433 179.593 249.776 178.612 249.062 177.13C248.6 176.149 248.488 175.206 248.586 174.36C248.964 175.206 252.197 181.798 261.224 183.453C270.642 185.181 269.761 178.637 269.691 178.306C270.18 179.617 270.278 181.039 269.971 182.619Z" fill="#442312"/>
<path d="M245.032 244.737C245.801 245.974 248.516 247.739 251.721 247.347C252.295 247.273 252.897 247.175 253.499 247.053C253.568 247.04 253.624 247.028 253.68 247.028C260.398 245.668 269.243 241.563 271.552 238.671C274.519 234.958 271.594 214.824 267.032 207.14V207.128C265.828 205.118 263.533 204.444 262.189 204.628C262.189 204.628 253.261 207.569 250.434 210.608C247.593 213.635 242.638 240.876 245.032 244.737Z" fill="#FBC006"/>
<path d="M245.031 244.737C245.801 245.974 248.516 247.739 251.721 247.347C252.295 247.273 252.897 247.175 253.498 247.053C251.399 247.543 249.79 245.423 249.79 243.952C249.79 242.494 251.903 220.056 254.31 213.794C255.024 211.944 264.149 208.292 267.018 207.128C265.814 205.118 263.519 204.444 262.175 204.628C262.175 204.628 253.246 207.569 250.419 210.608C247.592 213.635 242.638 240.876 245.031 244.737Z" fill="#FFD04D"/>
<path d="M258.578 206.172C258.578 206.172 256.703 203.035 254.478 201.785C252.252 200.523 250.069 200.829 250.069 200.829L246.752 202.9C246.752 202.9 248.656 202.839 250.769 204.199C252.028 205.008 254.1 208.17 254.1 208.17L258.578 206.172Z" fill="#FFD04D"/>
<path d="M241.197 230.117C241.197 230.117 241.77 233.634 245.619 235.975L244.989 240.423C244.989 240.423 242.89 239.332 240.791 235.423L241.197 230.117Z" fill="#FFD04D"/>
<defs>
<linearGradient id="paint0_linear_458_2049" x1="298.159" y1="124.505" x2="251.384" y2="124.505" gradientUnits="userSpaceOnUse">
<stop stop-color="#B4BBE1" stop-opacity="0.1"/>
<stop offset="1" stop-color="#B4BBE1" stop-opacity="0.3"/>
</linearGradient>
<linearGradient id="paint1_linear_458_2049" x1="333.17" y1="154.936" x2="393.608" y2="194.787" gradientUnits="userSpaceOnUse">
<stop stop-color="#B4BBE1" stop-opacity="0.1"/>
<stop offset="1" stop-color="#B4BBE1" stop-opacity="0.3"/>
</linearGradient>
<linearGradient id="paint2_linear_458_2049" x1="292.74" y1="161.284" x2="353.179" y2="201.134" gradientUnits="userSpaceOnUse">
<stop stop-color="#B4BBE1" stop-opacity="0.1"/>
<stop offset="1" stop-color="#B4BBE1" stop-opacity="0.3"/>
</linearGradient>
<linearGradient id="paint3_linear_458_2049" x1="353.503" y1="231.117" x2="45.9352" y2="231.117" gradientUnits="userSpaceOnUse">
<stop stop-color="#B4BBE1" stop-opacity="0.1"/>
<stop offset="1" stop-color="#B4BBE1" stop-opacity="0.3"/>
</linearGradient>
<linearGradient id="paint4_linear_458_2049" x1="146.909" y1="195.572" x2="73.5068" y2="195.572" gradientUnits="userSpaceOnUse">
<stop stop-color="#CED5EF"/>
<stop offset="0.3714" stop-color="#D5DDF1"/>
<stop offset="0.8656" stop-color="#DAE3F2"/>
</linearGradient>
<linearGradient id="paint5_linear_458_2049" x1="158.836" y1="201.571" x2="85.4599" y2="201.571" gradientUnits="userSpaceOnUse">
<stop stop-color="#CED5EF"/>
<stop offset="0.3714" stop-color="#D5DDF1"/>
<stop offset="0.8656" stop-color="#DAE3F2"/>
</linearGradient>
<linearGradient id="paint6_linear_458_2049" x1="170.762" y1="207.564" x2="97.3868" y2="207.564" gradientUnits="userSpaceOnUse">
<stop stop-color="#CED5EF"/>
<stop offset="0.3714" stop-color="#D5DDF1"/>
<stop offset="0.8656" stop-color="#DAE3F2"/>
</linearGradient>
<linearGradient id="paint7_linear_458_2049" x1="182.557" y1="213.505" x2="109.194" y2="213.505" gradientUnits="userSpaceOnUse">
<stop stop-color="#CED5EF"/>
<stop offset="0.3714" stop-color="#D5DDF1"/>
<stop offset="0.8656" stop-color="#DAE3F2"/>
</linearGradient>
<linearGradient id="paint8_linear_458_2049" x1="194.509" y1="219.516" x2="121.16" y2="219.516" gradientUnits="userSpaceOnUse">
<stop stop-color="#CED5EF"/>
<stop offset="0.3714" stop-color="#D5DDF1"/>
<stop offset="0.8656" stop-color="#DAE3F2"/>
</linearGradient>
<linearGradient id="paint9_linear_458_2049" x1="207.147" y1="225.866" x2="133.798" y2="225.866" gradientUnits="userSpaceOnUse">
<stop stop-color="#CED5EF"/>
<stop offset="0.3714" stop-color="#D5DDF1"/>
<stop offset="0.8656" stop-color="#DAE3F2"/>
</linearGradient>
<linearGradient id="paint10_linear_458_2049" x1="219.192" y1="231.934" x2="145.869" y2="231.934" gradientUnits="userSpaceOnUse">
<stop stop-color="#CED5EF"/>
<stop offset="0.3714" stop-color="#D5DDF1"/>
<stop offset="0.8656" stop-color="#DAE3F2"/>
</linearGradient>
<linearGradient id="paint11_linear_458_2049" x1="231.236" y1="237.973" x2="157.887" y2="237.973" gradientUnits="userSpaceOnUse">
<stop stop-color="#CED5EF"/>
<stop offset="0.3714" stop-color="#D5DDF1"/>
<stop offset="0.8656" stop-color="#DAE3F2"/>
</linearGradient>
<linearGradient id="paint12_linear_458_2049" x1="239.038" y1="162.46" x2="155.713" y2="162.46" gradientUnits="userSpaceOnUse">
<stop stop-color="#CED5EF"/>
<stop offset="0.3714" stop-color="#D5DDF1"/>
<stop offset="0.8656" stop-color="#DAE3F2"/>
</linearGradient>
<linearGradient id="paint13_linear_458_2049" x1="250.857" y1="168.412" x2="167.573" y2="168.412" gradientUnits="userSpaceOnUse">
<stop stop-color="#CED5EF"/>
<stop offset="0.3714" stop-color="#D5DDF1"/>
<stop offset="0.8656" stop-color="#DAE3F2"/>
</linearGradient>
<linearGradient id="paint14_linear_458_2049" x1="262.912" y1="174.461" x2="179.575" y2="174.461" gradientUnits="userSpaceOnUse">
<stop stop-color="#CED5EF"/>
<stop offset="0.3714" stop-color="#D5DDF1"/>
<stop offset="0.8656" stop-color="#DAE3F2"/>
</linearGradient>
<linearGradient id="paint15_linear_458_2049" x1="274.807" y1="180.452" x2="191.509" y2="180.452" gradientUnits="userSpaceOnUse">
<stop stop-color="#CED5EF"/>
<stop offset="0.3714" stop-color="#D5DDF1"/>
<stop offset="0.8656" stop-color="#DAE3F2"/>
</linearGradient>
<linearGradient id="paint16_linear_458_2049" x1="286.8" y1="186.478" x2="203.495" y2="186.478" gradientUnits="userSpaceOnUse">
<stop stop-color="#CED5EF"/>
<stop offset="0.3714" stop-color="#D5DDF1"/>
<stop offset="0.8656" stop-color="#DAE3F2"/>
</linearGradient>
<linearGradient id="paint17_linear_458_2049" x1="298.695" y1="192.468" x2="215.404" y2="192.468" gradientUnits="userSpaceOnUse">
<stop stop-color="#CED5EF"/>
<stop offset="0.3714" stop-color="#D5DDF1"/>
<stop offset="0.8656" stop-color="#DAE3F2"/>
</linearGradient>
<linearGradient id="paint18_linear_458_2049" x1="310.655" y1="198.476" x2="227.344" y2="198.476" gradientUnits="userSpaceOnUse">
<stop stop-color="#CED5EF"/>
<stop offset="0.3714" stop-color="#D5DDF1"/>
<stop offset="0.8656" stop-color="#DAE3F2"/>
</linearGradient>
<linearGradient id="paint19_linear_458_2049" x1="322.637" y1="204.499" x2="239.346" y2="204.499" gradientUnits="userSpaceOnUse">
<stop stop-color="#CED5EF"/>
<stop offset="0.3714" stop-color="#D5DDF1"/>
<stop offset="0.8656" stop-color="#DAE3F2"/>
</linearGradient>
<linearGradient id="paint20_linear_458_2049" x1="142.382" y1="287.688" x2="37.8501" y2="287.688" gradientUnits="userSpaceOnUse">
<stop stop-color="#B4BBE1" stop-opacity="0.1"/>
<stop offset="1" stop-color="#B4BBE1" stop-opacity="0.3"/>
</linearGradient>
<linearGradient id="paint21_linear_458_2049" x1="166.221" y1="194.304" x2="113.956" y2="194.304" gradientUnits="userSpaceOnUse">
<stop stop-color="#B4BBE1" stop-opacity="0.1"/>
<stop offset="1" stop-color="#B4BBE1" stop-opacity="0.3"/>
</linearGradient>
</defs>
</svg>
