<svg width="1920" height="1373" viewBox="0 0 1920 1373" fill="none" xmlns="http://www.w3.org/2000/svg">
<path d="M-2.87614 1107.82C-4.9837 1132.59 18.9983 1184.18 131.289 1192.29C249.839 1200.85 265.557 1227.48 280.53 1252.84C283.285 1257.51 286.015 1262.14 289.356 1266.6C310.854 1295.31 344.996 1324.02 465.127 1301.22C585.258 1278.42 702.861 1270.82 792.643 1324.87C864.469 1368.1 933.997 1373 959.562 1373C985.127 1373 1054.66 1368.1 1126.48 1324.87C1216.26 1270.82 1333.87 1278.42 1454 1301.22C1574.13 1324.02 1608.27 1295.31 1629.77 1266.6C1633.11 1262.14 1635.84 1257.51 1638.59 1252.84C1653.57 1227.48 1669.29 1200.85 1787.83 1192.29C1900.13 1184.18 1923.98 1132.61 1921.88 1107.84V0H1920.33C1913.14 26.4197 1880.78 62.9086 1787.83 69.619C1669.29 78.1775 1653.57 104.807 1638.59 130.175C1635.84 134.843 1633.11 139.468 1629.77 143.93C1608.27 172.642 1574.13 201.353 1454 178.553C1333.87 155.753 1216.26 148.153 1126.48 202.197C1054.66 245.433 985.127 250.331 959.562 250.331C933.997 250.331 864.469 245.433 792.643 202.197C702.861 148.153 585.258 155.753 465.127 178.553C344.996 201.353 310.854 172.642 289.356 143.93C286.015 139.468 283.285 134.843 280.53 130.175C265.557 104.807 249.838 78.1775 131.289 69.619C38.3398 62.9086 5.98302 26.4197 -1.21055 0H-2.75174L-2.87614 1107.82Z" fill="url(#paint0_linear_266_24275)"/>
<defs>
<linearGradient id="paint0_linear_266_24275" x1="526.102" y1="680.919" x2="1922" y2="680.919" gradientUnits="userSpaceOnUse">
<stop stop-color="#FF8B01"/>
<stop offset="1" stop-color="#EF5223"/>
</linearGradient>
</defs>
</svg>
