<svg width="1920" height="869" viewBox="0 0 1920 869" fill="none" xmlns="http://www.w3.org/2000/svg">
  <path d="M133.314 596.049C20.8986 583.805 -2.98535 505.916 -0.875458 468.502L-0.875458 0L1925.88 0V468.502C1927.99 505.916 1904.1 583.805 1791.69 596.049C1651.17 611.355 1654.97 664.925 1633.44 708.291C1611.92 751.657 1577.74 795.023 1457.48 760.585C1337.22 726.147 1219.48 714.668 1129.6 796.298C1057.7 861.602 988.093 869 962.5 869C936.907 869 867.302 861.602 795.397 796.298C705.515 714.668 587.784 726.147 467.52 760.585C347.256 795.023 313.076 751.657 291.555 708.291C270.034 664.925 273.832 611.355 133.314 596.049Z" fill="#FFF3E8"/>
</svg>
