<svg width="30" height="30" viewBox="0 0 30 30" fill="none" xmlns="http://www.w3.org/2000/svg">
<path d="M20 15C22.7614 15 25 12.7614 25 10C25 7.23858 22.7614 5 20 5C17.2386 5 15 7.23858 15 10C15 10.7998 15.1878 11.5558 15.5217 12.2262C15.6105 12.4044 15.64 12.608 15.5886 12.8003L15.2908 13.9133C15.1615 14.3965 15.6035 14.8385 16.0867 14.7092L17.1997 14.4114C17.392 14.36 17.5956 14.3895 17.7738 14.4783C18.4442 14.8122 19.2002 15 20 15Z" stroke="black" stroke-width="1.5"/>
<path d="M18 10H22M20 12L20 8" stroke="black" stroke-width="1.5" stroke-linecap="round"/>
<path d="M11.0376 10.3162L11.6866 11.4791C12.2723 12.5286 12.0372 13.9053 11.1147 14.8278C11.1147 14.8278 11.1147 14.8278 11.1147 14.8278C11.1146 14.8279 9.99588 15.9468 12.0245 17.9755C14.0525 20.0035 15.1714 18.8861 15.1722 18.8853C15.1722 18.8853 15.1722 18.8853 15.1722 18.8853C16.0947 17.9628 17.4714 17.7277 18.5209 18.3134L19.6838 18.9624C21.2686 19.8468 21.4557 22.0692 20.0628 23.4622C19.2258 24.2992 18.2004 24.9505 17.0669 24.9934C15.1588 25.0658 11.9183 24.5829 8.6677 21.3323C5.41713 18.0817 4.93421 14.8412 5.00655 12.9331C5.04952 11.7996 5.7008 10.7742 6.53781 9.93723C7.93076 8.54428 10.1532 8.73144 11.0376 10.3162Z" stroke="black" stroke-width="1.5" stroke-linecap="round"/>
</svg>
