<svg width="291" height="273" viewBox="0 0 291 273" fill="none" xmlns="http://www.w3.org/2000/svg">
<path d="M45.8296 124.099C41.7489 117.959 37.8715 117.034 37.9345 122.123C38.0755 128.527 42.2651 134.266 45.8464 132.883C49.1941 131.591 49.1782 129.085 45.8296 124.099Z" fill="white"/>
<path d="M254.765 191.551C248.489 191.372 223.964 192.317 214.746 193.095C203.783 194.007 204.188 194.12 201.821 189.113C188.612 160.213 184.734 154.803 182.944 159.082C182.477 160.16 188.536 175.044 193.816 185.744C200.389 198.995 201.261 199.376 219.807 197.869C231.641 196.889 236.453 197.005 241.203 196.965C213.953 207.484 159.72 228.51 159.596 228.199C159.533 228.043 164.546 222.61 170.634 216.043C184.211 201.473 183.635 204.745 175.8 186.778C164.476 161.008 164.616 161.134 151.583 161.141C142.426 161.177 131.308 159.459 124.767 157.05C119.613 155.182 119.052 155.13 118.71 156.966C117.636 162.584 104.868 168.858 96.2726 168.05C60.0055 164.378 46.9952 107.054 81.7042 103.702C86.6404 103.232 87.8395 102.859 88.6646 101.554C92.837 95.368 134.302 76.5806 159.029 66.9457C161.209 66.1042 182.385 60.6207 166.097 60.8083C149.7 60.9482 105.043 77.8283 88.1184 93.691C86.6082 95.0813 83.8511 87.9823 84.9252 85.5045C87.0423 80.9195 112.749 65.8828 140.87 56.642C155.242 51.9014 169.304 49.9719 176.996 49.4245C179.456 49.2821 181.823 50.7008 182.758 53.0312L183.599 55.1285C186.029 61.1876 190.421 65.4129 193.146 64.361C194.391 63.8801 194.282 61.1414 193.005 59.7505C190.654 57.2495 200.228 44.5826 206.223 42.2685C227.789 33.9435 240.375 69.3631 235.925 94.1356C231.833 116.886 225.232 122.843 201.952 124.653C189.215 125.623 176.882 129.397 145.243 146.455C136.243 151.364 140.588 153.903 152.717 148.952C181.975 136.94 198.309 131.262 197.453 133.387C196.488 135.913 190.384 143.113 185.885 146.913C178.785 152.973 185.731 157.737 191.429 151.77C195.648 147.271 202.265 138.437 204.678 133.469C206.764 129.254 207.014 128.979 209.054 129.358C232.209 133.964 246.921 113.484 244.425 79.9102C241.726 43.8135 209.724 23.4243 191.212 46.0896L187.943 50.043L186.058 47.81C182.943 44.0786 178.349 42.2638 172.915 42.3881C146.848 43.3006 96.0091 62.4771 78.7116 82.3413C76.3763 85.0369 75.7537 88.8654 77.0934 92.2057C77.1557 92.3611 79.8973 99.197 79.8038 98.9639L77.4059 99.2616C43.3822 103.425 43.3734 153.843 77.4155 170.575C91.0884 177.317 106.8 175.468 118.805 165.721L122.931 162.334L126.528 163.906C131.9 166.317 143.969 167.938 152.486 167.431L160.101 166.913C163.761 173.574 163.434 172.534 175.211 203.243C170.929 207.587 147.326 231.231 142.234 235.349C136.785 239.696 140.429 243.402 145.162 241.754C151.562 239.553 171.944 231.864 195.534 222.758C229.09 209.805 259.671 199.076 259.593 199.106C263.019 198.232 262.052 191.787 254.765 191.551Z" fill="white"/>
<path d="M129.911 184.219C127.482 180.851 122.748 183.844 124.898 187.41C127.078 191.054 126.005 198.017 120.726 197.184C115.4 196.459 112.425 188.816 121.113 185.372C122.047 185.012 123.215 184.112 123.682 183.484C125.909 180.292 117.313 181.278 113.794 184.609C108.921 189.272 111.834 199.899 118.141 200.604C127.328 201.542 134.833 191.11 129.911 184.219Z" fill="white"/>
<path d="M89.0399 111.456C74.3708 107.61 60.6226 119.735 68.6913 138.06C76.9624 156.666 94.3101 163.604 110.753 154.835C116.67 151.654 116.763 151.438 112.356 146.053C91.2834 119.74 94.6771 112.958 89.0399 111.456ZM102.453 152.746C90.9921 153.313 83.0965 147.749 77.4734 135.298C71.2583 121.37 72.4719 115.878 81.4725 116.799L85.9575 117.221L88.5741 123.298C91.4714 130.073 98.7451 141.708 103.931 147.69C107.981 152.406 108.012 152.484 102.453 152.746Z" fill="white"/>
<path d="M32.95 104.313C37.8086 105.667 38.8203 102.136 35.7983 94.6013C31.5614 84.0368 26.4687 79.6335 24.6943 85.073C23.776 87.9392 30.5207 103.636 32.95 104.313Z" fill="white"/>
<path d="M189.529 31.1305C194.839 28.0044 195.165 18.7285 189.979 16.7832C186.802 15.5874 185.977 16.4444 187.706 19.1859C189.637 22.2081 188.408 28.334 183.923 27.9123C179.361 27.5206 175.965 19.9504 184.887 16.4165C186.756 15.6952 187.02 14.3373 185.385 14.0714C180.153 13.1309 173.753 17.5748 173.505 23.681C173.163 30.4512 181.246 36.0326 189.529 31.1305Z" fill="white"/>
<path d="M39.6144 110.62C40.549 112.95 48.9415 109.441 57.4895 103.181C65.3525 97.4546 55.8229 97.9038 47.1658 103.668C41.2179 107.668 39.1783 109.532 39.6144 110.62Z" fill="white"/>
<path d="M15.8384 117.466C13.0513 119.259 13.4409 121.8 16.5241 121.417C20.2145 120.979 33.7766 114.668 34.7107 112.961C36.7657 109.118 23.6547 112.296 15.8384 117.466Z" fill="white"/>
<path d="M244.873 146.928C248.672 146.538 249.139 144.564 246.865 138.893C243.905 131.514 242.908 130.373 240.261 131.395C238.704 131.996 238.19 132.733 238.299 134.126C239.032 139.315 242.973 147.123 244.873 146.928Z" fill="white"/>
<path d="M212.105 114.544C233.765 116.767 239.832 68.6753 219.602 54.7755C214.152 51.0486 206.568 51.1952 202.099 55.0732C198.113 58.5854 193.039 71.04 194.908 73.0098C197.01 75.3379 201.7 93.5321 202.183 101.24C202.823 112.475 203.743 113.645 212.105 114.544ZM208.895 105.646C208.583 99.0383 205.311 84.6026 202.539 77.689C197.928 66.1924 205.696 52.1595 214.448 56.0473C222.733 59.6669 226.676 86.7613 221.119 101.376C217.834 110 209.255 113.042 208.895 105.646Z" fill="white"/>
<path d="M249.686 165.882C249.78 173.739 255.465 180.067 259.887 177.194C263.266 175.082 261.817 169.452 256.444 163.901C253.781 161.071 249.607 162.324 249.686 165.882Z" fill="white"/>
<path d="M270.424 146.303C266.796 146.896 254.791 151.262 253.405 152.514C248.36 156.973 263.277 155.162 270.455 150.418C273.367 148.486 273.367 145.795 270.424 146.303Z" fill="white"/>
<path d="M230.717 160.735C229.534 161.819 230.406 163.546 232.103 163.519C236.432 163.552 247.332 157.999 246.616 156.212C246.008 154.473 233.738 157.954 230.717 160.735Z" fill="white"/>
<path d="M165.105 78.0569C162.955 76.2851 143.865 82.0396 129.774 88.8249C118.002 94.4455 107.414 101.224 102.712 105.64C98.2904 109.859 100.876 112.719 105.796 109.743C112.663 105.567 139.942 91.9865 148.195 88.8008C163.968 82.6221 167.705 80.2824 165.105 78.0569Z" fill="white"/>
</svg>
