<svg xmlns="http://www.w3.org/2000/svg" width="30" height="30" viewBox="0 0 30 30" fill="none">
  <circle cx="15" cy="19" r="3" stroke="black" stroke-width="1.5"/>
  <path d="M15 22.2597L12.7371 24.4292C12.4131 24.7399 12.251 24.8952 12.1138 24.949C11.8011 25.0715 11.4543 24.9666 11.2898 24.6999C11.2176 24.5829 11.1951 24.3718 11.1501 23.9495C11.1247 23.7111 11.112 23.5919 11.0735 23.4921C10.9871 23.2686 10.8058 23.0947 10.5727 23.012C10.4685 22.975 10.3442 22.9629 10.0955 22.9385C9.65512 22.8954 9.43491 22.8738 9.31283 22.8046C9.03463 22.6469 8.92529 22.3144 9.05306 22.0146C9.10913 21.883 9.27116 21.7277 9.59523 21.417L11.0735 19.9998L12.1138 18.9595" stroke="black" stroke-width="1.5"/>
  <path d="M15 22.2597L17.2629 24.4291C17.5869 24.7398 17.749 24.8952 17.8862 24.9489C18.1989 25.0714 18.5457 24.9666 18.7102 24.6999C18.7824 24.5828 18.8049 24.3717 18.8499 23.9495C18.8753 23.7111 18.888 23.5919 18.9265 23.4921C19.0129 23.2686 19.1942 23.0947 19.4273 23.012C19.5315 22.975 19.6558 22.9628 19.9045 22.9385C20.3449 22.8953 20.5651 22.8738 20.6872 22.8046C20.9654 22.6469 21.0747 22.3143 20.9469 22.0146C20.8909 21.883 20.7288 21.7277 20.4048 21.417L18.9265 19.9998L18 19.0732" stroke="black" stroke-width="1.5"/>
  <path d="M20.3197 20.9957C22.2921 20.9748 23.3915 20.8512 24.1213 20.1213C25 19.2426 25 17.8284 25 15V11C25 8.17157 25 6.75736 24.1213 5.87868C23.2426 5 21.8284 5 19 5L11 5C8.17157 5 6.75736 5 5.87868 5.87868C5 6.75736 5 8.17157 5 11L5 15C5 17.8284 5 19.2426 5.87868 20.1213C6.64706 20.8897 7.82497 20.9862 10 20.9983" stroke="black" stroke-width="1.5"/>
  <path d="M12 9L18 9" stroke="black" stroke-width="1.5" stroke-linecap="round"/>
  <path d="M10 12.5H20" stroke="black" stroke-width="1.5" stroke-linecap="round"/>
</svg>
