<svg width="23" height="19" viewBox="0 0 23 19" fill="none" xmlns="http://www.w3.org/2000/svg">
<path d="M19.5516 2.85156H3.35156C3.05609 2.85156 2.76351 2.90006 2.49052 2.99429C2.21754 3.08852 1.9695 3.22663 1.76057 3.40074C1.33862 3.75237 1.10156 4.22928 1.10156 4.72656V6.22656C1.10155 6.29393 1.12331 6.36006 1.16457 6.418C1.20582 6.47594 1.26505 6.52354 1.33601 6.55581L11.236 11.0558C11.3021 11.0859 11.3762 11.1016 11.4516 11.1016C11.5269 11.1016 11.601 11.0859 11.6671 11.0558L21.5671 6.55581C21.6381 6.52354 21.6973 6.47594 21.7386 6.418C21.7798 6.36006 21.8016 6.29393 21.8016 6.22656V4.72656C21.8016 4.22928 21.5645 3.75237 21.1425 3.40074C20.7206 3.04911 20.1483 2.85156 19.5516 2.85156Z" fill="white"/>
<path d="M12.0982 11.7145C11.9001 11.8044 11.6781 11.8515 11.4525 11.8515C11.2269 11.8515 11.0048 11.8044 10.8067 11.7145L1.11191 7.30859L1.10156 7.31422V15.2267C1.10156 15.724 1.33862 16.2009 1.76057 16.5525C2.18253 16.9042 2.75483 17.1017 3.35156 17.1017H19.5516C20.1483 17.1017 20.7206 16.9042 21.1425 16.5525C21.5645 16.2009 21.8016 15.724 21.8016 15.2267V7.31422L21.7912 7.30897L12.0982 11.7145Z" fill="white"/>
</svg>
