<svg width="48" height="48" viewBox="0 0 48 48" fill="none" xmlns="http://www.w3.org/2000/svg">
<path fill-rule="evenodd" clip-rule="evenodd" d="M23.5839 3.36315C34.0923 3.47313 41.523 11.8446 44.5849 21.0741C47.4511 29.7134 45.2578 39.3617 37.2794 44.6446C29.3781 49.8765 18.7761 48.6302 10.8793 43.3925C2.90926 38.1062 -1.69493 29.285 1.05567 20.6185C4.08033 11.0884 12.7725 3.25 23.5839 3.36315Z" fill="url(#paint0_linear_336_4361)"/>
<path fill-rule="evenodd" clip-rule="evenodd" d="M24.441 2.06075C34.644 2.16753 41.8586 10.2956 44.8316 19.2569C47.6145 27.645 45.4849 37.0129 37.7385 42.1423C30.0668 47.2221 19.773 46.012 12.1057 40.9265C4.3673 35.7939 -0.103069 27.2291 2.56758 18.8145C5.50433 9.56149 13.9438 1.95088 24.441 2.06075Z" stroke="url(#paint1_linear_336_4361)" stroke-width="2.44565"/>
<mask id="mask0_336_4361" style="mask-type:alpha" maskUnits="userSpaceOnUse" x="1" y="3" width="44" height="44">
<path fill-rule="evenodd" clip-rule="evenodd" d="M23.5589 3.5943C33.595 3.69933 40.6917 11.6945 43.6161 20.5092C46.3534 28.7602 44.2587 37.9749 36.6389 43.0204C29.0927 48.0172 18.9672 46.8268 11.4253 41.8245C3.81345 36.7758 -0.583814 28.3511 2.04316 20.0741C4.93189 10.9724 13.2334 3.48623 23.5589 3.5943Z" fill="#C4C4C4"/>
</mask>
<g mask="url(#mask0_336_4361)">
<rect x="-4.76172" y="3.32849" width="57.2026" height="42.0238" fill="white"/>
</g>
<g clip-path="url(#clip0_336_4361)">
<path d="M41.2559 24.5596C41.2559 14.8946 33.4208 7.05957 23.7559 7.05957C14.0909 7.05957 6.25586 14.8946 6.25586 24.5596C6.25586 33.2943 12.6554 40.5342 21.0215 41.847V29.6182H16.5781V24.5596H21.0215V20.7041C21.0215 16.3182 23.6342 13.8955 27.6316 13.8955C29.5462 13.8955 31.5488 14.2373 31.5488 14.2373V18.5439H29.3422C27.1682 18.5439 26.4902 19.8929 26.4902 21.277V24.5596H31.3438L30.5679 29.6182H26.4902V41.847C34.8563 40.5342 41.2559 33.2944 41.2559 24.5596Z" fill="#1877F2"/>
<path d="M30.5679 29.6182L31.3438 24.5596H26.4902V21.277C26.4902 19.8928 27.1682 18.5439 29.3422 18.5439H31.5488V14.2373C31.5488 14.2373 29.5462 13.8955 27.6314 13.8955C23.6342 13.8955 21.0215 16.3182 21.0215 20.7041V24.5596H16.5781V29.6182H21.0215V41.847C21.926 41.9887 22.8403 42.0598 23.7559 42.0596C24.6715 42.0598 25.5857 41.9888 26.4902 41.847V29.6182H30.5679Z" fill="white"/>
</g>
<defs>
<linearGradient id="paint0_linear_336_4361" x1="23.0213" y1="3.36194" x2="23.0213" y2="48" gradientUnits="userSpaceOnUse">
<stop stop-color="#EEAC1F"/>
<stop offset="0.9999" stop-color="#E97D24"/>
<stop offset="1" stop-color="#EEAC1F" stop-opacity="0"/>
</linearGradient>
<linearGradient id="paint1_linear_336_4361" x1="23.8947" y1="2.05957" x2="23.8947" y2="45.4002" gradientUnits="userSpaceOnUse">
<stop stop-color="#EEAC1F"/>
<stop offset="0.9999" stop-color="#E97D24"/>
<stop offset="1" stop-color="#EEAC1F" stop-opacity="0"/>
</linearGradient>
<clipPath id="clip0_336_4361">
<rect width="35" height="35" fill="white" transform="translate(6.25586 7.05957)"/>
</clipPath>
</defs>
</svg>
