<svg width="30" height="30" viewBox="0 0 30 30" fill="none" xmlns="http://www.w3.org/2000/svg">
<path d="M25 15C25 16.3132 24.7413 17.6136 24.2388 18.8268C23.7362 20.0401 22.9997 21.1425 22.0711 22.0711C21.1425 22.9997 20.0401 23.7362 18.8268 24.2388C17.6136 24.7413 16.3132 25 15 25C13.6868 25 12.3864 24.7413 11.1732 24.2388C9.95991 23.7362 8.85752 22.9997 7.92893 22.0711C7.00035 21.1425 6.26375 20.0401 5.7612 18.8268C5.25866 17.6136 5 16.3132 5 15C5 13.6868 5.25866 12.3864 5.76121 11.1732C6.26375 9.95991 7.00035 8.85752 7.92893 7.92893C8.85752 7.00035 9.95991 6.26375 11.1732 5.7612C12.3864 5.25866 13.6868 5 15 5C16.3132 5 17.6136 5.25866 18.8268 5.76121C20.0401 6.26375 21.1425 7.00035 22.0711 7.92893C22.9997 8.85752 23.7362 9.95991 24.2388 11.1732C24.7413 12.3864 25 13.6868 25 15L25 15Z" stroke="black" stroke-width="1.5"/>
<path d="M19 15C19 16.3132 18.8965 17.6136 18.6955 18.8268C18.4945 20.0401 18.1999 21.1425 17.8284 22.0711C17.457 22.9997 17.016 23.7362 16.5307 24.2388C16.0454 24.7413 15.5253 25 15 25C14.4747 25 13.9546 24.7413 13.4693 24.2388C12.984 23.7362 12.543 22.9997 12.1716 22.0711C11.8001 21.1425 11.5055 20.0401 11.3045 18.8268C11.1035 17.6136 11 16.3132 11 15C11 13.6868 11.1035 12.3864 11.3045 11.1732C11.5055 9.95991 11.8001 8.85752 12.1716 7.92893C12.543 7.00035 12.984 6.26375 13.4693 5.7612C13.9546 5.25866 14.4747 5 15 5C15.5253 5 16.0454 5.25866 16.5307 5.76121C17.016 6.26375 17.457 7.00035 17.8284 7.92893C18.1999 8.85752 18.4945 9.95991 18.6955 11.1732C18.8965 12.3864 19 13.6868 19 15L19 15Z" stroke="black" stroke-width="1.5"/>
<path d="M5 15H25" stroke="black" stroke-width="1.5" stroke-linecap="round"/>
</svg>
