<svg width="69" height="41" viewBox="0 0 69 41" fill="none" xmlns="http://www.w3.org/2000/svg">
<path d="M67.682 7.75625C67.0036 7.30984 66.0977 7.30077 65.4114 7.72889L53.8862 14.7855C53.443 15.0606 53.1333 15.4887 53.0313 15.9752C52.9254 16.4598 53.0352 16.9645 53.3333 17.3763C53.996 18.2947 54.3451 19.366 54.3451 20.4756C54.3451 23.562 51.6431 26.0728 48.3216 26.0728C45.0001 26.0728 42.2981 23.562 42.2981 20.4756C42.2981 18.6608 43.2628 16.95 44.8746 15.8968C45.7805 15.3065 46 14.144 45.3647 13.3005L35.9099 0.748812C35.1649 -0.249604 33.3688 -0.249604 32.6236 0.748812L23.1689 13.3006C22.5336 14.1441 22.7533 15.3066 23.6591 15.8969C25.2708 16.9501 26.2355 18.661 26.2355 20.4757C26.2355 23.5621 23.5335 26.0729 20.2121 26.0729C16.8906 26.0729 14.1886 23.5621 14.1886 20.4757C14.1886 19.3661 14.5376 18.2948 15.2004 17.3765C15.4985 16.9646 15.6083 16.46 15.5024 15.9753C15.4004 15.4888 15.0906 15.0606 14.6474 14.7856L3.12227 7.72901C2.43211 7.30089 1.53006 7.30997 0.851686 7.75638C0.173309 8.20092 -0.140447 8.98627 0.0595326 9.73331L8.22402 39.585C8.47499 40.5252 9.45535 41.1537 10.5024 40.9734C30.8451 34.8041 42.2981 35.8277 58.0313 40.9734C58.1411 40.9915 58.2548 40.9989 58.3607 40.9989C59.2667 40.9989 60.0822 40.4267 60.3098 39.585L68.4743 9.73331C68.6741 8.98614 68.3605 8.20079 67.682 7.75625Z" fill="url(#paint0_linear_217_14550)"/>
<defs>
<linearGradient id="paint0_linear_217_14550" x1="34.2668" y1="41.0041" x2="34.2668" y2="2.93284e-05" gradientUnits="userSpaceOnUse">
<stop stop-color="#FD5900"/>
<stop offset="1" stop-color="#FFDE00"/>
</linearGradient>
</defs>
</svg>
