<svg width="70" height="88" viewBox="0 0 70 88" fill="none" xmlns="http://www.w3.org/2000/svg">
<path d="M17.6453 78.2968L29.9082 48.6924L20.0606 44.6133L5.93196 78.7217C5.33675 80.1587 6.6834 81.6396 8.17031 81.1834L16.1816 78.7249C16.4194 78.652 16.6481 78.6299 16.8836 78.6527L17.6453 78.2968Z" fill="#FFE07D"/>
<path d="M29.3798 48.4722L16.8796 78.6497C17.4846 78.7037 18.0428 79.0548 18.3417 79.6184L22.2681 87.0218C22.9968 88.396 24.9963 88.3009 25.5917 86.8641L39.7202 52.7555L29.3798 48.4722Z" fill="#FFD064"/>
<path d="M40.0878 48.3574L29.4724 52.7547L43.601 86.8633C44.1962 88.3003 46.1956 88.3952 46.9245 87.021L50.8509 79.6176C50.9717 79.3897 51.1352 79.1962 51.3268 79.0431L52.2881 77.8281L40.0878 48.3574Z" fill="#FFE07D"/>
<path d="M63.2666 78.7191L49.1381 44.6106L38.8339 48.8788L51.3297 79.0452C51.7929 78.6751 52.4207 78.5394 53.017 78.7222L61.0283 81.1808C62.5154 81.6373 63.862 80.1562 63.2666 78.7191Z" fill="#FFD064"/>
<path d="M38.1462 1.23648C39.6238 2.40885 41.5853 2.77546 43.3867 2.21618C45.9198 1.4295 48.6609 2.49152 50.0029 4.77937C50.9573 6.40635 52.6538 7.45686 54.5356 7.58594C57.1819 7.76744 59.3542 9.74798 59.7793 12.3662C60.0814 14.2281 61.284 15.8204 62.9921 16.6206C65.3941 17.7459 66.7043 20.3773 66.1548 22.9722C65.764 24.8174 66.31 26.7368 67.6137 28.0999C69.447 30.0169 69.7182 32.9439 68.2684 35.1651C67.2373 36.7446 67.0532 38.7315 67.7765 40.4737C68.7935 42.9234 67.9889 45.7508 65.8348 47.2982C64.3029 48.3985 63.4134 50.1849 63.4584 52.0705C63.5219 54.7222 61.7503 57.068 59.1825 57.7328C57.3565 58.2055 55.8818 59.5499 55.2426 61.3245C54.3438 63.82 51.8444 65.3676 49.2099 65.0597C47.3364 64.8409 45.4757 65.5616 44.2385 66.9856C42.499 68.988 39.6094 69.528 37.2639 68.2895C35.5961 67.4086 33.6006 67.4086 31.9327 68.2895C29.5873 69.5282 26.6977 68.988 24.9581 66.9856C23.7209 65.5616 21.8604 64.8409 19.9867 65.0597C17.3522 65.3676 14.853 63.82 13.9541 61.3245C13.3148 59.5499 11.8403 58.2055 10.0141 57.7328C7.44629 57.0682 5.67476 54.7222 5.73818 52.0705C5.78321 50.1849 4.89375 48.3985 3.36182 47.2982C1.20752 45.7508 0.403134 42.9234 1.42013 40.4737C2.14338 38.7315 1.9593 36.7446 0.928217 35.1651C-0.521562 32.9439 -0.250341 30.0169 1.58289 28.0999C2.88658 26.7368 3.43263 24.8174 3.04195 22.9722C2.49247 20.3773 3.80268 17.7457 6.20465 16.6206C7.91276 15.8204 9.11521 14.2281 9.41754 12.3662C9.84242 9.74798 12.0149 7.76762 14.6611 7.58594C16.543 7.45686 18.2394 6.40635 19.1939 4.77937C20.5359 2.49152 23.2771 1.42967 25.8101 2.21618C27.6115 2.77563 29.573 2.40885 31.0506 1.23648C33.1286 -0.41216 36.0684 -0.41216 38.1462 1.23648Z" fill="#E8AE4D"/>
<path d="M50.1745 34.4759C50.1745 22.839 42.6673 12.9561 32.232 9.4043C19.4356 10.5985 9.41965 21.3674 9.41965 34.4759C9.41965 47.5844 19.4356 58.3534 32.232 59.5476C42.6675 55.9957 50.1745 46.113 50.1745 34.4759Z" fill="#FFE07D"/>
<path d="M34.5989 9.29248C32.6712 9.29248 30.7943 9.5099 28.9906 9.92017C40.1983 12.4694 48.5639 22.4945 48.5639 34.4741C48.5639 46.4537 40.1983 56.4788 28.9906 59.028C30.7943 59.4383 32.6712 59.6557 34.5989 59.6557C48.5063 59.6557 59.7806 48.3815 59.7806 34.4741C59.7806 20.5667 48.5063 9.29248 34.5989 9.29248Z" fill="#FFD064"/>
<path d="M35.2971 44.1398L43.9884 49.9901C44.3301 50.2201 44.7077 50.2539 45.0382 50.1522C45.3454 49.7347 45.6407 49.3079 45.9236 48.8724C45.9169 48.7894 45.9016 48.7045 45.877 48.6182L42.9987 38.5445C42.8599 38.0583 43.0293 37.5365 43.4276 37.2248L50.0651 32.0289C49.9549 30.8257 49.7641 29.6458 49.4984 28.4946L40.4859 28.1713C39.9806 28.1532 39.5366 27.8306 39.3634 27.3557L35.7705 17.5139C35.3731 16.4254 33.8336 16.4254 33.4362 17.5139L29.8435 27.3554C29.6701 27.8302 29.2263 28.1529 28.721 28.1709L18.2509 28.5465C17.0928 28.5881 16.6172 30.0521 17.5296 30.7664L25.7793 37.2245C26.1774 37.5361 26.347 38.0579 26.2081 38.5442L23.3299 48.6179C23.0116 49.7321 24.257 50.6369 25.2183 49.9899L33.9096 44.1396C34.3291 43.8576 34.8777 43.8576 35.2971 44.1398Z" fill="#E8AE4D"/>
<path d="M43.9919 49.9892C44.9533 50.6363 46.1987 49.7313 45.8804 48.6171L45.3585 46.7905C44.7984 47.7872 44.1717 48.7415 43.4858 49.6485L43.9919 49.9892Z" fill="#E5A32E"/>
<path d="M50.9571 28.546L47.84 28.4341C48.2205 29.9796 48.4577 31.5811 48.5381 33.2243L51.6785 30.7659C52.5908 30.0518 52.1151 28.5876 50.9571 28.546Z" fill="#E5A32E"/>
</svg>
