<svg width="22" height="20" viewBox="0 0 22 20" fill="none" xmlns="http://www.w3.org/2000/svg">
<g clip-path="url(#clip0_336_4312)">
<path d="M14.3793 12.5246L12.8105 14.2991C10.3805 13.0072 8.3555 11.1752 6.92739 8.97676L8.88827 7.5573C9.1182 7.3909 9.2807 7.16025 9.35036 6.90142C9.42001 6.64259 9.3929 6.37017 9.27327 6.12676L7.48564 2.48509C7.35739 2.22384 7.13075 2.01229 6.84613 1.88817C6.56151 1.76405 6.23741 1.73544 5.93164 1.80742L2.5292 2.60542C2.21163 2.68037 1.9355 2.85814 1.75317 3.10504C1.57084 3.35194 1.495 3.65079 1.54001 3.94492C2.13745 7.7925 4.10297 11.3596 7.13949 14.107C10.176 16.8544 14.1185 18.6328 18.3711 19.1734C18.6962 19.2141 19.0264 19.1454 19.2993 18.9805C19.5722 18.8155 19.7687 18.5657 19.8516 18.2784L20.7336 15.1993C20.8128 14.9227 20.7811 14.6296 20.6439 14.3722C20.5068 14.1148 20.2731 13.9098 19.9846 13.7937L15.9605 12.1783C15.6916 12.0699 15.3907 12.0452 15.1047 12.1078C14.8187 12.1705 14.5636 12.317 14.3793 12.5246Z" fill="white"/>
</g>
<defs>
<clipPath id="clip0_336_4312">
<rect width="21" height="19" fill="white" transform="translate(0.652344 0.976562)"/>
</clipPath>
</defs>
</svg>
