<svg width="27" height="26" viewBox="0 0 27 26" fill="none" xmlns="http://www.w3.org/2000/svg">
<g clip-path="url(#clip0_336_4333)">
<path d="M13.4544 1.61304C8.92826 1.61304 4.24609 4.92502 4.24609 10.4672C4.24609 16.3448 12.7107 24.5516 13.0715 24.8979C13.1728 24.9958 13.3109 25.0505 13.4544 25.0505C13.598 25.0505 13.7361 24.9958 13.8374 24.8979C14.1981 24.5516 22.6628 16.3448 22.6628 10.4672C22.6628 4.92502 17.9806 1.61304 13.4544 1.61304ZM13.4544 13.5922C11.6621 13.5922 10.2044 12.1906 10.2044 10.4672C10.2044 8.74377 11.6621 7.3422 13.4544 7.3422C15.2468 7.3422 16.7044 8.74377 16.7044 10.4672C16.7044 12.1906 15.2468 13.5922 13.4544 13.5922Z" fill="url(#paint0_linear_336_4333)"/>
</g>
<defs>
<linearGradient id="paint0_linear_336_4333" x1="9.30806" y1="13.2365" x2="22.6628" y2="13.2365" gradientUnits="userSpaceOnUse">
<stop stop-color="#FF8B01"/>
<stop offset="1" stop-color="#EF5223"/>
</linearGradient>
<clipPath id="clip0_336_4333">
<rect width="26" height="25" fill="white" transform="translate(0.306641 0.476562)"/>
</clipPath>
</defs>
</svg>
