<svg width="27" height="26" viewBox="0 0 27 26" fill="none" xmlns="http://www.w3.org/2000/svg">
<path d="M13.8001 1.15991C9.27396 1.15991 4.5918 4.47189 4.5918 10.0141C4.5918 15.8917 13.0564 24.0985 13.4172 24.4448C13.5185 24.5427 13.6566 24.5974 13.8001 24.5974C13.9437 24.5974 14.0818 24.5427 14.1831 24.4448C14.5438 24.0985 23.0085 15.8917 23.0085 10.0141C23.0085 4.47189 18.3263 1.15991 13.8001 1.15991ZM13.8001 13.1391C12.0078 13.1391 10.5501 11.7375 10.5501 10.0141C10.5501 8.29064 12.0078 6.88908 13.8001 6.88908C15.5925 6.88908 17.0501 8.29064 17.0501 10.0141C17.0501 11.7375 15.5925 13.1391 13.8001 13.1391Z" fill="white"/>
</svg>
