<svg width="185" height="139" viewBox="0 0 185 139" fill="none" xmlns="http://www.w3.org/2000/svg">
<path d="M24.0976 84.1074C23.6672 82.8676 22.9878 81.7299 22.1014 80.7649C22.545 78.5365 24.0976 77.4223 26.0938 78.3136C29.2568 79.3437 32.366 80.5337 35.4094 81.8791C37.1838 82.7704 39.18 83.2161 41.1762 84.1074C43.1724 84.9988 46.7212 86.7815 49.3828 87.8957C50.6578 88.4048 52.0056 88.7058 53.3752 88.7871C56.924 88.3414 60.4728 87.8957 64.2434 87.2272L59.3638 75.4167C55.5679 76.3941 51.7162 77.1383 47.8302 77.6451C44.6815 77.9384 41.5067 77.5587 38.5146 76.5309C36.1394 75.8729 33.8359 74.9771 31.6388 73.8568C27.8443 71.7141 24.9931 68.213 23.654 64.0519C23.2273 62.2903 22.6331 60.574 21.8796 58.9266C21.4921 58.2791 21.3062 57.53 21.3458 56.7755C21.3853 56.0211 21.6484 55.2957 22.1014 54.6927C23.8758 54.247 24.763 55.1383 25.6502 56.4754C26.9906 58.311 28.6424 59.8951 30.5298 61.155C31.4118 61.7399 32.4369 62.07 33.493 62.1093C34.5491 62.1486 35.5957 61.8956 36.5184 61.3778C37.6513 61.0015 38.6524 60.3052 39.4018 59.3723C40.289 58.0352 39.8454 56.921 38.071 56.4754C34.5512 55.8785 31.1222 54.83 27.8682 53.3556C27.5833 53.2691 27.3187 53.1259 27.0901 52.9344C26.8614 52.743 26.6735 52.5073 26.5374 52.2414C25.3793 51.0721 24.468 49.6799 23.8582 48.1483C23.2484 46.6166 22.9526 44.9771 22.9886 43.3278C22.9597 39.6613 22.5884 36.0055 21.8796 32.4087C21.7084 30.9214 21.0893 29.522 20.1052 28.3976C16.5564 23.718 13.8948 18.3698 10.346 13.4674L9.01524 11.6846C6.35363 9.23341 4.35743 6.11366 1.47404 4.1081L1.47404 1.21119C2.50556 0.942852 3.59616 1.02112 4.57925 1.43403C7.95826 2.74964 11.0478 4.71804 13.673 7.22785L24.9848 18.5927C25.2066 18.5927 25.2066 18.8155 25.4284 19.0383C28.8766 23.8396 33.0703 28.053 37.8492 31.5174C38.8677 32.1446 40.0549 32.4387 41.2468 32.3588C42.4388 32.279 43.5766 31.8292 44.5032 31.0717C44.8339 30.7606 45.08 30.3699 45.2184 29.9365C45.3568 29.5032 45.3828 29.0415 45.294 28.5952C45.2051 28.149 45.0044 27.7329 44.7108 27.3863C44.4171 27.0398 44.0403 26.7742 43.616 26.6149C42.4064 25.8603 41.1465 25.1902 39.8454 24.6093C39.4987 24.5597 39.1666 24.4357 38.8719 24.2457C38.5771 24.0556 38.3265 23.8041 38.1371 23.5081C37.9478 23.2121 37.824 22.8787 37.7743 22.5304C37.7246 22.1821 37.7502 21.8271 37.8492 21.4896C38.0882 21.2786 38.374 21.1281 38.6826 21.0506C38.9913 20.973 39.3139 20.9707 39.6236 21.0439L58.2548 23.0495C60.5901 23.3712 62.829 24.1946 64.8192 25.4635C66.8094 26.7325 68.5042 28.4172 69.7884 30.4032C71.0036 31.7897 71.9783 33.3716 72.6718 35.0828C73.6845 37.0779 74.1442 39.3101 74.0026 41.5451L74.0026 43.9964C75.5552 44.2192 76.4424 43.105 77.7732 42.2136L84.6489 42.2136C84.2053 38.6482 84.8707 35.0828 84.4272 31.7402C76.4424 23.9408 68.014 17.0328 59.5856 9.90193L58.9202 8.56489L60.4728 5.44514C61.1226 5.17973 61.8281 5.08149 62.5252 5.15931C63.2224 5.23714 63.8892 5.48857 64.4652 5.89082C68.6794 7.89637 72.6718 10.3476 76.886 12.576C80.47 14.1353 83.9518 15.9216 87.3105 17.9241C90.6375 19.7069 94.1863 21.4896 97.5133 23.0495C98.8653 24.0904 100.272 25.0574 101.728 25.9464C102.393 25.9464 102.393 26.8377 102.615 27.5062C104.284 32.9147 105.617 38.4219 106.607 43.9964C107.32 44.5198 108.166 44.8289 109.047 44.8877C113.887 46.2395 118.516 48.2647 122.798 50.9044C126.334 53.0001 129.741 55.3069 133.001 57.8124C136.715 60.4074 140.202 63.3148 143.426 66.5031C148.216 71.7452 152.522 77.4137 156.29 83.4389C159.362 87.6783 162.106 92.1482 164.497 96.8093L169.598 107.283C171.373 111.071 172.925 115.082 174.921 118.648C177.001 124.128 179.679 129.359 182.906 134.246C183.572 134.915 183.35 135.806 182.906 136.698C182.463 137.589 181.132 137.366 180.245 137.143L174.7 136.475C168.357 135.023 161.9 134.128 155.403 133.801L154.294 133.801C150.395 133.282 146.471 132.985 142.539 132.909C140.099 132.909 137.659 132.464 134.997 132.464C133.301 132.335 131.644 131.882 130.118 131.127C127.234 130.235 124.351 130.681 121.689 128.898C119.028 127.115 113.261 126.001 109.047 125.11C108.234 124.8 107.483 124.347 106.829 123.773C105.73 123.171 104.524 122.793 103.28 122.659C102.165 121.64 100.892 120.811 99.5095 120.207C97.0323 119.168 94.6563 117.899 92.4119 116.419C89.7817 115.021 87.3866 113.216 85.3143 111.071C83.7617 109.957 82.4309 108.62 80.6565 107.506C79.5951 108.167 78.3543 108.479 77.1077 108.397L56.4804 108.397C55.5523 108.489 54.6153 108.377 53.7344 108.07C52.8535 107.762 52.0498 107.265 51.379 106.614C48.5783 103.978 45.6151 101.522 42.507 99.2605L36.5184 94.8037C33.0332 92.2651 29.835 89.3508 26.981 86.113C26.6613 85.5994 26.2407 85.1566 25.7449 84.8118C25.2492 84.467 24.6887 84.2273 24.0976 84.1074ZM11.8986 9.90193L12.3422 10.3476C12.564 12.1303 14.1166 12.7988 15.0038 14.1359C16.4391 17.1818 18.1466 20.0907 20.1052 22.8266C22.1232 25.1991 23.7008 27.9162 24.763 30.8488C25.3349 32.9743 25.7793 35.1323 26.0938 37.3112C26.5712 38.8216 26.7225 40.417 26.5374 41.9908C26.3887 43.4792 26.4635 44.9815 26.7592 46.4476C26.9137 47.3183 27.2506 48.1461 27.7478 48.8761C28.2449 49.606 28.8908 50.2214 29.6426 50.6815C32.4643 52.143 35.5655 52.979 38.7364 53.1328C39.5907 53.1467 40.418 53.4356 41.0967 53.9571C41.7755 54.4785 42.2698 55.205 42.507 56.0297C43.1724 58.0352 43.8378 60.2636 41.8416 62.0464C40.5646 63.1873 39.1485 64.1608 37.6274 64.9433C35.6813 65.495 33.658 65.7209 31.6388 65.6118C29.9236 64.5508 28.2923 63.3588 26.7592 62.0463C26.908 63.5567 27.3818 65.0166 28.1478 66.3248C28.9137 67.633 29.9535 68.7584 31.1952 69.6229C39.6236 75.6396 48.4956 75.1939 57.8112 71.8513C57.931 64.8456 60.0899 58.0285 64.0216 52.2414C63.3562 50.6815 64.0216 48.676 63.578 46.8933C63.1344 45.1106 63.7998 41.3223 60.4728 39.9852C59.142 44.6649 55.815 46.2247 52.7098 45.1106C52.4245 44.7791 52.2329 44.3769 52.1549 43.9458C52.0769 43.5147 52.1153 43.0704 52.2662 42.6593C53.597 41.768 55.5932 41.9908 56.2586 40.8766C56.924 39.7624 56.924 37.7569 56.7022 36.4198C57.0989 36.0924 57.5656 35.8617 58.0658 35.7458C58.566 35.6298 59.0862 35.6317 59.5856 35.7513C61.334 36.2629 62.9142 37.2353 64.1623 38.5676C65.4104 39.8999 66.2808 41.5435 66.6832 43.3278L67.1268 48.8988C67.872 48.6038 68.5288 48.1206 69.0339 47.4961C69.539 46.8715 69.8752 46.1266 70.0102 45.3334C70.3408 43.5661 70.563 41.78 70.6756 39.9852C70.7596 38.4215 70.3732 36.8685 69.5666 35.5285C68.3424 33.5403 66.9312 31.6748 65.3524 29.9575C64.0386 28.5384 62.3438 27.5322 60.4728 27.0606C58.0643 26.5446 55.6148 26.2463 53.1534 26.1692C51.274 25.6393 49.3376 25.34 47.3866 25.2778C47.3866 25.9464 47.8302 26.392 48.052 27.0606C50.27 31.7402 46.7212 35.5285 42.2852 35.7513C41.398 35.7513 40.289 35.9741 39.6236 35.9741C37.9745 35.4055 36.4631 34.4943 35.1876 33.3001C31.1674 30.7513 27.6978 27.417 24.9848 23.4951C24.8186 23.0361 24.5069 22.6446 24.0976 22.3809C21.6578 20.3754 20.1052 17.9241 17.8872 15.9186C17.1985 14.9647 16.1617 14.3238 15.0038 14.1359C15.1183 13.9195 15.1587 13.6713 15.1186 13.4296C15.0785 13.1879 14.9602 12.9662 14.782 12.7988L12.3422 10.3476L11.8986 9.90193L11.2332 9.23341C11.0114 9.23341 11.0114 9.01057 10.5678 9.01057L11.2332 9.45625L11.8986 9.90193ZM64.9088 9.90193C65.8977 11.414 67.3925 12.5207 69.123 13.0217C69.155 13.3293 69.2504 13.6269 69.4032 13.8954C69.5559 14.164 69.7626 14.3976 70.0102 14.5816C70.8325 14.9709 71.5826 15.4984 72.2282 16.1414C75.3334 19.0383 78.6604 21.7124 81.7656 24.8322C84.8707 27.9519 85.3143 27.7291 87.0887 29.5118C87.5293 29.937 87.8604 30.4634 88.0536 31.0457C88.2468 31.6279 88.2962 32.2487 88.1977 32.8544C87.792 35.9573 87.7176 39.0949 87.9759 42.2136C91.0811 43.105 94.4081 42.6593 97.7351 43.5507C99.5865 43.959 101.517 43.8038 103.28 43.105C102.528 41.4143 102.078 39.6041 101.949 37.7569C101.669 35.4068 101.148 33.092 100.397 30.8488C99.9394 29.3307 99.0057 28.0019 97.7351 27.0606C95.2953 25.2778 92.1901 24.3865 89.5285 22.8266C86.8669 21.2667 81.1001 18.3698 76.886 15.9186C74.5375 14.3999 71.8888 13.4115 69.123 13.0217C68.4576 11.0161 66.6832 10.5704 64.9088 9.90193C63.1344 9.23341 64.687 9.45625 64.2434 9.67909C64.3334 9.75972 64.4388 9.82106 64.5532 9.85938C64.6676 9.89769 64.7886 9.91217 64.9088 9.90193ZM121.024 53.5785C116.47 50.6218 111.318 48.7189 105.942 48.0075C103.631 49.3985 101.538 51.1257 99.7313 53.1328C97.7351 55.584 95.9607 58.2581 94.1863 60.9322C92.6047 62.6293 91.3288 64.5897 90.4157 66.726C88.0385 71.3585 86.1074 76.2088 84.6489 81.2105C83.5399 85.8902 81.7656 90.5698 81.7656 95.6951C81.962 97.4084 81.5708 99.1379 80.6565 100.598C79.5475 100.82 79.3257 99.7062 78.4386 99.7062C77.5514 99.7062 80.213 101.935 81.1002 102.826C85.984 107.993 91.5872 112.421 97.7351 115.973C101.728 117.756 105.498 119.762 109.491 121.544C115.92 124.291 122.607 126.381 129.452 127.784L133.667 128.453C135.149 128.861 136.73 128.702 138.103 128.007C142.814 125.628 147.089 122.464 150.745 118.648C153.185 115.751 154.516 111.74 156.512 108.397C158.456 104.785 159.009 100.581 158.065 96.5865C157.621 93.2439 157.399 90.1241 155.181 87.45C152.963 84.776 151.854 81.8791 149.858 79.205C147.862 76.5309 144.757 72.5198 141.873 69.4001C138.631 66.3205 135.225 63.4193 131.67 60.7093C128.343 58.0352 124.795 56.0297 121.246 53.5785L121.024 53.5785ZM64.4652 79.4278C67.5704 87.0044 71.341 93.6895 77.3296 98.592C78.4386 97.9235 78.2167 97.0321 78.2167 96.1408C78.308 93.8162 78.6049 91.5044 79.1039 89.2328L81.1002 81.2105C81.8991 77.3254 83.2434 73.5739 85.0925 70.0686C85.8666 68.8209 86.4638 67.4708 86.8669 66.0575C87.3181 64.3325 88.1522 62.7326 89.3067 61.3778C91.1306 59.1698 92.8336 56.8637 94.4081 54.4698L95.9607 52.4643C97.5133 50.6815 98.8441 48.8988 100.619 47.1161C95.5171 46.8933 90.8593 45.3334 86.4233 45.7791L84.2053 47.7846C80.4969 50.3985 77.2696 53.6409 74.668 57.3667C73.1154 60.2636 70.6756 62.7149 69.7884 66.0575L67.3486 71.6284C66.924 72.2942 66.6935 73.0662 66.6832 73.8568C66.6665 75.9278 65.8747 77.9166 64.4652 79.4278ZM28.5336 82.7704C30.9715 86.2213 33.9708 89.2347 37.4056 91.684C42.7288 95.9179 48.2738 99.7062 53.3752 104.163C54.2293 104.921 55.3413 105.32 56.4804 105.277C61.8036 105.277 66.905 104.832 72.0064 104.609L78.2167 104.609C73.8653 100.251 69.8607 95.5567 66.2396 90.5698C62.469 91.2383 58.6984 91.2383 55.1496 92.1297C53.6941 92.6073 52.1144 92.528 50.7136 91.9068L44.2814 89.2328C42.2406 87.7918 39.8802 86.8738 37.4056 86.5587C37.1838 86.5587 36.962 86.3358 36.7402 86.3358C36.5184 86.3358 33.4132 84.9988 31.8606 83.8846C30.308 82.7704 29.8644 82.3247 28.5336 82.7704ZM154.516 130.458C162.561 130.963 170.563 132.005 178.47 133.578L167.824 110.625C165.828 113.077 165.606 116.642 162.944 118.425C160.283 120.207 161.835 116.642 161.392 115.751C160.948 114.859 163.166 109.511 166.049 107.283L161.835 98.1463C161.392 99.0377 161.835 99.7062 161.835 100.375C162.014 104.397 160.928 108.373 158.73 111.74L156.29 116.196C154.806 119.28 152.69 122.014 150.08 124.219C147.674 125.752 145.443 127.545 143.426 129.567C145.028 129.853 146.673 129.782 148.245 129.359C149.816 128.935 151.276 128.169 152.52 127.115C153.407 127.784 154.072 128.007 154.516 128.675L154.516 130.458ZM63.1344 74.971C63.3541 73.0871 63.7249 71.224 64.2434 69.4001L68.014 61.155L69.7884 58.2581C71.0144 56.9987 72.0595 55.5737 72.8936 54.0241C74.0329 52.2416 75.3725 50.5967 76.886 49.1217C78.3305 48.0684 79.6679 46.8741 80.8783 45.5562C76.8406 46.6889 73.1201 48.7486 70.0102 51.5729C67.7544 53.4257 65.8723 55.6948 64.4652 58.2581C62.7897 61.8397 61.7394 65.6839 61.36 69.6229C61.3076 71.5597 61.9358 73.4532 63.1344 74.971Z" fill="white"/>
<path d="M0.365169 4.55355L0.365169 0.542443L1.03057 0.542443C1.60401 0.228801 2.23928 0.0462032 2.89108 0.00768323C3.54286 -0.0308367 4.19506 0.0756708 4.80116 0.319604L4.80116 0.542443C8.47966 1.74956 11.8231 3.81085 14.5604 6.55911L22.5451 14.5813L25.6503 17.7011L26.3157 18.5924C29.8344 23.2044 34.0212 27.2606 38.7365 30.6258C39.504 31.164 40.4353 31.4143 41.3677 31.3328C42.3001 31.2514 43.1744 30.8434 43.8379 30.1801C43.9981 30.0493 44.1079 29.8665 44.1484 29.6631C44.1889 29.4597 44.1575 29.2485 44.0597 29.0659C44.0277 28.7583 43.9323 28.4607 43.7795 28.1921C43.6268 27.9236 43.4201 27.6899 43.1725 27.506L41.8417 26.8375L39.6237 25.7233C39.1302 25.6467 38.6583 25.4664 38.2389 25.194C37.8196 24.9216 37.4621 24.5634 37.19 24.1428C36.9178 23.7221 36.7371 23.2485 36.6596 22.7529C36.5821 22.2572 36.6096 21.7507 36.7403 21.2665L36.7403 20.8208C37.0922 20.4193 37.5478 20.1234 38.0567 19.9661C38.5657 19.8087 39.108 19.7961 39.6237 19.9295L47.3867 20.8208C50.9355 21.2665 54.7061 21.7122 58.4767 21.935C60.9586 22.2445 63.3409 23.1049 65.4508 24.4538C67.5608 25.8028 69.3455 27.6066 70.6757 29.7344C70.8975 29.9572 71.1193 30.4029 71.5629 30.6258L73.7809 34.6369C74.8409 36.7753 75.301 39.1635 75.1117 41.5449L75.1117 42.8819L76.2207 41.9906L77.1079 41.3221L77.1079 41.0992L83.5401 41.0992C83.32 39.6966 83.32 38.2679 83.5401 36.8653L83.5401 32.1856C75.5553 24.3863 66.9051 17.2554 59.1421 10.7931L58.2549 9.45602L58.2549 8.34183C58.5411 7.06464 59.0681 5.85436 59.8075 4.77639L59.8075 4.55355C60.6023 4.13711 61.4924 3.93844 62.3879 3.97756C63.2835 4.01669 64.153 4.29221 64.9089 4.77639C66.9051 5.89059 69.1231 7.00479 71.1193 8.34183C73.1208 9.51423 75.1952 10.5563 77.3297 11.4616C81.1003 13.4671 84.4273 15.027 87.5325 16.8097C90.6377 18.5924 92.1903 19.261 94.4083 20.3752C96.6263 21.4894 96.6263 21.4894 97.9571 22.1579L99.7314 23.4949C100.33 24.142 101.099 24.6056 101.949 24.8319C102.322 24.9636 102.647 25.2032 102.884 25.5205C103.121 25.8378 103.259 26.2186 103.28 26.6147L103.28 27.0603C104.63 30.526 105.669 34.1056 106.385 37.7566L107.716 43.3276C108.107 43.6039 108.57 43.7588 109.047 43.7733C114.063 45.1278 118.848 47.2311 123.242 50.0128C126.898 52.0271 130.385 54.3375 133.667 56.9208C137.42 59.636 140.978 62.6146 144.313 65.8344C148.588 70.4602 152.447 75.4564 155.847 80.7646L157.178 82.7702L158.952 85.4443C161.354 88.8466 163.504 92.4216 165.384 96.1406L167.159 99.706L170.486 106.614L172.482 110.848L175.809 118.202L178.027 123.104C179.595 126.78 181.527 130.289 183.794 133.578C184.189 134.078 184.423 134.688 184.463 135.325C184.502 135.963 184.346 136.597 184.015 137.143L184.015 137.366C183.575 137.847 183.005 138.187 182.374 138.346C181.743 138.504 181.08 138.473 180.467 138.257L179.136 138.257C177.641 138.046 176.16 137.748 174.7 137.366C168.39 136.202 162.023 135.384 155.625 134.915L154.294 134.915C151.296 134.36 148.247 134.136 145.2 134.246C144.381 134.283 143.56 134.208 142.761 134.023C141.5 134.06 140.238 133.986 138.99 133.8C137.881 133.8 136.55 133.578 135.219 133.578C133.679 133.526 132.167 133.147 130.783 132.463L129.896 132.463L126.791 131.572C124.845 131.504 122.944 130.969 121.246 130.012C118.645 129.611 116.108 128.861 113.705 127.784C111.93 127.115 110.378 126.447 108.825 126.001C108.191 125.916 107.584 125.688 107.051 125.333C106.829 125.11 106.607 124.887 106.385 124.887L105.72 124.887C105.007 124.363 104.161 124.054 103.28 123.995L102.837 123.995L102.393 123.55C101.49 122.536 100.345 121.769 99.066 121.321C97.5236 120.714 96.0389 119.969 94.6301 119.093C93.7445 118.443 92.7743 117.918 91.7467 117.533C89.6494 116.38 87.7108 114.956 85.9799 113.299L84.4273 111.962L83.7619 111.294C82.782 110.408 81.7447 109.589 80.6567 108.842C79.5357 109.32 78.325 109.548 77.1079 109.511L56.4805 109.511C55.3821 109.587 54.28 109.428 53.2475 109.044C52.2151 108.66 51.2757 108.059 50.4919 107.283C47.7513 104.805 44.8625 102.498 41.8417 100.374L36.0749 95.9177C32.402 93.277 29.0519 90.2104 26.0939 86.7813C25.4285 85.8899 24.7631 85.2214 23.8759 85.2214L23.2105 85.2214L23.2105 84.5529C22.9852 83.6988 22.5238 82.9262 21.8797 82.3245L21.4361 81.656L20.9925 81.2103L20.9925 80.7646C21.2714 79.4032 22.067 78.2043 23.2105 77.422C23.6985 77.2005 24.2277 77.086 24.7631 77.086C25.2985 77.086 25.8278 77.2005 26.3157 77.422C27.5358 77.9662 28.7966 78.4132 30.0863 78.7591C32.0888 79.2725 34.0243 80.0204 35.8531 80.9875C36.9004 81.5239 38.0219 81.8995 39.1801 82.1017C40.0673 82.3245 40.7327 82.7702 41.6199 82.993C42.5071 83.2159 44.5033 84.3301 45.6123 84.9986C46.7213 85.6671 48.4957 86.3356 49.8265 86.7813C50.8423 87.3571 51.9872 87.6639 53.1535 87.6727C55.8151 87.227 58.4767 87.0041 61.1383 86.5585L62.6909 86.5585L58.6985 76.7535C57.717 76.9795 56.7533 77.2775 55.8151 77.6449C53.2973 78.432 50.6871 78.8816 48.0521 78.9819C44.6855 79.2142 41.3048 78.8368 38.0711 77.8677L36.5185 77.1992C34.6242 76.7871 32.8204 76.032 31.1953 74.9708C27.1469 72.6446 24.074 68.924 22.5451 64.4974L22.1015 62.9375C21.9003 61.7738 21.5265 60.6471 20.9925 59.5949C20.423 58.7547 20.1565 57.7441 20.2372 56.7309C20.3179 55.7176 20.7409 54.7624 21.4361 54.0239L21.4361 53.5782C22.3469 53.4154 23.2855 53.5426 24.1206 53.9422C24.9558 54.3418 25.6457 54.9936 26.0939 55.8066C27.273 57.3643 28.6963 58.719 30.3081 59.8177L30.7517 60.2634C31.4883 60.6892 32.3156 60.9316 33.1646 60.9703C34.0135 61.0091 34.8593 60.8431 35.6313 60.4862C36.5781 60.1025 37.4161 59.4902 38.0711 58.7035L38.0711 58.035C38.0711 57.8122 37.8493 57.8122 37.4057 57.5893C33.7454 56.9812 30.1711 55.9338 26.7593 54.4696C26.0322 54.1298 25.4166 53.5887 24.9849 52.9097C23.7297 51.6161 22.7484 50.0803 22.1004 48.3951C21.4523 46.7099 21.1509 44.9103 21.2143 43.1048C21.315 40.4135 21.0916 37.7199 20.5489 35.0826L20.1053 32.4085C19.8988 31.2132 19.4455 30.0746 18.7745 29.0659C16.778 26.4984 14.9268 23.8201 13.2296 21.0437C11.9094 18.6421 10.4273 16.334 8.79356 14.1356L7.46275 12.5758L5.24475 9.45602C4.05668 7.70464 2.55197 6.19286 0.808757 4.99923L0.365169 4.55355ZM2.58316 2.10232L2.58316 3.43936C4.22363 4.75297 5.71167 6.24799 7.01916 7.89614L7.90635 9.01034L10.1244 8.11898C10.4133 7.99498 10.7298 7.95026 11.0415 7.98941C11.3533 8.02857 11.6491 8.15018 11.8987 8.34182L12.5642 9.01034L15.6694 11.9073L16.3347 13.2443C17.1668 13.7117 17.9162 14.314 18.5527 15.027L20.9925 17.7011L24.7631 21.4893L25.8721 22.8264C28.5105 26.6738 31.9078 29.9353 35.8531 32.4085L36.7403 33.077C37.607 33.9278 38.676 34.5415 39.8455 34.8597C40.2891 34.8597 41.3981 34.6369 42.2853 34.6369C43.2278 34.6454 44.1556 34.4023 44.974 33.9324C45.7923 33.4626 46.4719 32.7829 46.9431 31.9628C47.3818 31.3032 47.6159 30.5277 47.6159 29.7344C47.6159 28.9411 47.3818 28.1656 46.9431 27.506L46.9431 27.2832C46.5561 26.6819 46.3271 25.9919 46.2777 25.2776L47.1649 25.2776L47.1649 24.1634C48.6576 24.08 50.1542 24.2304 51.6009 24.6091C52.0445 24.8319 52.7099 24.8319 53.3753 25.0548C54.0407 25.2776 54.9279 25.2776 55.8151 25.2776C57.5548 25.2678 59.2822 25.5697 60.9165 26.169C62.883 26.7253 64.7015 27.715 66.2397 29.0659C67.8841 30.8907 69.2994 32.9113 70.4539 35.0826C71.5225 36.477 72.0006 38.2386 71.7847 39.985L71.1193 45.556C70.9307 46.5011 70.534 47.3919 69.9583 48.1631C69.3827 48.9342 68.6426 49.5662 67.7923 50.0128L66.2397 50.9042L66.2397 48.4529L65.7961 43.3276C65.3831 41.7779 64.5712 40.3648 63.442 39.2304C62.3129 38.0959 60.9064 37.2802 59.3639 36.8653C58.9203 36.6424 58.4767 36.8653 58.2549 36.8653L58.2549 37.0881C58.477 37.884 58.5125 38.7207 58.3585 39.5326C58.2046 40.3446 57.8654 41.1096 57.3677 41.7677C56.6739 42.3606 55.8287 42.7466 54.9279 42.8819C54.4843 43.1048 53.8189 43.1048 53.5971 43.5505C53.5499 43.5923 53.5121 43.6437 53.4862 43.7013C53.4603 43.759 53.4469 43.8215 53.4469 43.8847C53.4469 43.9479 53.4603 44.0104 53.4862 44.0681C53.5121 44.1257 53.5499 44.1771 53.5971 44.219C54.6286 44.4873 55.7192 44.409 56.7023 43.9961C58.194 42.9886 59.2915 41.4921 59.8075 39.7622L59.8075 38.648L60.9165 38.648C62.1352 39.1983 63.1531 40.1162 63.8288 41.2743C64.5045 42.4324 64.8045 43.7731 64.6871 45.1103L64.6871 49.1214C64.4186 50.0831 64.4972 51.1092 64.9089 52.0183L64.9089 52.464L64.4653 52.9097C60.7114 58.5202 58.6334 65.0926 58.4767 71.8511L58.4767 72.7424L57.8113 72.7424C46.9431 76.7535 37.8493 75.8622 30.0863 70.2912C28.8422 69.3279 27.807 68.1195 27.0442 66.7401C26.2814 65.3606 25.8071 63.8391 25.6503 62.269L26.5375 61.8233L26.9811 60.9319L27.4247 60.9319L27.4247 61.1548C28.0304 61.8442 28.7907 62.3789 29.6427 62.7146L31.6389 64.2745C32.3043 64.2745 32.9697 64.0517 33.4133 64.0517C34.614 64.1406 35.8202 63.9891 36.9621 63.606C38.4506 62.9789 39.8058 62.0712 40.9545 60.9319C42.0635 59.8177 42.0635 58.4807 41.1763 56.2523C41.0033 55.6572 40.6577 55.1274 40.1836 54.7305C39.7096 54.3336 39.1285 54.0876 38.5147 54.0239C35.2582 53.9739 32.062 53.1329 29.1991 51.5727C28.2855 51.0676 27.4938 50.3665 26.8804 49.5192C26.2671 48.6718 25.8471 47.6991 25.6503 46.6702L25.6503 46.0017C25.3564 44.6107 25.2816 43.182 25.4285 41.7677C25.5726 40.8715 25.4964 39.9536 25.2067 39.0937L25.2067 37.3109L24.0977 32.6313L24.0977 31.0714C23.2151 28.4198 21.7782 25.9885 19.8836 23.9406L19.8836 23.4949C17.9364 20.9514 16.2982 18.1834 15.0039 15.2498L13.6732 15.2498L13.6732 14.1356L13.0077 13.4671C12.2445 12.8363 11.7007 11.9778 11.4551 11.0159L10.1244 10.1245L7.90635 9.01034L9.68075 11.0159C10.3108 11.5009 10.8385 12.1069 11.2334 12.7986C12.9366 14.9951 14.4926 17.3028 15.8912 19.7066C17.4105 22.4215 19.1151 25.0275 20.9925 27.506C22.0658 28.8565 22.7555 30.4735 22.9887 32.1856L23.4323 34.8597C23.9935 37.645 24.2169 40.4883 24.0977 43.3276C24.034 44.8079 24.2772 46.2854 24.8117 47.6664C25.3462 49.0473 26.1605 50.3017 27.2029 51.3498C27.6465 51.7955 27.8683 52.2412 28.3119 52.2412C31.465 53.7766 34.8294 54.8282 38.2929 55.3609C38.8106 55.4439 39.3015 55.6487 39.7255 55.9585C40.1495 56.2683 40.4946 56.6744 40.7327 57.1437C40.9219 57.6225 40.9805 58.1434 40.9025 58.6526C40.8245 59.1618 40.6128 59.641 40.2891 60.0406C39.3931 61.1153 38.2517 61.9563 36.9621 62.4918C35.8389 63.0298 34.5977 63.2712 33.3558 63.1932C32.1139 63.1152 30.9123 62.7204 29.8645 62.0461L29.4209 61.6004C27.611 60.4123 26.0325 58.9019 24.7631 57.1437C23.8759 56.0295 23.4323 55.8066 22.7669 55.8066C22.5412 56.2258 22.4419 56.7019 22.4813 57.1769C22.5207 57.6518 22.697 58.1049 22.9887 58.4807L24.3195 62.269L24.7631 63.8288C26.0015 67.7421 28.7058 71.0184 32.3043 72.9653C33.8735 73.7668 35.5055 74.4376 37.1839 74.9708C37.6275 75.1937 38.2929 75.1937 38.9583 75.4165C41.8054 76.408 44.8279 76.7876 47.8303 76.5307C50.3906 76.4111 52.9251 75.9618 55.3715 75.1936C56.5946 74.7672 57.8581 74.4686 59.1421 74.3023L60.0293 74.3023L66.0179 88.3412L61.3601 89.0097C58.6985 89.4554 56.0369 89.6782 53.3753 90.1239C51.8976 90.1301 50.4443 89.7458 49.1611 89.0097L44.7251 87.0041L40.7327 84.9986L38.5147 84.3301C37.2065 83.9454 35.9426 83.4225 34.7441 82.7702C33.0376 81.9323 31.255 81.2607 29.4209 80.7646L25.6503 79.4276C25.2225 79.278 24.7725 79.2026 24.3195 79.2048C24.0549 79.3415 23.8203 79.5303 23.6297 79.76C23.4392 79.9897 23.2967 80.2556 23.2105 80.5418L24.7631 83.2159C25.81 83.6383 26.7279 84.33 27.4247 85.2214C30.2781 88.5261 33.4754 91.5144 36.9621 94.135L42.9507 98.369C46.0559 100.82 49.1611 103.271 51.8227 105.723C52.4033 106.293 53.1015 106.729 53.8681 106.998C54.6346 107.268 55.4507 107.365 56.2587 107.283L77.1079 107.283C78.1848 107.356 79.2607 107.124 80.2131 106.614L80.8785 106.168L81.3221 106.614C82.6584 107.47 83.9198 108.44 85.0927 109.511L85.9799 110.179L87.3107 111.516C88.9527 113.12 90.8211 114.472 92.8557 115.528L95.7391 117.087C97.0709 117.962 98.4819 118.708 99.9532 119.316C101.376 119.731 102.672 120.497 103.724 121.544C104.802 121.78 105.846 122.155 106.829 122.658L107.273 122.658C107.605 122.719 107.912 122.874 108.16 123.104L109.269 123.773C111.075 124.266 112.852 124.861 114.592 125.555C116.861 126.531 119.247 127.205 121.69 127.561L122.133 127.561L122.133 127.784C123.56 128.591 125.155 129.049 126.791 129.121C127.925 129.313 129.039 129.611 130.118 130.012L131.227 130.012C132.502 130.521 133.85 130.822 135.219 130.904C136.328 130.904 137.659 131.126 138.99 131.126C140.164 131.304 141.352 131.379 142.539 131.349C143.34 131.524 144.159 131.599 144.979 131.572C148.099 131.462 151.221 131.686 154.294 132.241L155.625 132.241C162.111 132.681 168.559 133.574 174.922 134.915L179.358 135.583L180.245 135.583C181.354 135.806 181.797 135.806 182.019 135.583C182.241 135.36 182.241 134.692 182.019 134.469C179.596 131.083 177.585 127.417 176.031 123.55L173.813 118.87L170.264 111.739L168.489 107.728L165.162 100.597L163.388 97.2548C161.582 93.612 159.506 90.111 157.178 86.7813L155.181 84.1072L153.851 82.1017C150.677 76.8224 146.96 71.8929 142.761 67.3943C139.556 64.1845 136.067 61.2755 132.336 58.7035C129.13 56.1231 125.717 53.8126 122.133 51.7955C117.992 49.2427 113.511 47.292 108.825 46.0017C107.733 45.9288 106.706 45.4525 105.942 44.6647L105.942 44.219L104.611 38.2023C104.012 34.6437 103.121 31.1407 101.949 27.7289L101.949 26.8375C100.929 26.5925 100.003 26.0498 99.2878 25.2776L97.7353 24.1634L94.4083 22.3807C91.9685 21.2665 89.7505 20.1523 87.3107 18.8153C84.8709 17.4782 80.2131 15.4727 76.4425 13.4671C72.6719 11.4616 72.2283 11.2387 70.2321 10.1245L64.0217 6.78195C63.2129 6.32755 62.2719 6.16998 61.3601 6.33627C60.8591 7.0054 60.4833 7.76048 60.2511 8.56466L60.2511 9.23318C68.0141 15.6955 76.6643 23.0492 84.8709 30.8486L85.3145 30.8486L85.3145 36.6424C85.0918 38.4181 85.0918 40.2149 85.3145 41.9906L85.3145 43.1048L82.8747 43.1048L81.1003 46.0017C80.4748 47.0502 79.7305 48.0223 78.8823 48.8986L77.5515 50.0128C76.0798 51.3286 74.8748 52.9176 74.0027 54.6924L71.7847 57.5893L70.8975 58.9264L70.2321 59.5949L69.1231 61.6004L66.0179 68.5085L65.3525 69.8455L64.4653 73.1881L64.4653 75.1936L64.0217 77.6449L62.4691 75.6393C61.7575 74.8185 61.2148 73.8642 60.8722 72.8315C60.5295 71.7989 60.3938 70.7083 60.4729 69.6227C60.7449 65.5476 61.7206 61.5512 63.3563 57.8122C64.869 55.1285 66.8182 52.7183 69.1231 50.6813C72.5012 47.9525 76.3299 45.8406 80.4349 44.4418L83.5401 43.3276L77.9951 43.3276C77.9951 43.5504 77.7733 43.5505 77.5515 43.7733C77.0526 44.251 76.4587 44.6172 75.8087 44.8477C75.1588 45.0781 74.4677 45.1676 73.7809 45.1103L72.8937 45.1103L72.8937 41.3221C72.9172 39.2631 72.5405 37.2193 71.7847 35.3054C71.2035 34.0931 70.457 32.9681 69.5667 31.9628L68.9013 30.8486C67.6878 29.051 66.114 27.5278 64.2807 26.3766C62.4473 25.2254 60.3949 24.4716 58.2549 24.1634C54.4843 23.9406 50.7137 23.4949 46.9431 23.0492L39.6237 22.1579L38.9583 22.1579C38.944 22.5048 39.0453 22.8466 39.2462 23.1292C39.4471 23.4117 39.736 23.6188 40.0673 23.7177C41.1191 23.9313 42.1066 24.3892 42.9507 25.0548C43.3943 25.2776 43.6161 25.5005 44.0597 25.5005C44.6592 25.7931 45.1763 26.2319 45.5637 26.7769C45.9511 27.3218 46.1966 27.9555 46.2777 28.6202C46.359 29.2087 46.3224 29.8075 46.1701 30.3815C46.0177 30.9555 45.7527 31.4932 45.3905 31.9628C44.2698 32.9496 42.8519 33.5299 41.3639 33.6107C39.8759 33.6915 38.4039 33.2682 37.1839 32.4085C32.382 28.8093 28.1237 24.5311 24.5413 19.7066L24.0977 19.261L20.9925 16.1412L13.0077 8.11898C10.5191 5.706 7.57902 3.81253 4.35757 2.548L3.91395 2.548C3.51001 2.2994 3.05479 2.14695 2.58316 2.10232ZM49.8265 29.9572C49.7656 31.0506 49.4625 32.1164 48.9393 33.077C48.241 34.1738 47.2941 35.0889 46.1761 35.7474C45.0581 36.4058 43.8008 36.7889 42.5071 36.8653C41.3981 36.8653 40.2891 37.0881 39.6237 37.0881C38.054 36.7153 36.6041 35.9486 35.4095 34.8597L34.5223 34.1912C30.4266 31.5677 26.8846 28.1604 24.0977 24.1634L24.0977 23.9406L23.4323 23.2721C21.993 22.0488 20.6575 20.7071 19.4399 19.261L18.1091 17.7011C18.888 19.298 19.8561 20.7945 20.9925 22.1579L20.9925 22.6035C23.1343 24.7614 24.6655 27.4535 25.4285 30.4029L25.8721 31.9628L26.9811 37.0881L26.9811 38.4251C27.2841 39.6638 27.3592 40.9476 27.2029 42.2134C27.0546 43.3313 27.13 44.4678 27.4247 45.556L27.4247 46.2245C27.5121 46.9451 27.7824 47.6309 28.2096 48.2163C28.6369 48.8016 29.2068 49.2668 29.8645 49.5671C32.5124 51.0648 35.4781 51.9052 38.5147 52.0183C39.6296 52.001 40.7217 52.3358 41.637 52.9755C42.5523 53.6153 43.2446 54.5276 43.6161 55.5838C44.0597 56.9208 45.3905 60.2634 42.7289 62.7146C41.414 64.0746 39.8263 65.138 38.0711 65.8344C36.7327 66.3668 35.2935 66.5951 33.8569 66.5029C33.1107 66.4664 32.3632 66.5415 31.6389 66.7258L30.7517 66.7258C30.188 66.0863 29.5112 65.5574 28.7555 65.1659C29.4069 66.7021 30.4849 68.0173 31.8607 68.9541C38.9583 74.0794 46.7213 74.748 56.7023 71.1825C56.9635 64.442 59.0326 57.8976 62.6909 52.2412C62.4727 51.288 62.4727 50.2975 62.6909 49.3443L62.6909 45.3332C62.7112 43.9514 62.2392 42.6078 61.3601 41.5449C61.0793 42.4526 60.6207 43.2948 60.0113 44.0219C59.4018 44.749 58.6538 45.3464 57.8113 45.7788C57.0076 46.2319 56.1163 46.5062 55.1979 46.5831C54.2795 46.66 53.3554 46.5377 52.4881 46.2245L52.0445 46.2245L52.0445 46.0017C51.5282 45.5358 51.1821 44.9095 51.0615 44.2228C50.9409 43.5362 51.0527 42.8287 51.3791 42.2134L51.3791 41.7677C52.2299 41.3706 53.1228 41.0716 54.0407 40.8764L55.3715 40.2079C55.7892 39.3795 55.8688 38.4202 55.5933 37.5338L55.5933 35.9739L56.0369 35.9739C56.5027 35.4578 57.101 35.0808 57.7663 34.8842C58.4315 34.6876 59.1378 34.6792 59.8075 34.8597C61.7581 35.4046 63.5184 36.4861 64.89 37.9823C66.2616 39.4784 67.19 41.3298 67.5705 43.3276C67.9182 44.5648 68.1411 45.8339 68.2359 47.1159C68.6355 46.6921 68.8714 46.139 68.9013 45.556L69.5667 39.985C69.5861 38.7391 69.2802 37.5098 68.6795 36.4196C67.4353 34.4453 66.0255 32.5816 64.4653 30.8486C63.3213 29.5977 61.8669 28.6748 60.2511 28.1745C58.7372 27.734 57.1694 27.509 55.5933 27.506C54.7061 27.506 53.8189 27.2832 53.1535 27.2832C52.4881 27.2832 51.8227 27.0603 51.1573 26.8375C50.4919 26.6147 49.6047 26.6147 48.9393 26.3918L48.9393 26.6147C49.5427 27.6226 49.8503 28.7813 49.8265 29.9572ZM75.3335 49.1214C73.6111 49.975 72.038 51.1039 70.6757 52.464C68.5166 54.1787 66.7089 56.2976 65.3525 58.7035C63.7165 62.2074 62.739 65.9848 62.4691 69.8455L62.4691 71.1825L63.3563 68.9541L64.0217 67.6171L66.9051 60.7091L68.4577 58.2579L68.9013 57.5893L70.2321 56.2523L72.0065 53.5782C72.8761 51.9266 73.9989 50.4227 75.3335 49.1214ZM26.7593 82.1017L28.3119 81.656C28.9834 81.5382 29.6728 81.5774 30.3268 81.7706C30.9807 81.9639 31.5815 82.3059 32.0825 82.7702L32.5261 82.7702L34.3005 83.4387C35.4948 83.8561 36.6172 84.4575 37.6275 85.2214C39.5266 85.3373 41.3622 85.952 42.9507 87.0041C43.5638 87.2557 44.1569 87.5537 44.7251 87.8955C46.9431 88.7869 48.9393 89.9011 51.1573 90.7924C52.3756 91.2349 53.7096 91.2349 54.9279 90.7924C57.0531 90.3713 59.2007 90.0737 61.3601 89.9011L66.0179 89.2325L66.9051 89.2325L67.3487 89.9011C69.7584 93.4999 72.5065 96.8579 75.5553 99.9288L79.1041 103.94L80.6567 105.723L72.2283 105.723C70.0103 105.945 67.7923 105.945 65.5743 106.168C63.3563 106.391 59.5857 106.391 56.4805 106.391C55.1019 106.432 53.7575 105.955 52.7099 105.054L44.0597 98.1461L36.7403 92.3523L35.4095 91.2381C32.3486 89.1618 29.7132 86.514 27.6465 83.4387L26.7593 82.1017ZM65.7961 91.6838L61.5819 92.3523C59.4959 92.5244 57.422 92.822 55.3715 93.2436C53.6926 93.7324 51.9005 93.6541 50.2701 93.0208C48.0521 92.1294 46.0559 91.2381 43.8379 90.1239C43.2248 89.8723 42.6317 89.5743 42.0635 89.2325C40.6879 88.2827 39.0734 87.7421 37.4057 87.6727C37.1459 87.6821 36.8879 87.6258 36.6554 87.509C36.4229 87.3922 36.2233 87.2186 36.0749 87.0041C35.3279 86.5009 34.5037 86.1245 33.6351 85.8899L31.8607 85.2214C33.3849 86.8164 35.0152 88.3054 36.7403 89.6782L38.0711 90.7924L45.3905 96.3634C48.2739 98.5918 51.3791 100.82 54.0407 103.271C54.3929 103.606 54.8137 103.859 55.2734 104.013C55.7331 104.167 56.2208 104.218 56.7023 104.163C59.5857 104.163 62.4691 103.94 65.5743 103.94C68.6795 103.94 69.7885 103.717 72.0065 103.494L75.7771 103.494L73.7809 101.489C70.8696 98.4339 68.1999 95.1557 65.7961 91.6838ZM62.9127 9.01034L63.7999 8.56466C64.0217 8.56466 64.9089 8.11899 65.5743 8.7875L65.5743 9.01034C67.1269 9.67886 68.9013 10.1245 69.7885 12.1301C72.4215 12.5022 74.9296 13.4949 77.1079 15.027L83.5401 18.3696L89.9723 21.7122C90.9364 22.364 91.98 22.8882 93.0775 23.2721C94.8497 24.1041 96.5553 25.0726 98.1788 26.169C99.6509 27.2932 100.737 28.8514 101.284 30.6258L101.728 31.9628L102.837 37.7566C103.023 39.2823 103.395 40.7792 103.946 42.2134L104.389 43.7733L103.502 44.219C101.415 44.8597 99.1962 44.9366 97.0699 44.4418C95.6058 44.1719 94.1221 44.0229 92.6339 43.9961C90.9007 43.9362 89.184 43.6362 87.5325 43.1048L86.8671 43.1048L86.8671 40.2079C86.5009 37.6887 86.5759 35.1245 87.0889 32.6313C87.3107 31.74 87.0889 31.2943 86.2017 30.4029L83.5401 27.9517L80.8785 25.7233C78.6605 23.2721 76.2207 21.2665 73.7809 19.0381L71.5629 17.0326L69.5667 15.4727C68.9483 15.1335 68.4749 14.5787 68.2359 13.9128C66.6596 13.345 65.2755 12.3407 64.2435 11.0159C63.7999 10.7931 63.3563 10.5702 63.3563 10.1245L62.9127 9.01034ZM101.949 42.4363C101.27 40.9673 100.893 39.3756 100.84 37.7566C100.706 36.0052 100.333 34.2806 99.7314 32.6313L99.2878 31.0714C98.9392 29.8006 98.1533 28.6952 97.0699 27.9517C95.5661 26.9771 94.0112 26.0844 92.4121 25.2776C91.2624 24.85 90.1497 24.3283 89.0851 23.7177C87.0608 22.3847 84.9054 21.2646 82.6529 20.3752L76.2207 16.8097C75.0839 16.1269 73.8976 15.531 72.6719 15.027C72.6719 15.0861 72.6952 15.1428 72.7368 15.1846C72.7784 15.2264 72.8349 15.2498 72.8937 15.2498L75.3335 17.4782C77.8585 19.5296 80.2307 21.764 82.4311 24.1634L84.8709 26.169C85.935 26.9413 86.903 27.8391 87.7543 28.8431C88.3841 29.3299 88.864 29.9858 89.1387 30.7349C89.4134 31.4841 89.4717 32.296 89.3069 33.077C88.8964 35.4313 88.8218 37.8324 89.0851 40.2079L89.0851 41.3221C90.4159 41.5449 91.5249 41.5449 92.8557 41.7677C94.5775 41.771 96.2919 41.9957 97.957 42.4363C99.2785 42.6607 100.628 42.6607 101.949 42.4363ZM63.3563 79.4276L63.3563 78.7591C64.5871 77.4194 65.2958 75.6788 65.3525 73.8566C65.3355 72.8896 65.6486 71.9459 66.2397 71.1825L68.4577 65.6116C69.2092 63.4265 70.3351 61.3903 71.7847 59.5949C72.5027 58.7135 73.0996 57.7392 73.5591 56.698C75.8371 53.2617 78.6884 50.2462 81.9875 47.7844L83.0965 46.893L84.6491 45.556L85.7581 44.8875L85.7581 44.6647C88.6574 44.5543 91.5598 44.7786 94.4083 45.3332L100.175 46.0017L102.393 46.0017L99.5096 49.3443L96.4045 53.1325C95.7555 53.687 95.227 54.3697 94.8518 55.1381C93.5539 57.272 92.0694 59.2855 90.4159 61.1548L89.7505 62.0461C88.7553 63.3065 88.0031 64.7424 87.5325 66.2801C87.2173 67.724 86.6137 69.0886 85.7581 70.2912L85.7581 70.7369C84.2891 73.4814 83.1713 76.4015 82.4311 79.4276L81.9875 81.656L81.5439 82.7702L79.9913 89.4554L79.5477 91.6838C79.1902 93.1407 79.0408 94.6413 79.1041 96.1406C79.1591 96.9819 79.0068 97.8238 78.6605 98.5918L79.7695 99.2603C80.1629 98.1158 80.314 96.9014 80.2131 95.6949C80.4275 91.9864 81.098 88.3188 82.2093 84.7757L83.0965 80.9875C84.0213 77.4564 85.2841 74.0235 86.8671 70.7369L88.8633 66.2801C89.5669 64.6913 90.4607 63.1947 91.5249 61.8233L92.8557 60.2634L93.2993 59.5949L98.4007 52.464C100.29 50.3925 102.454 48.5928 104.833 47.1159L105.276 47.1159C110.632 47.7738 115.779 49.5991 120.359 52.464L121.246 53.1325L124.351 55.1381C127.149 56.5376 129.82 58.1779 132.336 60.0406L135.663 62.4918C138.112 64.3901 140.411 66.4762 142.539 68.7313C144.937 71.1706 147.16 73.7769 149.193 76.5307L150.745 78.5362L153.407 82.5473L156.069 86.7813C157.941 89.3036 159.022 92.3294 159.174 95.472L159.174 96.3634C160.193 100.671 159.56 105.206 157.399 109.065L155.403 112.631C154.458 115.07 153.108 117.33 151.411 119.316C147.733 123.322 143.377 126.642 138.546 129.121C136.941 129.828 135.148 129.985 133.445 129.566C132.78 129.344 131.892 129.344 131.227 129.121C130.554 129.156 129.88 129.081 129.231 128.898C122.321 127.465 115.563 125.376 109.047 122.658L100.84 118.647L97.2916 116.865C90.9613 113.297 85.2035 108.789 80.2131 103.494C80.2131 103.271 79.7695 103.049 79.5477 103.049C78.5879 102.325 77.8874 101.309 77.5515 100.152L76.8861 99.4832C70.9497 94.1582 66.4484 87.4129 63.7999 79.8733L63.3563 79.4276ZM67.7923 73.8566C67.7453 75.9499 67.0472 77.9759 65.7961 79.6504C68.2255 86.1564 72.0933 92.0234 77.1079 96.8091L77.1079 96.3634C77.0258 94.6427 77.175 92.9187 77.5515 91.2381L77.9951 89.0097L79.7695 82.1017L79.7695 80.9875L80.4349 78.7591C81.0106 75.5435 82.1363 72.4524 83.7619 69.6227L83.7619 69.177C84.4571 68.1552 84.9816 67.0261 85.3145 65.8344C85.9253 63.9949 86.8238 62.2648 87.9761 60.7091L88.6415 59.8177C90.2401 58.0367 91.6523 56.0952 92.8557 54.0239C93.3209 53.188 93.9204 52.435 94.6301 51.7955L97.7353 48.0072C96.4917 47.7614 95.2311 47.6124 93.9647 47.5616C91.4145 47.0168 88.8069 46.7922 86.2017 46.893L85.5363 47.3387L84.2055 48.4529L83.0965 49.5671C80.1911 51.8596 77.713 54.6511 75.7771 57.8122L73.7809 60.9319C72.4575 62.5291 71.4081 64.3365 70.6757 66.2801C70.1896 68.3345 69.3649 70.2928 68.2359 72.0739C67.9446 72.6226 67.7923 73.2348 67.7923 73.8566ZM106.164 49.1214C104.072 50.4548 102.201 52.109 100.619 54.0239C98.7428 56.1905 97.0372 58.5001 95.5173 60.9319L95.0737 61.6004L93.7429 63.1603L91.3031 66.9486L89.3069 71.8511C87.7638 74.8985 86.5731 78.1135 85.7581 81.4331L84.6491 85.4443C83.6291 88.7721 83.0329 92.2164 82.8747 95.6949C83.1081 97.652 82.636 99.6284 81.5439 101.266L81.5439 101.489L81.9875 101.934C87.0889 106.614 91.9685 111.739 98.6224 114.859L101.949 116.642C104.611 117.979 107.273 119.316 110.156 120.43C116.483 123.245 123.105 125.338 129.896 126.67C130.562 126.892 131.227 126.892 131.892 127.115C132.639 127.079 133.386 127.154 134.11 127.338C135.276 127.738 136.552 127.658 137.659 127.115C142.381 124.863 146.605 121.68 150.08 117.756C151.519 115.953 152.643 113.919 153.407 111.739L155.403 107.951C157.347 104.583 157.904 100.584 156.956 96.8091L156.956 95.6949C156.742 92.9792 155.825 90.367 154.294 88.1183L151.411 83.8844C150.73 82.4706 149.913 81.1271 148.971 79.8733L147.418 77.8677L140.986 70.2912C138.906 68.0537 136.602 66.0375 134.11 64.2745L130.783 61.6004C128.622 59.7891 126.323 58.15 123.908 56.698L120.581 54.4696L120.137 54.4696C115.892 51.7454 111.137 49.9251 106.164 49.1214ZM141.43 130.235L142.539 128.898C143.93 127.382 145.493 126.036 147.197 124.887L149.415 123.327C151.956 121.344 153.943 118.734 155.181 115.75C155.788 114.414 156.531 113.144 157.399 111.962L157.843 111.071C159.87 107.885 160.876 104.152 160.726 100.375L160.726 99.9288C160.588 99.1799 160.665 98.407 160.948 97.7004L162.057 95.9177L162.944 97.7004L166.271 104.163L167.159 106.837L167.602 107.728L166.715 108.174C165.002 109.722 163.77 111.734 163.166 113.968L162.723 115.75L162.723 116.196L163.166 116.865C163.933 115.854 164.532 114.725 164.941 113.522C165.435 112.245 166.107 111.044 166.937 109.957L168.046 108.397L180.245 135.137L178.249 134.692C170.415 133.128 162.487 132.086 154.516 131.572L153.407 131.572L153.407 129.121L152.52 128.452C151.21 129.46 149.703 130.179 148.098 130.563C146.493 130.947 144.826 130.987 143.204 130.681L141.43 130.235ZM162.944 102.826C162.657 106.148 161.593 109.354 159.839 112.185L159.174 113.076L157.178 116.642C155.78 119.903 153.564 122.745 150.745 124.887C150.029 125.605 149.206 126.206 148.306 126.67L145.866 128.675C148.063 128.487 150.152 127.633 151.854 126.224L152.52 125.778L153.629 126.447C154.379 126.857 154.995 127.476 155.403 128.229L155.403 129.344C162.399 129.82 169.361 130.713 176.252 132.018L167.38 112.854L166.715 114.413C166.165 116.367 164.997 118.087 163.388 119.316L162.723 119.762L162.057 119.316C161.651 119.03 161.304 118.666 161.038 118.246C160.771 117.825 160.59 117.356 160.505 116.865L160.505 115.305L161.17 113.299C161.821 110.957 163.041 108.813 164.719 107.06L164.053 105.277L162.944 102.826Z" fill="white"/>
<path d="M149.637 54.9155C147.621 54.2632 145.845 53.0219 144.535 51.3501C141.455 48.6544 137.819 46.6759 133.889 45.5563C132.669 45.0122 131.408 44.5651 130.118 44.2193C129.61 44.0391 129.169 43.7083 128.852 43.2706C128.535 42.8329 128.358 42.309 128.344 41.768C130.562 40.2081 132.78 42.2137 134.998 42.2137C137.216 42.2137 134.111 41.0995 135.22 39.9853C136.329 38.8711 140.986 41.0995 143.648 42.2137C143.86 42.6127 143.932 43.0719 143.851 43.5169C143.771 43.9619 143.543 44.3665 143.204 44.6649C142.095 44.8878 141.208 44.2193 139.877 44.2193C138.547 44.2193 142.539 45.3335 143.648 46.4476C144.757 47.5618 145.644 48.2304 146.975 49.1217L149.193 51.1273C150.746 52.6872 150.746 52.6872 149.637 54.9155Z" fill="white"/>
<path d="M127.235 41.0996L127.679 41.0996C128.483 40.6352 129.387 40.3724 130.313 40.3336C131.24 40.2948 132.162 40.4811 133.002 40.8768C133.224 40.8768 133.446 41.0996 133.668 41.0996C133.697 40.5167 133.933 39.9635 134.333 39.5398L134.333 39.0941C135.579 38.7998 136.872 38.7666 138.131 38.9967C139.391 39.2267 140.589 39.715 141.652 40.4311C142.274 40.8187 142.946 41.1186 143.648 41.3225L144.536 41.3225L144.536 41.7682C144.809 42.358 144.891 43.0187 144.772 43.658C144.652 44.2973 144.337 44.8831 143.87 45.3336L143.87 45.5564L146.975 48.2305C147.866 48.708 148.627 49.3964 149.193 50.2361L149.637 50.2361C151.411 52.2416 151.411 52.6873 150.081 55.1385L149.637 55.807L148.75 55.807C146.842 55.1775 145.151 54.0187 143.87 52.4645L143.205 51.7959C140.447 49.3921 137.188 47.6406 133.668 46.6706L131.893 46.0021C131.188 45.6778 130.442 45.4528 129.675 45.3336C128.987 45.0146 128.397 44.5151 127.968 43.8876C127.538 43.2602 127.285 42.528 127.235 41.7682L127.235 41.0996ZM136.329 41.7682C136.287 42.2833 136.049 42.7623 135.664 43.1052L134.777 43.1052C133.916 43.1249 133.068 42.8926 132.337 42.4367C131.228 41.991 130.341 41.7682 129.675 42.2138C129.01 42.6595 130.119 42.8824 130.341 42.8824C131.127 43.0426 131.879 43.3446 132.559 43.7737L134.333 44.4422C138.347 45.5169 142.065 47.4985 145.201 50.2361L145.866 50.9046C146.774 51.9355 147.819 52.8353 148.972 53.5786L148.972 52.9101L148.084 52.0188L148.084 51.5731L146.31 50.0132C145.058 49.2273 143.935 48.2499 142.983 47.1163C142.421 46.9055 141.897 46.6045 141.43 46.2249C140.65 45.9435 139.905 45.5695 139.213 45.1107L136.329 42.8824L139.878 42.8824C140.543 42.8824 141.209 43.1052 141.652 43.1052C141.993 43.2853 142.378 43.3627 142.761 43.328L142.761 42.8824C142.096 42.6595 141.652 42.2138 140.987 41.991C139.541 41.0403 137.833 40.5724 136.107 40.654L136.329 41.7682Z" fill="white"/>
<path d="M64.0213 113.968C64.9085 116.642 64.6867 117.088 62.2469 117.088C59.8071 117.088 55.1493 117.088 51.6005 116.865C49.1894 116.563 46.8566 115.807 44.7247 114.636C43.3939 113.968 43.1721 112.408 42.2849 111.739C41.3977 111.071 43.6157 110.625 44.5029 110.402L47.1645 111.962C49.0892 113.155 51.3421 113.702 53.5967 113.522C57.0774 113.452 60.559 113.601 64.0213 113.968Z" fill="white"/>
<path d="M40.9544 112.185L40.9544 111.294C41.398 109.734 42.7288 109.511 43.616 109.288L44.725 109.288L45.1686 109.734L46.0558 110.179C46.4761 110.671 47.0088 111.054 47.6084 111.294C49.465 112.227 51.5218 112.686 53.597 112.631C56.0385 112.482 58.4883 112.557 60.9164 112.854C61.9562 112.825 62.9964 112.899 64.0216 113.076L64.687 113.076L64.687 113.522C65.0522 114.078 65.2651 114.721 65.304 115.386C65.343 116.051 65.2066 116.715 64.9088 117.31C64.2434 118.202 63.1344 118.202 62.0254 118.202C60.9164 118.202 54.9278 118.202 51.379 117.979C49.0957 117.896 46.8755 117.204 44.9468 115.973L43.8378 115.528C43.0226 115.099 42.3915 114.386 42.0634 113.522L41.398 112.631L40.9544 112.185ZM44.2814 111.516C44.0596 111.516 44.0596 111.516 43.8378 111.739L44.2814 112.408C44.5313 112.883 44.9177 113.271 45.3904 113.522L46.2776 113.968C47.9627 114.987 49.8614 115.598 51.8226 115.75C55.5932 115.973 59.142 115.973 62.469 115.973C65.796 115.973 63.578 115.973 63.7998 115.75C64.0216 115.528 63.578 115.75 63.3562 114.859L60.9164 114.859C58.6367 114.565 56.3343 114.491 54.0406 114.636C51.5774 114.776 49.123 114.237 46.943 113.076C46.2443 112.683 45.5769 112.236 44.9468 111.739C44.5032 111.739 44.5032 111.516 44.2814 111.516Z" fill="white"/>
<path d="M56.7024 120.875C57.5896 121.989 57.146 122.881 56.4806 123.772C54.0474 124.142 51.5677 124.066 49.1612 123.549C48.755 123.591 48.3458 123.506 47.9889 123.307C47.6319 123.108 47.3444 122.804 47.165 122.435C46.9432 121.544 46.056 121.321 45.3906 120.652C45.6327 120.126 46.0692 119.716 46.6075 119.508C47.1458 119.3 47.7435 119.311 48.274 119.538C50.4264 120.232 52.6679 120.607 54.928 120.652C55.5934 120.652 56.037 120.875 56.7024 120.875Z" fill="white"/>
<path d="M43.8373 121.098L44.2809 120.207C44.6667 119.408 45.3352 118.783 46.1556 118.453C46.976 118.124 47.8893 118.113 48.7169 118.424C50.6292 119.158 52.6585 119.535 54.7055 119.538C55.1491 119.538 55.8145 119.761 56.0363 119.761L56.9235 119.761L56.9235 120.207C57.41 120.804 57.6758 121.552 57.6758 122.324C57.6758 123.096 57.41 123.844 56.9235 124.441L56.9235 124.887L55.3709 124.887C53.1542 125.146 50.9115 125.071 48.7169 124.664C48.1215 124.653 47.5398 124.482 47.0326 124.168C46.5254 123.855 46.1113 123.41 45.8335 122.881C45.8335 122.658 45.3899 122.435 44.9463 121.99C44.888 121.99 44.8304 121.978 44.7765 121.956C44.7227 121.933 44.6738 121.901 44.6326 121.859C44.5914 121.818 44.5588 121.769 44.5365 121.715C44.5142 121.66 44.5027 121.603 44.5027 121.544L43.8373 121.098ZM56.0363 121.99C55.6891 121.829 55.3092 121.753 54.9273 121.767L54.4837 121.767C52.2134 121.644 49.9725 121.193 47.8297 120.43C47.517 120.396 47.2027 120.475 46.9425 120.653C47.5334 120.921 48.0066 121.396 48.2733 121.99C48.2733 122.212 48.4951 122.435 49.1605 122.435C51.2802 122.844 53.4501 122.919 55.5927 122.658L55.5927 121.99L56.0363 121.99Z" fill="white"/>
<path d="M140.764 104.386C141.18 104.307 141.61 104.348 142.003 104.506C142.396 104.664 142.736 104.932 142.982 105.277C142.862 106.591 142.413 107.852 141.676 108.943C140.939 110.034 139.938 110.92 138.768 111.517C136.579 112.599 134.271 113.421 131.892 113.968C127.957 115.011 123.81 114.933 119.915 113.745C118.563 113.555 117.228 113.257 115.923 112.854C112.677 111.534 109.734 109.563 107.273 107.06C106.254 105.861 105.43 104.507 104.833 103.049C102.372 98.3195 101.74 92.8428 103.058 87.6731C103.623 85.1309 105.13 82.9 107.273 81.4336C111.064 78.7041 115.498 77.0144 120.137 76.5311C127.678 75.1941 133.667 78.091 139.212 82.7706C140.264 83.6876 141.097 84.8298 141.652 86.1132C142.095 87.4503 142.095 87.6731 140.321 88.7873C139.275 88.3514 138.412 87.5636 137.881 86.5589C137.09 84.8234 135.658 83.465 133.889 82.7706C131.665 81.4848 129.277 80.5101 126.791 79.8737C121.024 78.7595 115.923 80.7651 110.821 83.4392C105.72 86.1132 105.942 88.5645 105.72 92.7984C105.616 95.6007 106.163 98.3889 107.318 100.942C108.473 103.495 110.204 105.742 112.374 107.506C112.933 107.927 113.527 108.299 114.148 108.62C118.982 110.653 124.23 111.493 129.453 111.071C130.472 111.017 131.462 110.711 132.336 110.18C132.869 109.825 133.476 109.596 134.11 109.511C135.374 109.184 136.558 108.6 137.588 107.796C138.618 106.991 139.473 105.982 140.099 104.832C140.099 104.609 140.543 104.386 140.764 104.386Z" fill="white"/>
<path d="M101.284 92.5752C101.287 90.7719 101.511 88.9758 101.949 87.2271C102.241 85.8563 102.803 84.5583 103.603 83.41C104.404 82.2616 105.425 81.2864 106.607 80.5419C110.559 77.7663 115.129 76.0065 119.915 75.4166C126.791 74.0795 133.445 76.3079 139.877 81.8789C141.089 82.9272 142.071 84.2172 142.76 85.6672C143.426 87.8956 142.76 88.5641 140.986 89.6783L139.877 89.6783C138.608 89.0813 137.588 88.0562 136.994 86.7814C136.3 85.3689 135.117 84.2595 133.667 83.6616L133.223 83.6616C131.212 82.3192 128.947 81.4088 126.569 80.9876C121.468 79.8734 116.81 81.6561 111.265 84.3302C105.72 87.0042 107.051 89.0098 106.829 92.7981C106.82 95.4133 107.369 98.0001 108.441 100.384C109.512 102.767 111.08 104.892 113.039 106.614C113.473 107.04 114.007 107.346 114.592 107.505C119.268 109.544 124.373 110.386 129.452 109.957C130.234 109.916 130.995 109.687 131.67 109.288L132.114 108.843C132.583 108.559 133.119 108.405 133.667 108.397C134.809 108.127 135.878 107.608 136.798 106.877C137.718 106.145 138.467 105.218 138.99 104.163L139.655 103.494L139.655 103.272L140.099 103.272C140.72 103.2 141.35 103.284 141.93 103.518C142.511 103.751 143.025 104.126 143.426 104.609L143.426 105.5C143.309 106.957 142.819 108.36 142.003 109.57C141.186 110.781 140.072 111.758 138.768 112.408C137.067 113.378 135.286 114.198 133.445 114.859L132.114 114.859C128.027 115.894 123.74 115.817 119.693 114.636C118.264 114.469 116.854 114.171 115.479 113.745C112.428 112.633 109.689 110.799 107.494 108.397L106.607 107.728C105.496 106.555 104.596 105.198 103.945 103.717L103.945 103.272C102.334 99.9283 101.428 96.2868 101.284 92.5752ZM140.764 87.0042L140.764 86.5586C140.369 85.431 139.679 84.4306 138.768 83.6616C132.558 78.3135 126.791 76.5308 120.58 77.4221C116.051 78.0718 111.727 79.7482 107.938 82.3246C105.953 83.6065 104.526 85.5976 103.945 87.8956C102.918 92.8832 103.623 98.0738 105.942 102.603L105.942 103.049C106.31 104.201 106.915 105.264 107.716 106.168L108.603 107.06C110.608 109.219 113.127 110.829 115.923 111.739C117.159 112.117 118.419 112.415 119.693 112.631C123.436 113.769 127.408 113.922 131.227 113.076L132.558 112.631C134.44 112.061 136.291 111.392 138.103 110.625C139.878 109.52 141.152 107.76 141.651 105.723C141.38 105.572 141.074 105.495 140.764 105.5C140.056 106.804 139.074 107.937 137.887 108.822C136.7 109.707 135.336 110.322 133.888 110.625C133.667 110.625 133.445 110.848 133.223 110.848L132.558 111.294L132.114 111.294C131.318 111.815 130.401 112.122 129.452 112.185C123.99 112.647 118.5 111.728 113.483 109.511C112.633 109.285 111.864 108.821 111.265 108.174C109.105 106.255 107.391 103.884 106.241 101.227C105.091 98.5708 104.535 95.6937 104.611 92.7981C104.833 89.0098 105.498 84.7758 110.378 82.3246C115.257 79.8734 120.58 77.4221 127.013 78.7592C129.582 79.3552 132.048 80.3315 134.332 81.6561L134.776 82.1018C136.62 82.8783 138.118 84.3047 138.99 86.1129C139.257 86.7065 139.73 87.1819 140.321 87.4499C140.542 87.2271 140.764 87.2271 140.764 87.0042Z" fill="white"/>
<path d="M135.885 97.0314C135.129 99.0797 134.001 100.969 132.558 102.602C131.576 103.79 130.359 104.76 128.985 105.451C127.61 106.141 126.108 106.537 124.573 106.614C121.171 106.565 117.917 105.209 115.479 102.825C113.981 101.27 112.911 99.3504 112.374 97.2543C111.265 93.0203 114.37 88.3407 117.254 86.558C118.595 85.8133 120.073 85.3503 121.598 85.197C123.124 85.0438 124.664 85.2036 126.126 85.6666C127.418 85.9034 128.682 86.2769 129.896 86.7808C131.045 87.3261 132.07 88.1016 132.909 89.0597C133.748 90.0177 134.383 91.138 134.776 92.3518C135.455 93.8208 135.832 95.4125 135.885 97.0314ZM133.667 97.4771C133.338 95.2723 132.585 93.1529 131.449 91.2376C130.936 90.3528 130.16 89.6515 129.231 89.2321C127.094 88.4461 124.85 87.9952 122.577 87.895C120.515 87.9118 118.536 88.7073 117.032 90.1234C115.999 91.2407 115.304 92.6306 115.029 94.1304C114.754 95.6301 114.91 97.1776 115.479 98.5913C117.697 102.825 121.468 103.939 125.682 103.939C125.904 103.939 126.126 103.717 126.347 103.717C128.73 102.724 130.745 101.01 132.114 98.8142C132.521 98.2531 133.053 97.7952 133.667 97.4771Z" fill="white"/>
<path d="M111.044 95.4715C111.119 93.5105 111.662 91.5964 112.627 89.8902C113.592 88.184 114.951 86.7355 116.589 85.6665C118.059 84.8361 119.68 84.3097 121.356 84.1183C123.032 83.927 124.729 84.0745 126.348 84.5523C127.737 84.7962 129.083 85.2469 130.34 85.8894C131.634 86.4431 132.797 87.2654 133.753 88.3022C134.708 89.3391 135.435 90.5672 135.885 91.906C136.524 93.4667 136.899 95.1237 136.994 96.8085L136.994 97.477L136.329 98.8141C135.578 100.427 134.608 101.927 133.445 103.271C131.17 105.85 127.992 107.446 124.573 107.728C120.924 107.722 117.421 106.283 114.814 103.717C113.096 101.994 111.87 99.839 111.265 97.477L111.044 95.4715ZM134.776 96.8085C134.588 95.3554 134.215 93.9325 133.667 92.5745C133.354 91.5292 132.814 90.5669 132.085 89.7575C131.356 88.948 130.457 88.3118 129.453 87.8949C128.379 87.424 127.266 87.0511 126.126 86.7807C123.339 85.8767 120.309 86.117 117.698 87.4492C115.48 89.0091 112.374 93.2431 113.483 97.0313C113.948 98.9771 114.947 100.753 116.367 102.157C118.645 104.317 121.663 105.514 124.795 105.499C127.563 105.217 130.11 103.857 131.893 101.711C132.685 100.758 133.355 99.7104 133.889 98.5912C133.495 98.7699 133.18 99.0868 133.002 99.4826C131.476 101.765 129.316 103.547 126.791 104.608C126.448 104.815 126.073 104.965 125.682 105.054C121.69 105.054 117.032 104.385 114.592 99.2597C113.824 97.6617 113.56 95.8655 113.838 94.1126C114.115 92.3597 114.921 90.7343 116.145 89.4548C116.982 88.5964 117.984 87.917 119.089 87.4575C120.194 86.9979 121.381 86.7677 122.577 86.7807C124.385 86.8229 126.177 87.123 127.9 87.6721L129.453 88.3406C130.058 88.4987 130.625 88.7775 131.12 89.1603C131.615 89.5431 132.029 90.0222 132.336 90.569L132.336 91.0147C133.471 92.8497 134.226 94.8962 134.554 97.0313L134.776 96.8085ZM132.558 96.8085C132.22 95.1274 131.54 93.5343 130.562 92.1289L130.562 91.6832C130.295 91.0896 129.822 90.6141 129.231 90.3461C128.619 90.3016 128.018 90.1508 127.457 89.9005C125.958 89.3689 124.387 89.0684 122.799 89.0091C121.891 88.9781 120.986 89.1408 120.145 89.4865C119.304 89.8322 118.546 90.353 117.919 91.0147C117.049 91.9576 116.479 93.1398 116.282 94.4101C116.084 95.6803 116.268 96.9809 116.81 98.1455C118.363 101.265 121.025 102.825 125.904 102.825L125.904 102.602C128.03 101.705 129.87 100.241 131.227 98.3684C131.466 97.7025 131.94 97.1476 132.558 96.8085Z" fill="white"/>
<path d="M142.539 92.1298C142.977 91.9329 143.464 91.8701 143.937 91.9494C144.41 92.0286 144.85 92.2464 145.201 92.5755C145.423 95.2496 146.975 98.1465 145.866 100.821C145.331 100.943 144.777 100.946 144.24 100.831C143.704 100.715 143.199 100.484 142.761 100.152C142.983 97.478 141.874 94.8039 142.539 92.1298Z" fill="white"/>
<path d="M141.209 93.9117L141.209 91.2376L141.653 91.2376C142.279 90.9752 142.967 90.8987 143.635 91.0171C144.304 91.1356 144.924 91.4441 145.423 91.9061L145.867 91.9061L145.867 92.5746L146.31 95.2487C146.944 97.1938 147.021 99.2786 146.532 101.265L146.532 101.711L146.089 101.711C145.535 101.884 144.951 101.934 144.376 101.857C143.802 101.78 143.251 101.578 142.762 101.265C142.54 101.265 142.318 101.043 142.096 101.043L141.209 100.597L141.209 93.9117ZM143.427 93.0203L143.427 99.4827L144.314 99.9284C144.828 98.5753 144.906 97.0942 144.536 95.6944L144.092 93.2432C144.002 93.1625 143.897 93.1012 143.782 93.0629C143.668 93.0246 143.547 93.0101 143.427 93.0203Z" fill="white"/>
<path d="M121.246 53.5781C121.246 53.6372 121.223 53.6939 121.181 53.7357C121.14 53.7775 121.083 53.801 121.024 53.801L121.024 53.5781L121.246 53.5781Z" fill="white"/>
<path d="M119.915 53.8013C119.915 53.3556 119.915 52.9099 120.359 52.6871L121.246 52.0186L122.799 53.5784L121.912 54.4698L121.912 54.9155L120.137 54.9155L120.137 54.0241L119.915 53.8013ZM121.246 53.5784L121.69 54.4698L121.69 54.2469L121.024 53.5784L121.69 54.2469L121.69 53.3556L121.246 53.5784Z" fill="white"/>
<path d="M36.5189 41.3223C38.0033 41.7451 39.3698 42.5078 40.5113 43.5507C43.6165 50.4587 49.6051 52.6871 56.2591 53.8013C56.562 54.2907 56.6836 54.8717 56.6024 55.4423C56.5213 56.0128 56.2427 56.5364 55.8155 56.921L52.7103 60.9321L51.3795 62.7148C51.3795 63.6062 52.2667 64.9432 50.9359 65.8346C49.6051 66.726 47.8307 66.2803 45.8345 64.0519C43.8383 61.8235 49.8269 59.5951 51.3795 56.921C52.9321 54.247 51.1577 56.0297 50.7141 56.0297C47.2957 55.0149 44.1746 53.1794 41.6203 50.6815L36.2971 45.1105C35.1881 43.7735 35.1881 43.3278 36.5189 41.3223Z" fill="white"/>
<path d="M34.301 43.5508C34.4107 42.4631 34.8791 41.4434 35.6318 40.6539L36.0754 39.9854L36.7408 39.9854C38.1932 40.3751 39.5515 41.0574 40.7332 41.9909L41.3986 42.4366L41.3986 42.8823C44.282 49.1218 49.1616 51.1273 56.481 52.4644L56.9246 52.4644L56.9246 53.3557C57.3688 54.0377 57.567 54.8519 57.4863 55.6628C57.4056 56.4738 57.0508 57.2324 56.481 57.8125L55.372 59.1495L53.3758 61.6008L52.2668 62.9378L52.2668 63.3835C52.4101 63.9891 52.3822 64.6229 52.1862 65.2135C51.9903 65.8041 51.6341 66.3279 51.1578 66.7261L50.7142 66.7261C47.8308 67.3946 46.9436 67.1718 44.7256 64.4977L44.282 64.052L44.282 63.6063C44.9393 61.705 46.0875 60.0132 47.609 58.7039L49.3834 56.6983C45.9217 55.6321 42.7396 53.8053 40.0678 51.3502L34.7446 45.5563C34.4351 44.9345 34.2828 44.2458 34.301 43.5508ZM36.9626 42.6594C36.519 43.5508 36.519 43.5508 37.1844 44.4421L42.2858 50.0131C44.7928 52.2419 47.7407 53.9127 50.936 54.9156C51.3497 55.0086 51.7231 55.2315 52.0022 55.5521C52.2814 55.8726 52.4517 56.274 52.4886 56.6983L52.4886 57.3668C51.7139 58.4985 50.8217 59.5443 49.827 60.4866C48.758 61.4415 47.858 62.5717 47.1654 63.8292C48.4962 65.1662 48.718 65.1662 50.4924 64.9434L50.4924 62.2693C50.7442 61.4907 51.2047 60.7968 51.8232 60.2637L53.8194 57.8125L54.9284 56.2526C55.5938 55.8069 55.5938 55.3613 55.372 54.9156C49.3834 53.5786 42.9512 51.573 39.6242 44.2193L39.6242 43.9965L36.9626 42.6594Z" fill="white"/>
<path d="M45.8343 45.3325C45.5299 44.9669 45.3282 44.5262 45.2502 44.0561C45.1722 43.5859 45.2207 43.1034 45.3907 42.6584C47.6087 42.2127 49.6049 41.767 51.3793 43.7726C53.1537 45.7781 50.0485 46.2238 45.8343 45.3325Z" fill="white"/>
<path d="M44.059 43.7732L44.059 41.7676L44.7244 41.7676C45.9307 41.3085 47.2437 41.2115 48.5038 41.4884C49.7639 41.7654 50.9168 42.4043 51.822 43.3275L52.2656 43.7732L51.822 44.4417C50.713 47.5615 49.3822 47.5614 45.168 46.6701L44.7244 46.6701L44.7244 46.4473C44.4171 46.0825 44.1972 45.6517 44.0818 45.1881C43.9665 44.7244 43.9587 44.2403 44.059 43.7732ZM46.277 43.5503L46.277 44.2189C48.9386 44.8874 49.3822 44.8874 49.8258 43.996C48.7417 43.4016 47.4735 43.2423 46.277 43.5503Z" fill="white"/>
<path d="M83.763 53.8008C84.2066 51.7952 84.6502 50.4582 86.6464 50.2354C87.4733 50.2954 88.2913 50.4448 89.0862 50.681C91.0824 51.1267 91.7478 52.6866 90.417 54.2465C89.0862 55.8063 89.7516 57.1434 87.9772 57.8119L85.7592 57.1434C84.872 56.0292 84.872 54.6921 83.763 53.8008ZM87.7554 54.2465C87.9772 54.2465 88.199 54.2465 88.199 54.0236L88.199 53.8008L87.7554 53.8008L87.7554 54.2465Z" fill="white"/>
<path d="M82.6535 54.2464L82.6535 53.5779C83.0971 51.7952 83.7625 49.5668 86.4241 49.1211L87.5331 49.1211C87.9767 49.3439 88.6421 49.3439 89.3075 49.5668C89.9362 49.6637 90.5302 49.9189 91.0344 50.3085C91.5385 50.6981 91.9364 51.2095 92.1909 51.7952C92.3189 52.3481 92.3046 52.9246 92.1493 53.4704C91.9941 54.0163 91.7031 54.5134 91.3037 54.9149L90.8601 56.0291C90.4165 56.9205 89.9729 58.2575 88.4203 58.7032L88.4203 58.926L85.0933 57.8118C84.5036 57.2538 84.0484 56.5678 83.7625 55.8063L83.0971 54.4692L82.6535 54.2464ZM86.6459 51.3495C85.7587 51.5723 85.3151 52.018 85.0933 53.355L85.7587 54.9149L86.4241 56.0291L87.9767 56.4748L88.6421 55.3606C88.2577 55.429 87.8617 55.3495 87.5331 55.1378L86.8677 55.1378L86.2023 52.6865L87.9767 52.6865C88.0969 52.6763 88.2178 52.6908 88.3323 52.7291C88.4467 52.7674 88.5521 52.8287 88.6421 52.9094C88.8551 53.0018 89.0338 53.159 89.1532 53.3589C89.2726 53.5588 89.3265 53.7913 89.3075 54.0236L89.3075 53.5779C89.5293 53.355 89.9729 52.9094 89.7511 52.4637C89.5293 52.018 89.3075 51.7952 88.6421 51.5723C88.042 51.6085 87.4405 51.5329 86.8677 51.3495L86.6459 51.3495ZM87.7549 54.0236L87.0895 53.5779C87.0895 54.0236 87.0895 54.6921 87.7549 54.9149L87.7549 54.0236ZM88.4203 53.1322L87.7549 53.1322L88.4203 53.1322Z" fill="white"/>
<path d="M75.3336 65.3889L76.6644 63.3834C77.6469 63.2671 78.6139 63.0429 79.5478 62.7148C81.9876 63.829 81.9876 63.829 81.544 66.0574C81.1004 68.2858 79.7696 66.0574 79.1042 66.9488C78.4388 67.8401 78.217 68.2858 77.108 68.5087C75.999 68.7315 76.6644 65.8346 75.3336 65.3889Z" fill="white"/>
<path d="M73.7813 66.0574L74.2249 64.9432C74.6068 63.992 75.2163 63.1501 75.9993 62.4919L75.9993 62.2691C76.6647 62.2691 77.1083 62.0463 77.5519 62.0463C77.9617 62.0309 78.3536 61.8734 78.6609 61.6006L79.7699 61.6006C82.4315 62.9376 82.8751 63.3833 82.2097 66.2802L82.2097 66.9487L81.7661 66.9487C81.3462 67.1277 80.8902 67.2041 80.4353 67.1716C79.9917 67.1716 79.7699 67.1716 79.7699 67.3944C79.7699 67.6172 79.5481 67.6172 79.3263 67.8401C78.7668 68.5796 77.9913 69.1249 77.1083 69.4L76.6647 69.4L76.6647 69.1771C76.1796 68.9882 75.7672 68.6485 75.4879 68.2075C75.2086 67.7665 75.0769 67.2474 75.1121 66.7259L75.1121 66.0574L73.7813 66.0574ZM77.3301 64.2747L76.6647 64.9432L77.3301 66.7259L77.3301 67.1716L77.7737 66.7259L78.2173 66.0574C78.5101 65.769 78.8568 65.5418 79.2375 65.3888C79.6182 65.2358 80.0253 65.1601 80.4353 65.166L80.4353 64.4975C80.2135 64.4975 79.7699 64.0518 79.3263 63.829C78.8827 63.6061 78.2173 64.0518 77.7737 64.2747L77.3301 64.2747Z" fill="white"/>
<path d="M74.6687 82.7699C72.8943 80.9872 72.8943 80.9872 72.4507 78.0903C72.0071 75.1934 74.2251 77.4218 74.8905 76.9761C75.5559 76.5304 76.8867 77.8674 76.8867 78.9816C76.6713 80.4881 75.8746 81.8488 74.6687 82.7699Z" fill="white"/>
<path d="M71.1202 77.8681L71.1202 77.4224C71.7263 76.7843 72.4926 76.3224 73.3382 76.0853L74.0036 76.0853L74.4472 75.6397L74.8908 75.6397C75.3179 75.6386 75.7407 75.726 76.1326 75.8965C76.5246 76.0671 76.8773 76.317 77.1688 76.6307C77.4602 76.9445 77.6841 77.3152 77.8264 77.7198C77.9688 78.1244 78.0265 78.5542 77.996 78.9822C77.7302 80.8243 76.7791 82.4966 75.3344 83.6619L74.669 84.1076L74.0036 83.6619C71.7856 81.6563 71.7856 81.4335 71.342 78.3137L71.1202 77.8681ZM75.1126 78.0909C74.669 78.0909 74.4472 78.3137 74.2254 78.3137C74.0036 78.3137 73.7818 78.5366 73.56 78.5366C73.5624 79.5403 73.9613 80.5021 74.669 81.2106C75.2154 80.5708 75.5964 79.8054 75.778 78.9822C75.778 78.5366 75.5562 78.3137 75.1126 78.0909Z" fill="white"/>
<path d="M156.07 123.326C156.735 123.549 157.179 123.772 157.4 124.44C157.351 124.684 157.245 124.912 157.091 125.105C156.937 125.299 156.739 125.453 156.513 125.555C155.947 125.47 155.412 125.239 154.961 124.886C154.946 124.539 155.048 124.197 155.248 123.915C155.449 123.632 155.738 123.425 156.07 123.326Z" fill="white"/>
<path d="M153.851 124.663C153.878 124.152 154.064 123.662 154.382 123.263C154.7 122.863 155.135 122.573 155.626 122.435L156.069 122.435C156.735 122.657 158.065 123.103 158.287 124.44L158.287 124.663C158.235 125.108 158.063 125.53 157.79 125.884C157.516 126.237 157.151 126.509 156.735 126.669C156.081 126.672 155.45 126.434 154.96 126L154.517 126L154.073 125.554L154.073 124.663L153.851 124.663Z" fill="white"/>
<path d="M158.286 120.43C158.952 119.761 159.617 119.984 160.061 119.538C160.504 119.092 160.726 121.098 159.395 122.212C158.065 123.326 158.73 120.875 158.286 120.43Z" fill="white"/>
<path d="M156.955 120.43L157.621 119.761C158.064 118.87 158.73 118.87 159.173 118.647L160.282 117.979L160.948 119.093C162.056 120.875 161.835 121.544 160.282 123.104L159.173 123.104C158.742 122.968 158.362 122.704 158.084 122.345C157.807 121.987 157.645 121.552 157.621 121.098L157.621 120.875L156.955 120.43Z" fill="white"/>
</svg>
