<svg width="30" height="30" viewBox="0 0 30 30" fill="none" xmlns="http://www.w3.org/2000/svg">
<path d="M6.09155 9.63659L12.7827 6.49965C14.2037 5.83345 15.7961 5.83345 17.2171 6.49965L23.9083 9.63664C25.3638 10.319 25.3638 12.6811 23.9083 13.3634L17.2172 16.5003C15.7962 17.1665 14.2038 17.1665 12.7828 16.5003L7.99995 14.2581" stroke="black" stroke-width="1.5" stroke-linecap="round"/>
<path d="M5.5 18V15.1376C5.5 13.8584 5.5 13.2188 5.83032 12.7178C6.16064 12.2169 6.74853 11.9649 7.92432 11.461L9 11" stroke="black" stroke-width="1.5" stroke-linecap="round" stroke-linejoin="round"/>
<path d="M22 14.5V19.6254C22 20.6334 21.4965 21.5772 20.6147 22.0656C19.1463 22.8787 16.796 24 15 24C13.204 24 10.8537 22.8787 9.38533 22.0656C8.5035 21.5772 8 20.6334 8 19.6254V14.5" stroke="black" stroke-width="1.5" stroke-linecap="round"/>
</svg>
