<svg width="30" height="30" viewBox="0 0 30 30" fill="none" xmlns="http://www.w3.org/2000/svg">
<path d="M7.72848 19.1369C6.18295 17.5914 5.41018 16.8186 5.12264 15.816C4.83509 14.8134 5.08083 13.7485 5.57231 11.6188L5.85574 10.3906C6.26922 8.59881 6.47597 7.70292 7.08944 7.08944C7.70292 6.47597 8.59881 6.26922 10.3906 5.85574L11.6188 5.57231C13.7485 5.08083 14.8134 4.83509 15.816 5.12264C16.8186 5.41018 17.5914 6.18295 19.1369 7.72848L20.9665 9.55812C23.6555 12.2471 25 13.5916 25 15.2623C25 16.933 23.6555 18.2775 20.9665 20.9665C18.2775 23.6555 16.933 25 15.2623 25C13.5916 25 12.2471 23.6555 9.55812 20.9665L7.72848 19.1369Z" stroke="black" stroke-width="1.5"/>
<circle cx="11.607" cy="11.8789" r="2" transform="rotate(-45 11.607 11.8789)" stroke="black" stroke-width="1.5"/>
<path d="M14.5417 21.5L21.5208 14.5208" stroke="black" stroke-width="1.5" stroke-linecap="round"/>
</svg>
