<svg width="126" height="126" viewBox="0 0 126 126" fill="none" xmlns="http://www.w3.org/2000/svg">
<g clip-path="url(#clip0_263_7099)">
<path d="M106.858 52.0702C107.745 50.76 108.262 49.1799 108.262 47.4789C108.262 43.5205 105.459 40.2171 101.73 39.4444C101.422 17.6078 83.6276 0 61.7177 0C39.8079 0 22.0134 17.6078 21.7055 39.4446C17.976 40.2171 15.173 43.5205 15.173 47.4791C15.173 49.1801 15.6905 50.76 16.5769 52.0705C13.4328 55.0293 11.4668 59.2257 11.4668 63.8837C11.4668 71.7654 17.0881 78.3319 24.5398 79.7989C23.8202 81.2823 23.4164 82.9474 23.4164 84.7067C23.4164 90.9267 28.4586 95.9692 34.6786 95.9692H88.7567C94.9767 95.9692 100.019 90.9267 100.019 84.7067C100.019 82.9471 99.6149 81.2823 98.8955 79.7989C106.347 78.3319 111.969 71.7656 111.969 63.8837C111.969 59.2257 110.002 55.0293 106.858 52.0702Z" fill="#596C76"/>
<path d="M65.1553 95.9694H34.6793C31.5687 95.9694 28.7519 94.7094 26.7138 92.671C24.6756 90.6326 23.4154 87.8186 23.4154 84.7079C23.4154 82.9486 23.8209 81.2828 24.541 79.7998C20.8142 79.0672 17.5463 77.0566 15.2089 74.2477C12.8713 71.4361 11.4668 67.8259 11.4668 63.8837C11.4668 59.2266 13.4316 55.0283 16.5777 52.0695C16.134 51.4154 15.7816 50.6928 15.5433 49.9221C15.3024 49.1489 15.1732 48.3299 15.1732 47.4781C15.1732 43.5207 17.9747 40.2174 21.7065 39.4441C21.8613 28.525 26.384 18.6655 33.6118 11.5339C40.8371 4.40236 50.7626 0.0012207 61.7172 0.0012207C65.2816 0.0012207 68.7372 0.467814 72.0253 1.33972C65.2056 3.15491 59.1007 6.72204 54.2256 11.5339C47.0003 18.6655 42.4749 28.525 42.3203 39.4441C42.3203 39.4441 43.5023 47.7631 42.4635 48.6655L65.1553 95.9694Z" fill="#465A61"/>
<path d="M86.0515 112.332V124.313C86.0515 125.246 85.2985 125.999 84.3656 125.999H39.0688C38.141 125.999 37.3828 125.246 37.3828 124.313V112.332C37.3828 107.086 39.2691 102.285 42.3975 98.5629C44.0377 96.6133 46.0202 94.9603 48.2513 93.6951C51.3619 91.9282 54.962 90.9192 58.7952 90.9192H64.6389C68.4773 90.9192 72.0746 91.9282 75.188 93.6927C77.4164 94.9578 79.3989 96.6106 81.0366 98.5629C84.1677 102.285 86.0515 107.086 86.0515 112.332Z" fill="#97DA7B"/>
<path d="M61.7177 116.886C60.6676 116.886 59.8164 116.034 59.8164 114.984V100.249C59.8164 99.1986 60.6676 98.3474 61.7177 98.3474C62.7678 98.3474 63.619 99.1986 63.619 100.249V114.984C63.619 116.034 62.7678 116.886 61.7177 116.886Z" fill="#80D261"/>
<path d="M68.3766 91.2453C58.3328 93.0115 50.7002 101.782 50.7002 112.332V125.999H39.0712C38.1398 125.999 37.3848 125.244 37.3848 124.312V112.332C37.3848 100.507 46.9711 90.9202 58.7964 90.9202H64.6414C65.9149 90.9202 67.1643 91.0321 68.3766 91.2453Z" fill="#80D261"/>
<path d="M75.1882 93.6936C75.1429 101.092 69.1274 107.078 61.7182 107.078C58.1961 107.078 54.9939 105.725 52.5935 103.513C49.9426 101.073 48.2751 97.5804 48.251 93.696C50.4383 92.4518 52.8679 91.586 55.4495 91.1812V80.8391H68.0935V91.1972C70.6376 91.6074 73.0302 92.468 75.1882 93.6936Z" fill="#FFDFCF"/>
<path d="M87.572 43.7656C89.5868 42.7202 91.9874 42.4195 94.3364 43.097C99.1955 44.501 101.997 49.5818 100.593 54.4439C99.1864 59.303 93.2637 65.0249 88.4018 63.618C88.0371 63.5117 87.6877 63.3687 87.3535 63.1896H36.0828C35.7486 63.369 35.3992 63.5117 35.0344 63.618C30.1724 65.0249 24.2499 59.303 22.8459 54.4439C21.439 49.5818 24.2408 44.501 29.0996 43.097C31.4486 42.4193 33.8493 42.7202 35.864 43.7656H87.572Z" fill="#FFCEBF"/>
<path d="M87.571 40.0192V59.8005C87.571 71.8797 79.2882 82.022 68.0934 84.8619C66.0526 85.3787 63.9187 85.6531 61.7181 85.6531C47.441 85.6531 38.4005 74.0801 38.4005 59.8005L35.8652 40.9758C35.8652 39.5504 37.216 38.5141 38.5907 38.8896C40.8553 39.5078 44.3798 40.2218 48.6131 40.235C55.6812 40.2537 64.7232 38.3143 73.1391 30.6869C73.8931 30.0022 75.0731 30.1728 75.6086 31.0385C77.0367 33.3456 80.1749 37.1421 85.663 37.8748C86.7505 38.0209 87.571 38.9241 87.571 40.0192Z" fill="#FFDFCF"/>
<path d="M68.0934 84.8621C66.0526 85.3789 63.9187 85.6532 61.7181 85.6532C47.441 85.6532 35.8652 74.0802 35.8652 59.8006V40.9759C35.8652 39.5505 37.216 38.5142 38.5907 38.8898C40.8553 39.508 44.3798 40.2219 48.6131 40.2352V59.8006C48.6131 71.8796 56.8959 82.0246 68.0934 84.8621Z" fill="#FFCEBF"/>
<path d="M51.7685 53.0463C50.7184 53.0463 49.8672 52.1951 49.8672 51.145V47.7915C49.8672 46.7414 50.7184 45.8901 51.7685 45.8901C52.8186 45.8901 53.6698 46.7414 53.6698 47.7915V51.145C53.6698 52.1948 52.8186 53.0463 51.7685 53.0463Z" fill="#465A61"/>
<path d="M71.6689 53.0463C70.6188 53.0463 69.7676 52.1951 69.7676 51.145V47.7915C69.7676 46.7414 70.6188 45.8901 71.6689 45.8901C72.719 45.8901 73.5702 46.7414 73.5702 47.7915V51.145C73.5702 52.1948 72.719 53.0463 71.6689 53.0463Z" fill="#465A61"/>
<path d="M33.3303 58.6422C32.2803 58.6422 31.429 57.791 31.429 56.7409C31.429 54.7433 30.0839 52.9877 28.1577 52.4717C27.1433 52.1997 26.5416 51.157 26.8133 50.1429C27.0852 49.1285 28.1282 48.528 29.1421 48.7985C32.7277 49.7592 35.2319 53.0254 35.2319 56.7411C35.2319 57.7907 34.3807 58.6422 33.3303 58.6422Z" fill="#FFB09E"/>
<path d="M90.1064 58.6423C89.0563 58.6423 88.2051 57.791 88.2051 56.741C88.2051 53.0252 90.7093 49.7593 94.2949 48.7983C95.3098 48.5268 96.352 49.1285 96.6237 50.1427C96.8954 51.1571 96.2934 52.1998 95.2793 52.4715C93.3534 52.9875 92.008 54.7432 92.008 56.7407C92.0077 57.7908 91.1565 58.6423 90.1064 58.6423Z" fill="#FFB09E"/>
<path d="M61.7181 69.5826C58.8021 69.5826 55.8862 68.4728 53.6664 66.2528C52.9237 65.5103 52.9237 64.3064 53.6664 63.5637C54.4089 62.8212 55.6128 62.8212 56.3555 63.5637C59.3125 66.5205 64.1237 66.5205 67.081 63.5637C67.8234 62.8212 69.0273 62.8212 69.77 63.5637C70.5128 64.3061 70.5128 65.51 69.77 66.2528C67.55 68.4725 64.6341 69.5826 61.7181 69.5826Z" fill="#FE646F"/>
<path d="M60.2928 81.9924V94.4738C56.9494 96.6931 54.2638 99.8234 52.5935 103.513C49.9426 101.073 48.2751 97.5803 48.251 93.6959C50.4383 92.4517 52.8679 91.5859 55.4495 91.1811V81.9924H60.2928Z" fill="#FFCEBF"/>
<path d="M117.118 92.1934L100.956 95.9699L84.7937 92.1934C82.0082 91.5425 79.3428 93.6567 79.3428 96.5175V121.558C79.3428 124.011 81.331 125.999 83.7833 125.999H118.128C120.58 125.999 122.569 124.011 122.569 121.558V96.5175C122.569 93.6569 119.903 91.5427 117.118 92.1934Z" fill="#FD8087"/>
<path d="M90.3685 126H83.7845C81.3305 126 79.3428 124.012 79.3428 121.558V96.5179C79.3428 93.6583 82.0072 91.5438 84.7935 92.1953L87.8027 92.8976C86.6796 93.691 85.9292 94.9993 85.9292 96.5179V121.558C85.9295 124.012 87.9169 126 90.3685 126Z" fill="#FE646F"/>
<path d="M107.401 106.155C106.538 106.155 105.756 105.563 105.551 104.686C105.312 103.664 105.948 102.641 106.97 102.402L116.686 100.132C117.708 99.8926 118.731 100.528 118.97 101.551C119.209 102.573 118.574 103.596 117.551 103.835L107.836 106.105C107.69 106.139 107.544 106.155 107.401 106.155Z" fill="#596C76"/>
<path d="M101.056 113.376H97.1776C93.6725 113.376 90.8311 116.218 90.8311 119.723V125.998H107.402V119.723C107.402 116.218 104.561 113.376 101.056 113.376Z" fill="#FFDFCF"/>
<path d="M102.107 113.467C99.113 113.974 96.8312 116.583 96.8312 119.722V125.999H90.8125V119.722C90.8125 116.218 93.6544 113.376 97.158 113.376H101.037C101.402 113.376 101.76 113.406 102.107 113.467Z" fill="#FFCEBF"/>
<path d="M29.8698 113.204C29.2459 113.204 28.6346 112.897 28.2709 112.334L3.73513 74.355C3.16542 73.473 3.4184 72.2959 4.3004 71.726C5.18265 71.1565 6.35947 71.4093 6.92942 72.2913L31.4652 110.27C32.0349 111.152 31.7819 112.329 30.8999 112.899C30.5808 113.105 30.2234 113.204 29.8698 113.204Z" fill="#2ED1E2"/>
<path d="M34.7699 110.77H32.4318C28.872 110.77 25.9863 113.655 25.9863 117.215V119.553C25.9863 123.113 28.872 125.999 32.4318 125.999H34.7699C38.3297 125.999 41.2153 123.113 41.2153 119.553V117.215C41.2153 113.655 38.3294 110.77 34.7699 110.77Z" fill="#FFDFCF"/>
<path d="M36.3934 125.793C35.8761 125.927 35.3312 125.998 34.7709 125.998H32.4335C28.874 125.998 25.9863 123.113 25.9863 119.553V117.213C25.9863 113.654 28.874 110.769 32.4335 110.769H34.7709C35.3312 110.769 35.8763 110.84 36.3934 110.974C33.6199 111.694 31.5714 114.214 31.5714 117.213V119.553C31.5712 122.553 33.6197 125.073 36.3934 125.793Z" fill="#FFCEBF"/>
</g>
<defs>
<clipPath id="clip0_263_7099">
<rect width="126" height="126" fill="white"/>
</clipPath>
</defs>
</svg>
