<svg width="48" height="48" viewBox="0 0 48 48" fill="none" xmlns="http://www.w3.org/2000/svg">
<path fill-rule="evenodd" clip-rule="evenodd" d="M24.0683 3.36315C34.5767 3.47313 42.0074 11.8446 45.0693 21.0741C47.9355 29.7134 45.7422 39.3617 37.7638 44.6446C29.8625 49.8765 19.2605 48.6302 11.3637 43.3925C3.39364 38.1062 -1.21055 29.285 1.54004 20.6185C4.56471 11.0884 13.2569 3.25 24.0683 3.36315Z" fill="url(#paint0_linear_336_4381)"/>
<path fill-rule="evenodd" clip-rule="evenodd" d="M24.9254 2.06075C35.1284 2.16753 42.343 10.2956 45.316 19.2569C48.0989 27.645 45.9693 37.0129 38.2228 42.1423C30.5512 47.2221 20.2574 46.012 12.5901 40.9265C4.85167 35.7939 0.381306 27.2291 3.05195 18.8145C5.9887 9.56149 14.4282 1.95088 24.9254 2.06075Z" stroke="url(#paint1_linear_336_4381)" stroke-width="2.44565"/>
<mask id="mask0_336_4381" style="mask-type:alpha" maskUnits="userSpaceOnUse" x="1" y="3" width="45" height="44">
<path fill-rule="evenodd" clip-rule="evenodd" d="M24.0433 3.5943C34.0794 3.69933 41.1761 11.6945 44.1004 20.5092C46.8378 28.7602 44.7431 37.9749 37.1233 43.0204C29.577 48.0172 19.4516 46.8268 11.9097 41.8245C4.29782 36.7758 -0.099439 28.3511 2.52754 20.0741C5.41626 10.9724 13.7178 3.48623 24.0433 3.5943Z" fill="#C4C4C4"/>
</mask>
<g mask="url(#mask0_336_4381)">
<rect x="-4.27734" y="3.32849" width="57.2026" height="42.0238" fill="white"/>
</g>
<g clip-path="url(#clip0_336_4381)">
<path d="M30.6374 19.6621C32.8917 21.2727 35.6533 22.2203 38.6359 22.2203V16.484C38.0714 16.4841 37.5084 16.4252 36.9561 16.3082V20.8236C33.9738 20.8236 31.2125 19.8761 28.9578 18.2656V29.972C28.9578 35.8282 24.2079 40.5752 18.3492 40.5752C16.1631 40.5752 14.1312 39.9147 12.4434 38.7817C14.3698 40.7506 17.0564 41.9718 20.0285 41.9718C25.8877 41.9718 30.6377 37.2248 30.6377 31.3684V19.6621H30.6374ZM32.7097 13.8748C31.5576 12.6168 30.8011 10.9911 30.6374 9.19383V8.45605H29.0457C29.4464 10.7403 30.8132 12.6919 32.7097 13.8748ZM16.149 34.288C15.5054 33.4445 15.1574 32.4126 15.159 31.3516C15.159 28.6733 17.3315 26.5016 20.0119 26.5016C20.5114 26.5013 21.0079 26.578 21.484 26.7288V20.8642C20.9276 20.788 20.3662 20.7555 19.8049 20.7675V25.3322C19.3286 25.1812 18.8319 25.1046 18.3322 25.1051C15.6519 25.1051 13.4795 27.2765 13.4795 29.9552C13.4795 31.8493 14.5653 33.4891 16.149 34.288Z" fill="#FF004F"/>
<path d="M28.9579 18.2655C31.2127 19.876 33.9737 20.8235 36.9562 20.8235V16.3081C35.2914 15.9537 33.8177 15.0842 32.7096 13.8748C30.813 12.6918 29.4464 10.7402 29.0458 8.45605H24.8647V31.3681C24.8552 34.0392 22.6864 36.202 20.0118 36.202C18.4358 36.202 17.0356 35.4512 16.1489 34.2879C14.5654 33.4891 13.4794 31.8492 13.4794 29.9553C13.4794 27.2769 15.6519 25.1052 18.3321 25.1052C18.8457 25.1052 19.3406 25.1851 19.8049 25.3323V20.7676C14.049 20.8865 9.41992 25.5871 9.41992 31.3683C9.41992 34.2542 10.5726 36.8704 12.4436 38.782C14.1314 39.9147 16.1632 40.5754 18.3494 40.5754C24.2083 40.5754 28.958 35.8281 28.958 29.972V18.2656L28.9579 18.2655Z" fill="black"/>
<path d="M36.9562 16.308V15.0874C35.4549 15.0896 33.9833 14.6694 32.7096 13.8748C33.8371 15.1085 35.3217 15.9593 36.9562 16.3083V16.308ZM29.0456 8.45595C29.0074 8.2377 28.9781 8.01798 28.9577 7.79735V7.05957H23.1846V29.9719C23.1755 32.6428 21.0067 34.8055 18.332 34.8055C17.5737 34.8066 16.8258 34.6294 16.1487 34.2881C17.0354 35.4512 18.4356 36.2019 20.0116 36.2019C22.6861 36.2019 24.8551 34.0394 24.8645 31.3683V8.45607H29.0456V8.45595ZM19.8051 20.7675V19.4678C19.3227 19.4019 18.8364 19.3689 18.3495 19.3691C12.49 19.3691 7.74023 24.1163 7.74023 29.9719C7.74023 33.6432 9.60694 36.8786 12.4436 38.7818C10.5727 36.8703 9.41999 34.254 9.41999 31.3682C9.41999 25.5871 14.0489 20.8864 19.8051 20.7675Z" fill="#00F2EA"/>
</g>
<defs>
<linearGradient id="paint0_linear_336_4381" x1="23.5057" y1="3.36194" x2="23.5057" y2="48" gradientUnits="userSpaceOnUse">
<stop stop-color="#EEAC1F"/>
<stop offset="0.9999" stop-color="#E97D24"/>
<stop offset="1" stop-color="#EEAC1F" stop-opacity="0"/>
</linearGradient>
<linearGradient id="paint1_linear_336_4381" x1="24.3791" y1="2.05957" x2="24.3791" y2="45.4002" gradientUnits="userSpaceOnUse">
<stop stop-color="#EEAC1F"/>
<stop offset="0.9999" stop-color="#E97D24"/>
<stop offset="1" stop-color="#EEAC1F" stop-opacity="0"/>
</linearGradient>
<clipPath id="clip0_336_4381">
<rect width="30.8966" height="35" fill="white" transform="translate(7.74023 7.05957)"/>
</clipPath>
</defs>
</svg>
