<svg width="47" height="48" viewBox="0 0 47 48" fill="none" xmlns="http://www.w3.org/2000/svg">
<path fill-rule="evenodd" clip-rule="evenodd" d="M23.3261 3.36315C33.8345 3.47313 41.2652 11.8446 44.3271 21.0741C47.1933 29.7134 45 39.3617 37.0216 44.6446C29.1203 49.8765 18.5183 48.6302 10.6215 43.3925C2.65145 38.1062 -1.95274 29.285 0.797857 20.6185C3.82252 11.0884 12.5147 3.25 23.3261 3.36315Z" fill="url(#paint0_linear_336_4371)"/>
<path fill-rule="evenodd" clip-rule="evenodd" d="M24.1832 2.06075C34.3862 2.16753 41.6008 10.2956 44.5738 19.2569C47.3567 27.645 45.2271 37.0129 37.4806 42.1423C29.809 47.2221 19.5152 46.012 11.8479 40.9265C4.10948 35.7939 -0.360881 27.2291 2.30977 18.8145C5.24652 9.56149 13.686 1.95088 24.1832 2.06075Z" stroke="url(#paint1_linear_336_4371)" stroke-width="2.44565"/>
<mask id="mask0_336_4371" style="mask-type:alpha" maskUnits="userSpaceOnUse" x="1" y="3" width="44" height="44">
<path fill-rule="evenodd" clip-rule="evenodd" d="M23.3011 3.5943C33.3372 3.69933 40.4339 11.6945 43.3583 20.5092C46.0956 28.7602 44.0009 37.9749 36.3811 43.0204C28.8349 48.0172 18.7094 46.8268 11.1675 41.8245C3.55563 36.7758 -0.841627 28.3511 1.78535 20.0741C4.67407 10.9724 12.9756 3.48623 23.3011 3.5943Z" fill="#C4C4C4"/>
</mask>
<g mask="url(#mask0_336_4371)">
<rect x="-5.01953" y="3.32849" width="57.2026" height="42.0238" fill="white"/>
</g>
<g clip-path="url(#clip0_336_4371)">
<path d="M40.2251 16.8979C40.0243 16.1561 39.6327 15.4797 39.0893 14.9362C38.5458 14.3927 37.8695 14.0011 37.1276 13.8003C34.4115 13.0596 23.4803 13.0596 23.4803 13.0596C23.4803 13.0596 12.5485 13.082 9.83249 13.8227C9.09058 14.0235 8.41423 14.4152 7.87077 14.9587C7.32731 15.5022 6.93572 16.1786 6.73499 16.9205C5.91344 21.7464 5.59475 29.1 6.75755 33.7328C6.9583 34.4747 7.3499 35.1511 7.89336 35.6946C8.43681 36.238 9.11316 36.6297 9.85505 36.8305C12.5711 37.5712 23.5026 37.5712 23.5026 37.5712C23.5026 37.5712 34.4339 37.5712 37.1499 36.8305C37.8918 36.6297 38.5681 36.2381 39.1116 35.6946C39.6551 35.1511 40.0467 34.4747 40.2475 33.7328C41.114 28.9001 41.381 21.551 40.2251 16.8979Z" fill="#FF0000"/>
<path d="M20 30.5678L29.0683 25.3153L20 20.0629V30.5678Z" fill="white"/>
</g>
<defs>
<linearGradient id="paint0_linear_336_4371" x1="22.7635" y1="3.36194" x2="22.7635" y2="48" gradientUnits="userSpaceOnUse">
<stop stop-color="#EEAC1F"/>
<stop offset="0.9999" stop-color="#E97D24"/>
<stop offset="1" stop-color="#EEAC1F" stop-opacity="0"/>
</linearGradient>
<linearGradient id="paint1_linear_336_4371" x1="23.6369" y1="2.05957" x2="23.6369" y2="45.4002" gradientUnits="userSpaceOnUse">
<stop stop-color="#EEAC1F"/>
<stop offset="0.9999" stop-color="#E97D24"/>
<stop offset="1" stop-color="#EEAC1F" stop-opacity="0"/>
</linearGradient>
<clipPath id="clip0_336_4371">
<rect width="35" height="24.6094" fill="white" transform="translate(5.99805 13.0596)"/>
</clipPath>
</defs>
</svg>
